%TF.GenerationSoftware,KiCad,Pcbnew,6.0.5-a6ca702e91~116~ubuntu22.04.1*%
%TF.CreationDate,2022-06-05T12:33:17+01:00*%
%TF.ProjectId,gba-cart-pga,6762612d-6361-4727-942d-7067612e6b69,rev?*%
%TF.SameCoordinates,Original*%
%TF.FileFunction,Paste,Top*%
%TF.FilePolarity,Positive*%
%FSLAX46Y46*%
G04 Gerber Fmt 4.6, Leading zero omitted, Abs format (unit mm)*
G04 Created by KiCad (PCBNEW 6.0.5-a6ca702e91~116~ubuntu22.04.1) date 2022-06-05 12:33:17*
%MOMM*%
%LPD*%
G01*
G04 APERTURE LIST*
G04 Aperture macros list*
%AMRoundRect*
0 Rectangle with rounded corners*
0 $1 Rounding radius*
0 $2 $3 $4 $5 $6 $7 $8 $9 X,Y pos of 4 corners*
0 Add a 4 corners polygon primitive as box body*
4,1,4,$2,$3,$4,$5,$6,$7,$8,$9,$2,$3,0*
0 Add four circle primitives for the rounded corners*
1,1,$1+$1,$2,$3*
1,1,$1+$1,$4,$5*
1,1,$1+$1,$6,$7*
1,1,$1+$1,$8,$9*
0 Add four rect primitives between the rounded corners*
20,1,$1+$1,$2,$3,$4,$5,0*
20,1,$1+$1,$4,$5,$6,$7,0*
20,1,$1+$1,$6,$7,$8,$9,0*
20,1,$1+$1,$8,$9,$2,$3,0*%
G04 Aperture macros list end*
%ADD10RoundRect,0.250000X-0.450000X0.350000X-0.450000X-0.350000X0.450000X-0.350000X0.450000X0.350000X0*%
%ADD11R,1.000000X2.400000*%
%ADD12R,6.000000X3.000000*%
%ADD13R,0.300000X1.150000*%
G04 APERTURE END LIST*
D10*
%TO.C,R2*%
X114300000Y-93345000D03*
X114300000Y-95345000D03*
%TD*%
D11*
%TO.C,J3*%
X157870000Y-119500000D03*
X156370000Y-119500000D03*
X154870000Y-119500000D03*
X153370000Y-119500000D03*
X151870000Y-119500000D03*
X150370000Y-119500000D03*
X148870000Y-119500000D03*
X147370000Y-119500000D03*
X145870000Y-119500000D03*
X144370000Y-119500000D03*
X142870000Y-119500000D03*
X141370000Y-119500000D03*
X139870000Y-119500000D03*
X138370000Y-119500000D03*
X136870000Y-119500000D03*
X135370000Y-119500000D03*
X133870000Y-119500000D03*
X132370000Y-119500000D03*
X130870000Y-119500000D03*
X129370000Y-119500000D03*
X127870000Y-119500000D03*
X126370000Y-119500000D03*
X124870000Y-119500000D03*
X123370000Y-119500000D03*
X121870000Y-119500000D03*
X120370000Y-119500000D03*
X118870000Y-119500000D03*
X117370000Y-119500000D03*
X115870000Y-119500000D03*
X114370000Y-119500000D03*
X112870000Y-119500000D03*
X111370000Y-119500000D03*
D12*
X147620000Y-139700000D03*
X121620000Y-139700000D03*
%TD*%
D10*
%TO.C,R1*%
X110220000Y-93345000D03*
X110220000Y-95345000D03*
%TD*%
D13*
%TO.C,J1*%
X115110000Y-88760000D03*
X114310000Y-88760000D03*
X113010000Y-88760000D03*
X112010000Y-88760000D03*
X111510000Y-88760000D03*
X110510000Y-88760000D03*
X109210000Y-88760000D03*
X108410000Y-88760000D03*
X108710000Y-88760000D03*
X109510000Y-88760000D03*
X110010000Y-88760000D03*
X111010000Y-88760000D03*
X112510000Y-88760000D03*
X113510000Y-88760000D03*
X114010000Y-88760000D03*
X114810000Y-88760000D03*
%TD*%
M02*
