%TF.GenerationSoftware,KiCad,Pcbnew,6.0.5-a6ca702e91~116~ubuntu22.04.1*%
%TF.CreationDate,2022-06-05T12:33:17+01:00*%
%TF.ProjectId,gba-cart-pga,6762612d-6361-4727-942d-7067612e6b69,rev?*%
%TF.SameCoordinates,Original*%
%TF.FileFunction,Copper,L1,Top*%
%TF.FilePolarity,Positive*%
%FSLAX46Y46*%
G04 Gerber Fmt 4.6, Leading zero omitted, Abs format (unit mm)*
G04 Created by KiCad (PCBNEW 6.0.5-a6ca702e91~116~ubuntu22.04.1) date 2022-06-05 12:33:17*
%MOMM*%
%LPD*%
G01*
G04 APERTURE LIST*
G04 Aperture macros list*
%AMRoundRect*
0 Rectangle with rounded corners*
0 $1 Rounding radius*
0 $2 $3 $4 $5 $6 $7 $8 $9 X,Y pos of 4 corners*
0 Add a 4 corners polygon primitive as box body*
4,1,4,$2,$3,$4,$5,$6,$7,$8,$9,$2,$3,0*
0 Add four circle primitives for the rounded corners*
1,1,$1+$1,$2,$3*
1,1,$1+$1,$4,$5*
1,1,$1+$1,$6,$7*
1,1,$1+$1,$8,$9*
0 Add four rect primitives between the rounded corners*
20,1,$1+$1,$2,$3,$4,$5,0*
20,1,$1+$1,$4,$5,$6,$7,0*
20,1,$1+$1,$6,$7,$8,$9,0*
20,1,$1+$1,$8,$9,$2,$3,0*%
G04 Aperture macros list end*
%TA.AperFunction,SMDPad,CuDef*%
%ADD10RoundRect,0.250000X-0.450000X0.350000X-0.450000X-0.350000X0.450000X-0.350000X0.450000X0.350000X0*%
%TD*%
%TA.AperFunction,SMDPad,CuDef*%
%ADD11R,1.000000X2.400000*%
%TD*%
%TA.AperFunction,SMDPad,CuDef*%
%ADD12R,6.000000X3.000000*%
%TD*%
%TA.AperFunction,ComponentPad*%
%ADD13R,1.700000X1.700000*%
%TD*%
%TA.AperFunction,ComponentPad*%
%ADD14O,1.700000X1.700000*%
%TD*%
%TA.AperFunction,SMDPad,CuDef*%
%ADD15R,0.300000X1.150000*%
%TD*%
%TA.AperFunction,ComponentPad*%
%ADD16O,1.000000X2.100000*%
%TD*%
%TA.AperFunction,ComponentPad*%
%ADD17O,1.000000X1.600000*%
%TD*%
%TA.AperFunction,ComponentPad*%
%ADD18C,1.778000*%
%TD*%
%TA.AperFunction,ViaPad*%
%ADD19C,0.800000*%
%TD*%
%TA.AperFunction,Conductor*%
%ADD20C,0.250000*%
%TD*%
G04 APERTURE END LIST*
D10*
%TO.P,R2,1*%
%TO.N,Net-(J1-PadA5)*%
X114300000Y-93345000D03*
%TO.P,R2,2*%
%TO.N,GND*%
X114300000Y-95345000D03*
%TD*%
D11*
%TO.P,J3,1,VDD*%
%TO.N,+3V3*%
X157870000Y-119500000D03*
%TO.P,J3,2,PHI*%
%TO.N,unconnected-(J3-Pad2)*%
X156370000Y-119500000D03*
%TO.P,J3,3,~{WR}*%
%TO.N,/WR*%
X154870000Y-119500000D03*
%TO.P,J3,4,~{RD}*%
%TO.N,/RD*%
X153370000Y-119500000D03*
%TO.P,J3,5,~{CS1}/~{CS}*%
%TO.N,/CS1*%
X151870000Y-119500000D03*
%TO.P,J3,6,AD0/A0*%
%TO.N,/AD0*%
X150370000Y-119500000D03*
%TO.P,J3,7,AD1/A1*%
%TO.N,/AD1*%
X148870000Y-119500000D03*
%TO.P,J3,8,AD2/A2*%
%TO.N,/AD2*%
X147370000Y-119500000D03*
%TO.P,J3,9,AD3/A3*%
%TO.N,/AD3*%
X145870000Y-119500000D03*
%TO.P,J3,10,AD4/A4*%
%TO.N,/AD4*%
X144370000Y-119500000D03*
%TO.P,J3,11,AD5/A5*%
%TO.N,/AD5*%
X142870000Y-119500000D03*
%TO.P,J3,12,AD6/A6*%
%TO.N,/AD6*%
X141370000Y-119500000D03*
%TO.P,J3,13,AD7/A7*%
%TO.N,/AD7*%
X139870000Y-119500000D03*
%TO.P,J3,14,AD8/A8*%
%TO.N,/AD8*%
X138370000Y-119500000D03*
%TO.P,J3,15,AD9/A9*%
%TO.N,/AD9*%
X136870000Y-119500000D03*
%TO.P,J3,16,AD10/A10*%
%TO.N,/AD10*%
X135370000Y-119500000D03*
%TO.P,J3,17,AD11/A11*%
%TO.N,/AD11*%
X133870000Y-119500000D03*
%TO.P,J3,18,AD12/A12*%
%TO.N,/AD12*%
X132370000Y-119500000D03*
%TO.P,J3,19,AD13/A13*%
%TO.N,/AD13*%
X130870000Y-119500000D03*
%TO.P,J3,20,AD14/A14*%
%TO.N,/AD14*%
X129370000Y-119500000D03*
%TO.P,J3,21,AD15/A15*%
%TO.N,/AD15*%
X127870000Y-119500000D03*
%TO.P,J3,22,A16/D0*%
%TO.N,/A16*%
X126370000Y-119500000D03*
%TO.P,J3,23,A17/D1*%
%TO.N,/A17*%
X124870000Y-119500000D03*
%TO.P,J3,24,A18/D2*%
%TO.N,/A18*%
X123370000Y-119500000D03*
%TO.P,J3,25,A19/D3*%
%TO.N,/A19*%
X121870000Y-119500000D03*
%TO.P,J3,26,A20/D4*%
%TO.N,/A20*%
X120370000Y-119500000D03*
%TO.P,J3,27,A21/D5*%
%TO.N,/A21*%
X118870000Y-119500000D03*
%TO.P,J3,28,A22/D6*%
%TO.N,/A22*%
X117370000Y-119500000D03*
%TO.P,J3,29,A23/D7*%
%TO.N,/A23*%
X115870000Y-119500000D03*
%TO.P,J3,30,~{CS2}/~{RES}*%
%TO.N,/CS2*%
X114370000Y-119500000D03*
%TO.P,J3,31,~{REQ}/VIN*%
%TO.N,unconnected-(J3-Pad31)*%
X112870000Y-119500000D03*
%TO.P,J3,32,GND*%
%TO.N,GND*%
X111370000Y-119500000D03*
D12*
%TO.P,J3,MP*%
%TO.N,unconnected-(J3-PadMP)*%
X147620000Y-139700000D03*
X121620000Y-139700000D03*
%TD*%
D10*
%TO.P,R1,1*%
%TO.N,Net-(J1-PadB5)*%
X110220000Y-93345000D03*
%TO.P,R1,2*%
%TO.N,GND*%
X110220000Y-95345000D03*
%TD*%
D13*
%TO.P,J2,1,Pin_1*%
%TO.N,Net-(J2-Pad1)*%
X138430000Y-83820000D03*
D14*
%TO.P,J2,2,Pin_2*%
%TO.N,GND*%
X140970000Y-83820000D03*
%TO.P,J2,3,Pin_3*%
%TO.N,Net-(J2-Pad3)*%
X143510000Y-83820000D03*
%TD*%
D15*
%TO.P,J1,A1,GND*%
%TO.N,GND*%
X115110000Y-88760000D03*
%TO.P,J1,A4,VBUS*%
%TO.N,VBUS*%
X114310000Y-88760000D03*
%TO.P,J1,A5,CC1*%
%TO.N,Net-(J1-PadA5)*%
X113010000Y-88760000D03*
%TO.P,J1,A6,D+*%
%TO.N,Net-(J1-PadA6)*%
X112010000Y-88760000D03*
%TO.P,J1,A7,D-*%
%TO.N,Net-(J1-PadA7)*%
X111510000Y-88760000D03*
%TO.P,J1,A8,SBU1*%
%TO.N,unconnected-(J1-PadA8)*%
X110510000Y-88760000D03*
%TO.P,J1,A9,VBUS*%
%TO.N,VBUS*%
X109210000Y-88760000D03*
%TO.P,J1,A12,GND*%
%TO.N,GND*%
X108410000Y-88760000D03*
%TO.P,J1,B1,GND*%
X108710000Y-88760000D03*
%TO.P,J1,B4,VBUS*%
%TO.N,VBUS*%
X109510000Y-88760000D03*
%TO.P,J1,B5,CC2*%
%TO.N,Net-(J1-PadB5)*%
X110010000Y-88760000D03*
%TO.P,J1,B6,D+*%
%TO.N,Net-(J1-PadA6)*%
X111010000Y-88760000D03*
%TO.P,J1,B7,D-*%
%TO.N,Net-(J1-PadA7)*%
X112510000Y-88760000D03*
%TO.P,J1,B8,SBU2*%
%TO.N,unconnected-(J1-PadB8)*%
X113510000Y-88760000D03*
%TO.P,J1,B9,VBUS*%
%TO.N,VBUS*%
X114010000Y-88760000D03*
%TO.P,J1,B12,GND*%
%TO.N,GND*%
X114810000Y-88760000D03*
D16*
%TO.P,J1,S1,SHIELD*%
X116080000Y-88195000D03*
D17*
X107440000Y-84015000D03*
D16*
X107440000Y-88195000D03*
D17*
X116080000Y-84015000D03*
%TD*%
D18*
%TO.P,U1,A1,GND*%
%TO.N,GND*%
X125730000Y-92710000D03*
%TO.P,U1,A2,VBUS*%
%TO.N,VBUS*%
X128270000Y-92710000D03*
%TO.P,U1,A3,3v3_EN*%
%TO.N,unconnected-(U1-PadA3)*%
X130810000Y-92710000D03*
%TO.P,U1,A4,RUN*%
%TO.N,unconnected-(U1-PadA4)*%
X133350000Y-92710000D03*
%TO.P,U1,A5,USB_DP*%
%TO.N,Net-(J1-PadA6)*%
X135890000Y-92710000D03*
%TO.P,U1,A6,USB_DM*%
%TO.N,Net-(J1-PadA7)*%
X138430000Y-92710000D03*
%TO.P,U1,A7,BOOTSEL*%
%TO.N,unconnected-(U1-PadA7)*%
X140970000Y-92710000D03*
%TO.P,U1,A8,GND*%
%TO.N,GND*%
X143510000Y-92710000D03*
%TO.P,U1,B1,GPIO0*%
%TO.N,/AD0*%
X125730000Y-95250000D03*
%TO.P,U1,B2,GND*%
%TO.N,unconnected-(U1-PadB2)*%
X128270000Y-95250000D03*
%TO.P,U1,B3,3V3*%
%TO.N,+3V3*%
X130810000Y-95250000D03*
%TO.P,U1,B4,ADC_REF*%
%TO.N,unconnected-(U1-PadB4)*%
X133350000Y-95250000D03*
%TO.P,U1,B5,SWCLK*%
%TO.N,Net-(J2-Pad1)*%
X135890000Y-95250000D03*
%TO.P,U1,B6,SWDIO*%
%TO.N,Net-(J2-Pad3)*%
X138430000Y-95250000D03*
%TO.P,U1,B7,GND*%
%TO.N,GND*%
X140970000Y-95250000D03*
%TO.P,U1,B8,GPIO29*%
%TO.N,unconnected-(U1-PadB8)*%
X143510000Y-95250000D03*
%TO.P,U1,C1,GPIO1*%
%TO.N,/AD1*%
X125730000Y-97790000D03*
%TO.P,U1,C2,GPIO2*%
%TO.N,/AD2*%
X128270000Y-97790000D03*
%TO.P,U1,C7,GPIO28*%
%TO.N,unconnected-(U1-PadC7)*%
X140970000Y-97790000D03*
%TO.P,U1,C8,GPIO27*%
%TO.N,/CS2*%
X143510000Y-97790000D03*
%TO.P,U1,D1,GPIO3*%
%TO.N,/AD3*%
X125730000Y-100330000D03*
%TO.P,U1,D2,GPIO4*%
%TO.N,/AD4*%
X128270000Y-100330000D03*
%TO.P,U1,D7,GPIO26*%
%TO.N,/CS1*%
X140970000Y-100330000D03*
%TO.P,U1,D8,GPIO25*%
%TO.N,/RD*%
X143510000Y-100330000D03*
%TO.P,U1,E1,GPIO5*%
%TO.N,/AD5*%
X125730000Y-102870000D03*
%TO.P,U1,E2,GPIO6*%
%TO.N,/AD6*%
X128270000Y-102870000D03*
%TO.P,U1,E7,GPIO24*%
%TO.N,/WR*%
X140970000Y-102870000D03*
%TO.P,U1,E8,GPIO23*%
%TO.N,/A23*%
X143510000Y-102870000D03*
%TO.P,U1,F1,GPIO7*%
%TO.N,/AD7*%
X125730000Y-105410000D03*
%TO.P,U1,F2,GPIO8*%
%TO.N,/AD8*%
X128270000Y-105410000D03*
%TO.P,U1,F7,GPIO22*%
%TO.N,/A22*%
X140970000Y-105410000D03*
%TO.P,U1,F8,GPIO21*%
%TO.N,/A21*%
X143510000Y-105410000D03*
%TO.P,U1,G1,GPIO9*%
%TO.N,/AD9*%
X125730000Y-107950000D03*
%TO.P,U1,G2,GND*%
%TO.N,GND*%
X128270000Y-107950000D03*
%TO.P,U1,G3,GPIO12*%
%TO.N,/AD12*%
X130810000Y-107950000D03*
%TO.P,U1,G4,GPIO14*%
%TO.N,/AD14*%
X133350000Y-107950000D03*
%TO.P,U1,G5,GPIO16*%
%TO.N,/A16*%
X135890000Y-107950000D03*
%TO.P,U1,G6,GPIO18*%
%TO.N,/A18*%
X138430000Y-107950000D03*
%TO.P,U1,G7,GND*%
%TO.N,GND*%
X140970000Y-107950000D03*
%TO.P,U1,G8,GPIO20*%
%TO.N,/A20*%
X143510000Y-107950000D03*
%TO.P,U1,H1,GND*%
%TO.N,GND*%
X125730000Y-110490000D03*
%TO.P,U1,H2,GPIO10*%
%TO.N,/AD10*%
X128270000Y-110490000D03*
%TO.P,U1,H3,GPIO11*%
%TO.N,/AD11*%
X130810000Y-110490000D03*
%TO.P,U1,H4,GPIO13*%
%TO.N,/AD13*%
X133350000Y-110490000D03*
%TO.P,U1,H5,GPIO15*%
%TO.N,/AD15*%
X135890000Y-110490000D03*
%TO.P,U1,H6,GPIO17*%
%TO.N,/A17*%
X138430000Y-110490000D03*
%TO.P,U1,H7,GPIO19*%
%TO.N,/A19*%
X140970000Y-110490000D03*
%TO.P,U1,H8,GND*%
%TO.N,GND*%
X143510000Y-110490000D03*
%TD*%
D19*
%TO.N,/WR*%
X154870000Y-110560000D03*
%TO.N,/AD1*%
X121285000Y-102870000D03*
%TO.N,/AD2*%
X120650000Y-104140000D03*
%TO.N,/AD3*%
X120015000Y-105409998D03*
%TO.N,/AD4*%
X119380000Y-106680000D03*
%TO.N,/AD5*%
X118745000Y-107950000D03*
%TO.N,/AD6*%
X118110000Y-109220000D03*
%TO.N,/AD7*%
X117475000Y-110685151D03*
%TO.N,/AD8*%
X116840000Y-111760000D03*
%TO.N,/AD9*%
X116205000Y-113030000D03*
%TO.N,/AD10*%
X115570000Y-114300000D03*
%TO.N,/AD11*%
X132715000Y-125005500D03*
%TO.N,/AD12*%
X132593003Y-122513213D03*
%TO.N,/AD13*%
X133350000Y-123825000D03*
%TO.N,/AD14*%
X135255000Y-125730000D03*
%TO.N,/AD15*%
X135890000Y-127000000D03*
%TO.N,/A16*%
X136525000Y-128270000D03*
%TO.N,/A17*%
X137160000Y-129540000D03*
%TO.N,/A18*%
X137795000Y-130810000D03*
%TO.N,/A19*%
X138430000Y-132080000D03*
%TO.N,/A20*%
X139065000Y-133350000D03*
%TO.N,/A21*%
X139700000Y-134620000D03*
%TO.N,/A22*%
X118745000Y-117475000D03*
%TO.N,/A23*%
X140335000Y-135890000D03*
%TO.N,/CS2*%
X114300000Y-116205000D03*
%TO.N,VBUS*%
X118745000Y-89535000D03*
%TD*%
D20*
%TO.N,VBUS*%
X114310000Y-89634022D02*
X115099978Y-90424000D01*
X115099978Y-90424000D02*
X117856000Y-90424000D01*
X117856000Y-90424000D02*
X118745000Y-89535000D01*
%TO.N,Net-(J1-PadA7)*%
X112510000Y-88760000D02*
X112510000Y-87885978D01*
X112510000Y-87885978D02*
X112242022Y-87618000D01*
X112242022Y-87618000D02*
X111777978Y-87618000D01*
X111777978Y-87618000D02*
X111510000Y-87885978D01*
X111510000Y-87885978D02*
X111510000Y-88760000D01*
%TO.N,Net-(J1-PadA6)*%
X111010000Y-89634022D02*
X111010000Y-88804022D01*
X111035489Y-89659511D02*
X111010000Y-89634022D01*
%TO.N,VBUS*%
X114010000Y-88044273D02*
X112892217Y-86926490D01*
%TO.N,Net-(J1-PadA6)*%
X111984511Y-89659511D02*
X111035489Y-89659511D01*
X111984511Y-88829511D02*
X111984511Y-89659511D01*
%TO.N,VBUS*%
X110627783Y-86926490D02*
X109510000Y-88044273D01*
X109510000Y-88044273D02*
X109510000Y-88760000D01*
X114010000Y-88760000D02*
X114010000Y-88044273D01*
X112892217Y-86926490D02*
X110627783Y-86926490D01*
%TO.N,Net-(J1-PadA6)*%
X112010000Y-96770704D02*
X112010000Y-88760000D01*
%TO.N,Net-(J1-PadA7)*%
X112510000Y-96405000D02*
X112510000Y-88760000D01*
%TO.N,VBUS*%
X114310000Y-89634022D02*
X114310000Y-88760000D01*
%TO.N,Net-(J1-PadB5)*%
X110220000Y-93345000D02*
X110010000Y-93135000D01*
X110010000Y-93135000D02*
X110010000Y-88760000D01*
%TO.N,Net-(J1-PadA5)*%
X113010000Y-92055000D02*
X113010000Y-88760000D01*
%TO.N,+3V3*%
X130810000Y-95250000D02*
X132023511Y-96463511D01*
X132023511Y-96463511D02*
X146439676Y-96463511D01*
X157870000Y-107893835D02*
X157870000Y-119500000D01*
X146439676Y-96463511D02*
X157870000Y-107893835D01*
%TO.N,/WR*%
X154870000Y-119500000D02*
X154870000Y-110560000D01*
%TO.N,/RD*%
X144780000Y-100330000D02*
X143510000Y-100330000D01*
X153370000Y-119500000D02*
X153370000Y-108920000D01*
X153370000Y-108920000D02*
X144780000Y-100330000D01*
%TO.N,/CS1*%
X143899676Y-104083511D02*
X140467346Y-104083511D01*
X139756489Y-101543511D02*
X140970000Y-100330000D01*
X151870000Y-119500000D02*
X151870000Y-112053835D01*
X139756489Y-103372654D02*
X139756489Y-101543511D01*
X151870000Y-112053835D02*
X143899676Y-104083511D01*
X140467346Y-104083511D02*
X139756489Y-103372654D01*
%TO.N,/AD0*%
X143273511Y-111703511D02*
X125227346Y-111703511D01*
X125227346Y-111703511D02*
X124516489Y-110992654D01*
X150370000Y-118800000D02*
X143273511Y-111703511D01*
X124516489Y-96463511D02*
X125730000Y-95250000D01*
X150370000Y-119500000D02*
X150370000Y-118800000D01*
X124516489Y-110992654D02*
X124516489Y-96463511D01*
%TO.N,/AD1*%
X142223021Y-112153021D02*
X124855837Y-112153021D01*
X123172545Y-104757545D02*
X121285000Y-102870000D01*
X124855837Y-112153021D02*
X123172545Y-110469729D01*
X148870000Y-119500000D02*
X148870000Y-118800000D01*
X123172545Y-110469729D02*
X123172545Y-104757545D01*
X148870000Y-118800000D02*
X142223021Y-112153021D01*
%TO.N,/AD2*%
X147370000Y-118800000D02*
X141178919Y-112608919D01*
X126390849Y-112608919D02*
X124676030Y-112608918D01*
X147370000Y-119500000D02*
X147370000Y-118800000D01*
X130142764Y-112602532D02*
X126397236Y-112602532D01*
X122723031Y-110655919D02*
X122723031Y-106213031D01*
X141178919Y-112608919D02*
X130149150Y-112608918D01*
X124676030Y-112608918D02*
X122723031Y-110655919D01*
X130149150Y-112608918D02*
X130142764Y-112602532D01*
X122723031Y-106213031D02*
X120650000Y-104140000D01*
X126397236Y-112602532D02*
X126390849Y-112608919D01*
%TO.N,/AD3*%
X145870000Y-119500000D02*
X145870000Y-118800000D01*
X129962956Y-113058428D02*
X129956572Y-113052044D01*
X140128430Y-113058430D02*
X129962956Y-113058428D01*
X122273520Y-110842112D02*
X122273520Y-107668518D01*
X145870000Y-118800000D02*
X140128430Y-113058430D01*
X124489836Y-113058428D02*
X122273520Y-110842112D01*
X129956572Y-113052044D02*
X126583428Y-113052044D01*
X126583428Y-113052044D02*
X126577042Y-113058430D01*
X126577042Y-113058430D02*
X124489836Y-113058428D01*
X122273520Y-107668518D02*
X120015000Y-105409998D01*
%TO.N,/AD4*%
X126769619Y-113501557D02*
X126763238Y-113507938D01*
X144370000Y-118800000D02*
X139077941Y-113507941D01*
X129776762Y-113507938D02*
X129770381Y-113501557D01*
X124303642Y-113507938D02*
X119469501Y-108673797D01*
X126763238Y-113507938D02*
X124303642Y-113507938D01*
X129770381Y-113501557D02*
X126769619Y-113501557D01*
X139077941Y-113507941D02*
X129776762Y-113507938D01*
X144370000Y-119500000D02*
X144370000Y-118800000D01*
X119469501Y-106769501D02*
X119380000Y-106680000D01*
X119469501Y-108673797D02*
X119469501Y-106769501D01*
%TO.N,/AD5*%
X142870000Y-118800000D02*
X138027452Y-113957452D01*
X124117448Y-113957448D02*
X120650000Y-110490000D01*
X129590568Y-113957448D02*
X129584191Y-113951071D01*
X120650000Y-110490000D02*
X119829511Y-109669511D01*
X119380000Y-109220000D02*
X118745000Y-108585000D01*
X120650000Y-110490000D02*
X119380000Y-109220000D01*
X129584191Y-113951071D02*
X126955809Y-113951071D01*
X126955809Y-113951071D02*
X126949427Y-113957452D01*
X138027452Y-113957452D02*
X129590568Y-113957448D01*
X118745000Y-108585000D02*
X118745000Y-107950000D01*
X126949427Y-113957452D02*
X124117448Y-113957448D01*
X142870000Y-119500000D02*
X142870000Y-118800000D01*
X119829511Y-109669511D02*
X119380000Y-109220000D01*
%TO.N,/AD6*%
X129404375Y-114406959D02*
X136976962Y-114406962D01*
X127349800Y-114400578D02*
X129397994Y-114400578D01*
X136976962Y-114406962D02*
X141370000Y-118800000D01*
X141370000Y-118800000D02*
X141370000Y-119500000D01*
X123296958Y-114406958D02*
X127135604Y-114406958D01*
X127349792Y-114400586D02*
X127349800Y-114400578D01*
X129397994Y-114400578D02*
X129404375Y-114406959D01*
X127135604Y-114406958D02*
X127141976Y-114400586D01*
X127141976Y-114400586D02*
X127349792Y-114400586D01*
X118110000Y-109220000D02*
X123296958Y-114406958D01*
%TO.N,/AD7*%
X129218181Y-114856469D02*
X129211800Y-114850088D01*
X129211800Y-114850088D02*
X127328158Y-114850088D01*
X127321777Y-114856469D02*
X121646318Y-114856469D01*
X127328158Y-114850088D02*
X127321777Y-114856469D01*
X121646318Y-114856469D02*
X117475000Y-110685151D01*
X139870000Y-118800000D02*
X135926473Y-114856473D01*
X139870000Y-119500000D02*
X139870000Y-118800000D01*
X135926473Y-114856473D02*
X129218181Y-114856469D01*
%TO.N,/AD8*%
X122924571Y-115305979D02*
X120385979Y-115305979D01*
X126763197Y-115305997D02*
X126763185Y-115305985D01*
X127135537Y-115305999D02*
X127122208Y-115305998D01*
X127722130Y-115299628D02*
X127722119Y-115299628D01*
X129025606Y-115299598D02*
X128781408Y-115299596D01*
X127122208Y-115305998D02*
X126763197Y-115305997D01*
X127507938Y-115306012D02*
X127507918Y-115306012D01*
X129031987Y-115305979D02*
X129025606Y-115299598D01*
X120385979Y-115305979D02*
X116840000Y-111760000D01*
X127722178Y-115299608D02*
X127722172Y-115299608D01*
X126762367Y-115305985D02*
X122924571Y-115305979D01*
X128781408Y-115299596D02*
X128540152Y-115299597D01*
X138370000Y-119500000D02*
X138370000Y-118800000D01*
X127722119Y-115299628D02*
X127722110Y-115299637D01*
X138370000Y-118800000D02*
X134875983Y-115305983D01*
X127507985Y-115305985D02*
X127507972Y-115305998D01*
X127310198Y-115306012D02*
X127135550Y-115306012D01*
X127507918Y-115306012D02*
X127507903Y-115306027D01*
X127722172Y-115299608D02*
X127722168Y-115299612D01*
X134875983Y-115305983D02*
X129031987Y-115305979D01*
X127135550Y-115306012D02*
X127135537Y-115305999D01*
X127484088Y-115315164D02*
X127310198Y-115306012D01*
X127722191Y-115299595D02*
X127722178Y-115299608D01*
X127507903Y-115306027D02*
X127494240Y-115306026D01*
X128540152Y-115299597D02*
X127722191Y-115299595D01*
X127722149Y-115299620D02*
X127722138Y-115299620D01*
X127507972Y-115305998D02*
X127507952Y-115305998D01*
X126763185Y-115305985D02*
X126762367Y-115305985D01*
X127508006Y-115305985D02*
X127507985Y-115305985D01*
X127722168Y-115299612D02*
X127722157Y-115299612D01*
X127494240Y-115306026D02*
X127484088Y-115315164D01*
X127722138Y-115299620D02*
X127722130Y-115299628D01*
X127722110Y-115299637D02*
X127514364Y-115299628D01*
X127722157Y-115299612D02*
X127722149Y-115299620D01*
X127507952Y-115305998D02*
X127507938Y-115306012D01*
X127514364Y-115299628D02*
X127508006Y-115305985D01*
%TO.N,/AD9*%
X136870000Y-119500000D02*
X136870000Y-118800000D01*
X127298183Y-115755523D02*
X126949357Y-115755523D01*
X126949357Y-115755523D02*
X126949343Y-115755509D01*
X118930496Y-115755496D02*
X116205000Y-113030000D01*
X127671100Y-115749138D02*
X127646398Y-115773840D01*
X127451319Y-115763573D02*
X127298183Y-115755523D01*
X128845794Y-115755490D02*
X128839412Y-115749108D01*
X133825493Y-115755493D02*
X128845794Y-115755490D01*
X127908324Y-115749138D02*
X127671100Y-115749138D01*
X127646398Y-115773840D02*
X127451319Y-115763573D01*
X127908354Y-115749108D02*
X127908324Y-115749138D01*
X136870000Y-118800000D02*
X133825493Y-115755493D01*
X126949343Y-115755509D02*
X126577003Y-115755508D01*
X128839412Y-115749108D02*
X127908354Y-115749108D01*
X126577003Y-115755508D02*
X126576991Y-115755496D01*
X126576991Y-115755496D02*
X118930496Y-115755496D01*
%TO.N,/AD10*%
X127880357Y-116205021D02*
X127880338Y-116205020D01*
X127440143Y-116213119D02*
X127416524Y-116211875D01*
X127880238Y-116205062D02*
X127880223Y-116205077D01*
X128094555Y-116198633D02*
X128094544Y-116198633D01*
X128094577Y-116198617D02*
X128094565Y-116198629D01*
X127880371Y-116205007D02*
X127880357Y-116205021D01*
X128094544Y-116198633D02*
X128094536Y-116198641D01*
X127625512Y-116222874D02*
X127442387Y-116215549D01*
X127841949Y-116205074D02*
X127814477Y-116230433D01*
X128659600Y-116205000D02*
X128653219Y-116198619D01*
X128094559Y-116198629D02*
X128094555Y-116198633D01*
X117475000Y-116205000D02*
X115570000Y-114300000D01*
X126763163Y-116205033D02*
X126763149Y-116205019D01*
X127880325Y-116205033D02*
X127880305Y-116205033D01*
X127880271Y-116205048D02*
X127880257Y-116205062D01*
X135370000Y-118800000D02*
X132775003Y-116205003D01*
X128167765Y-116198617D02*
X128094577Y-116198617D01*
X127880290Y-116205048D02*
X127880271Y-116205048D01*
X127626482Y-116222925D02*
X127625512Y-116222874D01*
X122552184Y-116205000D02*
X117475000Y-116205000D01*
X127808774Y-116232493D02*
X127808737Y-116232491D01*
X127811208Y-116230302D02*
X127808774Y-116232493D01*
X127880257Y-116205062D02*
X127880238Y-116205062D01*
X127807401Y-116232976D02*
X127626482Y-116222925D01*
X126390809Y-116205018D02*
X126390797Y-116205006D01*
X127808709Y-116232516D02*
X127807959Y-116232477D01*
X127814477Y-116230433D02*
X127811208Y-116230302D01*
X128094458Y-116198675D02*
X127886733Y-116198666D01*
X128094467Y-116198666D02*
X128094458Y-116198675D01*
X126390797Y-116205006D02*
X122552184Y-116205000D01*
X135370000Y-119500000D02*
X135370000Y-118800000D01*
X128094525Y-116198641D02*
X128094517Y-116198649D01*
X127886733Y-116198666D02*
X127880392Y-116205007D01*
X127880338Y-116205020D02*
X127880325Y-116205033D01*
X127442387Y-116215549D02*
X127440143Y-116213119D01*
X128094517Y-116198649D02*
X128094506Y-116198649D01*
X128094486Y-116198658D02*
X128094478Y-116198666D01*
X127880305Y-116205033D02*
X127880290Y-116205048D01*
X128094565Y-116198629D02*
X128094559Y-116198629D01*
X128094478Y-116198666D02*
X128094467Y-116198666D01*
X127416524Y-116211875D02*
X127286368Y-116205033D01*
X128094536Y-116198641D02*
X128094525Y-116198641D01*
X128094497Y-116198658D02*
X128094486Y-116198658D01*
X128167767Y-116198619D02*
X128167765Y-116198617D01*
X128653219Y-116198619D02*
X128167767Y-116198619D01*
X127286368Y-116205033D02*
X126763163Y-116205033D01*
X127808737Y-116232491D02*
X127808709Y-116232516D01*
X127880392Y-116205007D02*
X127880371Y-116205007D01*
X127880223Y-116205077D02*
X127841949Y-116205074D01*
X127807959Y-116232477D02*
X127807401Y-116232976D01*
X132775003Y-116205003D02*
X128659600Y-116205000D01*
X126763149Y-116205019D02*
X126390809Y-116205018D01*
X128094506Y-116198649D02*
X128094497Y-116198658D01*
%TO.N,/AD11*%
X133194100Y-125005500D02*
X132715000Y-125005500D01*
X134074501Y-124125099D02*
X133194100Y-125005500D01*
X133870000Y-119500000D02*
X134074501Y-119704501D01*
X134074501Y-119704501D02*
X134074501Y-124125099D01*
%TO.N,/AD12*%
X132370000Y-119500000D02*
X132370000Y-122290210D01*
X132370000Y-122290210D02*
X132593003Y-122513213D01*
%TO.N,/AD13*%
X130870000Y-119500000D02*
X130870000Y-121909589D01*
X130870000Y-121909589D02*
X132785411Y-123825000D01*
X132785411Y-123825000D02*
X133350000Y-123825000D01*
%TO.N,/AD14*%
X132325400Y-125730000D02*
X135255000Y-125730000D01*
X129370000Y-119500000D02*
X129370000Y-122774600D01*
X129370000Y-122774600D02*
X132325400Y-125730000D01*
%TO.N,/AD15*%
X127870000Y-121910304D02*
X133049197Y-127089501D01*
X127870000Y-119500000D02*
X127870000Y-121910304D01*
X133049197Y-127089501D02*
X135800499Y-127089501D01*
X135800499Y-127089501D02*
X135890000Y-127000000D01*
%TO.N,/A16*%
X126370000Y-119500000D02*
X126370000Y-121046007D01*
X133593993Y-128270000D02*
X136525000Y-128270000D01*
X126370000Y-121046007D02*
X133593993Y-128270000D01*
%TO.N,/A17*%
X124870000Y-120200000D02*
X134210000Y-129540000D01*
X124870000Y-119500000D02*
X124870000Y-120200000D01*
X134210000Y-129540000D02*
X137160000Y-129540000D01*
%TO.N,/A18*%
X123370000Y-119500000D02*
X123370000Y-120200000D01*
X133980000Y-130810000D02*
X137795000Y-130810000D01*
X123370000Y-120200000D02*
X133980000Y-130810000D01*
%TO.N,/A19*%
X121870000Y-119500000D02*
X121870000Y-120349022D01*
X133600978Y-132080000D02*
X138430000Y-132080000D01*
X121870000Y-120349022D02*
X133600978Y-132080000D01*
%TO.N,/A20*%
X133520000Y-133350000D02*
X120370000Y-120200000D01*
X139065000Y-133350000D02*
X133520000Y-133350000D01*
X120370000Y-120200000D02*
X120370000Y-119500000D01*
%TO.N,/A21*%
X139700000Y-134620000D02*
X133140978Y-134620000D01*
X118870000Y-120349022D02*
X118870000Y-119500000D01*
X133140978Y-134620000D02*
X118870000Y-120349022D01*
%TO.N,/A22*%
X117370000Y-118800000D02*
X117370000Y-119500000D01*
X118745000Y-117475000D02*
X118695000Y-117475000D01*
X118695000Y-117475000D02*
X117370000Y-118800000D01*
%TO.N,/A23*%
X133350000Y-135890000D02*
X118745000Y-121285000D01*
X140335000Y-135890000D02*
X133350000Y-135890000D01*
X115870000Y-120200000D02*
X115870000Y-119500000D01*
X118745000Y-121285000D02*
X116955000Y-121285000D01*
X116955000Y-121285000D02*
X115870000Y-120200000D01*
%TO.N,/CS2*%
X114370000Y-116275000D02*
X114370000Y-119500000D01*
X114300000Y-116205000D02*
X114370000Y-116275000D01*
%TO.N,Net-(J1-PadA7)*%
X113260000Y-97155000D02*
X112510000Y-96405000D01*
X121678022Y-91046978D02*
X115570000Y-97155000D01*
X136766978Y-91046978D02*
X121678022Y-91046978D01*
X138430000Y-92710000D02*
X136766978Y-91046978D01*
X115570000Y-97155000D02*
X113260000Y-97155000D01*
%TO.N,Net-(J1-PadA6)*%
X112843807Y-97604511D02*
X112010000Y-96770704D01*
X115756193Y-97604511D02*
X112843807Y-97604511D01*
X121864215Y-91496489D02*
X115756193Y-97604511D01*
X134676489Y-91496489D02*
X121864215Y-91496489D01*
X135890000Y-92710000D02*
X134676489Y-91496489D01*
%TO.N,VBUS*%
X114335489Y-88829511D02*
X114010000Y-88504022D01*
%TO.N,Net-(J1-PadA5)*%
X114300000Y-93345000D02*
X113010000Y-92055000D01*
%TD*%
%TA.AperFunction,Conductor*%
%TO.N,GND*%
G36*
X164841621Y-81500502D02*
G01*
X164888114Y-81554158D01*
X164899500Y-81606500D01*
X164899500Y-141913500D01*
X164879498Y-141981621D01*
X164825842Y-142028114D01*
X164773500Y-142039500D01*
X104466500Y-142039500D01*
X104398379Y-142019498D01*
X104351886Y-141965842D01*
X104340500Y-141913500D01*
X104340500Y-141219748D01*
X118419500Y-141219748D01*
X118431133Y-141278231D01*
X118475448Y-141344552D01*
X118541769Y-141388867D01*
X118553938Y-141391288D01*
X118553939Y-141391288D01*
X118594184Y-141399293D01*
X118600252Y-141400500D01*
X124639748Y-141400500D01*
X124645816Y-141399293D01*
X124686061Y-141391288D01*
X124686062Y-141391288D01*
X124698231Y-141388867D01*
X124764552Y-141344552D01*
X124808867Y-141278231D01*
X124820500Y-141219748D01*
X144419500Y-141219748D01*
X144431133Y-141278231D01*
X144475448Y-141344552D01*
X144541769Y-141388867D01*
X144553938Y-141391288D01*
X144553939Y-141391288D01*
X144594184Y-141399293D01*
X144600252Y-141400500D01*
X150639748Y-141400500D01*
X150645816Y-141399293D01*
X150686061Y-141391288D01*
X150686062Y-141391288D01*
X150698231Y-141388867D01*
X150764552Y-141344552D01*
X150808867Y-141278231D01*
X150820500Y-141219748D01*
X150820500Y-138180252D01*
X150808867Y-138121769D01*
X150764552Y-138055448D01*
X150698231Y-138011133D01*
X150686062Y-138008712D01*
X150686061Y-138008712D01*
X150645816Y-138000707D01*
X150639748Y-137999500D01*
X144600252Y-137999500D01*
X144594184Y-138000707D01*
X144553939Y-138008712D01*
X144553938Y-138008712D01*
X144541769Y-138011133D01*
X144475448Y-138055448D01*
X144431133Y-138121769D01*
X144419500Y-138180252D01*
X144419500Y-141219748D01*
X124820500Y-141219748D01*
X124820500Y-138180252D01*
X124808867Y-138121769D01*
X124764552Y-138055448D01*
X124698231Y-138011133D01*
X124686062Y-138008712D01*
X124686061Y-138008712D01*
X124645816Y-138000707D01*
X124639748Y-137999500D01*
X118600252Y-137999500D01*
X118594184Y-138000707D01*
X118553939Y-138008712D01*
X118553938Y-138008712D01*
X118541769Y-138011133D01*
X118475448Y-138055448D01*
X118431133Y-138121769D01*
X118419500Y-138180252D01*
X118419500Y-141219748D01*
X104340500Y-141219748D01*
X104340500Y-127739438D01*
X120365066Y-127739438D01*
X120391883Y-127961044D01*
X120457519Y-128174400D01*
X120559901Y-128372759D01*
X120563310Y-128377201D01*
X120563312Y-128377205D01*
X120649975Y-128490146D01*
X120695790Y-128549854D01*
X120860893Y-128700086D01*
X121049990Y-128818707D01*
X121257105Y-128901966D01*
X121262593Y-128903103D01*
X121262598Y-128903104D01*
X121420053Y-128935711D01*
X121475690Y-128947233D01*
X121480303Y-128947499D01*
X121530526Y-128950395D01*
X121530530Y-128950395D01*
X121532349Y-128950500D01*
X121676630Y-128950500D01*
X121679417Y-128950251D01*
X121679423Y-128950251D01*
X121752431Y-128943735D01*
X121842339Y-128935711D01*
X121847753Y-128934230D01*
X121847758Y-128934229D01*
X121985278Y-128896607D01*
X122057651Y-128876808D01*
X122062709Y-128874396D01*
X122062713Y-128874394D01*
X122179462Y-128818707D01*
X122259129Y-128780708D01*
X122440405Y-128650448D01*
X122595749Y-128490146D01*
X122720250Y-128304868D01*
X122809974Y-128100471D01*
X122811282Y-128095023D01*
X122811284Y-128095017D01*
X122860775Y-127888872D01*
X122860775Y-127888871D01*
X122862085Y-127883415D01*
X122871983Y-127711747D01*
X122874611Y-127666169D01*
X122874611Y-127666166D01*
X122874934Y-127660562D01*
X122848117Y-127438956D01*
X122782481Y-127225600D01*
X122680099Y-127027241D01*
X122676690Y-127022799D01*
X122676688Y-127022795D01*
X122547620Y-126854590D01*
X122544210Y-126850146D01*
X122379107Y-126699914D01*
X122190010Y-126581293D01*
X121982895Y-126498034D01*
X121977407Y-126496897D01*
X121977402Y-126496896D01*
X121812845Y-126462818D01*
X121764310Y-126452767D01*
X121759697Y-126452501D01*
X121709474Y-126449605D01*
X121709470Y-126449605D01*
X121707651Y-126449500D01*
X121563370Y-126449500D01*
X121560583Y-126449749D01*
X121560577Y-126449749D01*
X121491003Y-126455959D01*
X121397661Y-126464289D01*
X121392247Y-126465770D01*
X121392242Y-126465771D01*
X121278470Y-126496896D01*
X121182349Y-126523192D01*
X121177291Y-126525604D01*
X121177287Y-126525606D01*
X121091147Y-126566693D01*
X120980871Y-126619292D01*
X120799595Y-126749552D01*
X120644251Y-126909854D01*
X120519750Y-127095132D01*
X120430026Y-127299529D01*
X120428718Y-127304977D01*
X120428716Y-127304983D01*
X120382624Y-127496969D01*
X120377915Y-127516585D01*
X120375513Y-127558253D01*
X120366663Y-127711747D01*
X120365066Y-127739438D01*
X104340500Y-127739438D01*
X104340500Y-120744669D01*
X110362001Y-120744669D01*
X110362371Y-120751490D01*
X110367895Y-120802352D01*
X110371521Y-120817604D01*
X110416676Y-120938054D01*
X110425214Y-120953649D01*
X110501715Y-121055724D01*
X110514276Y-121068285D01*
X110616351Y-121144786D01*
X110631946Y-121153324D01*
X110752394Y-121198478D01*
X110767649Y-121202105D01*
X110818514Y-121207631D01*
X110825328Y-121208000D01*
X111097885Y-121208000D01*
X111113124Y-121203525D01*
X111114329Y-121202135D01*
X111116000Y-121194452D01*
X111116000Y-121189884D01*
X111624000Y-121189884D01*
X111628475Y-121205123D01*
X111629865Y-121206328D01*
X111637548Y-121207999D01*
X111914669Y-121207999D01*
X111921490Y-121207629D01*
X111972352Y-121202105D01*
X111987604Y-121198479D01*
X112108054Y-121153324D01*
X112123649Y-121144786D01*
X112225724Y-121068285D01*
X112238285Y-121055724D01*
X112316820Y-120950935D01*
X112373679Y-120908420D01*
X112417646Y-120900500D01*
X113389748Y-120900500D01*
X113399999Y-120898461D01*
X113436061Y-120891288D01*
X113436062Y-120891288D01*
X113448231Y-120888867D01*
X113514552Y-120844552D01*
X113521443Y-120834239D01*
X113530222Y-120825460D01*
X113533243Y-120828481D01*
X113569721Y-120797999D01*
X113640165Y-120789157D01*
X113704207Y-120819803D01*
X113709419Y-120825819D01*
X113709778Y-120825460D01*
X113718557Y-120834239D01*
X113725448Y-120844552D01*
X113791769Y-120888867D01*
X113803938Y-120891288D01*
X113803939Y-120891288D01*
X113840001Y-120898461D01*
X113850252Y-120900500D01*
X114889748Y-120900500D01*
X114899999Y-120898461D01*
X114936061Y-120891288D01*
X114936062Y-120891288D01*
X114948231Y-120888867D01*
X115014552Y-120844552D01*
X115021443Y-120834239D01*
X115030222Y-120825460D01*
X115033243Y-120828481D01*
X115069721Y-120797999D01*
X115140165Y-120789157D01*
X115204207Y-120819803D01*
X115209419Y-120825819D01*
X115209778Y-120825460D01*
X115218557Y-120834239D01*
X115225448Y-120844552D01*
X115291769Y-120888867D01*
X115303938Y-120891288D01*
X115303939Y-120891288D01*
X115340001Y-120898461D01*
X115350252Y-120900500D01*
X116057984Y-120900500D01*
X116126105Y-120920502D01*
X116147079Y-120937405D01*
X116710889Y-121501215D01*
X116718316Y-121509319D01*
X116742545Y-121538194D01*
X116752094Y-121543707D01*
X116775185Y-121557039D01*
X116784456Y-121562945D01*
X116815316Y-121584554D01*
X116825966Y-121587408D01*
X116829134Y-121588885D01*
X116832410Y-121590077D01*
X116841955Y-121595588D01*
X116875699Y-121601538D01*
X116879058Y-121602130D01*
X116889785Y-121604508D01*
X116926193Y-121614264D01*
X116937169Y-121613304D01*
X116937172Y-121613304D01*
X116963743Y-121610979D01*
X116974724Y-121610500D01*
X118557984Y-121610500D01*
X118626105Y-121630502D01*
X118647079Y-121647405D01*
X133105889Y-136106215D01*
X133113316Y-136114319D01*
X133137545Y-136143194D01*
X133147094Y-136148707D01*
X133170185Y-136162039D01*
X133179456Y-136167945D01*
X133210316Y-136189554D01*
X133220966Y-136192408D01*
X133224134Y-136193885D01*
X133227410Y-136195077D01*
X133236955Y-136200588D01*
X133270699Y-136206538D01*
X133274058Y-136207130D01*
X133284785Y-136209508D01*
X133321193Y-136219264D01*
X133332178Y-136218303D01*
X133332180Y-136218303D01*
X133358728Y-136215980D01*
X133369710Y-136215500D01*
X139765714Y-136215500D01*
X139833835Y-136235502D01*
X139865677Y-136264796D01*
X139906718Y-136318282D01*
X140032159Y-136414536D01*
X140178238Y-136475044D01*
X140335000Y-136495682D01*
X140343188Y-136494604D01*
X140483574Y-136476122D01*
X140491762Y-136475044D01*
X140637841Y-136414536D01*
X140763282Y-136318282D01*
X140859536Y-136192841D01*
X140920044Y-136046762D01*
X140940682Y-135890000D01*
X140920044Y-135733238D01*
X140859536Y-135587159D01*
X140763282Y-135461718D01*
X140637841Y-135365464D01*
X140491762Y-135304956D01*
X140335000Y-135284318D01*
X140326812Y-135285396D01*
X140180369Y-135304675D01*
X140110220Y-135293735D01*
X140057122Y-135246607D01*
X140037932Y-135178253D01*
X140058743Y-135110375D01*
X140087220Y-135079790D01*
X140121734Y-135053307D01*
X140121736Y-135053305D01*
X140128282Y-135048282D01*
X140224536Y-134922841D01*
X140285044Y-134776762D01*
X140305682Y-134620000D01*
X140285044Y-134463238D01*
X140224536Y-134317159D01*
X140128282Y-134191718D01*
X140002841Y-134095464D01*
X139856762Y-134034956D01*
X139700000Y-134014318D01*
X139691812Y-134015396D01*
X139545369Y-134034675D01*
X139475220Y-134023735D01*
X139422122Y-133976607D01*
X139402932Y-133908253D01*
X139423743Y-133840375D01*
X139452220Y-133809790D01*
X139486734Y-133783307D01*
X139486736Y-133783305D01*
X139493282Y-133778282D01*
X139589536Y-133652841D01*
X139650044Y-133506762D01*
X139670682Y-133350000D01*
X139650044Y-133193238D01*
X139589536Y-133047159D01*
X139493282Y-132921718D01*
X139367841Y-132825464D01*
X139221762Y-132764956D01*
X139065000Y-132744318D01*
X139056812Y-132745396D01*
X138910369Y-132764675D01*
X138840220Y-132753735D01*
X138787122Y-132706607D01*
X138767932Y-132638253D01*
X138788743Y-132570375D01*
X138817220Y-132539790D01*
X138851734Y-132513307D01*
X138851736Y-132513305D01*
X138858282Y-132508282D01*
X138954536Y-132382841D01*
X139015044Y-132236762D01*
X139035682Y-132080000D01*
X139015044Y-131923238D01*
X138954536Y-131777159D01*
X138858282Y-131651718D01*
X138732841Y-131555464D01*
X138586762Y-131494956D01*
X138430000Y-131474318D01*
X138421812Y-131475396D01*
X138275369Y-131494675D01*
X138205220Y-131483735D01*
X138152122Y-131436607D01*
X138132932Y-131368253D01*
X138153743Y-131300375D01*
X138182220Y-131269790D01*
X138216734Y-131243307D01*
X138216736Y-131243305D01*
X138223282Y-131238282D01*
X138319536Y-131112841D01*
X138380044Y-130966762D01*
X138400682Y-130810000D01*
X138380044Y-130653238D01*
X138319536Y-130507159D01*
X138223282Y-130381718D01*
X138097841Y-130285464D01*
X137951762Y-130224956D01*
X137795000Y-130204318D01*
X137786812Y-130205396D01*
X137640369Y-130224675D01*
X137570220Y-130213735D01*
X137517122Y-130166607D01*
X137497932Y-130098253D01*
X137518743Y-130030375D01*
X137547220Y-129999790D01*
X137581734Y-129973307D01*
X137581736Y-129973305D01*
X137588282Y-129968282D01*
X137684536Y-129842841D01*
X137745044Y-129696762D01*
X137765682Y-129540000D01*
X137745044Y-129383238D01*
X137684536Y-129237159D01*
X137588282Y-129111718D01*
X137462841Y-129015464D01*
X137316762Y-128954956D01*
X137160000Y-128934318D01*
X137151812Y-128935396D01*
X137005369Y-128954675D01*
X136935220Y-128943735D01*
X136882122Y-128896607D01*
X136862932Y-128828253D01*
X136883743Y-128760375D01*
X136912220Y-128729790D01*
X136946734Y-128703307D01*
X136946736Y-128703305D01*
X136953282Y-128698282D01*
X137049536Y-128572841D01*
X137110044Y-128426762D01*
X137130682Y-128270000D01*
X137110044Y-128113238D01*
X137049536Y-127967159D01*
X136953282Y-127841718D01*
X136827841Y-127745464D01*
X136813293Y-127739438D01*
X146365066Y-127739438D01*
X146391883Y-127961044D01*
X146457519Y-128174400D01*
X146559901Y-128372759D01*
X146563310Y-128377201D01*
X146563312Y-128377205D01*
X146649975Y-128490146D01*
X146695790Y-128549854D01*
X146860893Y-128700086D01*
X147049990Y-128818707D01*
X147257105Y-128901966D01*
X147262593Y-128903103D01*
X147262598Y-128903104D01*
X147420053Y-128935711D01*
X147475690Y-128947233D01*
X147480303Y-128947499D01*
X147530526Y-128950395D01*
X147530530Y-128950395D01*
X147532349Y-128950500D01*
X147676630Y-128950500D01*
X147679417Y-128950251D01*
X147679423Y-128950251D01*
X147752431Y-128943735D01*
X147842339Y-128935711D01*
X147847753Y-128934230D01*
X147847758Y-128934229D01*
X147985278Y-128896607D01*
X148057651Y-128876808D01*
X148062709Y-128874396D01*
X148062713Y-128874394D01*
X148179462Y-128818707D01*
X148259129Y-128780708D01*
X148440405Y-128650448D01*
X148595749Y-128490146D01*
X148720250Y-128304868D01*
X148809974Y-128100471D01*
X148811282Y-128095023D01*
X148811284Y-128095017D01*
X148860775Y-127888872D01*
X148860775Y-127888871D01*
X148862085Y-127883415D01*
X148871983Y-127711747D01*
X148874611Y-127666169D01*
X148874611Y-127666166D01*
X148874934Y-127660562D01*
X148848117Y-127438956D01*
X148782481Y-127225600D01*
X148680099Y-127027241D01*
X148676690Y-127022799D01*
X148676688Y-127022795D01*
X148547620Y-126854590D01*
X148544210Y-126850146D01*
X148379107Y-126699914D01*
X148190010Y-126581293D01*
X147982895Y-126498034D01*
X147977407Y-126496897D01*
X147977402Y-126496896D01*
X147812845Y-126462818D01*
X147764310Y-126452767D01*
X147759697Y-126452501D01*
X147709474Y-126449605D01*
X147709470Y-126449605D01*
X147707651Y-126449500D01*
X147563370Y-126449500D01*
X147560583Y-126449749D01*
X147560577Y-126449749D01*
X147491003Y-126455959D01*
X147397661Y-126464289D01*
X147392247Y-126465770D01*
X147392242Y-126465771D01*
X147278470Y-126496896D01*
X147182349Y-126523192D01*
X147177291Y-126525604D01*
X147177287Y-126525606D01*
X147091147Y-126566693D01*
X146980871Y-126619292D01*
X146799595Y-126749552D01*
X146644251Y-126909854D01*
X146519750Y-127095132D01*
X146430026Y-127299529D01*
X146428718Y-127304977D01*
X146428716Y-127304983D01*
X146382624Y-127496969D01*
X146377915Y-127516585D01*
X146375513Y-127558253D01*
X146366663Y-127711747D01*
X146365066Y-127739438D01*
X136813293Y-127739438D01*
X136681762Y-127684956D01*
X136525000Y-127664318D01*
X136516812Y-127665396D01*
X136370369Y-127684675D01*
X136300220Y-127673735D01*
X136247122Y-127626607D01*
X136227932Y-127558253D01*
X136248743Y-127490375D01*
X136277220Y-127459790D01*
X136311734Y-127433307D01*
X136311736Y-127433305D01*
X136318282Y-127428282D01*
X136414536Y-127302841D01*
X136475044Y-127156762D01*
X136495682Y-127000000D01*
X136475044Y-126843238D01*
X136414536Y-126697159D01*
X136318282Y-126571718D01*
X136192841Y-126475464D01*
X136046762Y-126414956D01*
X135890000Y-126394318D01*
X135881812Y-126395396D01*
X135735369Y-126414675D01*
X135665220Y-126403735D01*
X135612122Y-126356607D01*
X135592932Y-126288253D01*
X135613743Y-126220375D01*
X135642220Y-126189790D01*
X135676734Y-126163307D01*
X135676736Y-126163305D01*
X135683282Y-126158282D01*
X135779536Y-126032841D01*
X135840044Y-125886762D01*
X135860682Y-125730000D01*
X135840044Y-125573238D01*
X135779536Y-125427159D01*
X135700061Y-125323585D01*
X135688305Y-125308264D01*
X135683282Y-125301718D01*
X135557841Y-125205464D01*
X135411762Y-125144956D01*
X135255000Y-125124318D01*
X135098238Y-125144956D01*
X134952159Y-125205464D01*
X134826718Y-125301718D01*
X134821695Y-125308264D01*
X134785677Y-125355204D01*
X134728339Y-125397071D01*
X134685714Y-125404500D01*
X133559616Y-125404500D01*
X133491495Y-125384498D01*
X133445002Y-125330842D01*
X133434898Y-125260568D01*
X133464392Y-125195988D01*
X133470521Y-125189405D01*
X134290716Y-124369210D01*
X134298820Y-124361783D01*
X134319250Y-124344640D01*
X134327695Y-124337554D01*
X134333208Y-124328005D01*
X134346540Y-124304914D01*
X134352446Y-124295643D01*
X134367731Y-124273814D01*
X134374055Y-124264783D01*
X134376909Y-124254133D01*
X134378386Y-124250965D01*
X134379578Y-124247689D01*
X134385089Y-124238144D01*
X134391631Y-124201041D01*
X134394010Y-124190309D01*
X134403765Y-124153906D01*
X134402163Y-124135588D01*
X134400481Y-124116371D01*
X134400001Y-124105389D01*
X134400001Y-120988442D01*
X134420003Y-120920321D01*
X134455999Y-120883677D01*
X134504237Y-120851445D01*
X134504239Y-120851443D01*
X134514552Y-120844552D01*
X134521443Y-120834239D01*
X134530222Y-120825460D01*
X134533243Y-120828481D01*
X134569721Y-120797999D01*
X134640165Y-120789157D01*
X134704207Y-120819803D01*
X134709419Y-120825819D01*
X134709778Y-120825460D01*
X134718557Y-120834239D01*
X134725448Y-120844552D01*
X134791769Y-120888867D01*
X134803938Y-120891288D01*
X134803939Y-120891288D01*
X134840001Y-120898461D01*
X134850252Y-120900500D01*
X135889748Y-120900500D01*
X135899999Y-120898461D01*
X135936061Y-120891288D01*
X135936062Y-120891288D01*
X135948231Y-120888867D01*
X136014552Y-120844552D01*
X136021443Y-120834239D01*
X136030222Y-120825460D01*
X136033243Y-120828481D01*
X136069721Y-120797999D01*
X136140165Y-120789157D01*
X136204207Y-120819803D01*
X136209419Y-120825819D01*
X136209778Y-120825460D01*
X136218557Y-120834239D01*
X136225448Y-120844552D01*
X136291769Y-120888867D01*
X136303938Y-120891288D01*
X136303939Y-120891288D01*
X136340001Y-120898461D01*
X136350252Y-120900500D01*
X137389748Y-120900500D01*
X137399999Y-120898461D01*
X137436061Y-120891288D01*
X137436062Y-120891288D01*
X137448231Y-120888867D01*
X137514552Y-120844552D01*
X137521443Y-120834239D01*
X137530222Y-120825460D01*
X137533243Y-120828481D01*
X137569721Y-120797999D01*
X137640165Y-120789157D01*
X137704207Y-120819803D01*
X137709419Y-120825819D01*
X137709778Y-120825460D01*
X137718557Y-120834239D01*
X137725448Y-120844552D01*
X137791769Y-120888867D01*
X137803938Y-120891288D01*
X137803939Y-120891288D01*
X137840001Y-120898461D01*
X137850252Y-120900500D01*
X138889748Y-120900500D01*
X138899999Y-120898461D01*
X138936061Y-120891288D01*
X138936062Y-120891288D01*
X138948231Y-120888867D01*
X139014552Y-120844552D01*
X139021443Y-120834239D01*
X139030222Y-120825460D01*
X139033243Y-120828481D01*
X139069721Y-120797999D01*
X139140165Y-120789157D01*
X139204207Y-120819803D01*
X139209419Y-120825819D01*
X139209778Y-120825460D01*
X139218557Y-120834239D01*
X139225448Y-120844552D01*
X139291769Y-120888867D01*
X139303938Y-120891288D01*
X139303939Y-120891288D01*
X139340001Y-120898461D01*
X139350252Y-120900500D01*
X140389748Y-120900500D01*
X140399999Y-120898461D01*
X140436061Y-120891288D01*
X140436062Y-120891288D01*
X140448231Y-120888867D01*
X140514552Y-120844552D01*
X140521443Y-120834239D01*
X140530222Y-120825460D01*
X140533243Y-120828481D01*
X140569721Y-120797999D01*
X140640165Y-120789157D01*
X140704207Y-120819803D01*
X140709419Y-120825819D01*
X140709778Y-120825460D01*
X140718557Y-120834239D01*
X140725448Y-120844552D01*
X140791769Y-120888867D01*
X140803938Y-120891288D01*
X140803939Y-120891288D01*
X140840001Y-120898461D01*
X140850252Y-120900500D01*
X141889748Y-120900500D01*
X141899999Y-120898461D01*
X141936061Y-120891288D01*
X141936062Y-120891288D01*
X141948231Y-120888867D01*
X142014552Y-120844552D01*
X142021443Y-120834239D01*
X142030222Y-120825460D01*
X142033243Y-120828481D01*
X142069721Y-120797999D01*
X142140165Y-120789157D01*
X142204207Y-120819803D01*
X142209419Y-120825819D01*
X142209778Y-120825460D01*
X142218557Y-120834239D01*
X142225448Y-120844552D01*
X142291769Y-120888867D01*
X142303938Y-120891288D01*
X142303939Y-120891288D01*
X142340001Y-120898461D01*
X142350252Y-120900500D01*
X143389748Y-120900500D01*
X143399999Y-120898461D01*
X143436061Y-120891288D01*
X143436062Y-120891288D01*
X143448231Y-120888867D01*
X143514552Y-120844552D01*
X143521443Y-120834239D01*
X143530222Y-120825460D01*
X143533243Y-120828481D01*
X143569721Y-120797999D01*
X143640165Y-120789157D01*
X143704207Y-120819803D01*
X143709419Y-120825819D01*
X143709778Y-120825460D01*
X143718557Y-120834239D01*
X143725448Y-120844552D01*
X143791769Y-120888867D01*
X143803938Y-120891288D01*
X143803939Y-120891288D01*
X143840001Y-120898461D01*
X143850252Y-120900500D01*
X144889748Y-120900500D01*
X144899999Y-120898461D01*
X144936061Y-120891288D01*
X144936062Y-120891288D01*
X144948231Y-120888867D01*
X145014552Y-120844552D01*
X145021443Y-120834239D01*
X145030222Y-120825460D01*
X145033243Y-120828481D01*
X145069721Y-120797999D01*
X145140165Y-120789157D01*
X145204207Y-120819803D01*
X145209419Y-120825819D01*
X145209778Y-120825460D01*
X145218557Y-120834239D01*
X145225448Y-120844552D01*
X145291769Y-120888867D01*
X145303938Y-120891288D01*
X145303939Y-120891288D01*
X145340001Y-120898461D01*
X145350252Y-120900500D01*
X146389748Y-120900500D01*
X146399999Y-120898461D01*
X146436061Y-120891288D01*
X146436062Y-120891288D01*
X146448231Y-120888867D01*
X146514552Y-120844552D01*
X146521443Y-120834239D01*
X146530222Y-120825460D01*
X146533243Y-120828481D01*
X146569721Y-120797999D01*
X146640165Y-120789157D01*
X146704207Y-120819803D01*
X146709419Y-120825819D01*
X146709778Y-120825460D01*
X146718557Y-120834239D01*
X146725448Y-120844552D01*
X146791769Y-120888867D01*
X146803938Y-120891288D01*
X146803939Y-120891288D01*
X146840001Y-120898461D01*
X146850252Y-120900500D01*
X147889748Y-120900500D01*
X147899999Y-120898461D01*
X147936061Y-120891288D01*
X147936062Y-120891288D01*
X147948231Y-120888867D01*
X148014552Y-120844552D01*
X148021443Y-120834239D01*
X148030222Y-120825460D01*
X148033243Y-120828481D01*
X148069721Y-120797999D01*
X148140165Y-120789157D01*
X148204207Y-120819803D01*
X148209419Y-120825819D01*
X148209778Y-120825460D01*
X148218557Y-120834239D01*
X148225448Y-120844552D01*
X148291769Y-120888867D01*
X148303938Y-120891288D01*
X148303939Y-120891288D01*
X148340001Y-120898461D01*
X148350252Y-120900500D01*
X149389748Y-120900500D01*
X149399999Y-120898461D01*
X149436061Y-120891288D01*
X149436062Y-120891288D01*
X149448231Y-120888867D01*
X149514552Y-120844552D01*
X149521443Y-120834239D01*
X149530222Y-120825460D01*
X149533243Y-120828481D01*
X149569721Y-120797999D01*
X149640165Y-120789157D01*
X149704207Y-120819803D01*
X149709419Y-120825819D01*
X149709778Y-120825460D01*
X149718557Y-120834239D01*
X149725448Y-120844552D01*
X149791769Y-120888867D01*
X149803938Y-120891288D01*
X149803939Y-120891288D01*
X149840001Y-120898461D01*
X149850252Y-120900500D01*
X150889748Y-120900500D01*
X150899999Y-120898461D01*
X150936061Y-120891288D01*
X150936062Y-120891288D01*
X150948231Y-120888867D01*
X151014552Y-120844552D01*
X151021443Y-120834239D01*
X151030222Y-120825460D01*
X151033243Y-120828481D01*
X151069721Y-120797999D01*
X151140165Y-120789157D01*
X151204207Y-120819803D01*
X151209419Y-120825819D01*
X151209778Y-120825460D01*
X151218557Y-120834239D01*
X151225448Y-120844552D01*
X151291769Y-120888867D01*
X151303938Y-120891288D01*
X151303939Y-120891288D01*
X151340001Y-120898461D01*
X151350252Y-120900500D01*
X152389748Y-120900500D01*
X152399999Y-120898461D01*
X152436061Y-120891288D01*
X152436062Y-120891288D01*
X152448231Y-120888867D01*
X152514552Y-120844552D01*
X152521443Y-120834239D01*
X152530222Y-120825460D01*
X152533243Y-120828481D01*
X152569721Y-120797999D01*
X152640165Y-120789157D01*
X152704207Y-120819803D01*
X152709419Y-120825819D01*
X152709778Y-120825460D01*
X152718557Y-120834239D01*
X152725448Y-120844552D01*
X152791769Y-120888867D01*
X152803938Y-120891288D01*
X152803939Y-120891288D01*
X152840001Y-120898461D01*
X152850252Y-120900500D01*
X153889748Y-120900500D01*
X153899999Y-120898461D01*
X153936061Y-120891288D01*
X153936062Y-120891288D01*
X153948231Y-120888867D01*
X154014552Y-120844552D01*
X154021443Y-120834239D01*
X154030222Y-120825460D01*
X154033243Y-120828481D01*
X154069721Y-120797999D01*
X154140165Y-120789157D01*
X154204207Y-120819803D01*
X154209419Y-120825819D01*
X154209778Y-120825460D01*
X154218557Y-120834239D01*
X154225448Y-120844552D01*
X154291769Y-120888867D01*
X154303938Y-120891288D01*
X154303939Y-120891288D01*
X154340001Y-120898461D01*
X154350252Y-120900500D01*
X155389748Y-120900500D01*
X155399999Y-120898461D01*
X155436061Y-120891288D01*
X155436062Y-120891288D01*
X155448231Y-120888867D01*
X155514552Y-120844552D01*
X155521443Y-120834239D01*
X155530222Y-120825460D01*
X155533243Y-120828481D01*
X155569721Y-120797999D01*
X155640165Y-120789157D01*
X155704207Y-120819803D01*
X155709419Y-120825819D01*
X155709778Y-120825460D01*
X155718557Y-120834239D01*
X155725448Y-120844552D01*
X155791769Y-120888867D01*
X155803938Y-120891288D01*
X155803939Y-120891288D01*
X155840001Y-120898461D01*
X155850252Y-120900500D01*
X156889748Y-120900500D01*
X156899999Y-120898461D01*
X156936061Y-120891288D01*
X156936062Y-120891288D01*
X156948231Y-120888867D01*
X157014552Y-120844552D01*
X157021443Y-120834239D01*
X157030222Y-120825460D01*
X157033243Y-120828481D01*
X157069721Y-120797999D01*
X157140165Y-120789157D01*
X157204207Y-120819803D01*
X157209419Y-120825819D01*
X157209778Y-120825460D01*
X157218557Y-120834239D01*
X157225448Y-120844552D01*
X157291769Y-120888867D01*
X157303938Y-120891288D01*
X157303939Y-120891288D01*
X157340001Y-120898461D01*
X157350252Y-120900500D01*
X158389748Y-120900500D01*
X158399999Y-120898461D01*
X158436061Y-120891288D01*
X158436062Y-120891288D01*
X158448231Y-120888867D01*
X158514552Y-120844552D01*
X158558867Y-120778231D01*
X158570500Y-120719748D01*
X158570500Y-118280252D01*
X158558867Y-118221769D01*
X158514552Y-118155448D01*
X158448231Y-118111133D01*
X158436062Y-118108712D01*
X158436061Y-118108712D01*
X158395816Y-118100707D01*
X158389748Y-118099500D01*
X158321500Y-118099500D01*
X158253379Y-118079498D01*
X158206886Y-118025842D01*
X158195500Y-117973500D01*
X158195500Y-107913548D01*
X158195979Y-107902567D01*
X158198303Y-107876005D01*
X158198303Y-107876003D01*
X158199263Y-107865028D01*
X158189508Y-107828618D01*
X158187133Y-107817907D01*
X158182501Y-107791641D01*
X158180588Y-107780790D01*
X158175078Y-107771246D01*
X158173886Y-107767970D01*
X158172407Y-107764799D01*
X158169554Y-107754151D01*
X158147940Y-107723283D01*
X158142036Y-107714014D01*
X158128709Y-107690931D01*
X158128707Y-107690928D01*
X158123194Y-107681380D01*
X158094331Y-107657161D01*
X158086227Y-107649735D01*
X146683786Y-96247295D01*
X146676359Y-96239191D01*
X146663022Y-96223297D01*
X146652131Y-96210317D01*
X146642582Y-96204804D01*
X146619491Y-96191472D01*
X146610220Y-96185566D01*
X146579360Y-96163957D01*
X146568710Y-96161103D01*
X146565542Y-96159626D01*
X146562266Y-96158434D01*
X146552721Y-96152923D01*
X146518977Y-96146973D01*
X146515618Y-96146381D01*
X146504891Y-96144003D01*
X146468483Y-96134247D01*
X146457498Y-96135208D01*
X146457496Y-96135208D01*
X146430948Y-96137531D01*
X146419966Y-96138011D01*
X144457293Y-96138011D01*
X144389172Y-96118009D01*
X144342679Y-96064353D01*
X144332575Y-95994079D01*
X144360418Y-95931444D01*
X144411733Y-95869744D01*
X144509572Y-95695038D01*
X144536023Y-95617115D01*
X144572080Y-95510897D01*
X144572081Y-95510892D01*
X144573936Y-95505428D01*
X144602668Y-95307264D01*
X144604168Y-95250000D01*
X144585846Y-95050604D01*
X144531494Y-94857885D01*
X144442932Y-94678299D01*
X144433030Y-94665038D01*
X144371952Y-94583246D01*
X144323125Y-94517859D01*
X144197897Y-94402099D01*
X144180328Y-94385858D01*
X144180326Y-94385856D01*
X144176087Y-94381938D01*
X144032104Y-94291091D01*
X144011622Y-94278168D01*
X144006742Y-94275089D01*
X144001382Y-94272951D01*
X144001377Y-94272948D01*
X143976763Y-94263128D01*
X143920905Y-94219307D01*
X143897605Y-94152243D01*
X143914262Y-94083228D01*
X143965586Y-94034174D01*
X143987249Y-94025413D01*
X144016521Y-94016631D01*
X144026125Y-94012868D01*
X144223138Y-93916352D01*
X144231983Y-93911079D01*
X144287209Y-93871686D01*
X144295609Y-93860987D01*
X144288622Y-93847833D01*
X143522811Y-93082021D01*
X143508868Y-93074408D01*
X143507034Y-93074539D01*
X143500420Y-93078790D01*
X142728221Y-93850990D01*
X142721464Y-93863365D01*
X142726745Y-93870420D01*
X142899846Y-93971571D01*
X142909132Y-93976021D01*
X143040813Y-94026304D01*
X143097316Y-94069291D01*
X143121609Y-94136002D01*
X143105979Y-94205257D01*
X143055388Y-94255067D01*
X143049483Y-94257723D01*
X143049583Y-94257933D01*
X143044365Y-94260422D01*
X143038949Y-94262420D01*
X142866864Y-94364799D01*
X142862524Y-94368605D01*
X142862520Y-94368608D01*
X142753986Y-94463791D01*
X142716319Y-94496824D01*
X142592354Y-94654073D01*
X142518630Y-94794199D01*
X142469214Y-94845168D01*
X142400082Y-94861331D01*
X142333186Y-94837553D01*
X142291575Y-94785771D01*
X142207459Y-94592319D01*
X142202595Y-94583246D01*
X142131268Y-94472993D01*
X142120582Y-94463791D01*
X142111017Y-94468194D01*
X141329210Y-95250000D01*
X141059095Y-95520116D01*
X140996783Y-95554141D01*
X140925967Y-95549076D01*
X140880905Y-95520115D01*
X140610790Y-95250000D01*
X139831782Y-94470993D01*
X139820246Y-94464693D01*
X139807964Y-94474316D01*
X139754064Y-94553329D01*
X139748976Y-94562285D01*
X139656611Y-94761270D01*
X139651267Y-94775797D01*
X139649947Y-94775311D01*
X139615891Y-94830110D01*
X139551764Y-94860577D01*
X139481345Y-94851538D01*
X139426992Y-94805862D01*
X139418941Y-94791874D01*
X139410773Y-94775311D01*
X139362932Y-94678299D01*
X139353030Y-94665038D01*
X139291952Y-94583246D01*
X139243125Y-94517859D01*
X139117897Y-94402099D01*
X139100328Y-94385858D01*
X139100326Y-94385856D01*
X139096087Y-94381938D01*
X138952104Y-94291091D01*
X138931622Y-94278168D01*
X138926742Y-94275089D01*
X138921382Y-94272951D01*
X138921379Y-94272949D01*
X138746125Y-94203030D01*
X138740761Y-94200890D01*
X138735101Y-94199764D01*
X138735097Y-94199763D01*
X138550039Y-94162953D01*
X138550037Y-94162953D01*
X138544372Y-94161826D01*
X138538597Y-94161750D01*
X138538593Y-94161750D01*
X138438641Y-94160442D01*
X138344153Y-94159205D01*
X138338456Y-94160184D01*
X138338455Y-94160184D01*
X138152505Y-94192136D01*
X138146808Y-94193115D01*
X137958949Y-94262420D01*
X137786864Y-94364799D01*
X137782524Y-94368605D01*
X137782520Y-94368608D01*
X137673986Y-94463791D01*
X137636319Y-94496824D01*
X137512354Y-94654073D01*
X137509666Y-94659183D01*
X137509661Y-94659191D01*
X137448312Y-94775797D01*
X137419121Y-94831280D01*
X137417407Y-94836800D01*
X137382908Y-94947905D01*
X137359742Y-95022510D01*
X137336207Y-95221358D01*
X137349303Y-95421166D01*
X137398592Y-95615241D01*
X137482423Y-95797084D01*
X137536911Y-95874182D01*
X137582925Y-95939291D01*
X137605906Y-96006465D01*
X137588922Y-96075400D01*
X137537364Y-96124210D01*
X137480028Y-96138011D01*
X136837293Y-96138011D01*
X136769172Y-96118009D01*
X136722679Y-96064353D01*
X136712575Y-95994079D01*
X136740418Y-95931444D01*
X136791733Y-95869744D01*
X136889572Y-95695038D01*
X136916023Y-95617115D01*
X136952080Y-95510897D01*
X136952081Y-95510892D01*
X136953936Y-95505428D01*
X136982668Y-95307264D01*
X136984168Y-95250000D01*
X136965846Y-95050604D01*
X136911494Y-94857885D01*
X136822932Y-94678299D01*
X136813030Y-94665038D01*
X136751952Y-94583246D01*
X136703125Y-94517859D01*
X136577897Y-94402099D01*
X136560328Y-94385858D01*
X136560326Y-94385856D01*
X136556087Y-94381938D01*
X136412104Y-94291091D01*
X136391622Y-94278168D01*
X136386742Y-94275089D01*
X136381382Y-94272951D01*
X136381379Y-94272949D01*
X136206125Y-94203030D01*
X136200761Y-94200890D01*
X136195101Y-94199764D01*
X136195097Y-94199763D01*
X136010039Y-94162953D01*
X136010037Y-94162953D01*
X136004372Y-94161826D01*
X135998597Y-94161750D01*
X135998593Y-94161750D01*
X135898641Y-94160442D01*
X135804153Y-94159205D01*
X135798456Y-94160184D01*
X135798455Y-94160184D01*
X135612505Y-94192136D01*
X135606808Y-94193115D01*
X135418949Y-94262420D01*
X135246864Y-94364799D01*
X135242524Y-94368605D01*
X135242520Y-94368608D01*
X135133986Y-94463791D01*
X135096319Y-94496824D01*
X134972354Y-94654073D01*
X134969666Y-94659183D01*
X134969661Y-94659191D01*
X134908312Y-94775797D01*
X134879121Y-94831280D01*
X134877407Y-94836800D01*
X134842908Y-94947905D01*
X134819742Y-95022510D01*
X134796207Y-95221358D01*
X134809303Y-95421166D01*
X134858592Y-95615241D01*
X134942423Y-95797084D01*
X134996911Y-95874182D01*
X135042925Y-95939291D01*
X135065906Y-96006465D01*
X135048922Y-96075400D01*
X134997364Y-96124210D01*
X134940028Y-96138011D01*
X134297293Y-96138011D01*
X134229172Y-96118009D01*
X134182679Y-96064353D01*
X134172575Y-95994079D01*
X134200418Y-95931444D01*
X134251733Y-95869744D01*
X134349572Y-95695038D01*
X134376023Y-95617115D01*
X134412080Y-95510897D01*
X134412081Y-95510892D01*
X134413936Y-95505428D01*
X134442668Y-95307264D01*
X134444168Y-95250000D01*
X134425846Y-95050604D01*
X134371494Y-94857885D01*
X134282932Y-94678299D01*
X134273030Y-94665038D01*
X134211952Y-94583246D01*
X134163125Y-94517859D01*
X134037897Y-94402099D01*
X134020328Y-94385858D01*
X134020326Y-94385856D01*
X134016087Y-94381938D01*
X133872104Y-94291091D01*
X133851622Y-94278168D01*
X133846742Y-94275089D01*
X133841382Y-94272951D01*
X133841379Y-94272949D01*
X133666125Y-94203030D01*
X133660761Y-94200890D01*
X133655101Y-94199764D01*
X133655097Y-94199763D01*
X133470039Y-94162953D01*
X133470037Y-94162953D01*
X133464372Y-94161826D01*
X133458597Y-94161750D01*
X133458593Y-94161750D01*
X133358641Y-94160442D01*
X133264153Y-94159205D01*
X133258456Y-94160184D01*
X133258455Y-94160184D01*
X133072505Y-94192136D01*
X133066808Y-94193115D01*
X132878949Y-94262420D01*
X132706864Y-94364799D01*
X132702524Y-94368605D01*
X132702520Y-94368608D01*
X132593986Y-94463791D01*
X132556319Y-94496824D01*
X132432354Y-94654073D01*
X132429666Y-94659183D01*
X132429661Y-94659191D01*
X132368312Y-94775797D01*
X132339121Y-94831280D01*
X132337407Y-94836800D01*
X132302908Y-94947905D01*
X132279742Y-95022510D01*
X132256207Y-95221358D01*
X132269303Y-95421166D01*
X132318592Y-95615241D01*
X132402423Y-95797084D01*
X132456911Y-95874182D01*
X132502925Y-95939291D01*
X132525906Y-96006465D01*
X132508922Y-96075400D01*
X132457364Y-96124210D01*
X132400028Y-96138011D01*
X132210527Y-96138011D01*
X132142406Y-96118009D01*
X132121432Y-96101106D01*
X131841100Y-95820774D01*
X131807074Y-95758462D01*
X131810882Y-95691179D01*
X131868950Y-95520116D01*
X131872081Y-95510893D01*
X131872081Y-95510892D01*
X131873936Y-95505428D01*
X131902668Y-95307264D01*
X131904168Y-95250000D01*
X131885846Y-95050604D01*
X131831494Y-94857885D01*
X131742932Y-94678299D01*
X131733030Y-94665038D01*
X131671952Y-94583246D01*
X131623125Y-94517859D01*
X131497897Y-94402099D01*
X131480328Y-94385858D01*
X131480326Y-94385856D01*
X131476087Y-94381938D01*
X131332104Y-94291091D01*
X131311622Y-94278168D01*
X131306742Y-94275089D01*
X131301382Y-94272951D01*
X131301379Y-94272949D01*
X131126125Y-94203030D01*
X131120761Y-94200890D01*
X131115101Y-94199764D01*
X131115097Y-94199763D01*
X130930039Y-94162953D01*
X130930037Y-94162953D01*
X130924372Y-94161826D01*
X130918597Y-94161750D01*
X130918593Y-94161750D01*
X130818641Y-94160442D01*
X130724153Y-94159205D01*
X130718456Y-94160184D01*
X130718455Y-94160184D01*
X130532505Y-94192136D01*
X130526808Y-94193115D01*
X130338949Y-94262420D01*
X130166864Y-94364799D01*
X130162524Y-94368605D01*
X130162520Y-94368608D01*
X130053986Y-94463791D01*
X130016319Y-94496824D01*
X129892354Y-94654073D01*
X129889666Y-94659183D01*
X129889661Y-94659191D01*
X129828312Y-94775797D01*
X129799121Y-94831280D01*
X129797407Y-94836800D01*
X129762908Y-94947905D01*
X129739742Y-95022510D01*
X129716207Y-95221358D01*
X129729303Y-95421166D01*
X129778592Y-95615241D01*
X129862423Y-95797084D01*
X129865756Y-95801800D01*
X129967791Y-95946176D01*
X129977988Y-95960605D01*
X130121418Y-96100328D01*
X130287908Y-96211574D01*
X130293211Y-96213852D01*
X130293214Y-96213854D01*
X130323410Y-96226827D01*
X130471883Y-96290616D01*
X130667182Y-96334807D01*
X130672956Y-96335034D01*
X130672957Y-96335034D01*
X130714134Y-96336652D01*
X130867264Y-96342668D01*
X131065428Y-96313936D01*
X131251179Y-96250882D01*
X131322112Y-96247926D01*
X131380774Y-96281100D01*
X131779400Y-96679726D01*
X131786827Y-96687830D01*
X131811056Y-96716705D01*
X131820605Y-96722218D01*
X131843696Y-96735550D01*
X131852967Y-96741456D01*
X131883827Y-96763065D01*
X131894477Y-96765919D01*
X131897645Y-96767396D01*
X131900921Y-96768588D01*
X131910466Y-96774099D01*
X131944210Y-96780049D01*
X131947569Y-96780641D01*
X131958296Y-96783019D01*
X131994704Y-96792775D01*
X132005680Y-96791815D01*
X132005683Y-96791815D01*
X132032254Y-96789490D01*
X132043235Y-96789011D01*
X140124121Y-96789011D01*
X140192242Y-96809013D01*
X140238735Y-96862669D01*
X140248839Y-96932943D01*
X140219345Y-96997523D01*
X140207200Y-97009742D01*
X140176319Y-97036824D01*
X140052354Y-97194073D01*
X139959121Y-97371280D01*
X139899742Y-97562510D01*
X139876207Y-97761358D01*
X139889303Y-97961166D01*
X139938592Y-98155241D01*
X140022423Y-98337084D01*
X140137988Y-98500605D01*
X140281418Y-98640328D01*
X140447908Y-98751574D01*
X140453211Y-98753852D01*
X140453214Y-98753854D01*
X140525088Y-98784733D01*
X140631883Y-98830616D01*
X140827182Y-98874807D01*
X140832956Y-98875034D01*
X140832957Y-98875034D01*
X140874134Y-98876652D01*
X141027264Y-98882668D01*
X141225428Y-98853936D01*
X141230892Y-98852081D01*
X141230897Y-98852080D01*
X141409570Y-98791428D01*
X141415038Y-98789572D01*
X141589744Y-98691733D01*
X141743694Y-98563694D01*
X141871733Y-98409744D01*
X141969572Y-98235038D01*
X141994878Y-98160488D01*
X142032080Y-98050897D01*
X142032081Y-98050892D01*
X142033936Y-98045428D01*
X142062668Y-97847264D01*
X142064168Y-97790000D01*
X142045846Y-97590604D01*
X141991494Y-97397885D01*
X141902932Y-97218299D01*
X141884842Y-97194073D01*
X141786582Y-97062489D01*
X141783125Y-97057859D01*
X141728685Y-97007535D01*
X141692240Y-96946607D01*
X141694521Y-96875647D01*
X141734803Y-96817185D01*
X141800298Y-96789782D01*
X141814214Y-96789011D01*
X142664121Y-96789011D01*
X142732242Y-96809013D01*
X142778735Y-96862669D01*
X142788839Y-96932943D01*
X142759345Y-96997523D01*
X142747200Y-97009742D01*
X142716319Y-97036824D01*
X142592354Y-97194073D01*
X142499121Y-97371280D01*
X142439742Y-97562510D01*
X142416207Y-97761358D01*
X142429303Y-97961166D01*
X142478592Y-98155241D01*
X142562423Y-98337084D01*
X142677988Y-98500605D01*
X142821418Y-98640328D01*
X142987908Y-98751574D01*
X142993211Y-98753852D01*
X142993214Y-98753854D01*
X143065088Y-98784733D01*
X143171883Y-98830616D01*
X143367182Y-98874807D01*
X143372956Y-98875034D01*
X143372957Y-98875034D01*
X143414134Y-98876652D01*
X143567264Y-98882668D01*
X143765428Y-98853936D01*
X143770892Y-98852081D01*
X143770897Y-98852080D01*
X143949570Y-98791428D01*
X143955038Y-98789572D01*
X144129744Y-98691733D01*
X144283694Y-98563694D01*
X144411733Y-98409744D01*
X144509572Y-98235038D01*
X144534878Y-98160488D01*
X144572080Y-98050897D01*
X144572081Y-98050892D01*
X144573936Y-98045428D01*
X144602668Y-97847264D01*
X144604168Y-97790000D01*
X144585846Y-97590604D01*
X144531494Y-97397885D01*
X144442932Y-97218299D01*
X144424842Y-97194073D01*
X144326582Y-97062489D01*
X144323125Y-97057859D01*
X144268685Y-97007535D01*
X144232240Y-96946607D01*
X144234521Y-96875647D01*
X144274803Y-96817185D01*
X144340298Y-96789782D01*
X144354214Y-96789011D01*
X146252660Y-96789011D01*
X146320781Y-96809013D01*
X146341755Y-96825916D01*
X157507595Y-107991757D01*
X157541621Y-108054069D01*
X157544500Y-108080852D01*
X157544500Y-117973500D01*
X157524498Y-118041621D01*
X157470842Y-118088114D01*
X157418500Y-118099500D01*
X157350252Y-118099500D01*
X157344184Y-118100707D01*
X157303939Y-118108712D01*
X157303938Y-118108712D01*
X157291769Y-118111133D01*
X157225448Y-118155448D01*
X157218557Y-118165761D01*
X157209778Y-118174540D01*
X157206757Y-118171519D01*
X157170279Y-118202001D01*
X157099835Y-118210843D01*
X157035793Y-118180197D01*
X157030581Y-118174181D01*
X157030222Y-118174540D01*
X157021443Y-118165761D01*
X157014552Y-118155448D01*
X156948231Y-118111133D01*
X156936062Y-118108712D01*
X156936061Y-118108712D01*
X156895816Y-118100707D01*
X156889748Y-118099500D01*
X155850252Y-118099500D01*
X155844184Y-118100707D01*
X155803939Y-118108712D01*
X155803938Y-118108712D01*
X155791769Y-118111133D01*
X155725448Y-118155448D01*
X155718557Y-118165761D01*
X155709778Y-118174540D01*
X155706757Y-118171519D01*
X155670279Y-118202001D01*
X155599835Y-118210843D01*
X155535793Y-118180197D01*
X155530581Y-118174181D01*
X155530222Y-118174540D01*
X155521443Y-118165761D01*
X155514552Y-118155448D01*
X155448231Y-118111133D01*
X155436062Y-118108712D01*
X155436061Y-118108712D01*
X155395816Y-118100707D01*
X155389748Y-118099500D01*
X155321500Y-118099500D01*
X155253379Y-118079498D01*
X155206886Y-118025842D01*
X155195500Y-117973500D01*
X155195500Y-111129286D01*
X155215502Y-111061165D01*
X155244796Y-111029323D01*
X155291736Y-110993305D01*
X155298282Y-110988282D01*
X155394536Y-110862841D01*
X155455044Y-110716762D01*
X155475682Y-110560000D01*
X155455044Y-110403238D01*
X155394536Y-110257159D01*
X155298282Y-110131718D01*
X155290299Y-110125592D01*
X155231594Y-110080547D01*
X155172841Y-110035464D01*
X155026762Y-109974956D01*
X154870000Y-109954318D01*
X154713238Y-109974956D01*
X154567159Y-110035464D01*
X154508406Y-110080547D01*
X154449702Y-110125592D01*
X154441718Y-110131718D01*
X154345464Y-110257159D01*
X154284956Y-110403238D01*
X154264318Y-110560000D01*
X154284956Y-110716762D01*
X154345464Y-110862841D01*
X154441718Y-110988282D01*
X154448264Y-110993305D01*
X154495204Y-111029323D01*
X154537071Y-111086661D01*
X154544500Y-111129286D01*
X154544500Y-117973500D01*
X154524498Y-118041621D01*
X154470842Y-118088114D01*
X154418500Y-118099500D01*
X154350252Y-118099500D01*
X154344184Y-118100707D01*
X154303939Y-118108712D01*
X154303938Y-118108712D01*
X154291769Y-118111133D01*
X154225448Y-118155448D01*
X154218557Y-118165761D01*
X154209778Y-118174540D01*
X154206757Y-118171519D01*
X154170279Y-118202001D01*
X154099835Y-118210843D01*
X154035793Y-118180197D01*
X154030581Y-118174181D01*
X154030222Y-118174540D01*
X154021443Y-118165761D01*
X154014552Y-118155448D01*
X153948231Y-118111133D01*
X153936062Y-118108712D01*
X153936061Y-118108712D01*
X153895816Y-118100707D01*
X153889748Y-118099500D01*
X153821500Y-118099500D01*
X153753379Y-118079498D01*
X153706886Y-118025842D01*
X153695500Y-117973500D01*
X153695500Y-108939711D01*
X153695980Y-108928729D01*
X153698303Y-108902176D01*
X153699264Y-108891194D01*
X153696410Y-108880542D01*
X153689511Y-108854792D01*
X153687133Y-108844065D01*
X153682504Y-108817815D01*
X153682502Y-108817810D01*
X153680588Y-108806955D01*
X153675075Y-108797407D01*
X153673883Y-108794131D01*
X153672409Y-108790969D01*
X153669554Y-108780316D01*
X153647945Y-108749456D01*
X153642039Y-108740185D01*
X153628707Y-108717094D01*
X153623194Y-108707545D01*
X153594317Y-108683315D01*
X153586215Y-108675889D01*
X145024111Y-100113785D01*
X145016684Y-100105681D01*
X144999541Y-100085251D01*
X144999542Y-100085251D01*
X144992455Y-100076806D01*
X144982906Y-100071293D01*
X144959815Y-100057961D01*
X144950544Y-100052055D01*
X144928715Y-100036770D01*
X144919684Y-100030446D01*
X144909034Y-100027592D01*
X144905866Y-100026115D01*
X144902590Y-100024923D01*
X144893045Y-100019412D01*
X144859301Y-100013462D01*
X144855942Y-100012870D01*
X144845215Y-100010492D01*
X144808807Y-100000736D01*
X144797822Y-100001697D01*
X144797820Y-100001697D01*
X144771272Y-100004020D01*
X144760290Y-100004500D01*
X144642697Y-100004500D01*
X144574576Y-99984498D01*
X144529691Y-99934229D01*
X144515850Y-99906163D01*
X144442932Y-99758299D01*
X144424842Y-99734073D01*
X144326582Y-99602489D01*
X144323125Y-99597859D01*
X144296251Y-99573017D01*
X144180328Y-99465858D01*
X144180326Y-99465856D01*
X144176087Y-99461938D01*
X144006742Y-99355089D01*
X144001382Y-99352951D01*
X144001379Y-99352949D01*
X143826125Y-99283030D01*
X143820761Y-99280890D01*
X143815101Y-99279764D01*
X143815097Y-99279763D01*
X143630039Y-99242953D01*
X143630037Y-99242953D01*
X143624372Y-99241826D01*
X143618597Y-99241750D01*
X143618593Y-99241750D01*
X143518641Y-99240442D01*
X143424153Y-99239205D01*
X143418456Y-99240184D01*
X143418455Y-99240184D01*
X143232505Y-99272136D01*
X143226808Y-99273115D01*
X143038949Y-99342420D01*
X142866864Y-99444799D01*
X142862524Y-99448605D01*
X142862520Y-99448608D01*
X142831067Y-99476192D01*
X142716319Y-99576824D01*
X142592354Y-99734073D01*
X142499121Y-99911280D01*
X142497407Y-99916800D01*
X142462119Y-100030446D01*
X142439742Y-100102510D01*
X142416207Y-100301358D01*
X142429303Y-100501166D01*
X142478592Y-100695241D01*
X142562423Y-100877084D01*
X142677988Y-101040605D01*
X142821418Y-101180328D01*
X142987908Y-101291574D01*
X142993211Y-101293852D01*
X142993214Y-101293854D01*
X143023410Y-101306827D01*
X143171883Y-101370616D01*
X143367182Y-101414807D01*
X143372956Y-101415034D01*
X143372957Y-101415034D01*
X143414134Y-101416652D01*
X143567264Y-101422668D01*
X143765428Y-101393936D01*
X143770892Y-101392081D01*
X143770897Y-101392080D01*
X143922536Y-101340605D01*
X143955038Y-101329572D01*
X144129744Y-101231733D01*
X144283694Y-101103694D01*
X144411733Y-100949744D01*
X144509572Y-100775038D01*
X144511427Y-100769574D01*
X144513206Y-100765578D01*
X144559186Y-100711483D01*
X144627113Y-100690834D01*
X144695421Y-100710187D01*
X144717407Y-100727733D01*
X153007595Y-109017921D01*
X153041621Y-109080233D01*
X153044500Y-109107016D01*
X153044500Y-117973500D01*
X153024498Y-118041621D01*
X152970842Y-118088114D01*
X152918500Y-118099500D01*
X152850252Y-118099500D01*
X152844184Y-118100707D01*
X152803939Y-118108712D01*
X152803938Y-118108712D01*
X152791769Y-118111133D01*
X152725448Y-118155448D01*
X152718557Y-118165761D01*
X152709778Y-118174540D01*
X152706757Y-118171519D01*
X152670279Y-118202001D01*
X152599835Y-118210843D01*
X152535793Y-118180197D01*
X152530581Y-118174181D01*
X152530222Y-118174540D01*
X152521443Y-118165761D01*
X152514552Y-118155448D01*
X152448231Y-118111133D01*
X152436062Y-118108712D01*
X152436061Y-118108712D01*
X152395816Y-118100707D01*
X152389748Y-118099500D01*
X152321500Y-118099500D01*
X152253379Y-118079498D01*
X152206886Y-118025842D01*
X152195500Y-117973500D01*
X152195500Y-112073548D01*
X152195979Y-112062567D01*
X152198303Y-112036005D01*
X152198303Y-112036003D01*
X152199263Y-112025028D01*
X152189508Y-111988618D01*
X152187133Y-111977907D01*
X152182501Y-111951641D01*
X152180588Y-111940790D01*
X152175078Y-111931246D01*
X152173886Y-111927970D01*
X152172407Y-111924799D01*
X152169554Y-111914151D01*
X152147940Y-111883283D01*
X152142036Y-111874014D01*
X152128709Y-111850931D01*
X152128707Y-111850928D01*
X152123194Y-111841380D01*
X152105869Y-111826842D01*
X152094331Y-111817161D01*
X152086227Y-111809735D01*
X148141520Y-107865028D01*
X144182896Y-103906405D01*
X144148870Y-103844093D01*
X144153935Y-103773278D01*
X144191422Y-103720436D01*
X144279256Y-103647385D01*
X144283694Y-103643694D01*
X144411733Y-103489744D01*
X144509572Y-103315038D01*
X144534878Y-103240488D01*
X144572080Y-103130897D01*
X144572081Y-103130892D01*
X144573936Y-103125428D01*
X144602668Y-102927264D01*
X144604168Y-102870000D01*
X144585846Y-102670604D01*
X144531494Y-102477885D01*
X144442932Y-102298299D01*
X144424842Y-102274073D01*
X144326582Y-102142489D01*
X144323125Y-102137859D01*
X144296251Y-102113017D01*
X144180328Y-102005858D01*
X144180326Y-102005856D01*
X144176087Y-102001938D01*
X144006742Y-101895089D01*
X144001382Y-101892951D01*
X144001379Y-101892949D01*
X143826125Y-101823030D01*
X143820761Y-101820890D01*
X143815101Y-101819764D01*
X143815097Y-101819763D01*
X143630039Y-101782953D01*
X143630037Y-101782953D01*
X143624372Y-101781826D01*
X143618597Y-101781750D01*
X143618593Y-101781750D01*
X143518641Y-101780442D01*
X143424153Y-101779205D01*
X143418456Y-101780184D01*
X143418455Y-101780184D01*
X143232505Y-101812136D01*
X143226808Y-101813115D01*
X143038949Y-101882420D01*
X142866864Y-101984799D01*
X142862524Y-101988605D01*
X142862520Y-101988608D01*
X142831067Y-102016192D01*
X142716319Y-102116824D01*
X142592354Y-102274073D01*
X142589663Y-102279189D01*
X142589661Y-102279191D01*
X142504152Y-102441718D01*
X142499121Y-102451280D01*
X142439742Y-102642510D01*
X142416207Y-102841358D01*
X142429303Y-103041166D01*
X142478592Y-103235241D01*
X142562423Y-103417084D01*
X142662095Y-103558116D01*
X142662925Y-103559291D01*
X142685906Y-103626465D01*
X142668922Y-103695400D01*
X142617364Y-103744210D01*
X142560028Y-103758011D01*
X141917293Y-103758011D01*
X141849172Y-103738009D01*
X141802679Y-103684353D01*
X141792575Y-103614079D01*
X141820418Y-103551444D01*
X141871733Y-103489744D01*
X141969572Y-103315038D01*
X141994878Y-103240488D01*
X142032080Y-103130897D01*
X142032081Y-103130892D01*
X142033936Y-103125428D01*
X142062668Y-102927264D01*
X142064168Y-102870000D01*
X142045846Y-102670604D01*
X141991494Y-102477885D01*
X141902932Y-102298299D01*
X141884842Y-102274073D01*
X141786582Y-102142489D01*
X141783125Y-102137859D01*
X141756251Y-102113017D01*
X141640328Y-102005858D01*
X141640326Y-102005856D01*
X141636087Y-102001938D01*
X141466742Y-101895089D01*
X141461382Y-101892951D01*
X141461379Y-101892949D01*
X141286125Y-101823030D01*
X141280761Y-101820890D01*
X141275101Y-101819764D01*
X141275097Y-101819763D01*
X141090039Y-101782953D01*
X141090037Y-101782953D01*
X141084372Y-101781826D01*
X141078597Y-101781750D01*
X141078593Y-101781750D01*
X140978641Y-101780442D01*
X140884153Y-101779205D01*
X140878456Y-101780184D01*
X140878455Y-101780184D01*
X140692505Y-101812136D01*
X140686808Y-101813115D01*
X140498949Y-101882420D01*
X140326864Y-101984799D01*
X140322521Y-101988608D01*
X140322514Y-101988613D01*
X140291066Y-102016192D01*
X140226662Y-102046069D01*
X140156329Y-102036383D01*
X140102398Y-101990210D01*
X140081989Y-101921460D01*
X140081989Y-101730527D01*
X140101991Y-101662406D01*
X140118894Y-101641432D01*
X140402109Y-101358217D01*
X140464421Y-101324191D01*
X140540942Y-101331545D01*
X140626573Y-101368335D01*
X140626576Y-101368336D01*
X140631883Y-101370616D01*
X140827182Y-101414807D01*
X140832956Y-101415034D01*
X140832957Y-101415034D01*
X140874134Y-101416652D01*
X141027264Y-101422668D01*
X141225428Y-101393936D01*
X141230892Y-101392081D01*
X141230897Y-101392080D01*
X141382536Y-101340605D01*
X141415038Y-101329572D01*
X141589744Y-101231733D01*
X141743694Y-101103694D01*
X141871733Y-100949744D01*
X141969572Y-100775038D01*
X141994878Y-100700488D01*
X142032080Y-100590897D01*
X142032081Y-100590892D01*
X142033936Y-100585428D01*
X142062668Y-100387264D01*
X142064168Y-100330000D01*
X142045846Y-100130604D01*
X141991494Y-99937885D01*
X141902932Y-99758299D01*
X141884842Y-99734073D01*
X141786582Y-99602489D01*
X141783125Y-99597859D01*
X141756251Y-99573017D01*
X141640328Y-99465858D01*
X141640326Y-99465856D01*
X141636087Y-99461938D01*
X141466742Y-99355089D01*
X141461382Y-99352951D01*
X141461379Y-99352949D01*
X141286125Y-99283030D01*
X141280761Y-99280890D01*
X141275101Y-99279764D01*
X141275097Y-99279763D01*
X141090039Y-99242953D01*
X141090037Y-99242953D01*
X141084372Y-99241826D01*
X141078597Y-99241750D01*
X141078593Y-99241750D01*
X140978641Y-99240442D01*
X140884153Y-99239205D01*
X140878456Y-99240184D01*
X140878455Y-99240184D01*
X140692505Y-99272136D01*
X140686808Y-99273115D01*
X140498949Y-99342420D01*
X140326864Y-99444799D01*
X140322524Y-99448605D01*
X140322520Y-99448608D01*
X140291067Y-99476192D01*
X140176319Y-99576824D01*
X140052354Y-99734073D01*
X139959121Y-99911280D01*
X139957407Y-99916800D01*
X139922119Y-100030446D01*
X139899742Y-100102510D01*
X139876207Y-100301358D01*
X139889303Y-100501166D01*
X139938592Y-100695241D01*
X139941011Y-100700488D01*
X139966778Y-100756381D01*
X139977133Y-100826618D01*
X139947870Y-100891304D01*
X139941447Y-100898227D01*
X139540274Y-101299400D01*
X139532170Y-101306827D01*
X139503295Y-101331056D01*
X139497782Y-101340605D01*
X139484450Y-101363696D01*
X139478544Y-101372967D01*
X139456935Y-101403827D01*
X139454081Y-101414477D01*
X139452604Y-101417645D01*
X139451412Y-101420921D01*
X139445901Y-101430466D01*
X139439951Y-101464210D01*
X139439359Y-101467569D01*
X139436981Y-101478296D01*
X139427225Y-101514704D01*
X139428186Y-101525689D01*
X139428186Y-101525691D01*
X139430509Y-101552239D01*
X139430989Y-101563221D01*
X139430989Y-103352944D01*
X139430509Y-103363926D01*
X139427225Y-103401461D01*
X139436980Y-103437864D01*
X139439359Y-103448596D01*
X139445901Y-103485699D01*
X139451412Y-103495244D01*
X139452604Y-103498520D01*
X139454081Y-103501688D01*
X139456935Y-103512338D01*
X139463259Y-103521369D01*
X139478544Y-103543198D01*
X139484450Y-103552469D01*
X139488389Y-103559291D01*
X139503295Y-103585109D01*
X139511740Y-103592195D01*
X139532171Y-103609339D01*
X139540274Y-103616765D01*
X140223235Y-104299726D01*
X140230662Y-104307830D01*
X140254891Y-104336705D01*
X140264440Y-104342218D01*
X140275348Y-104348516D01*
X140324342Y-104399898D01*
X140337780Y-104469611D01*
X140311394Y-104535522D01*
X140295429Y-104552367D01*
X140176319Y-104656824D01*
X140172744Y-104661359D01*
X140172743Y-104661360D01*
X140084963Y-104772709D01*
X140052354Y-104814073D01*
X140049663Y-104819189D01*
X140049661Y-104819191D01*
X139964153Y-104981716D01*
X139959121Y-104991280D01*
X139899742Y-105182510D01*
X139876207Y-105381358D01*
X139889303Y-105581166D01*
X139938592Y-105775241D01*
X140022423Y-105957084D01*
X140025756Y-105961800D01*
X140117771Y-106091998D01*
X140137988Y-106120605D01*
X140281418Y-106260328D01*
X140447908Y-106371574D01*
X140453211Y-106373852D01*
X140453214Y-106373854D01*
X140510294Y-106398377D01*
X140564987Y-106443645D01*
X140586524Y-106511296D01*
X140568067Y-106579852D01*
X140515476Y-106627546D01*
X140499702Y-106633910D01*
X140431700Y-106656137D01*
X140422195Y-106660132D01*
X140227603Y-106761431D01*
X140218890Y-106766918D01*
X140191819Y-106787244D01*
X140183365Y-106798570D01*
X140190108Y-106810897D01*
X140957189Y-107577979D01*
X140971132Y-107585592D01*
X140972966Y-107585461D01*
X140979580Y-107581210D01*
X141751162Y-106809627D01*
X141758179Y-106796776D01*
X141750405Y-106786107D01*
X141749796Y-106785625D01*
X141741210Y-106779921D01*
X141549151Y-106673900D01*
X141539748Y-106669674D01*
X141440956Y-106634690D01*
X141383419Y-106593096D01*
X141357503Y-106526999D01*
X141371437Y-106457383D01*
X141421449Y-106405982D01*
X141584710Y-106314552D01*
X141589744Y-106311733D01*
X141743694Y-106183694D01*
X141871733Y-106029744D01*
X141969572Y-105855038D01*
X141994878Y-105780488D01*
X142032080Y-105670897D01*
X142032081Y-105670892D01*
X142033936Y-105665428D01*
X142062668Y-105467264D01*
X142064168Y-105410000D01*
X142045846Y-105210604D01*
X141991494Y-105017885D01*
X141902932Y-104838299D01*
X141895327Y-104828114D01*
X141813166Y-104718089D01*
X141783125Y-104677859D01*
X141728685Y-104627535D01*
X141692240Y-104566607D01*
X141694521Y-104495647D01*
X141734803Y-104437185D01*
X141800298Y-104409782D01*
X141814214Y-104409011D01*
X142664121Y-104409011D01*
X142732242Y-104429013D01*
X142778735Y-104482669D01*
X142788839Y-104552943D01*
X142759345Y-104617523D01*
X142747200Y-104629742D01*
X142716319Y-104656824D01*
X142712744Y-104661359D01*
X142712743Y-104661360D01*
X142624963Y-104772709D01*
X142592354Y-104814073D01*
X142589663Y-104819189D01*
X142589661Y-104819191D01*
X142504153Y-104981716D01*
X142499121Y-104991280D01*
X142439742Y-105182510D01*
X142416207Y-105381358D01*
X142429303Y-105581166D01*
X142478592Y-105775241D01*
X142562423Y-105957084D01*
X142565756Y-105961800D01*
X142657771Y-106091998D01*
X142677988Y-106120605D01*
X142821418Y-106260328D01*
X142987908Y-106371574D01*
X142993211Y-106373852D01*
X142993214Y-106373854D01*
X143065088Y-106404733D01*
X143171883Y-106450616D01*
X143367182Y-106494807D01*
X143372956Y-106495034D01*
X143372957Y-106495034D01*
X143414134Y-106496652D01*
X143567264Y-106502668D01*
X143765428Y-106473936D01*
X143770892Y-106472081D01*
X143770897Y-106472080D01*
X143949570Y-106411428D01*
X143955038Y-106409572D01*
X144129744Y-106311733D01*
X144283694Y-106183694D01*
X144411733Y-106029744D01*
X144509572Y-105855038D01*
X144534878Y-105780488D01*
X144572080Y-105670897D01*
X144572081Y-105670892D01*
X144573936Y-105665428D01*
X144574764Y-105659719D01*
X144574765Y-105659714D01*
X144594517Y-105523484D01*
X144624087Y-105458938D01*
X144683859Y-105420626D01*
X144754855Y-105420710D01*
X144808308Y-105452469D01*
X148159376Y-108803538D01*
X151507595Y-112151757D01*
X151541621Y-112214069D01*
X151544500Y-112240852D01*
X151544500Y-117973500D01*
X151524498Y-118041621D01*
X151470842Y-118088114D01*
X151418500Y-118099500D01*
X151350252Y-118099500D01*
X151344184Y-118100707D01*
X151303939Y-118108712D01*
X151303938Y-118108712D01*
X151291769Y-118111133D01*
X151225448Y-118155448D01*
X151218557Y-118165761D01*
X151209778Y-118174540D01*
X151206757Y-118171519D01*
X151170279Y-118202001D01*
X151099835Y-118210843D01*
X151035793Y-118180197D01*
X151030581Y-118174181D01*
X151030222Y-118174540D01*
X151021443Y-118165761D01*
X151014552Y-118155448D01*
X150948231Y-118111133D01*
X150936062Y-118108712D01*
X150936061Y-118108712D01*
X150895816Y-118100707D01*
X150889748Y-118099500D01*
X150182016Y-118099500D01*
X150113895Y-118079498D01*
X150092921Y-118062595D01*
X144014597Y-111984271D01*
X143980571Y-111921959D01*
X143985636Y-111851144D01*
X144028183Y-111794308D01*
X144048260Y-111782025D01*
X144223128Y-111696358D01*
X144231983Y-111691079D01*
X144287209Y-111651686D01*
X144295609Y-111640987D01*
X144288622Y-111627833D01*
X143151922Y-110491132D01*
X143874408Y-110491132D01*
X143874539Y-110492966D01*
X143878790Y-110499580D01*
X144648425Y-111269214D01*
X144660431Y-111275770D01*
X144672170Y-111266802D01*
X144708549Y-111216174D01*
X144713860Y-111207335D01*
X144811056Y-111010675D01*
X144814854Y-111001082D01*
X144878628Y-110791177D01*
X144880805Y-110781107D01*
X144909677Y-110561799D01*
X144910196Y-110555124D01*
X144911706Y-110493364D01*
X144911512Y-110486646D01*
X144893389Y-110266203D01*
X144891706Y-110256041D01*
X144838261Y-110043263D01*
X144834943Y-110033516D01*
X144747462Y-109832323D01*
X144742595Y-109823246D01*
X144671268Y-109712993D01*
X144660582Y-109703791D01*
X144651017Y-109708194D01*
X143882021Y-110477189D01*
X143874408Y-110491132D01*
X143151922Y-110491132D01*
X143150790Y-110490000D01*
X142371780Y-109710991D01*
X142360246Y-109704693D01*
X142347964Y-109714316D01*
X142294064Y-109793329D01*
X142288976Y-109802285D01*
X142196611Y-110001270D01*
X142191267Y-110015797D01*
X142189947Y-110015311D01*
X142155891Y-110070110D01*
X142091764Y-110100577D01*
X142021345Y-110091538D01*
X141966992Y-110045862D01*
X141958941Y-110031874D01*
X141950773Y-110015311D01*
X141902932Y-109918299D01*
X141884842Y-109894073D01*
X141818360Y-109805044D01*
X141783125Y-109757859D01*
X141664586Y-109648282D01*
X141640328Y-109625858D01*
X141640326Y-109625856D01*
X141636087Y-109621938D01*
X141466742Y-109515089D01*
X141461382Y-109512951D01*
X141461377Y-109512948D01*
X141436763Y-109503128D01*
X141380905Y-109459307D01*
X141357605Y-109392243D01*
X141374262Y-109323228D01*
X141425586Y-109274174D01*
X141447249Y-109265413D01*
X141476521Y-109256631D01*
X141486125Y-109252868D01*
X141683138Y-109156352D01*
X141691983Y-109151079D01*
X141747209Y-109111686D01*
X141755609Y-109100987D01*
X141748622Y-109087833D01*
X140982811Y-108322021D01*
X140968868Y-108314408D01*
X140967034Y-108314539D01*
X140960420Y-108318790D01*
X140188221Y-109090990D01*
X140181464Y-109103365D01*
X140186745Y-109110420D01*
X140359846Y-109211571D01*
X140369132Y-109216021D01*
X140500813Y-109266304D01*
X140557316Y-109309291D01*
X140581609Y-109376002D01*
X140565979Y-109445257D01*
X140515388Y-109495067D01*
X140509483Y-109497723D01*
X140509583Y-109497933D01*
X140504365Y-109500422D01*
X140498949Y-109502420D01*
X140326864Y-109604799D01*
X140322524Y-109608605D01*
X140322520Y-109608608D01*
X140213986Y-109703791D01*
X140176319Y-109736824D01*
X140172744Y-109741359D01*
X140172743Y-109741360D01*
X140084963Y-109852709D01*
X140052354Y-109894073D01*
X140049666Y-109899183D01*
X140049661Y-109899191D01*
X139975320Y-110040491D01*
X139959121Y-110071280D01*
X139954809Y-110085168D01*
X139901494Y-110256869D01*
X139899742Y-110262510D01*
X139876207Y-110461358D01*
X139889303Y-110661166D01*
X139938592Y-110855241D01*
X140022423Y-111037084D01*
X140122095Y-111178116D01*
X140122925Y-111179291D01*
X140145906Y-111246465D01*
X140128922Y-111315400D01*
X140077364Y-111364210D01*
X140020028Y-111378011D01*
X139377293Y-111378011D01*
X139309172Y-111358009D01*
X139262679Y-111304353D01*
X139252575Y-111234079D01*
X139280418Y-111171444D01*
X139331733Y-111109744D01*
X139429572Y-110935038D01*
X139455881Y-110857534D01*
X139492080Y-110750897D01*
X139492081Y-110750892D01*
X139493936Y-110745428D01*
X139522668Y-110547264D01*
X139524168Y-110490000D01*
X139505846Y-110290604D01*
X139498566Y-110264789D01*
X139470603Y-110165642D01*
X139451494Y-110097885D01*
X139362932Y-109918299D01*
X139344842Y-109894073D01*
X139278360Y-109805044D01*
X139243125Y-109757859D01*
X139124586Y-109648282D01*
X139100328Y-109625858D01*
X139100326Y-109625856D01*
X139096087Y-109621938D01*
X138926742Y-109515089D01*
X138921382Y-109512951D01*
X138921379Y-109512949D01*
X138746125Y-109443030D01*
X138740761Y-109440890D01*
X138735101Y-109439764D01*
X138735097Y-109439763D01*
X138550039Y-109402953D01*
X138550037Y-109402953D01*
X138544372Y-109401826D01*
X138538597Y-109401750D01*
X138538593Y-109401750D01*
X138438641Y-109400442D01*
X138344153Y-109399205D01*
X138338456Y-109400184D01*
X138338455Y-109400184D01*
X138164773Y-109430028D01*
X138146808Y-109433115D01*
X137958949Y-109502420D01*
X137786864Y-109604799D01*
X137782524Y-109608605D01*
X137782520Y-109608608D01*
X137673986Y-109703791D01*
X137636319Y-109736824D01*
X137632744Y-109741359D01*
X137632743Y-109741360D01*
X137544963Y-109852709D01*
X137512354Y-109894073D01*
X137509666Y-109899183D01*
X137509661Y-109899191D01*
X137435320Y-110040491D01*
X137419121Y-110071280D01*
X137414809Y-110085168D01*
X137361494Y-110256869D01*
X137359742Y-110262510D01*
X137336207Y-110461358D01*
X137349303Y-110661166D01*
X137398592Y-110855241D01*
X137482423Y-111037084D01*
X137582095Y-111178116D01*
X137582925Y-111179291D01*
X137605906Y-111246465D01*
X137588922Y-111315400D01*
X137537364Y-111364210D01*
X137480028Y-111378011D01*
X136837293Y-111378011D01*
X136769172Y-111358009D01*
X136722679Y-111304353D01*
X136712575Y-111234079D01*
X136740418Y-111171444D01*
X136791733Y-111109744D01*
X136889572Y-110935038D01*
X136915881Y-110857534D01*
X136952080Y-110750897D01*
X136952081Y-110750892D01*
X136953936Y-110745428D01*
X136982668Y-110547264D01*
X136984168Y-110490000D01*
X136965846Y-110290604D01*
X136958566Y-110264789D01*
X136930603Y-110165642D01*
X136911494Y-110097885D01*
X136822932Y-109918299D01*
X136804842Y-109894073D01*
X136738360Y-109805044D01*
X136703125Y-109757859D01*
X136584586Y-109648282D01*
X136560328Y-109625858D01*
X136560326Y-109625856D01*
X136556087Y-109621938D01*
X136386742Y-109515089D01*
X136381382Y-109512951D01*
X136381379Y-109512949D01*
X136206125Y-109443030D01*
X136200761Y-109440890D01*
X136195101Y-109439764D01*
X136195097Y-109439763D01*
X136010039Y-109402953D01*
X136010037Y-109402953D01*
X136004372Y-109401826D01*
X135998597Y-109401750D01*
X135998593Y-109401750D01*
X135898641Y-109400442D01*
X135804153Y-109399205D01*
X135798456Y-109400184D01*
X135798455Y-109400184D01*
X135624773Y-109430028D01*
X135606808Y-109433115D01*
X135418949Y-109502420D01*
X135246864Y-109604799D01*
X135242524Y-109608605D01*
X135242520Y-109608608D01*
X135133986Y-109703791D01*
X135096319Y-109736824D01*
X135092744Y-109741359D01*
X135092743Y-109741360D01*
X135004963Y-109852709D01*
X134972354Y-109894073D01*
X134969666Y-109899183D01*
X134969661Y-109899191D01*
X134895320Y-110040491D01*
X134879121Y-110071280D01*
X134874809Y-110085168D01*
X134821494Y-110256869D01*
X134819742Y-110262510D01*
X134796207Y-110461358D01*
X134809303Y-110661166D01*
X134858592Y-110855241D01*
X134942423Y-111037084D01*
X135042095Y-111178116D01*
X135042925Y-111179291D01*
X135065906Y-111246465D01*
X135048922Y-111315400D01*
X134997364Y-111364210D01*
X134940028Y-111378011D01*
X134297293Y-111378011D01*
X134229172Y-111358009D01*
X134182679Y-111304353D01*
X134172575Y-111234079D01*
X134200418Y-111171444D01*
X134251733Y-111109744D01*
X134349572Y-110935038D01*
X134375881Y-110857534D01*
X134412080Y-110750897D01*
X134412081Y-110750892D01*
X134413936Y-110745428D01*
X134442668Y-110547264D01*
X134444168Y-110490000D01*
X134425846Y-110290604D01*
X134418566Y-110264789D01*
X134390603Y-110165642D01*
X134371494Y-110097885D01*
X134282932Y-109918299D01*
X134264842Y-109894073D01*
X134198360Y-109805044D01*
X134163125Y-109757859D01*
X134044586Y-109648282D01*
X134020328Y-109625858D01*
X134020326Y-109625856D01*
X134016087Y-109621938D01*
X133846742Y-109515089D01*
X133841382Y-109512951D01*
X133841379Y-109512949D01*
X133666125Y-109443030D01*
X133660761Y-109440890D01*
X133655101Y-109439764D01*
X133655097Y-109439763D01*
X133470039Y-109402953D01*
X133470037Y-109402953D01*
X133464372Y-109401826D01*
X133458597Y-109401750D01*
X133458593Y-109401750D01*
X133358641Y-109400442D01*
X133264153Y-109399205D01*
X133258456Y-109400184D01*
X133258455Y-109400184D01*
X133084773Y-109430028D01*
X133066808Y-109433115D01*
X132878949Y-109502420D01*
X132706864Y-109604799D01*
X132702524Y-109608605D01*
X132702520Y-109608608D01*
X132593986Y-109703791D01*
X132556319Y-109736824D01*
X132552744Y-109741359D01*
X132552743Y-109741360D01*
X132464963Y-109852709D01*
X132432354Y-109894073D01*
X132429666Y-109899183D01*
X132429661Y-109899191D01*
X132355320Y-110040491D01*
X132339121Y-110071280D01*
X132334809Y-110085168D01*
X132281494Y-110256869D01*
X132279742Y-110262510D01*
X132256207Y-110461358D01*
X132269303Y-110661166D01*
X132318592Y-110855241D01*
X132402423Y-111037084D01*
X132502095Y-111178116D01*
X132502925Y-111179291D01*
X132525906Y-111246465D01*
X132508922Y-111315400D01*
X132457364Y-111364210D01*
X132400028Y-111378011D01*
X131757293Y-111378011D01*
X131689172Y-111358009D01*
X131642679Y-111304353D01*
X131632575Y-111234079D01*
X131660418Y-111171444D01*
X131711733Y-111109744D01*
X131809572Y-110935038D01*
X131835881Y-110857534D01*
X131872080Y-110750897D01*
X131872081Y-110750892D01*
X131873936Y-110745428D01*
X131902668Y-110547264D01*
X131904168Y-110490000D01*
X131885846Y-110290604D01*
X131878566Y-110264789D01*
X131850603Y-110165642D01*
X131831494Y-110097885D01*
X131742932Y-109918299D01*
X131724842Y-109894073D01*
X131658360Y-109805044D01*
X131623125Y-109757859D01*
X131504586Y-109648282D01*
X131480328Y-109625858D01*
X131480326Y-109625856D01*
X131476087Y-109621938D01*
X131306742Y-109515089D01*
X131301382Y-109512951D01*
X131301379Y-109512949D01*
X131126125Y-109443030D01*
X131120761Y-109440890D01*
X131115101Y-109439764D01*
X131115097Y-109439763D01*
X130930039Y-109402953D01*
X130930037Y-109402953D01*
X130924372Y-109401826D01*
X130918597Y-109401750D01*
X130918593Y-109401750D01*
X130818641Y-109400442D01*
X130724153Y-109399205D01*
X130718456Y-109400184D01*
X130718455Y-109400184D01*
X130544773Y-109430028D01*
X130526808Y-109433115D01*
X130338949Y-109502420D01*
X130166864Y-109604799D01*
X130162524Y-109608605D01*
X130162520Y-109608608D01*
X130053986Y-109703791D01*
X130016319Y-109736824D01*
X130012744Y-109741359D01*
X130012743Y-109741360D01*
X129924963Y-109852709D01*
X129892354Y-109894073D01*
X129889666Y-109899183D01*
X129889661Y-109899191D01*
X129815320Y-110040491D01*
X129799121Y-110071280D01*
X129794809Y-110085168D01*
X129741494Y-110256869D01*
X129739742Y-110262510D01*
X129716207Y-110461358D01*
X129729303Y-110661166D01*
X129778592Y-110855241D01*
X129862423Y-111037084D01*
X129962095Y-111178116D01*
X129962925Y-111179291D01*
X129985906Y-111246465D01*
X129968922Y-111315400D01*
X129917364Y-111364210D01*
X129860028Y-111378011D01*
X129217293Y-111378011D01*
X129149172Y-111358009D01*
X129102679Y-111304353D01*
X129092575Y-111234079D01*
X129120418Y-111171444D01*
X129171733Y-111109744D01*
X129269572Y-110935038D01*
X129295881Y-110857534D01*
X129332080Y-110750897D01*
X129332081Y-110750892D01*
X129333936Y-110745428D01*
X129362668Y-110547264D01*
X129364168Y-110490000D01*
X129345846Y-110290604D01*
X129338566Y-110264789D01*
X129310603Y-110165642D01*
X129291494Y-110097885D01*
X129202932Y-109918299D01*
X129184842Y-109894073D01*
X129118360Y-109805044D01*
X129083125Y-109757859D01*
X128964586Y-109648282D01*
X128940328Y-109625858D01*
X128940326Y-109625856D01*
X128936087Y-109621938D01*
X128766742Y-109515089D01*
X128761382Y-109512951D01*
X128761377Y-109512948D01*
X128736763Y-109503128D01*
X128680905Y-109459307D01*
X128657605Y-109392243D01*
X128674262Y-109323228D01*
X128725586Y-109274174D01*
X128747249Y-109265413D01*
X128776521Y-109256631D01*
X128786125Y-109252868D01*
X128983138Y-109156352D01*
X128991983Y-109151079D01*
X129047209Y-109111686D01*
X129055609Y-109100987D01*
X129048622Y-109087833D01*
X128282811Y-108322021D01*
X128268868Y-108314408D01*
X128267034Y-108314539D01*
X128260420Y-108318790D01*
X127488221Y-109090990D01*
X127481464Y-109103365D01*
X127486745Y-109110420D01*
X127659846Y-109211571D01*
X127669132Y-109216021D01*
X127800813Y-109266304D01*
X127857316Y-109309291D01*
X127881609Y-109376002D01*
X127865979Y-109445257D01*
X127815388Y-109495067D01*
X127809483Y-109497723D01*
X127809583Y-109497933D01*
X127804365Y-109500422D01*
X127798949Y-109502420D01*
X127626864Y-109604799D01*
X127622524Y-109608605D01*
X127622520Y-109608608D01*
X127513986Y-109703791D01*
X127476319Y-109736824D01*
X127472744Y-109741359D01*
X127472743Y-109741360D01*
X127384963Y-109852709D01*
X127352354Y-109894073D01*
X127278630Y-110034199D01*
X127229214Y-110085168D01*
X127160082Y-110101331D01*
X127093186Y-110077553D01*
X127051575Y-110025771D01*
X126967459Y-109832319D01*
X126962595Y-109823246D01*
X126891268Y-109712993D01*
X126880582Y-109703791D01*
X126871017Y-109708194D01*
X125819095Y-110760115D01*
X125756783Y-110794141D01*
X125685967Y-110789076D01*
X125640905Y-110760115D01*
X125459885Y-110579095D01*
X125425859Y-110516783D01*
X125430924Y-110445968D01*
X125459885Y-110400905D01*
X126511158Y-109349631D01*
X126518178Y-109336775D01*
X126510405Y-109326107D01*
X126509796Y-109325625D01*
X126501210Y-109319921D01*
X126309151Y-109213900D01*
X126299748Y-109209674D01*
X126200956Y-109174690D01*
X126143419Y-109133096D01*
X126117503Y-109066999D01*
X126131437Y-108997383D01*
X126181449Y-108945982D01*
X126298301Y-108880542D01*
X126349744Y-108851733D01*
X126503694Y-108723694D01*
X126631733Y-108569744D01*
X126725139Y-108402954D01*
X126775876Y-108353292D01*
X126845408Y-108338944D01*
X126911659Y-108364466D01*
X126951817Y-108417116D01*
X127016837Y-108577240D01*
X127021490Y-108586451D01*
X127108098Y-108727780D01*
X127118555Y-108737241D01*
X127127331Y-108733458D01*
X127897979Y-107962811D01*
X127904356Y-107951132D01*
X128634408Y-107951132D01*
X128634539Y-107952966D01*
X128638790Y-107959580D01*
X129408425Y-108729214D01*
X129420431Y-108735770D01*
X129432170Y-108726802D01*
X129468549Y-108676174D01*
X129473860Y-108667335D01*
X129571056Y-108470675D01*
X129574854Y-108461082D01*
X129586197Y-108423748D01*
X129625138Y-108364384D01*
X129689992Y-108335496D01*
X129760169Y-108346257D01*
X129813387Y-108393250D01*
X129821180Y-108407622D01*
X129862423Y-108497084D01*
X129865756Y-108501800D01*
X129959663Y-108634675D01*
X129977988Y-108660605D01*
X129982130Y-108664640D01*
X130010528Y-108692304D01*
X130121418Y-108800328D01*
X130287908Y-108911574D01*
X130293211Y-108913852D01*
X130293214Y-108913854D01*
X130365088Y-108944733D01*
X130471883Y-108990616D01*
X130667182Y-109034807D01*
X130672956Y-109035034D01*
X130672957Y-109035034D01*
X130714134Y-109036652D01*
X130867264Y-109042668D01*
X131065428Y-109013936D01*
X131070892Y-109012081D01*
X131070897Y-109012080D01*
X131249570Y-108951428D01*
X131255038Y-108949572D01*
X131429744Y-108851733D01*
X131583694Y-108723694D01*
X131711733Y-108569744D01*
X131809572Y-108395038D01*
X131835455Y-108318790D01*
X131872080Y-108210897D01*
X131872081Y-108210892D01*
X131873936Y-108205428D01*
X131902668Y-108007264D01*
X131904168Y-107950000D01*
X131901536Y-107921358D01*
X132256207Y-107921358D01*
X132269303Y-108121166D01*
X132318592Y-108315241D01*
X132402423Y-108497084D01*
X132405756Y-108501800D01*
X132499663Y-108634675D01*
X132517988Y-108660605D01*
X132522130Y-108664640D01*
X132550528Y-108692304D01*
X132661418Y-108800328D01*
X132827908Y-108911574D01*
X132833211Y-108913852D01*
X132833214Y-108913854D01*
X132905088Y-108944733D01*
X133011883Y-108990616D01*
X133207182Y-109034807D01*
X133212956Y-109035034D01*
X133212957Y-109035034D01*
X133254134Y-109036652D01*
X133407264Y-109042668D01*
X133605428Y-109013936D01*
X133610892Y-109012081D01*
X133610897Y-109012080D01*
X133789570Y-108951428D01*
X133795038Y-108949572D01*
X133969744Y-108851733D01*
X134123694Y-108723694D01*
X134251733Y-108569744D01*
X134349572Y-108395038D01*
X134375455Y-108318790D01*
X134412080Y-108210897D01*
X134412081Y-108210892D01*
X134413936Y-108205428D01*
X134442668Y-108007264D01*
X134444168Y-107950000D01*
X134441536Y-107921358D01*
X134796207Y-107921358D01*
X134809303Y-108121166D01*
X134858592Y-108315241D01*
X134942423Y-108497084D01*
X134945756Y-108501800D01*
X135039663Y-108634675D01*
X135057988Y-108660605D01*
X135062130Y-108664640D01*
X135090528Y-108692304D01*
X135201418Y-108800328D01*
X135367908Y-108911574D01*
X135373211Y-108913852D01*
X135373214Y-108913854D01*
X135445088Y-108944733D01*
X135551883Y-108990616D01*
X135747182Y-109034807D01*
X135752956Y-109035034D01*
X135752957Y-109035034D01*
X135794134Y-109036652D01*
X135947264Y-109042668D01*
X136145428Y-109013936D01*
X136150892Y-109012081D01*
X136150897Y-109012080D01*
X136329570Y-108951428D01*
X136335038Y-108949572D01*
X136509744Y-108851733D01*
X136663694Y-108723694D01*
X136791733Y-108569744D01*
X136889572Y-108395038D01*
X136915455Y-108318790D01*
X136952080Y-108210897D01*
X136952081Y-108210892D01*
X136953936Y-108205428D01*
X136982668Y-108007264D01*
X136984168Y-107950000D01*
X136981536Y-107921358D01*
X137336207Y-107921358D01*
X137349303Y-108121166D01*
X137398592Y-108315241D01*
X137482423Y-108497084D01*
X137485756Y-108501800D01*
X137579663Y-108634675D01*
X137597988Y-108660605D01*
X137602130Y-108664640D01*
X137630528Y-108692304D01*
X137741418Y-108800328D01*
X137907908Y-108911574D01*
X137913211Y-108913852D01*
X137913214Y-108913854D01*
X137985088Y-108944733D01*
X138091883Y-108990616D01*
X138287182Y-109034807D01*
X138292956Y-109035034D01*
X138292957Y-109035034D01*
X138334134Y-109036652D01*
X138487264Y-109042668D01*
X138685428Y-109013936D01*
X138690892Y-109012081D01*
X138690897Y-109012080D01*
X138869570Y-108951428D01*
X138875038Y-108949572D01*
X139049744Y-108851733D01*
X139203694Y-108723694D01*
X139331733Y-108569744D01*
X139425139Y-108402954D01*
X139475876Y-108353292D01*
X139545408Y-108338944D01*
X139611659Y-108364466D01*
X139651817Y-108417116D01*
X139716837Y-108577240D01*
X139721490Y-108586451D01*
X139808098Y-108727780D01*
X139818555Y-108737241D01*
X139827331Y-108733458D01*
X140597979Y-107962811D01*
X140604356Y-107951132D01*
X141334408Y-107951132D01*
X141334539Y-107952966D01*
X141338790Y-107959580D01*
X142108425Y-108729214D01*
X142120431Y-108735770D01*
X142132170Y-108726802D01*
X142168549Y-108676174D01*
X142173860Y-108667335D01*
X142271056Y-108470675D01*
X142274854Y-108461082D01*
X142286197Y-108423748D01*
X142325138Y-108364384D01*
X142389992Y-108335496D01*
X142460169Y-108346257D01*
X142513387Y-108393250D01*
X142521180Y-108407622D01*
X142562423Y-108497084D01*
X142565756Y-108501800D01*
X142659663Y-108634675D01*
X142677988Y-108660605D01*
X142682130Y-108664640D01*
X142710528Y-108692304D01*
X142821418Y-108800328D01*
X142987908Y-108911574D01*
X142993211Y-108913852D01*
X142993214Y-108913854D01*
X143050294Y-108938377D01*
X143104987Y-108983645D01*
X143126524Y-109051296D01*
X143108067Y-109119852D01*
X143055476Y-109167546D01*
X143039702Y-109173910D01*
X142971700Y-109196137D01*
X142962195Y-109200132D01*
X142767603Y-109301431D01*
X142758890Y-109306918D01*
X142731819Y-109327244D01*
X142723365Y-109338570D01*
X142730108Y-109350897D01*
X143497189Y-110117979D01*
X143511132Y-110125592D01*
X143512966Y-110125461D01*
X143519580Y-110121210D01*
X144291162Y-109349627D01*
X144298179Y-109336776D01*
X144290405Y-109326107D01*
X144289796Y-109325625D01*
X144281210Y-109319921D01*
X144089151Y-109213900D01*
X144079748Y-109209674D01*
X143980956Y-109174690D01*
X143923419Y-109133096D01*
X143897503Y-109066999D01*
X143911437Y-108997383D01*
X143961449Y-108945982D01*
X144078301Y-108880542D01*
X144129744Y-108851733D01*
X144283694Y-108723694D01*
X144411733Y-108569744D01*
X144509572Y-108395038D01*
X144535455Y-108318790D01*
X144572080Y-108210897D01*
X144572081Y-108210892D01*
X144573936Y-108205428D01*
X144602668Y-108007264D01*
X144604168Y-107950000D01*
X144585846Y-107750604D01*
X144531494Y-107557885D01*
X144442932Y-107378299D01*
X144432759Y-107364675D01*
X144360566Y-107267998D01*
X144323125Y-107217859D01*
X144274589Y-107172993D01*
X144180328Y-107085858D01*
X144180326Y-107085856D01*
X144176087Y-107081938D01*
X144006742Y-106975089D01*
X144001382Y-106972951D01*
X144001379Y-106972949D01*
X143826125Y-106903030D01*
X143820761Y-106900890D01*
X143815101Y-106899764D01*
X143815097Y-106899763D01*
X143630039Y-106862953D01*
X143630037Y-106862953D01*
X143624372Y-106861826D01*
X143618597Y-106861750D01*
X143618593Y-106861750D01*
X143518641Y-106860442D01*
X143424153Y-106859205D01*
X143418456Y-106860184D01*
X143418455Y-106860184D01*
X143232505Y-106892136D01*
X143226808Y-106893115D01*
X143038949Y-106962420D01*
X142866864Y-107064799D01*
X142862524Y-107068605D01*
X142862520Y-107068608D01*
X142745778Y-107170989D01*
X142716319Y-107196824D01*
X142712744Y-107201359D01*
X142712743Y-107201360D01*
X142611410Y-107329901D01*
X142592354Y-107354073D01*
X142518630Y-107494199D01*
X142469214Y-107545168D01*
X142400082Y-107561331D01*
X142333186Y-107537553D01*
X142291575Y-107485771D01*
X142207459Y-107292319D01*
X142202595Y-107283246D01*
X142131268Y-107172993D01*
X142120582Y-107163791D01*
X142111017Y-107168194D01*
X141342021Y-107937189D01*
X141334408Y-107951132D01*
X140604356Y-107951132D01*
X140605592Y-107948868D01*
X140605461Y-107947034D01*
X140601210Y-107940420D01*
X139831778Y-107170989D01*
X139820246Y-107164692D01*
X139807964Y-107174315D01*
X139754064Y-107253329D01*
X139748976Y-107262285D01*
X139656611Y-107461270D01*
X139651267Y-107475797D01*
X139649947Y-107475311D01*
X139615891Y-107530110D01*
X139551764Y-107560577D01*
X139481345Y-107551538D01*
X139426992Y-107505862D01*
X139418941Y-107491874D01*
X139410773Y-107475311D01*
X139362932Y-107378299D01*
X139352759Y-107364675D01*
X139280566Y-107267998D01*
X139243125Y-107217859D01*
X139194589Y-107172993D01*
X139100328Y-107085858D01*
X139100326Y-107085856D01*
X139096087Y-107081938D01*
X138926742Y-106975089D01*
X138921382Y-106972951D01*
X138921379Y-106972949D01*
X138746125Y-106903030D01*
X138740761Y-106900890D01*
X138735101Y-106899764D01*
X138735097Y-106899763D01*
X138550039Y-106862953D01*
X138550037Y-106862953D01*
X138544372Y-106861826D01*
X138538597Y-106861750D01*
X138538593Y-106861750D01*
X138438641Y-106860442D01*
X138344153Y-106859205D01*
X138338456Y-106860184D01*
X138338455Y-106860184D01*
X138152505Y-106892136D01*
X138146808Y-106893115D01*
X137958949Y-106962420D01*
X137786864Y-107064799D01*
X137782524Y-107068605D01*
X137782520Y-107068608D01*
X137665778Y-107170989D01*
X137636319Y-107196824D01*
X137632744Y-107201359D01*
X137632743Y-107201360D01*
X137531410Y-107329901D01*
X137512354Y-107354073D01*
X137509666Y-107359183D01*
X137509661Y-107359191D01*
X137424152Y-107521718D01*
X137419121Y-107531280D01*
X137417407Y-107536800D01*
X137369548Y-107690931D01*
X137359742Y-107722510D01*
X137336207Y-107921358D01*
X136981536Y-107921358D01*
X136965846Y-107750604D01*
X136911494Y-107557885D01*
X136822932Y-107378299D01*
X136812759Y-107364675D01*
X136740566Y-107267998D01*
X136703125Y-107217859D01*
X136654589Y-107172993D01*
X136560328Y-107085858D01*
X136560326Y-107085856D01*
X136556087Y-107081938D01*
X136386742Y-106975089D01*
X136381382Y-106972951D01*
X136381379Y-106972949D01*
X136206125Y-106903030D01*
X136200761Y-106900890D01*
X136195101Y-106899764D01*
X136195097Y-106899763D01*
X136010039Y-106862953D01*
X136010037Y-106862953D01*
X136004372Y-106861826D01*
X135998597Y-106861750D01*
X135998593Y-106861750D01*
X135898641Y-106860442D01*
X135804153Y-106859205D01*
X135798456Y-106860184D01*
X135798455Y-106860184D01*
X135612505Y-106892136D01*
X135606808Y-106893115D01*
X135418949Y-106962420D01*
X135246864Y-107064799D01*
X135242524Y-107068605D01*
X135242520Y-107068608D01*
X135125778Y-107170989D01*
X135096319Y-107196824D01*
X135092744Y-107201359D01*
X135092743Y-107201360D01*
X134991410Y-107329901D01*
X134972354Y-107354073D01*
X134969666Y-107359183D01*
X134969661Y-107359191D01*
X134884152Y-107521718D01*
X134879121Y-107531280D01*
X134877407Y-107536800D01*
X134829548Y-107690931D01*
X134819742Y-107722510D01*
X134796207Y-107921358D01*
X134441536Y-107921358D01*
X134425846Y-107750604D01*
X134371494Y-107557885D01*
X134282932Y-107378299D01*
X134272759Y-107364675D01*
X134200566Y-107267998D01*
X134163125Y-107217859D01*
X134114589Y-107172993D01*
X134020328Y-107085858D01*
X134020326Y-107085856D01*
X134016087Y-107081938D01*
X133846742Y-106975089D01*
X133841382Y-106972951D01*
X133841379Y-106972949D01*
X133666125Y-106903030D01*
X133660761Y-106900890D01*
X133655101Y-106899764D01*
X133655097Y-106899763D01*
X133470039Y-106862953D01*
X133470037Y-106862953D01*
X133464372Y-106861826D01*
X133458597Y-106861750D01*
X133458593Y-106861750D01*
X133358641Y-106860442D01*
X133264153Y-106859205D01*
X133258456Y-106860184D01*
X133258455Y-106860184D01*
X133072505Y-106892136D01*
X133066808Y-106893115D01*
X132878949Y-106962420D01*
X132706864Y-107064799D01*
X132702524Y-107068605D01*
X132702520Y-107068608D01*
X132585778Y-107170989D01*
X132556319Y-107196824D01*
X132552744Y-107201359D01*
X132552743Y-107201360D01*
X132451410Y-107329901D01*
X132432354Y-107354073D01*
X132429666Y-107359183D01*
X132429661Y-107359191D01*
X132344152Y-107521718D01*
X132339121Y-107531280D01*
X132337407Y-107536800D01*
X132289548Y-107690931D01*
X132279742Y-107722510D01*
X132256207Y-107921358D01*
X131901536Y-107921358D01*
X131885846Y-107750604D01*
X131831494Y-107557885D01*
X131742932Y-107378299D01*
X131732759Y-107364675D01*
X131660566Y-107267998D01*
X131623125Y-107217859D01*
X131574589Y-107172993D01*
X131480328Y-107085858D01*
X131480326Y-107085856D01*
X131476087Y-107081938D01*
X131306742Y-106975089D01*
X131301382Y-106972951D01*
X131301379Y-106972949D01*
X131126125Y-106903030D01*
X131120761Y-106900890D01*
X131115101Y-106899764D01*
X131115097Y-106899763D01*
X130930039Y-106862953D01*
X130930037Y-106862953D01*
X130924372Y-106861826D01*
X130918597Y-106861750D01*
X130918593Y-106861750D01*
X130818641Y-106860442D01*
X130724153Y-106859205D01*
X130718456Y-106860184D01*
X130718455Y-106860184D01*
X130532505Y-106892136D01*
X130526808Y-106893115D01*
X130338949Y-106962420D01*
X130166864Y-107064799D01*
X130162524Y-107068605D01*
X130162520Y-107068608D01*
X130045778Y-107170989D01*
X130016319Y-107196824D01*
X130012744Y-107201359D01*
X130012743Y-107201360D01*
X129911410Y-107329901D01*
X129892354Y-107354073D01*
X129818630Y-107494199D01*
X129769214Y-107545168D01*
X129700082Y-107561331D01*
X129633186Y-107537553D01*
X129591575Y-107485771D01*
X129507459Y-107292319D01*
X129502595Y-107283246D01*
X129431268Y-107172993D01*
X129420582Y-107163791D01*
X129411017Y-107168194D01*
X128642021Y-107937189D01*
X128634408Y-107951132D01*
X127904356Y-107951132D01*
X127905592Y-107948868D01*
X127905461Y-107947034D01*
X127901210Y-107940420D01*
X127131778Y-107170989D01*
X127120246Y-107164692D01*
X127107964Y-107174315D01*
X127054064Y-107253329D01*
X127048976Y-107262285D01*
X126956611Y-107461270D01*
X126951267Y-107475797D01*
X126949947Y-107475311D01*
X126915891Y-107530110D01*
X126851764Y-107560577D01*
X126781345Y-107551538D01*
X126726992Y-107505862D01*
X126718941Y-107491874D01*
X126710773Y-107475311D01*
X126662932Y-107378299D01*
X126652759Y-107364675D01*
X126580566Y-107267998D01*
X126543125Y-107217859D01*
X126494589Y-107172993D01*
X126400328Y-107085858D01*
X126400326Y-107085856D01*
X126396087Y-107081938D01*
X126226742Y-106975089D01*
X126221382Y-106972951D01*
X126221379Y-106972949D01*
X126046125Y-106903030D01*
X126040761Y-106900890D01*
X126035101Y-106899764D01*
X126035097Y-106899763D01*
X125850039Y-106862953D01*
X125850037Y-106862953D01*
X125844372Y-106861826D01*
X125838597Y-106861750D01*
X125838593Y-106861750D01*
X125738641Y-106860442D01*
X125644153Y-106859205D01*
X125638456Y-106860184D01*
X125638455Y-106860184D01*
X125452505Y-106892136D01*
X125446808Y-106893115D01*
X125258949Y-106962420D01*
X125086864Y-107064799D01*
X125082521Y-107068608D01*
X125082514Y-107068613D01*
X125051066Y-107096192D01*
X124986662Y-107126069D01*
X124916329Y-107116383D01*
X124862398Y-107070210D01*
X124841989Y-107001460D01*
X124841989Y-106362318D01*
X124861991Y-106294197D01*
X124915647Y-106247704D01*
X124985921Y-106237600D01*
X125040638Y-106261495D01*
X125041418Y-106260328D01*
X125207908Y-106371574D01*
X125213211Y-106373852D01*
X125213214Y-106373854D01*
X125285088Y-106404733D01*
X125391883Y-106450616D01*
X125587182Y-106494807D01*
X125592956Y-106495034D01*
X125592957Y-106495034D01*
X125634134Y-106496652D01*
X125787264Y-106502668D01*
X125985428Y-106473936D01*
X125990892Y-106472081D01*
X125990897Y-106472080D01*
X126169570Y-106411428D01*
X126175038Y-106409572D01*
X126349744Y-106311733D01*
X126503694Y-106183694D01*
X126631733Y-106029744D01*
X126729572Y-105855038D01*
X126754878Y-105780488D01*
X126792080Y-105670897D01*
X126792081Y-105670892D01*
X126793936Y-105665428D01*
X126822668Y-105467264D01*
X126824168Y-105410000D01*
X126821536Y-105381358D01*
X127176207Y-105381358D01*
X127189303Y-105581166D01*
X127238592Y-105775241D01*
X127322423Y-105957084D01*
X127325756Y-105961800D01*
X127417771Y-106091998D01*
X127437988Y-106120605D01*
X127581418Y-106260328D01*
X127747908Y-106371574D01*
X127753211Y-106373852D01*
X127753214Y-106373854D01*
X127810294Y-106398377D01*
X127864987Y-106443645D01*
X127886524Y-106511296D01*
X127868067Y-106579852D01*
X127815476Y-106627546D01*
X127799702Y-106633910D01*
X127731700Y-106656137D01*
X127722195Y-106660132D01*
X127527603Y-106761431D01*
X127518890Y-106766918D01*
X127491819Y-106787244D01*
X127483365Y-106798570D01*
X127490108Y-106810897D01*
X128257189Y-107577979D01*
X128271132Y-107585592D01*
X128272966Y-107585461D01*
X128279580Y-107581210D01*
X129051162Y-106809627D01*
X129058179Y-106796776D01*
X129050405Y-106786107D01*
X129049796Y-106785625D01*
X129041210Y-106779921D01*
X128849151Y-106673900D01*
X128839748Y-106669674D01*
X128740956Y-106634690D01*
X128683419Y-106593096D01*
X128657503Y-106526999D01*
X128671437Y-106457383D01*
X128721449Y-106405982D01*
X128884710Y-106314552D01*
X128889744Y-106311733D01*
X129043694Y-106183694D01*
X129171733Y-106029744D01*
X129269572Y-105855038D01*
X129294878Y-105780488D01*
X129332080Y-105670897D01*
X129332081Y-105670892D01*
X129333936Y-105665428D01*
X129362668Y-105467264D01*
X129364168Y-105410000D01*
X129345846Y-105210604D01*
X129291494Y-105017885D01*
X129202932Y-104838299D01*
X129195327Y-104828114D01*
X129113166Y-104718089D01*
X129083125Y-104677859D01*
X128984836Y-104587001D01*
X128940328Y-104545858D01*
X128940326Y-104545856D01*
X128936087Y-104541938D01*
X128766742Y-104435089D01*
X128761382Y-104432951D01*
X128761379Y-104432949D01*
X128586125Y-104363030D01*
X128580761Y-104360890D01*
X128575101Y-104359764D01*
X128575097Y-104359763D01*
X128390039Y-104322953D01*
X128390037Y-104322953D01*
X128384372Y-104321826D01*
X128378597Y-104321750D01*
X128378593Y-104321750D01*
X128278641Y-104320442D01*
X128184153Y-104319205D01*
X128178456Y-104320184D01*
X128178455Y-104320184D01*
X127992505Y-104352136D01*
X127986808Y-104353115D01*
X127798949Y-104422420D01*
X127626864Y-104524799D01*
X127622524Y-104528605D01*
X127622520Y-104528608D01*
X127507199Y-104629743D01*
X127476319Y-104656824D01*
X127472744Y-104661359D01*
X127472743Y-104661360D01*
X127384963Y-104772709D01*
X127352354Y-104814073D01*
X127349663Y-104819189D01*
X127349661Y-104819191D01*
X127264153Y-104981716D01*
X127259121Y-104991280D01*
X127199742Y-105182510D01*
X127176207Y-105381358D01*
X126821536Y-105381358D01*
X126805846Y-105210604D01*
X126751494Y-105017885D01*
X126662932Y-104838299D01*
X126655327Y-104828114D01*
X126573166Y-104718089D01*
X126543125Y-104677859D01*
X126444836Y-104587001D01*
X126400328Y-104545858D01*
X126400326Y-104545856D01*
X126396087Y-104541938D01*
X126226742Y-104435089D01*
X126221382Y-104432951D01*
X126221379Y-104432949D01*
X126046125Y-104363030D01*
X126040761Y-104360890D01*
X126035101Y-104359764D01*
X126035097Y-104359763D01*
X125850039Y-104322953D01*
X125850037Y-104322953D01*
X125844372Y-104321826D01*
X125838597Y-104321750D01*
X125838593Y-104321750D01*
X125738641Y-104320442D01*
X125644153Y-104319205D01*
X125638456Y-104320184D01*
X125638455Y-104320184D01*
X125452505Y-104352136D01*
X125446808Y-104353115D01*
X125258949Y-104422420D01*
X125086864Y-104524799D01*
X125082521Y-104528608D01*
X125082514Y-104528613D01*
X125051066Y-104556192D01*
X124986662Y-104586069D01*
X124916329Y-104576383D01*
X124862398Y-104530210D01*
X124841989Y-104461460D01*
X124841989Y-103822318D01*
X124861991Y-103754197D01*
X124915647Y-103707704D01*
X124985921Y-103697600D01*
X125040638Y-103721495D01*
X125041418Y-103720328D01*
X125207908Y-103831574D01*
X125213211Y-103833852D01*
X125213214Y-103833854D01*
X125281983Y-103863399D01*
X125391883Y-103910616D01*
X125587182Y-103954807D01*
X125592956Y-103955034D01*
X125592957Y-103955034D01*
X125634134Y-103956652D01*
X125787264Y-103962668D01*
X125985428Y-103933936D01*
X125990892Y-103932081D01*
X125990897Y-103932080D01*
X126169570Y-103871428D01*
X126175038Y-103869572D01*
X126349744Y-103771733D01*
X126503694Y-103643694D01*
X126631733Y-103489744D01*
X126729572Y-103315038D01*
X126754878Y-103240488D01*
X126792080Y-103130897D01*
X126792081Y-103130892D01*
X126793936Y-103125428D01*
X126822668Y-102927264D01*
X126824168Y-102870000D01*
X126821536Y-102841358D01*
X127176207Y-102841358D01*
X127189303Y-103041166D01*
X127238592Y-103235241D01*
X127322423Y-103417084D01*
X127325756Y-103421800D01*
X127434423Y-103575560D01*
X127437988Y-103580605D01*
X127581418Y-103720328D01*
X127747908Y-103831574D01*
X127753211Y-103833852D01*
X127753214Y-103833854D01*
X127821983Y-103863399D01*
X127931883Y-103910616D01*
X128127182Y-103954807D01*
X128132956Y-103955034D01*
X128132957Y-103955034D01*
X128174134Y-103956652D01*
X128327264Y-103962668D01*
X128525428Y-103933936D01*
X128530892Y-103932081D01*
X128530897Y-103932080D01*
X128709570Y-103871428D01*
X128715038Y-103869572D01*
X128889744Y-103771733D01*
X129043694Y-103643694D01*
X129171733Y-103489744D01*
X129269572Y-103315038D01*
X129294878Y-103240488D01*
X129332080Y-103130897D01*
X129332081Y-103130892D01*
X129333936Y-103125428D01*
X129362668Y-102927264D01*
X129364168Y-102870000D01*
X129345846Y-102670604D01*
X129291494Y-102477885D01*
X129202932Y-102298299D01*
X129184842Y-102274073D01*
X129086582Y-102142489D01*
X129083125Y-102137859D01*
X129056251Y-102113017D01*
X128940328Y-102005858D01*
X128940326Y-102005856D01*
X128936087Y-102001938D01*
X128766742Y-101895089D01*
X128761382Y-101892951D01*
X128761379Y-101892949D01*
X128586125Y-101823030D01*
X128580761Y-101820890D01*
X128575101Y-101819764D01*
X128575097Y-101819763D01*
X128390039Y-101782953D01*
X128390037Y-101782953D01*
X128384372Y-101781826D01*
X128378597Y-101781750D01*
X128378593Y-101781750D01*
X128278641Y-101780442D01*
X128184153Y-101779205D01*
X128178456Y-101780184D01*
X128178455Y-101780184D01*
X127992505Y-101812136D01*
X127986808Y-101813115D01*
X127798949Y-101882420D01*
X127626864Y-101984799D01*
X127622524Y-101988605D01*
X127622520Y-101988608D01*
X127591067Y-102016192D01*
X127476319Y-102116824D01*
X127352354Y-102274073D01*
X127349663Y-102279189D01*
X127349661Y-102279191D01*
X127264152Y-102441718D01*
X127259121Y-102451280D01*
X127199742Y-102642510D01*
X127176207Y-102841358D01*
X126821536Y-102841358D01*
X126805846Y-102670604D01*
X126751494Y-102477885D01*
X126662932Y-102298299D01*
X126644842Y-102274073D01*
X126546582Y-102142489D01*
X126543125Y-102137859D01*
X126516251Y-102113017D01*
X126400328Y-102005858D01*
X126400326Y-102005856D01*
X126396087Y-102001938D01*
X126226742Y-101895089D01*
X126221382Y-101892951D01*
X126221379Y-101892949D01*
X126046125Y-101823030D01*
X126040761Y-101820890D01*
X126035101Y-101819764D01*
X126035097Y-101819763D01*
X125850039Y-101782953D01*
X125850037Y-101782953D01*
X125844372Y-101781826D01*
X125838597Y-101781750D01*
X125838593Y-101781750D01*
X125738641Y-101780442D01*
X125644153Y-101779205D01*
X125638456Y-101780184D01*
X125638455Y-101780184D01*
X125452505Y-101812136D01*
X125446808Y-101813115D01*
X125258949Y-101882420D01*
X125086864Y-101984799D01*
X125082521Y-101988608D01*
X125082514Y-101988613D01*
X125051066Y-102016192D01*
X124986662Y-102046069D01*
X124916329Y-102036383D01*
X124862398Y-101990210D01*
X124841989Y-101921460D01*
X124841989Y-101282318D01*
X124861991Y-101214197D01*
X124915647Y-101167704D01*
X124985921Y-101157600D01*
X125040638Y-101181495D01*
X125041418Y-101180328D01*
X125207908Y-101291574D01*
X125213211Y-101293852D01*
X125213214Y-101293854D01*
X125243410Y-101306827D01*
X125391883Y-101370616D01*
X125587182Y-101414807D01*
X125592956Y-101415034D01*
X125592957Y-101415034D01*
X125634134Y-101416652D01*
X125787264Y-101422668D01*
X125985428Y-101393936D01*
X125990892Y-101392081D01*
X125990897Y-101392080D01*
X126142536Y-101340605D01*
X126175038Y-101329572D01*
X126349744Y-101231733D01*
X126503694Y-101103694D01*
X126631733Y-100949744D01*
X126729572Y-100775038D01*
X126754878Y-100700488D01*
X126792080Y-100590897D01*
X126792081Y-100590892D01*
X126793936Y-100585428D01*
X126822668Y-100387264D01*
X126824168Y-100330000D01*
X126821536Y-100301358D01*
X127176207Y-100301358D01*
X127189303Y-100501166D01*
X127238592Y-100695241D01*
X127322423Y-100877084D01*
X127437988Y-101040605D01*
X127581418Y-101180328D01*
X127747908Y-101291574D01*
X127753211Y-101293852D01*
X127753214Y-101293854D01*
X127783410Y-101306827D01*
X127931883Y-101370616D01*
X128127182Y-101414807D01*
X128132956Y-101415034D01*
X128132957Y-101415034D01*
X128174134Y-101416652D01*
X128327264Y-101422668D01*
X128525428Y-101393936D01*
X128530892Y-101392081D01*
X128530897Y-101392080D01*
X128682536Y-101340605D01*
X128715038Y-101329572D01*
X128889744Y-101231733D01*
X129043694Y-101103694D01*
X129171733Y-100949744D01*
X129269572Y-100775038D01*
X129294878Y-100700488D01*
X129332080Y-100590897D01*
X129332081Y-100590892D01*
X129333936Y-100585428D01*
X129362668Y-100387264D01*
X129364168Y-100330000D01*
X129345846Y-100130604D01*
X129291494Y-99937885D01*
X129202932Y-99758299D01*
X129184842Y-99734073D01*
X129086582Y-99602489D01*
X129083125Y-99597859D01*
X129056251Y-99573017D01*
X128940328Y-99465858D01*
X128940326Y-99465856D01*
X128936087Y-99461938D01*
X128766742Y-99355089D01*
X128761382Y-99352951D01*
X128761379Y-99352949D01*
X128586125Y-99283030D01*
X128580761Y-99280890D01*
X128575101Y-99279764D01*
X128575097Y-99279763D01*
X128390039Y-99242953D01*
X128390037Y-99242953D01*
X128384372Y-99241826D01*
X128378597Y-99241750D01*
X128378593Y-99241750D01*
X128278641Y-99240442D01*
X128184153Y-99239205D01*
X128178456Y-99240184D01*
X128178455Y-99240184D01*
X127992505Y-99272136D01*
X127986808Y-99273115D01*
X127798949Y-99342420D01*
X127626864Y-99444799D01*
X127622524Y-99448605D01*
X127622520Y-99448608D01*
X127591067Y-99476192D01*
X127476319Y-99576824D01*
X127352354Y-99734073D01*
X127259121Y-99911280D01*
X127257407Y-99916800D01*
X127222119Y-100030446D01*
X127199742Y-100102510D01*
X127176207Y-100301358D01*
X126821536Y-100301358D01*
X126805846Y-100130604D01*
X126751494Y-99937885D01*
X126662932Y-99758299D01*
X126644842Y-99734073D01*
X126546582Y-99602489D01*
X126543125Y-99597859D01*
X126516251Y-99573017D01*
X126400328Y-99465858D01*
X126400326Y-99465856D01*
X126396087Y-99461938D01*
X126226742Y-99355089D01*
X126221382Y-99352951D01*
X126221379Y-99352949D01*
X126046125Y-99283030D01*
X126040761Y-99280890D01*
X126035101Y-99279764D01*
X126035097Y-99279763D01*
X125850039Y-99242953D01*
X125850037Y-99242953D01*
X125844372Y-99241826D01*
X125838597Y-99241750D01*
X125838593Y-99241750D01*
X125738641Y-99240442D01*
X125644153Y-99239205D01*
X125638456Y-99240184D01*
X125638455Y-99240184D01*
X125452505Y-99272136D01*
X125446808Y-99273115D01*
X125258949Y-99342420D01*
X125086864Y-99444799D01*
X125082521Y-99448608D01*
X125082514Y-99448613D01*
X125051066Y-99476192D01*
X124986662Y-99506069D01*
X124916329Y-99496383D01*
X124862398Y-99450210D01*
X124841989Y-99381460D01*
X124841989Y-98742318D01*
X124861991Y-98674197D01*
X124915647Y-98627704D01*
X124985921Y-98617600D01*
X125040638Y-98641495D01*
X125041418Y-98640328D01*
X125207908Y-98751574D01*
X125213211Y-98753852D01*
X125213214Y-98753854D01*
X125285088Y-98784733D01*
X125391883Y-98830616D01*
X125587182Y-98874807D01*
X125592956Y-98875034D01*
X125592957Y-98875034D01*
X125634134Y-98876652D01*
X125787264Y-98882668D01*
X125985428Y-98853936D01*
X125990892Y-98852081D01*
X125990897Y-98852080D01*
X126169570Y-98791428D01*
X126175038Y-98789572D01*
X126349744Y-98691733D01*
X126503694Y-98563694D01*
X126631733Y-98409744D01*
X126729572Y-98235038D01*
X126754878Y-98160488D01*
X126792080Y-98050897D01*
X126792081Y-98050892D01*
X126793936Y-98045428D01*
X126822668Y-97847264D01*
X126824168Y-97790000D01*
X126821536Y-97761358D01*
X127176207Y-97761358D01*
X127189303Y-97961166D01*
X127238592Y-98155241D01*
X127322423Y-98337084D01*
X127437988Y-98500605D01*
X127581418Y-98640328D01*
X127747908Y-98751574D01*
X127753211Y-98753852D01*
X127753214Y-98753854D01*
X127825088Y-98784733D01*
X127931883Y-98830616D01*
X128127182Y-98874807D01*
X128132956Y-98875034D01*
X128132957Y-98875034D01*
X128174134Y-98876652D01*
X128327264Y-98882668D01*
X128525428Y-98853936D01*
X128530892Y-98852081D01*
X128530897Y-98852080D01*
X128709570Y-98791428D01*
X128715038Y-98789572D01*
X128889744Y-98691733D01*
X129043694Y-98563694D01*
X129171733Y-98409744D01*
X129269572Y-98235038D01*
X129294878Y-98160488D01*
X129332080Y-98050897D01*
X129332081Y-98050892D01*
X129333936Y-98045428D01*
X129362668Y-97847264D01*
X129364168Y-97790000D01*
X129345846Y-97590604D01*
X129291494Y-97397885D01*
X129202932Y-97218299D01*
X129184842Y-97194073D01*
X129086582Y-97062489D01*
X129083125Y-97057859D01*
X128991985Y-96973610D01*
X128940328Y-96925858D01*
X128940326Y-96925856D01*
X128936087Y-96921938D01*
X128766742Y-96815089D01*
X128761382Y-96812951D01*
X128761379Y-96812949D01*
X128586125Y-96743030D01*
X128580761Y-96740890D01*
X128575101Y-96739764D01*
X128575097Y-96739763D01*
X128390039Y-96702953D01*
X128390037Y-96702953D01*
X128384372Y-96701826D01*
X128378597Y-96701750D01*
X128378593Y-96701750D01*
X128278641Y-96700442D01*
X128184153Y-96699205D01*
X128178456Y-96700184D01*
X128178455Y-96700184D01*
X127992505Y-96732136D01*
X127986808Y-96733115D01*
X127798949Y-96802420D01*
X127626864Y-96904799D01*
X127622524Y-96908605D01*
X127622520Y-96908608D01*
X127507199Y-97009743D01*
X127476319Y-97036824D01*
X127352354Y-97194073D01*
X127259121Y-97371280D01*
X127199742Y-97562510D01*
X127176207Y-97761358D01*
X126821536Y-97761358D01*
X126805846Y-97590604D01*
X126751494Y-97397885D01*
X126662932Y-97218299D01*
X126644842Y-97194073D01*
X126546582Y-97062489D01*
X126543125Y-97057859D01*
X126451985Y-96973610D01*
X126400328Y-96925858D01*
X126400326Y-96925856D01*
X126396087Y-96921938D01*
X126226742Y-96815089D01*
X126221382Y-96812951D01*
X126221379Y-96812949D01*
X126046125Y-96743030D01*
X126040761Y-96740890D01*
X126035101Y-96739764D01*
X126035097Y-96739763D01*
X125850039Y-96702953D01*
X125850037Y-96702953D01*
X125844372Y-96701826D01*
X125838597Y-96701750D01*
X125838593Y-96701750D01*
X125738641Y-96700442D01*
X125644153Y-96699205D01*
X125638456Y-96700184D01*
X125638455Y-96700184D01*
X125452505Y-96732136D01*
X125446808Y-96733115D01*
X125258949Y-96802420D01*
X125086864Y-96904799D01*
X125082521Y-96908608D01*
X125082514Y-96908613D01*
X125051066Y-96936192D01*
X124986662Y-96966069D01*
X124916329Y-96956383D01*
X124862398Y-96910210D01*
X124841989Y-96841460D01*
X124841989Y-96650527D01*
X124861991Y-96582406D01*
X124878894Y-96561432D01*
X125162109Y-96278217D01*
X125224421Y-96244191D01*
X125300942Y-96251545D01*
X125386573Y-96288335D01*
X125386576Y-96288336D01*
X125391883Y-96290616D01*
X125587182Y-96334807D01*
X125592956Y-96335034D01*
X125592957Y-96335034D01*
X125634134Y-96336652D01*
X125787264Y-96342668D01*
X125985428Y-96313936D01*
X125990892Y-96312081D01*
X125990897Y-96312080D01*
X126142536Y-96260605D01*
X126175038Y-96249572D01*
X126349744Y-96151733D01*
X126503694Y-96023694D01*
X126631733Y-95869744D01*
X126729572Y-95695038D01*
X126756023Y-95617115D01*
X126792080Y-95510897D01*
X126792081Y-95510892D01*
X126793936Y-95505428D01*
X126822668Y-95307264D01*
X126824168Y-95250000D01*
X126821536Y-95221358D01*
X127176207Y-95221358D01*
X127189303Y-95421166D01*
X127238592Y-95615241D01*
X127322423Y-95797084D01*
X127325756Y-95801800D01*
X127427791Y-95946176D01*
X127437988Y-95960605D01*
X127581418Y-96100328D01*
X127747908Y-96211574D01*
X127753211Y-96213852D01*
X127753214Y-96213854D01*
X127783410Y-96226827D01*
X127931883Y-96290616D01*
X128127182Y-96334807D01*
X128132956Y-96335034D01*
X128132957Y-96335034D01*
X128174134Y-96336652D01*
X128327264Y-96342668D01*
X128525428Y-96313936D01*
X128530892Y-96312081D01*
X128530897Y-96312080D01*
X128682536Y-96260605D01*
X128715038Y-96249572D01*
X128889744Y-96151733D01*
X129043694Y-96023694D01*
X129171733Y-95869744D01*
X129269572Y-95695038D01*
X129296023Y-95617115D01*
X129332080Y-95510897D01*
X129332081Y-95510892D01*
X129333936Y-95505428D01*
X129362668Y-95307264D01*
X129364168Y-95250000D01*
X129345846Y-95050604D01*
X129291494Y-94857885D01*
X129202932Y-94678299D01*
X129193030Y-94665038D01*
X129131952Y-94583246D01*
X129083125Y-94517859D01*
X128957897Y-94402099D01*
X128940328Y-94385858D01*
X128940326Y-94385856D01*
X128936087Y-94381938D01*
X128792104Y-94291091D01*
X128771622Y-94278168D01*
X128766742Y-94275089D01*
X128761382Y-94272951D01*
X128761379Y-94272949D01*
X128586125Y-94203030D01*
X128580761Y-94200890D01*
X128575101Y-94199764D01*
X128575097Y-94199763D01*
X128390039Y-94162953D01*
X128390037Y-94162953D01*
X128384372Y-94161826D01*
X128378597Y-94161750D01*
X128378593Y-94161750D01*
X128278641Y-94160442D01*
X128184153Y-94159205D01*
X128178456Y-94160184D01*
X128178455Y-94160184D01*
X127992505Y-94192136D01*
X127986808Y-94193115D01*
X127798949Y-94262420D01*
X127626864Y-94364799D01*
X127622524Y-94368605D01*
X127622520Y-94368608D01*
X127513986Y-94463791D01*
X127476319Y-94496824D01*
X127352354Y-94654073D01*
X127349666Y-94659183D01*
X127349661Y-94659191D01*
X127288312Y-94775797D01*
X127259121Y-94831280D01*
X127257407Y-94836800D01*
X127222908Y-94947905D01*
X127199742Y-95022510D01*
X127176207Y-95221358D01*
X126821536Y-95221358D01*
X126805846Y-95050604D01*
X126751494Y-94857885D01*
X126662932Y-94678299D01*
X126653030Y-94665038D01*
X126591952Y-94583246D01*
X126543125Y-94517859D01*
X126417897Y-94402099D01*
X126400328Y-94385858D01*
X126400326Y-94385856D01*
X126396087Y-94381938D01*
X126252104Y-94291091D01*
X126231622Y-94278168D01*
X126226742Y-94275089D01*
X126221382Y-94272951D01*
X126221377Y-94272948D01*
X126196763Y-94263128D01*
X126140905Y-94219307D01*
X126117605Y-94152243D01*
X126134262Y-94083228D01*
X126185586Y-94034174D01*
X126207249Y-94025413D01*
X126236521Y-94016631D01*
X126246125Y-94012868D01*
X126443138Y-93916352D01*
X126451983Y-93911079D01*
X126507209Y-93871686D01*
X126515609Y-93860987D01*
X126508622Y-93847833D01*
X125742811Y-93082021D01*
X125728868Y-93074408D01*
X125727034Y-93074539D01*
X125720420Y-93078790D01*
X124948221Y-93850990D01*
X124941464Y-93863365D01*
X124946745Y-93870420D01*
X125119846Y-93971571D01*
X125129132Y-93976021D01*
X125260813Y-94026304D01*
X125317316Y-94069291D01*
X125341609Y-94136002D01*
X125325979Y-94205257D01*
X125275388Y-94255067D01*
X125269483Y-94257723D01*
X125269583Y-94257933D01*
X125264365Y-94260422D01*
X125258949Y-94262420D01*
X125086864Y-94364799D01*
X125082524Y-94368605D01*
X125082520Y-94368608D01*
X124973986Y-94463791D01*
X124936319Y-94496824D01*
X124812354Y-94654073D01*
X124809666Y-94659183D01*
X124809661Y-94659191D01*
X124748312Y-94775797D01*
X124719121Y-94831280D01*
X124717407Y-94836800D01*
X124682908Y-94947905D01*
X124659742Y-95022510D01*
X124636207Y-95221358D01*
X124649303Y-95421166D01*
X124698592Y-95615241D01*
X124701011Y-95620488D01*
X124726778Y-95676381D01*
X124737133Y-95746618D01*
X124707870Y-95811304D01*
X124701447Y-95818227D01*
X124300274Y-96219400D01*
X124292170Y-96226827D01*
X124263295Y-96251056D01*
X124257782Y-96260605D01*
X124244450Y-96283696D01*
X124238544Y-96292967D01*
X124216935Y-96323827D01*
X124214081Y-96334477D01*
X124212604Y-96337645D01*
X124211412Y-96340921D01*
X124205901Y-96350466D01*
X124200299Y-96382239D01*
X124199359Y-96387569D01*
X124196981Y-96398296D01*
X124187225Y-96434704D01*
X124188186Y-96445689D01*
X124188186Y-96445691D01*
X124190509Y-96472239D01*
X124190989Y-96483221D01*
X124190989Y-110723655D01*
X124170987Y-110791776D01*
X124117331Y-110838269D01*
X124047057Y-110848373D01*
X123982477Y-110818879D01*
X123975894Y-110812751D01*
X123534950Y-110371808D01*
X123500925Y-110309495D01*
X123498045Y-110282712D01*
X123498045Y-104777255D01*
X123498525Y-104766273D01*
X123500848Y-104739725D01*
X123500848Y-104739723D01*
X123501809Y-104728738D01*
X123492053Y-104692330D01*
X123489675Y-104681603D01*
X123488323Y-104673935D01*
X123483133Y-104644500D01*
X123477622Y-104634955D01*
X123476430Y-104631679D01*
X123474953Y-104628511D01*
X123472099Y-104617861D01*
X123450490Y-104587001D01*
X123444584Y-104577730D01*
X123431252Y-104554639D01*
X123425739Y-104545090D01*
X123396862Y-104520860D01*
X123388760Y-104513434D01*
X121917709Y-103042383D01*
X121883683Y-102980071D01*
X121881882Y-102936842D01*
X121889604Y-102878188D01*
X121890682Y-102870000D01*
X121870044Y-102713238D01*
X121809536Y-102567159D01*
X121713282Y-102441718D01*
X121587841Y-102345464D01*
X121441762Y-102284956D01*
X121285000Y-102264318D01*
X121128238Y-102284956D01*
X120982159Y-102345464D01*
X120856718Y-102441718D01*
X120760464Y-102567159D01*
X120699956Y-102713238D01*
X120679318Y-102870000D01*
X120699956Y-103026762D01*
X120760464Y-103172841D01*
X120856718Y-103298282D01*
X120863264Y-103303305D01*
X120863266Y-103303307D01*
X120897780Y-103329790D01*
X120939648Y-103387127D01*
X120943870Y-103457998D01*
X120909107Y-103519901D01*
X120846395Y-103553183D01*
X120804631Y-103554675D01*
X120658188Y-103535396D01*
X120650000Y-103534318D01*
X120493238Y-103554956D01*
X120347159Y-103615464D01*
X120221718Y-103711718D01*
X120125464Y-103837159D01*
X120064956Y-103983238D01*
X120044318Y-104140000D01*
X120064956Y-104296762D01*
X120068116Y-104304391D01*
X120071426Y-104312383D01*
X120125464Y-104442841D01*
X120185330Y-104520860D01*
X120204512Y-104545858D01*
X120221718Y-104568282D01*
X120228264Y-104573305D01*
X120228267Y-104573308D01*
X120262777Y-104599788D01*
X120304645Y-104657126D01*
X120308867Y-104727997D01*
X120274104Y-104789900D01*
X120211391Y-104823181D01*
X120169628Y-104824673D01*
X120023188Y-104805394D01*
X120015000Y-104804316D01*
X120006812Y-104805394D01*
X119902013Y-104819191D01*
X119858238Y-104824954D01*
X119712159Y-104885462D01*
X119586718Y-104981716D01*
X119490464Y-105107157D01*
X119429956Y-105253236D01*
X119409318Y-105409998D01*
X119429956Y-105566760D01*
X119490464Y-105712839D01*
X119586718Y-105838280D01*
X119593264Y-105843303D01*
X119627784Y-105869791D01*
X119669651Y-105927129D01*
X119673873Y-105998000D01*
X119639109Y-106059903D01*
X119576396Y-106093184D01*
X119534635Y-106094676D01*
X119380000Y-106074318D01*
X119223238Y-106094956D01*
X119077159Y-106155464D01*
X118951718Y-106251718D01*
X118855464Y-106377159D01*
X118794956Y-106523238D01*
X118774318Y-106680000D01*
X118794956Y-106836762D01*
X118855464Y-106982841D01*
X118860491Y-106989392D01*
X118942397Y-107096134D01*
X118951718Y-107108282D01*
X118958264Y-107113305D01*
X118958266Y-107113307D01*
X118992780Y-107139790D01*
X119034648Y-107197127D01*
X119038870Y-107267998D01*
X119004107Y-107329901D01*
X118941395Y-107363183D01*
X118899631Y-107364675D01*
X118753188Y-107345396D01*
X118745000Y-107344318D01*
X118736812Y-107345396D01*
X118632089Y-107359183D01*
X118588238Y-107364956D01*
X118442159Y-107425464D01*
X118316718Y-107521718D01*
X118220464Y-107647159D01*
X118159956Y-107793238D01*
X118158878Y-107801426D01*
X118156708Y-107817907D01*
X118139318Y-107950000D01*
X118159956Y-108106762D01*
X118220464Y-108252841D01*
X118316718Y-108378282D01*
X118323264Y-108383305D01*
X118323266Y-108383307D01*
X118357780Y-108409790D01*
X118399648Y-108467127D01*
X118403870Y-108537998D01*
X118369107Y-108599901D01*
X118306395Y-108633183D01*
X118264631Y-108634675D01*
X118118188Y-108615396D01*
X118110000Y-108614318D01*
X117953238Y-108634956D01*
X117807159Y-108695464D01*
X117681718Y-108791718D01*
X117585464Y-108917159D01*
X117524956Y-109063238D01*
X117504318Y-109220000D01*
X117524956Y-109376762D01*
X117585464Y-109522841D01*
X117590491Y-109529392D01*
X117664512Y-109625858D01*
X117681718Y-109648282D01*
X117807159Y-109744536D01*
X117953238Y-109805044D01*
X118110000Y-109825682D01*
X118176843Y-109816882D01*
X118246990Y-109827821D01*
X118282383Y-109852709D01*
X122745547Y-114315874D01*
X122779573Y-114378186D01*
X122774508Y-114449001D01*
X122731961Y-114505837D01*
X122665441Y-114530648D01*
X122656452Y-114530969D01*
X121833335Y-114530969D01*
X121765214Y-114510967D01*
X121744240Y-114494064D01*
X118107709Y-110857534D01*
X118073683Y-110795222D01*
X118071882Y-110751993D01*
X118073422Y-110740300D01*
X118080682Y-110685151D01*
X118065284Y-110568188D01*
X118061122Y-110536577D01*
X118060044Y-110528389D01*
X117999536Y-110382310D01*
X117903282Y-110256869D01*
X117895123Y-110250608D01*
X117784392Y-110165642D01*
X117777841Y-110160615D01*
X117631762Y-110100107D01*
X117475000Y-110079469D01*
X117318238Y-110100107D01*
X117172159Y-110160615D01*
X117165608Y-110165642D01*
X117054878Y-110250608D01*
X117046718Y-110256869D01*
X116950464Y-110382310D01*
X116889956Y-110528389D01*
X116888878Y-110536577D01*
X116884716Y-110568188D01*
X116869318Y-110685151D01*
X116889956Y-110841913D01*
X116947642Y-110981180D01*
X116955231Y-111051767D01*
X116923452Y-111115254D01*
X116862394Y-111151482D01*
X116839997Y-111154295D01*
X116840000Y-111154318D01*
X116683238Y-111174956D01*
X116537159Y-111235464D01*
X116411718Y-111331718D01*
X116315464Y-111457159D01*
X116254956Y-111603238D01*
X116234318Y-111760000D01*
X116254956Y-111916762D01*
X116258116Y-111924391D01*
X116259693Y-111928197D01*
X116315464Y-112062841D01*
X116411718Y-112188282D01*
X116418264Y-112193305D01*
X116418266Y-112193307D01*
X116452780Y-112219790D01*
X116494648Y-112277127D01*
X116498870Y-112347998D01*
X116464107Y-112409901D01*
X116401395Y-112443183D01*
X116359631Y-112444675D01*
X116213188Y-112425396D01*
X116205000Y-112424318D01*
X116048238Y-112444956D01*
X115902159Y-112505464D01*
X115776718Y-112601718D01*
X115680464Y-112727159D01*
X115619956Y-112873238D01*
X115599318Y-113030000D01*
X115619956Y-113186762D01*
X115680464Y-113332841D01*
X115776718Y-113458282D01*
X115783264Y-113463305D01*
X115783266Y-113463307D01*
X115817780Y-113489790D01*
X115859648Y-113547127D01*
X115863870Y-113617998D01*
X115829107Y-113679901D01*
X115766395Y-113713183D01*
X115724631Y-113714675D01*
X115578188Y-113695396D01*
X115570000Y-113694318D01*
X115413238Y-113714956D01*
X115267159Y-113775464D01*
X115191602Y-113833441D01*
X115165535Y-113853443D01*
X115141718Y-113871718D01*
X115045464Y-113997159D01*
X114984956Y-114143238D01*
X114964318Y-114300000D01*
X114984956Y-114456762D01*
X115045464Y-114602841D01*
X115141718Y-114728282D01*
X115267159Y-114824536D01*
X115413238Y-114885044D01*
X115570000Y-114905682D01*
X115636843Y-114896882D01*
X115706990Y-114907821D01*
X115742383Y-114932709D01*
X117230889Y-116421215D01*
X117238316Y-116429319D01*
X117262545Y-116458194D01*
X117272094Y-116463707D01*
X117295185Y-116477039D01*
X117304456Y-116482945D01*
X117335316Y-116504554D01*
X117345966Y-116507408D01*
X117349134Y-116508885D01*
X117352410Y-116510077D01*
X117361955Y-116515588D01*
X117395699Y-116521538D01*
X117399058Y-116522130D01*
X117409785Y-116524508D01*
X117446193Y-116534264D01*
X117457169Y-116533304D01*
X117457172Y-116533304D01*
X117483743Y-116530979D01*
X117494724Y-116530500D01*
X122523708Y-116530500D01*
X126335301Y-116530506D01*
X126346280Y-116530985D01*
X126351354Y-116531429D01*
X126362002Y-116534282D01*
X126372986Y-116533321D01*
X126372987Y-116533321D01*
X126399535Y-116530998D01*
X126410518Y-116530518D01*
X126500642Y-116530518D01*
X126707631Y-116530519D01*
X126718613Y-116530999D01*
X126723713Y-116531445D01*
X126734356Y-116534297D01*
X126745331Y-116533337D01*
X126745332Y-116533337D01*
X126771906Y-116531012D01*
X126782887Y-116530533D01*
X127274519Y-116530533D01*
X127281133Y-116530707D01*
X127359907Y-116534848D01*
X127388092Y-116539891D01*
X127389986Y-116540133D01*
X127400511Y-116543407D01*
X127411520Y-116542884D01*
X127414742Y-116542731D01*
X127438123Y-116541620D01*
X127449117Y-116541579D01*
X127588054Y-116547136D01*
X127609186Y-116547981D01*
X127611140Y-116548074D01*
X127769600Y-116556878D01*
X127780568Y-116557970D01*
X127798943Y-116560616D01*
X127817813Y-116563333D01*
X127854777Y-116555607D01*
X127865572Y-116553838D01*
X127874703Y-116552746D01*
X127892104Y-116550665D01*
X127892107Y-116550664D01*
X127903044Y-116549356D01*
X127904091Y-116548827D01*
X127904890Y-116548730D01*
X127905158Y-116548594D01*
X127905473Y-116548555D01*
X127910727Y-116545876D01*
X127914995Y-116545298D01*
X127922197Y-116541516D01*
X127930173Y-116539849D01*
X127930517Y-116539636D01*
X127931241Y-116539485D01*
X127931841Y-116539113D01*
X127932549Y-116538963D01*
X127936266Y-116536641D01*
X127942078Y-116535330D01*
X127945972Y-116532829D01*
X127989094Y-116524170D01*
X128031876Y-116524172D01*
X128074741Y-116524174D01*
X128085702Y-116524652D01*
X128123265Y-116527939D01*
X128129518Y-116526263D01*
X128132917Y-116526264D01*
X128138960Y-116527883D01*
X128149936Y-116526923D01*
X128149939Y-116526923D01*
X128176510Y-116524598D01*
X128187491Y-116524119D01*
X128576346Y-116524119D01*
X128608955Y-116528412D01*
X128630793Y-116534263D01*
X128641768Y-116533303D01*
X128641769Y-116533303D01*
X128668331Y-116530979D01*
X128679312Y-116530500D01*
X129052322Y-116530500D01*
X132587987Y-116530503D01*
X132656108Y-116550505D01*
X132677082Y-116567408D01*
X133994079Y-117884405D01*
X134028105Y-117946717D01*
X134023040Y-118017532D01*
X133980493Y-118074368D01*
X133913973Y-118099179D01*
X133904984Y-118099500D01*
X133350252Y-118099500D01*
X133344184Y-118100707D01*
X133303939Y-118108712D01*
X133303938Y-118108712D01*
X133291769Y-118111133D01*
X133225448Y-118155448D01*
X133218557Y-118165761D01*
X133209778Y-118174540D01*
X133206757Y-118171519D01*
X133170279Y-118202001D01*
X133099835Y-118210843D01*
X133035793Y-118180197D01*
X133030581Y-118174181D01*
X133030222Y-118174540D01*
X133021443Y-118165761D01*
X133014552Y-118155448D01*
X132948231Y-118111133D01*
X132936062Y-118108712D01*
X132936061Y-118108712D01*
X132895816Y-118100707D01*
X132889748Y-118099500D01*
X131850252Y-118099500D01*
X131844184Y-118100707D01*
X131803939Y-118108712D01*
X131803938Y-118108712D01*
X131791769Y-118111133D01*
X131725448Y-118155448D01*
X131718557Y-118165761D01*
X131709778Y-118174540D01*
X131706757Y-118171519D01*
X131670279Y-118202001D01*
X131599835Y-118210843D01*
X131535793Y-118180197D01*
X131530581Y-118174181D01*
X131530222Y-118174540D01*
X131521443Y-118165761D01*
X131514552Y-118155448D01*
X131448231Y-118111133D01*
X131436062Y-118108712D01*
X131436061Y-118108712D01*
X131395816Y-118100707D01*
X131389748Y-118099500D01*
X130350252Y-118099500D01*
X130344184Y-118100707D01*
X130303939Y-118108712D01*
X130303938Y-118108712D01*
X130291769Y-118111133D01*
X130225448Y-118155448D01*
X130218557Y-118165761D01*
X130209778Y-118174540D01*
X130206757Y-118171519D01*
X130170279Y-118202001D01*
X130099835Y-118210843D01*
X130035793Y-118180197D01*
X130030581Y-118174181D01*
X130030222Y-118174540D01*
X130021443Y-118165761D01*
X130014552Y-118155448D01*
X129948231Y-118111133D01*
X129936062Y-118108712D01*
X129936061Y-118108712D01*
X129895816Y-118100707D01*
X129889748Y-118099500D01*
X128850252Y-118099500D01*
X128844184Y-118100707D01*
X128803939Y-118108712D01*
X128803938Y-118108712D01*
X128791769Y-118111133D01*
X128725448Y-118155448D01*
X128718557Y-118165761D01*
X128709778Y-118174540D01*
X128706757Y-118171519D01*
X128670279Y-118202001D01*
X128599835Y-118210843D01*
X128535793Y-118180197D01*
X128530581Y-118174181D01*
X128530222Y-118174540D01*
X128521443Y-118165761D01*
X128514552Y-118155448D01*
X128448231Y-118111133D01*
X128436062Y-118108712D01*
X128436061Y-118108712D01*
X128395816Y-118100707D01*
X128389748Y-118099500D01*
X127350252Y-118099500D01*
X127344184Y-118100707D01*
X127303939Y-118108712D01*
X127303938Y-118108712D01*
X127291769Y-118111133D01*
X127225448Y-118155448D01*
X127218557Y-118165761D01*
X127209778Y-118174540D01*
X127206757Y-118171519D01*
X127170279Y-118202001D01*
X127099835Y-118210843D01*
X127035793Y-118180197D01*
X127030581Y-118174181D01*
X127030222Y-118174540D01*
X127021443Y-118165761D01*
X127014552Y-118155448D01*
X126948231Y-118111133D01*
X126936062Y-118108712D01*
X126936061Y-118108712D01*
X126895816Y-118100707D01*
X126889748Y-118099500D01*
X125850252Y-118099500D01*
X125844184Y-118100707D01*
X125803939Y-118108712D01*
X125803938Y-118108712D01*
X125791769Y-118111133D01*
X125725448Y-118155448D01*
X125718557Y-118165761D01*
X125709778Y-118174540D01*
X125706757Y-118171519D01*
X125670279Y-118202001D01*
X125599835Y-118210843D01*
X125535793Y-118180197D01*
X125530581Y-118174181D01*
X125530222Y-118174540D01*
X125521443Y-118165761D01*
X125514552Y-118155448D01*
X125448231Y-118111133D01*
X125436062Y-118108712D01*
X125436061Y-118108712D01*
X125395816Y-118100707D01*
X125389748Y-118099500D01*
X124350252Y-118099500D01*
X124344184Y-118100707D01*
X124303939Y-118108712D01*
X124303938Y-118108712D01*
X124291769Y-118111133D01*
X124225448Y-118155448D01*
X124218557Y-118165761D01*
X124209778Y-118174540D01*
X124206757Y-118171519D01*
X124170279Y-118202001D01*
X124099835Y-118210843D01*
X124035793Y-118180197D01*
X124030581Y-118174181D01*
X124030222Y-118174540D01*
X124021443Y-118165761D01*
X124014552Y-118155448D01*
X123948231Y-118111133D01*
X123936062Y-118108712D01*
X123936061Y-118108712D01*
X123895816Y-118100707D01*
X123889748Y-118099500D01*
X122850252Y-118099500D01*
X122844184Y-118100707D01*
X122803939Y-118108712D01*
X122803938Y-118108712D01*
X122791769Y-118111133D01*
X122725448Y-118155448D01*
X122718557Y-118165761D01*
X122709778Y-118174540D01*
X122706757Y-118171519D01*
X122670279Y-118202001D01*
X122599835Y-118210843D01*
X122535793Y-118180197D01*
X122530581Y-118174181D01*
X122530222Y-118174540D01*
X122521443Y-118165761D01*
X122514552Y-118155448D01*
X122448231Y-118111133D01*
X122436062Y-118108712D01*
X122436061Y-118108712D01*
X122395816Y-118100707D01*
X122389748Y-118099500D01*
X121350252Y-118099500D01*
X121344184Y-118100707D01*
X121303939Y-118108712D01*
X121303938Y-118108712D01*
X121291769Y-118111133D01*
X121225448Y-118155448D01*
X121218557Y-118165761D01*
X121209778Y-118174540D01*
X121206757Y-118171519D01*
X121170279Y-118202001D01*
X121099835Y-118210843D01*
X121035793Y-118180197D01*
X121030581Y-118174181D01*
X121030222Y-118174540D01*
X121021443Y-118165761D01*
X121014552Y-118155448D01*
X120948231Y-118111133D01*
X120936062Y-118108712D01*
X120936061Y-118108712D01*
X120895816Y-118100707D01*
X120889748Y-118099500D01*
X119850252Y-118099500D01*
X119844184Y-118100707D01*
X119803939Y-118108712D01*
X119803938Y-118108712D01*
X119791769Y-118111133D01*
X119725448Y-118155448D01*
X119718557Y-118165761D01*
X119709778Y-118174540D01*
X119706757Y-118171519D01*
X119670279Y-118202001D01*
X119599835Y-118210843D01*
X119535793Y-118180197D01*
X119530581Y-118174181D01*
X119530222Y-118174540D01*
X119521443Y-118165761D01*
X119514552Y-118155448D01*
X119448231Y-118111133D01*
X119436062Y-118108712D01*
X119436061Y-118108712D01*
X119395816Y-118100707D01*
X119389748Y-118099500D01*
X119278222Y-118099500D01*
X119210101Y-118079498D01*
X119163608Y-118025842D01*
X119153504Y-117955568D01*
X119178259Y-117896796D01*
X119216717Y-117846676D01*
X119269536Y-117777841D01*
X119330044Y-117631762D01*
X119350682Y-117475000D01*
X119330044Y-117318238D01*
X119269536Y-117172159D01*
X119173282Y-117046718D01*
X119047841Y-116950464D01*
X118901762Y-116889956D01*
X118745000Y-116869318D01*
X118588238Y-116889956D01*
X118442159Y-116950464D01*
X118316718Y-117046718D01*
X118220464Y-117172159D01*
X118159956Y-117318238D01*
X118139318Y-117475000D01*
X118140396Y-117483188D01*
X118140396Y-117483189D01*
X118142301Y-117497659D01*
X118131361Y-117567808D01*
X118106474Y-117603200D01*
X117647079Y-118062595D01*
X117584767Y-118096621D01*
X117557984Y-118099500D01*
X116850252Y-118099500D01*
X116844184Y-118100707D01*
X116803939Y-118108712D01*
X116803938Y-118108712D01*
X116791769Y-118111133D01*
X116725448Y-118155448D01*
X116718557Y-118165761D01*
X116709778Y-118174540D01*
X116706757Y-118171519D01*
X116670279Y-118202001D01*
X116599835Y-118210843D01*
X116535793Y-118180197D01*
X116530581Y-118174181D01*
X116530222Y-118174540D01*
X116521443Y-118165761D01*
X116514552Y-118155448D01*
X116448231Y-118111133D01*
X116436062Y-118108712D01*
X116436061Y-118108712D01*
X116395816Y-118100707D01*
X116389748Y-118099500D01*
X115350252Y-118099500D01*
X115344184Y-118100707D01*
X115303939Y-118108712D01*
X115303938Y-118108712D01*
X115291769Y-118111133D01*
X115225448Y-118155448D01*
X115218557Y-118165761D01*
X115209778Y-118174540D01*
X115206757Y-118171519D01*
X115170279Y-118202001D01*
X115099835Y-118210843D01*
X115035793Y-118180197D01*
X115030581Y-118174181D01*
X115030222Y-118174540D01*
X115021443Y-118165761D01*
X115014552Y-118155448D01*
X114948231Y-118111133D01*
X114936062Y-118108712D01*
X114936061Y-118108712D01*
X114895816Y-118100707D01*
X114889748Y-118099500D01*
X114821500Y-118099500D01*
X114753379Y-118079498D01*
X114706886Y-118025842D01*
X114695500Y-117973500D01*
X114695500Y-116716731D01*
X114715502Y-116648610D01*
X114727163Y-116634141D01*
X114728282Y-116633282D01*
X114824536Y-116507841D01*
X114885044Y-116361762D01*
X114905682Y-116205000D01*
X114885044Y-116048238D01*
X114824536Y-115902159D01*
X114728282Y-115776718D01*
X114602841Y-115680464D01*
X114456762Y-115619956D01*
X114300000Y-115599318D01*
X114143238Y-115619956D01*
X113997159Y-115680464D01*
X113871718Y-115776718D01*
X113775464Y-115902159D01*
X113714956Y-116048238D01*
X113694318Y-116205000D01*
X113714956Y-116361762D01*
X113775464Y-116507841D01*
X113871718Y-116633282D01*
X113878264Y-116638305D01*
X113995204Y-116728036D01*
X114037071Y-116785374D01*
X114044500Y-116827999D01*
X114044500Y-117973500D01*
X114024498Y-118041621D01*
X113970842Y-118088114D01*
X113918500Y-118099500D01*
X113850252Y-118099500D01*
X113844184Y-118100707D01*
X113803939Y-118108712D01*
X113803938Y-118108712D01*
X113791769Y-118111133D01*
X113725448Y-118155448D01*
X113718557Y-118165761D01*
X113709778Y-118174540D01*
X113706757Y-118171519D01*
X113670279Y-118202001D01*
X113599835Y-118210843D01*
X113535793Y-118180197D01*
X113530581Y-118174181D01*
X113530222Y-118174540D01*
X113521443Y-118165761D01*
X113514552Y-118155448D01*
X113448231Y-118111133D01*
X113436062Y-118108712D01*
X113436061Y-118108712D01*
X113395816Y-118100707D01*
X113389748Y-118099500D01*
X112417646Y-118099500D01*
X112349525Y-118079498D01*
X112316820Y-118049065D01*
X112238285Y-117944276D01*
X112225724Y-117931715D01*
X112123649Y-117855214D01*
X112108054Y-117846676D01*
X111987606Y-117801522D01*
X111972351Y-117797895D01*
X111921486Y-117792369D01*
X111914672Y-117792000D01*
X111642115Y-117792000D01*
X111626876Y-117796475D01*
X111625671Y-117797865D01*
X111624000Y-117805548D01*
X111624000Y-121189884D01*
X111116000Y-121189884D01*
X111116000Y-119772115D01*
X111111525Y-119756876D01*
X111110135Y-119755671D01*
X111102452Y-119754000D01*
X110380116Y-119754000D01*
X110364877Y-119758475D01*
X110363672Y-119759865D01*
X110362001Y-119767548D01*
X110362001Y-120744669D01*
X104340500Y-120744669D01*
X104340500Y-119227885D01*
X110362000Y-119227885D01*
X110366475Y-119243124D01*
X110367865Y-119244329D01*
X110375548Y-119246000D01*
X111097885Y-119246000D01*
X111113124Y-119241525D01*
X111114329Y-119240135D01*
X111116000Y-119232452D01*
X111116000Y-117810116D01*
X111111525Y-117794877D01*
X111110135Y-117793672D01*
X111102452Y-117792001D01*
X110825331Y-117792001D01*
X110818510Y-117792371D01*
X110767648Y-117797895D01*
X110752396Y-117801521D01*
X110631946Y-117846676D01*
X110616351Y-117855214D01*
X110514276Y-117931715D01*
X110501715Y-117944276D01*
X110425214Y-118046351D01*
X110416676Y-118061946D01*
X110371522Y-118182394D01*
X110367895Y-118197649D01*
X110362369Y-118248514D01*
X110362000Y-118255328D01*
X110362000Y-119227885D01*
X104340500Y-119227885D01*
X104340500Y-95742095D01*
X109012001Y-95742095D01*
X109012338Y-95748614D01*
X109022257Y-95844206D01*
X109025149Y-95857600D01*
X109076588Y-96011784D01*
X109082761Y-96024962D01*
X109168063Y-96162807D01*
X109177099Y-96174208D01*
X109291829Y-96288739D01*
X109303240Y-96297751D01*
X109441243Y-96382816D01*
X109454424Y-96388963D01*
X109608710Y-96440138D01*
X109622086Y-96443005D01*
X109716438Y-96452672D01*
X109722854Y-96453000D01*
X109947885Y-96453000D01*
X109963124Y-96448525D01*
X109964329Y-96447135D01*
X109966000Y-96439452D01*
X109966000Y-96434884D01*
X110474000Y-96434884D01*
X110478475Y-96450123D01*
X110479865Y-96451328D01*
X110487548Y-96452999D01*
X110717095Y-96452999D01*
X110723614Y-96452662D01*
X110819206Y-96442743D01*
X110832600Y-96439851D01*
X110986784Y-96388412D01*
X110999962Y-96382239D01*
X111137807Y-96296937D01*
X111149208Y-96287901D01*
X111263739Y-96173171D01*
X111272751Y-96161760D01*
X111357816Y-96023757D01*
X111363963Y-96010576D01*
X111415138Y-95856290D01*
X111418005Y-95842914D01*
X111427672Y-95748562D01*
X111428000Y-95742146D01*
X111428000Y-95617115D01*
X111423525Y-95601876D01*
X111422135Y-95600671D01*
X111414452Y-95599000D01*
X110492115Y-95599000D01*
X110476876Y-95603475D01*
X110475671Y-95604865D01*
X110474000Y-95612548D01*
X110474000Y-96434884D01*
X109966000Y-96434884D01*
X109966000Y-95617115D01*
X109961525Y-95601876D01*
X109960135Y-95600671D01*
X109952452Y-95599000D01*
X109030116Y-95599000D01*
X109014877Y-95603475D01*
X109013672Y-95604865D01*
X109012001Y-95612548D01*
X109012001Y-95742095D01*
X104340500Y-95742095D01*
X104340500Y-88791657D01*
X106432000Y-88791657D01*
X106432301Y-88797805D01*
X106445812Y-88935603D01*
X106448195Y-88947638D01*
X106501767Y-89125076D01*
X106506441Y-89136416D01*
X106593460Y-89300077D01*
X106600249Y-89310294D01*
X106717397Y-89453933D01*
X106726041Y-89462637D01*
X106868856Y-89580784D01*
X106879027Y-89587644D01*
X107042076Y-89675804D01*
X107053381Y-89680556D01*
X107168692Y-89716250D01*
X107182795Y-89716456D01*
X107186000Y-89709701D01*
X107186000Y-89702924D01*
X107694000Y-89702924D01*
X107697973Y-89716455D01*
X107705768Y-89717575D01*
X107801399Y-89689430D01*
X107872396Y-89689385D01*
X107912539Y-89709478D01*
X108006351Y-89779786D01*
X108021946Y-89788324D01*
X108142394Y-89833478D01*
X108157649Y-89837105D01*
X108208514Y-89842631D01*
X108215328Y-89843000D01*
X108241885Y-89843000D01*
X108257124Y-89838525D01*
X108258329Y-89837135D01*
X108260000Y-89829452D01*
X108260000Y-88928115D01*
X108255525Y-88912876D01*
X108254135Y-88911671D01*
X108246452Y-88910000D01*
X108138000Y-88910000D01*
X108069879Y-88889998D01*
X108023386Y-88836342D01*
X108012000Y-88784000D01*
X108012000Y-88736000D01*
X108032002Y-88667879D01*
X108085658Y-88621386D01*
X108138000Y-88610000D01*
X108733500Y-88610000D01*
X108801621Y-88630002D01*
X108848114Y-88683658D01*
X108859500Y-88736000D01*
X108859500Y-89354748D01*
X108859833Y-89356422D01*
X108860000Y-89359826D01*
X108860000Y-89824884D01*
X108864475Y-89840123D01*
X108865865Y-89841328D01*
X108873548Y-89842999D01*
X108904669Y-89842999D01*
X108911490Y-89842629D01*
X108962352Y-89837105D01*
X108977604Y-89833479D01*
X109098054Y-89788324D01*
X109113649Y-89779786D01*
X109215724Y-89703285D01*
X109228285Y-89690724D01*
X109306820Y-89585935D01*
X109363679Y-89543420D01*
X109407646Y-89535500D01*
X109558500Y-89535500D01*
X109626621Y-89555502D01*
X109673114Y-89609158D01*
X109684500Y-89661500D01*
X109684500Y-92458231D01*
X109664498Y-92526352D01*
X109610842Y-92572845D01*
X109600250Y-92577113D01*
X109556816Y-92592366D01*
X109549246Y-92597958D01*
X109549243Y-92597959D01*
X109485534Y-92645016D01*
X109447850Y-92672850D01*
X109442258Y-92680421D01*
X109372959Y-92774243D01*
X109372958Y-92774246D01*
X109367366Y-92781816D01*
X109322481Y-92909631D01*
X109319500Y-92941166D01*
X109319500Y-93748834D01*
X109322481Y-93780369D01*
X109367366Y-93908184D01*
X109372958Y-93915754D01*
X109372959Y-93915757D01*
X109415905Y-93973900D01*
X109447850Y-94017150D01*
X109455421Y-94022742D01*
X109519685Y-94070209D01*
X109562596Y-94126771D01*
X109568115Y-94197552D01*
X109534490Y-94260082D01*
X109484700Y-94291084D01*
X109453218Y-94301587D01*
X109440038Y-94307761D01*
X109302193Y-94393063D01*
X109290792Y-94402099D01*
X109176261Y-94516829D01*
X109167249Y-94528240D01*
X109082184Y-94666243D01*
X109076037Y-94679424D01*
X109024862Y-94833710D01*
X109021995Y-94847086D01*
X109012328Y-94941438D01*
X109012000Y-94947854D01*
X109012000Y-95072885D01*
X109016475Y-95088124D01*
X109017865Y-95089329D01*
X109025548Y-95091000D01*
X111409884Y-95091000D01*
X111425123Y-95086525D01*
X111426328Y-95085135D01*
X111427999Y-95077452D01*
X111427999Y-94947905D01*
X111427662Y-94941386D01*
X111417743Y-94845794D01*
X111414851Y-94832400D01*
X111363412Y-94678216D01*
X111357239Y-94665038D01*
X111271937Y-94527193D01*
X111262901Y-94515792D01*
X111148171Y-94401261D01*
X111136760Y-94392249D01*
X110998757Y-94307184D01*
X110985576Y-94301037D01*
X110955590Y-94291091D01*
X110897230Y-94250660D01*
X110869994Y-94185096D01*
X110882528Y-94115214D01*
X110920399Y-94070147D01*
X110984576Y-94022745D01*
X110984579Y-94022742D01*
X110992150Y-94017150D01*
X111024095Y-93973900D01*
X111067041Y-93915757D01*
X111067042Y-93915754D01*
X111072634Y-93908184D01*
X111117519Y-93780369D01*
X111120500Y-93748834D01*
X111120500Y-92941166D01*
X111117519Y-92909631D01*
X111072634Y-92781816D01*
X111067042Y-92774246D01*
X111067041Y-92774243D01*
X110997742Y-92680421D01*
X110992150Y-92672850D01*
X110954466Y-92645016D01*
X110890757Y-92597959D01*
X110890754Y-92597958D01*
X110883184Y-92592366D01*
X110755369Y-92547481D01*
X110747723Y-92546758D01*
X110747722Y-92546758D01*
X110741752Y-92546194D01*
X110723834Y-92544500D01*
X110461500Y-92544500D01*
X110393379Y-92524498D01*
X110346886Y-92470842D01*
X110335500Y-92418500D01*
X110335500Y-89661500D01*
X110355502Y-89593379D01*
X110409158Y-89546886D01*
X110461500Y-89535500D01*
X110556061Y-89535500D01*
X110624182Y-89555502D01*
X110670675Y-89609158D01*
X110681582Y-89650520D01*
X110681697Y-89651840D01*
X110680736Y-89662829D01*
X110686295Y-89683574D01*
X110690491Y-89699232D01*
X110692870Y-89709964D01*
X110699412Y-89747067D01*
X110704923Y-89756612D01*
X110706115Y-89759888D01*
X110707592Y-89763056D01*
X110710446Y-89773706D01*
X110716770Y-89782737D01*
X110732055Y-89804566D01*
X110737961Y-89813837D01*
X110746977Y-89829452D01*
X110756806Y-89846477D01*
X110784377Y-89869612D01*
X110799901Y-89885136D01*
X110823034Y-89912705D01*
X110832583Y-89918218D01*
X110855674Y-89931550D01*
X110864945Y-89937456D01*
X110895805Y-89959065D01*
X110906455Y-89961919D01*
X110909623Y-89963396D01*
X110912899Y-89964588D01*
X110922444Y-89970099D01*
X110956188Y-89976049D01*
X110959547Y-89976641D01*
X110970274Y-89979019D01*
X111006682Y-89988775D01*
X111017667Y-89987814D01*
X111017669Y-89987814D01*
X111044217Y-89985491D01*
X111055199Y-89985011D01*
X111558500Y-89985011D01*
X111626621Y-90005013D01*
X111673114Y-90058669D01*
X111684500Y-90111011D01*
X111684500Y-96750994D01*
X111684020Y-96761976D01*
X111680736Y-96799511D01*
X111687812Y-96825916D01*
X111690491Y-96835914D01*
X111692870Y-96846646D01*
X111699412Y-96883749D01*
X111704923Y-96893294D01*
X111706115Y-96896570D01*
X111707592Y-96899738D01*
X111710446Y-96910388D01*
X111726240Y-96932943D01*
X111732055Y-96941248D01*
X111737961Y-96950519D01*
X111741347Y-96956383D01*
X111756806Y-96983159D01*
X111765251Y-96990245D01*
X111785675Y-97007383D01*
X111793780Y-97014810D01*
X112599708Y-97820739D01*
X112607134Y-97828842D01*
X112631352Y-97857705D01*
X112640895Y-97863215D01*
X112640899Y-97863218D01*
X112663986Y-97876547D01*
X112673255Y-97882451D01*
X112704123Y-97904065D01*
X112714771Y-97906918D01*
X112717942Y-97908397D01*
X112721218Y-97909589D01*
X112730762Y-97915099D01*
X112767883Y-97921645D01*
X112778590Y-97924019D01*
X112815000Y-97933774D01*
X112825975Y-97932814D01*
X112825977Y-97932814D01*
X112852538Y-97930490D01*
X112863519Y-97930011D01*
X115736483Y-97930011D01*
X115747465Y-97930491D01*
X115774013Y-97932814D01*
X115774015Y-97932814D01*
X115785000Y-97933775D01*
X115821408Y-97924019D01*
X115832135Y-97921641D01*
X115835494Y-97921049D01*
X115869238Y-97915099D01*
X115878783Y-97909588D01*
X115882059Y-97908396D01*
X115885227Y-97906919D01*
X115895877Y-97904065D01*
X115926743Y-97882452D01*
X115936008Y-97876550D01*
X115959099Y-97863218D01*
X115968648Y-97857705D01*
X115992878Y-97828828D01*
X116000304Y-97820726D01*
X121962136Y-91858894D01*
X122024448Y-91824868D01*
X122051231Y-91821989D01*
X124406271Y-91821989D01*
X124474392Y-91841991D01*
X124520885Y-91895647D01*
X124530989Y-91965921D01*
X124515827Y-92010227D01*
X124508974Y-92022291D01*
X124416611Y-92221270D01*
X124413048Y-92230957D01*
X124354424Y-92442347D01*
X124352493Y-92452468D01*
X124329178Y-92670619D01*
X124328927Y-92680907D01*
X124341557Y-92899932D01*
X124342990Y-92910134D01*
X124391219Y-93124143D01*
X124394302Y-93133983D01*
X124476837Y-93337240D01*
X124481490Y-93346451D01*
X124568098Y-93487780D01*
X124578555Y-93497241D01*
X124587331Y-93493458D01*
X125640905Y-92439885D01*
X125703217Y-92405859D01*
X125774033Y-92410924D01*
X125819095Y-92439885D01*
X126868421Y-93489210D01*
X126880432Y-93495769D01*
X126892170Y-93486802D01*
X126928549Y-93436174D01*
X126933860Y-93427335D01*
X127031056Y-93230675D01*
X127034854Y-93221082D01*
X127046197Y-93183748D01*
X127085138Y-93124384D01*
X127149992Y-93095496D01*
X127220169Y-93106257D01*
X127273387Y-93153250D01*
X127281180Y-93167622D01*
X127322423Y-93257084D01*
X127325756Y-93261800D01*
X127379072Y-93337240D01*
X127437988Y-93420605D01*
X127581418Y-93560328D01*
X127747908Y-93671574D01*
X127753211Y-93673852D01*
X127753214Y-93673854D01*
X127825088Y-93704733D01*
X127931883Y-93750616D01*
X128127182Y-93794807D01*
X128132956Y-93795034D01*
X128132957Y-93795034D01*
X128174134Y-93796652D01*
X128327264Y-93802668D01*
X128525428Y-93773936D01*
X128530892Y-93772081D01*
X128530897Y-93772080D01*
X128709570Y-93711428D01*
X128715038Y-93709572D01*
X128889744Y-93611733D01*
X129043694Y-93483694D01*
X129171733Y-93329744D01*
X129269572Y-93155038D01*
X129295455Y-93078790D01*
X129332080Y-92970897D01*
X129332081Y-92970892D01*
X129333936Y-92965428D01*
X129362668Y-92767264D01*
X129364168Y-92710000D01*
X129345846Y-92510604D01*
X129291494Y-92317885D01*
X129202932Y-92138299D01*
X129184842Y-92114073D01*
X129117116Y-92023378D01*
X129092384Y-91956828D01*
X129107558Y-91887472D01*
X129157820Y-91837330D01*
X129218074Y-91821989D01*
X129862839Y-91821989D01*
X129930960Y-91841991D01*
X129977453Y-91895647D01*
X129987557Y-91965921D01*
X129961789Y-92025995D01*
X129892354Y-92114073D01*
X129889666Y-92119183D01*
X129889661Y-92119191D01*
X129818632Y-92254195D01*
X129799121Y-92291280D01*
X129797407Y-92296800D01*
X129741751Y-92476041D01*
X129739742Y-92482510D01*
X129716207Y-92681358D01*
X129729303Y-92881166D01*
X129778592Y-93075241D01*
X129862423Y-93257084D01*
X129865756Y-93261800D01*
X129919072Y-93337240D01*
X129977988Y-93420605D01*
X130121418Y-93560328D01*
X130287908Y-93671574D01*
X130293211Y-93673852D01*
X130293214Y-93673854D01*
X130365088Y-93704733D01*
X130471883Y-93750616D01*
X130667182Y-93794807D01*
X130672956Y-93795034D01*
X130672957Y-93795034D01*
X130714134Y-93796652D01*
X130867264Y-93802668D01*
X131065428Y-93773936D01*
X131070892Y-93772081D01*
X131070897Y-93772080D01*
X131249570Y-93711428D01*
X131255038Y-93709572D01*
X131429744Y-93611733D01*
X131583694Y-93483694D01*
X131711733Y-93329744D01*
X131809572Y-93155038D01*
X131835455Y-93078790D01*
X131872080Y-92970897D01*
X131872081Y-92970892D01*
X131873936Y-92965428D01*
X131902668Y-92767264D01*
X131904168Y-92710000D01*
X131885846Y-92510604D01*
X131831494Y-92317885D01*
X131742932Y-92138299D01*
X131724842Y-92114073D01*
X131657116Y-92023378D01*
X131632384Y-91956828D01*
X131647558Y-91887472D01*
X131697820Y-91837330D01*
X131758074Y-91821989D01*
X132402839Y-91821989D01*
X132470960Y-91841991D01*
X132517453Y-91895647D01*
X132527557Y-91965921D01*
X132501789Y-92025995D01*
X132432354Y-92114073D01*
X132429666Y-92119183D01*
X132429661Y-92119191D01*
X132358632Y-92254195D01*
X132339121Y-92291280D01*
X132337407Y-92296800D01*
X132281751Y-92476041D01*
X132279742Y-92482510D01*
X132256207Y-92681358D01*
X132269303Y-92881166D01*
X132318592Y-93075241D01*
X132402423Y-93257084D01*
X132405756Y-93261800D01*
X132459072Y-93337240D01*
X132517988Y-93420605D01*
X132661418Y-93560328D01*
X132827908Y-93671574D01*
X132833211Y-93673852D01*
X132833214Y-93673854D01*
X132905088Y-93704733D01*
X133011883Y-93750616D01*
X133207182Y-93794807D01*
X133212956Y-93795034D01*
X133212957Y-93795034D01*
X133254134Y-93796652D01*
X133407264Y-93802668D01*
X133605428Y-93773936D01*
X133610892Y-93772081D01*
X133610897Y-93772080D01*
X133789570Y-93711428D01*
X133795038Y-93709572D01*
X133969744Y-93611733D01*
X134123694Y-93483694D01*
X134251733Y-93329744D01*
X134349572Y-93155038D01*
X134375455Y-93078790D01*
X134412080Y-92970897D01*
X134412081Y-92970892D01*
X134413936Y-92965428D01*
X134442668Y-92767264D01*
X134444168Y-92710000D01*
X134425846Y-92510604D01*
X134371494Y-92317885D01*
X134282932Y-92138299D01*
X134264842Y-92114073D01*
X134197116Y-92023378D01*
X134172384Y-91956828D01*
X134187558Y-91887472D01*
X134237820Y-91837330D01*
X134298074Y-91821989D01*
X134489473Y-91821989D01*
X134557594Y-91841991D01*
X134578568Y-91858894D01*
X134858943Y-92139269D01*
X134892969Y-92201581D01*
X134887904Y-92272396D01*
X134882665Y-92284107D01*
X134881814Y-92286162D01*
X134879121Y-92291280D01*
X134877407Y-92296800D01*
X134821751Y-92476041D01*
X134819742Y-92482510D01*
X134796207Y-92681358D01*
X134809303Y-92881166D01*
X134858592Y-93075241D01*
X134942423Y-93257084D01*
X134945756Y-93261800D01*
X134999072Y-93337240D01*
X135057988Y-93420605D01*
X135201418Y-93560328D01*
X135367908Y-93671574D01*
X135373211Y-93673852D01*
X135373214Y-93673854D01*
X135445088Y-93704733D01*
X135551883Y-93750616D01*
X135747182Y-93794807D01*
X135752956Y-93795034D01*
X135752957Y-93795034D01*
X135794134Y-93796652D01*
X135947264Y-93802668D01*
X136145428Y-93773936D01*
X136150892Y-93772081D01*
X136150897Y-93772080D01*
X136329570Y-93711428D01*
X136335038Y-93709572D01*
X136509744Y-93611733D01*
X136663694Y-93483694D01*
X136791733Y-93329744D01*
X136889572Y-93155038D01*
X136915455Y-93078790D01*
X136952080Y-92970897D01*
X136952081Y-92970892D01*
X136953936Y-92965428D01*
X136982668Y-92767264D01*
X136984168Y-92710000D01*
X136965846Y-92510604D01*
X136911494Y-92317885D01*
X136822932Y-92138299D01*
X136804842Y-92114073D01*
X136736304Y-92022291D01*
X136703125Y-91977859D01*
X136654589Y-91932993D01*
X136560328Y-91845858D01*
X136560326Y-91845856D01*
X136556087Y-91841938D01*
X136386742Y-91735089D01*
X136381382Y-91732951D01*
X136381379Y-91732949D01*
X136206125Y-91663030D01*
X136200761Y-91660890D01*
X136195101Y-91659764D01*
X136195097Y-91659763D01*
X136010038Y-91622953D01*
X136005533Y-91622057D01*
X135942623Y-91589150D01*
X135907491Y-91527455D01*
X135911291Y-91456560D01*
X135952817Y-91398974D01*
X136018883Y-91372980D01*
X136030114Y-91372478D01*
X136579962Y-91372478D01*
X136648083Y-91392480D01*
X136669057Y-91409383D01*
X137398943Y-92139269D01*
X137432969Y-92201581D01*
X137427904Y-92272396D01*
X137422665Y-92284107D01*
X137421814Y-92286162D01*
X137419121Y-92291280D01*
X137417407Y-92296800D01*
X137361751Y-92476041D01*
X137359742Y-92482510D01*
X137336207Y-92681358D01*
X137349303Y-92881166D01*
X137398592Y-93075241D01*
X137482423Y-93257084D01*
X137485756Y-93261800D01*
X137539072Y-93337240D01*
X137597988Y-93420605D01*
X137741418Y-93560328D01*
X137907908Y-93671574D01*
X137913211Y-93673852D01*
X137913214Y-93673854D01*
X137985088Y-93704733D01*
X138091883Y-93750616D01*
X138287182Y-93794807D01*
X138292956Y-93795034D01*
X138292957Y-93795034D01*
X138334134Y-93796652D01*
X138487264Y-93802668D01*
X138685428Y-93773936D01*
X138690892Y-93772081D01*
X138690897Y-93772080D01*
X138869570Y-93711428D01*
X138875038Y-93709572D01*
X139049744Y-93611733D01*
X139203694Y-93483694D01*
X139331733Y-93329744D01*
X139429572Y-93155038D01*
X139455455Y-93078790D01*
X139492080Y-92970897D01*
X139492081Y-92970892D01*
X139493936Y-92965428D01*
X139522668Y-92767264D01*
X139524168Y-92710000D01*
X139521536Y-92681358D01*
X139876207Y-92681358D01*
X139889303Y-92881166D01*
X139938592Y-93075241D01*
X140022423Y-93257084D01*
X140025756Y-93261800D01*
X140079072Y-93337240D01*
X140137988Y-93420605D01*
X140281418Y-93560328D01*
X140447908Y-93671574D01*
X140453211Y-93673852D01*
X140453214Y-93673854D01*
X140510294Y-93698377D01*
X140564987Y-93743645D01*
X140586524Y-93811296D01*
X140568067Y-93879852D01*
X140515476Y-93927546D01*
X140499702Y-93933910D01*
X140431700Y-93956137D01*
X140422195Y-93960132D01*
X140227603Y-94061431D01*
X140218890Y-94066918D01*
X140191819Y-94087244D01*
X140183365Y-94098570D01*
X140190108Y-94110897D01*
X140957189Y-94877979D01*
X140971132Y-94885592D01*
X140972966Y-94885461D01*
X140979580Y-94881210D01*
X141751162Y-94109627D01*
X141758179Y-94096776D01*
X141750405Y-94086107D01*
X141749796Y-94085625D01*
X141741210Y-94079921D01*
X141549151Y-93973900D01*
X141539748Y-93969674D01*
X141440956Y-93934690D01*
X141383419Y-93893096D01*
X141357503Y-93826999D01*
X141371437Y-93757383D01*
X141421449Y-93705982D01*
X141584710Y-93614552D01*
X141589744Y-93611733D01*
X141743694Y-93483694D01*
X141871733Y-93329744D01*
X141965139Y-93162954D01*
X142015876Y-93113292D01*
X142085408Y-93098944D01*
X142151659Y-93124466D01*
X142191817Y-93177116D01*
X142256837Y-93337240D01*
X142261490Y-93346451D01*
X142348098Y-93487780D01*
X142358555Y-93497241D01*
X142367331Y-93493458D01*
X143137979Y-92722811D01*
X143144356Y-92711132D01*
X143874408Y-92711132D01*
X143874539Y-92712966D01*
X143878790Y-92719580D01*
X144648425Y-93489214D01*
X144660431Y-93495770D01*
X144672170Y-93486802D01*
X144708549Y-93436174D01*
X144713860Y-93427335D01*
X144811056Y-93230675D01*
X144814854Y-93221082D01*
X144878628Y-93011177D01*
X144880805Y-93001107D01*
X144909677Y-92781799D01*
X144910196Y-92775124D01*
X144911706Y-92713364D01*
X144911512Y-92706646D01*
X144893389Y-92486203D01*
X144891706Y-92476041D01*
X144838261Y-92263263D01*
X144834943Y-92253516D01*
X144747462Y-92052323D01*
X144742595Y-92043246D01*
X144671268Y-91932993D01*
X144660582Y-91923791D01*
X144651017Y-91928194D01*
X143882021Y-92697189D01*
X143874408Y-92711132D01*
X143144356Y-92711132D01*
X143145592Y-92708868D01*
X143145461Y-92707034D01*
X143141210Y-92700420D01*
X142371778Y-91930989D01*
X142360246Y-91924692D01*
X142347964Y-91934315D01*
X142294064Y-92013329D01*
X142288976Y-92022285D01*
X142196611Y-92221270D01*
X142191267Y-92235797D01*
X142189947Y-92235311D01*
X142155891Y-92290110D01*
X142091764Y-92320577D01*
X142021345Y-92311538D01*
X141966992Y-92265862D01*
X141958941Y-92251874D01*
X141948626Y-92230957D01*
X141902932Y-92138299D01*
X141884842Y-92114073D01*
X141816304Y-92022291D01*
X141783125Y-91977859D01*
X141734589Y-91932993D01*
X141640328Y-91845858D01*
X141640326Y-91845856D01*
X141636087Y-91841938D01*
X141466742Y-91735089D01*
X141461382Y-91732951D01*
X141461379Y-91732949D01*
X141286125Y-91663030D01*
X141280761Y-91660890D01*
X141275101Y-91659764D01*
X141275097Y-91659763D01*
X141090039Y-91622953D01*
X141090037Y-91622953D01*
X141084372Y-91621826D01*
X141078597Y-91621750D01*
X141078593Y-91621750D01*
X140978641Y-91620442D01*
X140884153Y-91619205D01*
X140878456Y-91620184D01*
X140878455Y-91620184D01*
X140692505Y-91652136D01*
X140686808Y-91653115D01*
X140498949Y-91722420D01*
X140326864Y-91824799D01*
X140322524Y-91828605D01*
X140322520Y-91828608D01*
X140218110Y-91920174D01*
X140176319Y-91956824D01*
X140172744Y-91961359D01*
X140172743Y-91961360D01*
X140134220Y-92010227D01*
X140052354Y-92114073D01*
X140049666Y-92119183D01*
X140049661Y-92119191D01*
X139978632Y-92254195D01*
X139959121Y-92291280D01*
X139957407Y-92296800D01*
X139901751Y-92476041D01*
X139899742Y-92482510D01*
X139876207Y-92681358D01*
X139521536Y-92681358D01*
X139505846Y-92510604D01*
X139451494Y-92317885D01*
X139362932Y-92138299D01*
X139344842Y-92114073D01*
X139276304Y-92022291D01*
X139243125Y-91977859D01*
X139194589Y-91932993D01*
X139100328Y-91845858D01*
X139100326Y-91845856D01*
X139096087Y-91841938D01*
X138926742Y-91735089D01*
X138921382Y-91732951D01*
X138921379Y-91732949D01*
X138746125Y-91663030D01*
X138740761Y-91660890D01*
X138735101Y-91659764D01*
X138735097Y-91659763D01*
X138550039Y-91622953D01*
X138550037Y-91622953D01*
X138544372Y-91621826D01*
X138538597Y-91621750D01*
X138538593Y-91621750D01*
X138438641Y-91620442D01*
X138344153Y-91619205D01*
X138338456Y-91620184D01*
X138338455Y-91620184D01*
X138152505Y-91652136D01*
X138146808Y-91653115D01*
X138022973Y-91698800D01*
X137993566Y-91709649D01*
X137922732Y-91714461D01*
X137860860Y-91680533D01*
X137738897Y-91558570D01*
X142723365Y-91558570D01*
X142730108Y-91570897D01*
X143497189Y-92337979D01*
X143511132Y-92345592D01*
X143512966Y-92345461D01*
X143519580Y-92341210D01*
X144291162Y-91569627D01*
X144298179Y-91556776D01*
X144290405Y-91546107D01*
X144289796Y-91545625D01*
X144281210Y-91539921D01*
X144089151Y-91433900D01*
X144079752Y-91429675D01*
X143872950Y-91356443D01*
X143862993Y-91353813D01*
X143647008Y-91315339D01*
X143636757Y-91314370D01*
X143417386Y-91311690D01*
X143407102Y-91312410D01*
X143190251Y-91345592D01*
X143180224Y-91347981D01*
X142971704Y-91416135D01*
X142962195Y-91420132D01*
X142767603Y-91521431D01*
X142758890Y-91526918D01*
X142731819Y-91547244D01*
X142723365Y-91558570D01*
X137738897Y-91558570D01*
X137011083Y-90830757D01*
X137003656Y-90822652D01*
X136986519Y-90802229D01*
X136986520Y-90802229D01*
X136979433Y-90793784D01*
X136969884Y-90788271D01*
X136946793Y-90774939D01*
X136937522Y-90769033D01*
X136915693Y-90753748D01*
X136906662Y-90747424D01*
X136896012Y-90744570D01*
X136892844Y-90743093D01*
X136889568Y-90741901D01*
X136880023Y-90736390D01*
X136846279Y-90730440D01*
X136842920Y-90729848D01*
X136832193Y-90727470D01*
X136795785Y-90717714D01*
X136784800Y-90718675D01*
X136784798Y-90718675D01*
X136758250Y-90720998D01*
X136747268Y-90721478D01*
X121697732Y-90721478D01*
X121686750Y-90720998D01*
X121660202Y-90718675D01*
X121660200Y-90718675D01*
X121649215Y-90717714D01*
X121612807Y-90727470D01*
X121602080Y-90729848D01*
X121598721Y-90730440D01*
X121564977Y-90736390D01*
X121555432Y-90741901D01*
X121552156Y-90743093D01*
X121548988Y-90744570D01*
X121538338Y-90747424D01*
X121529307Y-90753748D01*
X121507478Y-90769033D01*
X121498207Y-90774939D01*
X121475116Y-90788271D01*
X121465567Y-90793784D01*
X121458481Y-90802229D01*
X121441337Y-90822660D01*
X121433911Y-90830763D01*
X115472079Y-96792595D01*
X115409767Y-96826621D01*
X115382984Y-96829500D01*
X113447018Y-96829500D01*
X113378897Y-96809498D01*
X113357923Y-96792596D01*
X112872405Y-96307079D01*
X112838380Y-96244766D01*
X112835500Y-96217983D01*
X112835500Y-95742095D01*
X113092001Y-95742095D01*
X113092338Y-95748614D01*
X113102257Y-95844206D01*
X113105149Y-95857600D01*
X113156588Y-96011784D01*
X113162761Y-96024962D01*
X113248063Y-96162807D01*
X113257099Y-96174208D01*
X113371829Y-96288739D01*
X113383240Y-96297751D01*
X113521243Y-96382816D01*
X113534424Y-96388963D01*
X113688710Y-96440138D01*
X113702086Y-96443005D01*
X113796438Y-96452672D01*
X113802854Y-96453000D01*
X114027885Y-96453000D01*
X114043124Y-96448525D01*
X114044329Y-96447135D01*
X114046000Y-96439452D01*
X114046000Y-96434884D01*
X114554000Y-96434884D01*
X114558475Y-96450123D01*
X114559865Y-96451328D01*
X114567548Y-96452999D01*
X114797095Y-96452999D01*
X114803614Y-96452662D01*
X114899206Y-96442743D01*
X114912600Y-96439851D01*
X115066784Y-96388412D01*
X115079962Y-96382239D01*
X115217807Y-96296937D01*
X115229208Y-96287901D01*
X115343739Y-96173171D01*
X115352751Y-96161760D01*
X115437816Y-96023757D01*
X115443963Y-96010576D01*
X115495138Y-95856290D01*
X115498005Y-95842914D01*
X115507672Y-95748562D01*
X115508000Y-95742146D01*
X115508000Y-95617115D01*
X115503525Y-95601876D01*
X115502135Y-95600671D01*
X115494452Y-95599000D01*
X114572115Y-95599000D01*
X114556876Y-95603475D01*
X114555671Y-95604865D01*
X114554000Y-95612548D01*
X114554000Y-96434884D01*
X114046000Y-96434884D01*
X114046000Y-95617115D01*
X114041525Y-95601876D01*
X114040135Y-95600671D01*
X114032452Y-95599000D01*
X113110116Y-95599000D01*
X113094877Y-95603475D01*
X113093672Y-95604865D01*
X113092001Y-95612548D01*
X113092001Y-95742095D01*
X112835500Y-95742095D01*
X112835500Y-92645016D01*
X112855502Y-92576895D01*
X112909158Y-92530402D01*
X112979432Y-92520298D01*
X113044012Y-92549792D01*
X113050595Y-92555921D01*
X113362595Y-92867921D01*
X113396621Y-92930233D01*
X113399500Y-92957016D01*
X113399500Y-93748834D01*
X113402481Y-93780369D01*
X113447366Y-93908184D01*
X113452958Y-93915754D01*
X113452959Y-93915757D01*
X113495905Y-93973900D01*
X113527850Y-94017150D01*
X113535421Y-94022742D01*
X113599685Y-94070209D01*
X113642596Y-94126771D01*
X113648115Y-94197552D01*
X113614490Y-94260082D01*
X113564700Y-94291084D01*
X113533218Y-94301587D01*
X113520038Y-94307761D01*
X113382193Y-94393063D01*
X113370792Y-94402099D01*
X113256261Y-94516829D01*
X113247249Y-94528240D01*
X113162184Y-94666243D01*
X113156037Y-94679424D01*
X113104862Y-94833710D01*
X113101995Y-94847086D01*
X113092328Y-94941438D01*
X113092000Y-94947855D01*
X113092000Y-95072885D01*
X113096475Y-95088124D01*
X113097865Y-95089329D01*
X113105548Y-95091000D01*
X115489884Y-95091000D01*
X115505123Y-95086525D01*
X115506328Y-95085135D01*
X115507999Y-95077452D01*
X115507999Y-94947905D01*
X115507662Y-94941386D01*
X115497743Y-94845794D01*
X115494851Y-94832400D01*
X115443412Y-94678216D01*
X115437239Y-94665038D01*
X115351937Y-94527193D01*
X115342901Y-94515792D01*
X115228171Y-94401261D01*
X115216760Y-94392249D01*
X115078757Y-94307184D01*
X115065576Y-94301037D01*
X115035590Y-94291091D01*
X114977230Y-94250660D01*
X114949994Y-94185096D01*
X114962528Y-94115214D01*
X115000399Y-94070147D01*
X115064576Y-94022745D01*
X115064579Y-94022742D01*
X115072150Y-94017150D01*
X115104095Y-93973900D01*
X115147041Y-93915757D01*
X115147042Y-93915754D01*
X115152634Y-93908184D01*
X115197519Y-93780369D01*
X115200500Y-93748834D01*
X115200500Y-92941166D01*
X115197519Y-92909631D01*
X115152634Y-92781816D01*
X115147042Y-92774246D01*
X115147041Y-92774243D01*
X115077742Y-92680421D01*
X115072150Y-92672850D01*
X115034466Y-92645016D01*
X114970757Y-92597959D01*
X114970754Y-92597958D01*
X114963184Y-92592366D01*
X114835369Y-92547481D01*
X114827723Y-92546758D01*
X114827722Y-92546758D01*
X114821752Y-92546194D01*
X114803834Y-92544500D01*
X114012018Y-92544500D01*
X113943897Y-92524498D01*
X113922923Y-92507596D01*
X113372405Y-91957079D01*
X113338380Y-91894766D01*
X113335500Y-91867983D01*
X113335500Y-89661500D01*
X113355502Y-89593379D01*
X113409158Y-89546886D01*
X113461500Y-89535500D01*
X113679748Y-89535500D01*
X113735421Y-89524426D01*
X113784579Y-89524426D01*
X113840252Y-89535500D01*
X113856061Y-89535500D01*
X113924182Y-89555502D01*
X113970675Y-89609158D01*
X113981582Y-89650520D01*
X113981697Y-89651840D01*
X113980736Y-89662829D01*
X113986295Y-89683574D01*
X113990491Y-89699232D01*
X113992870Y-89709964D01*
X113999412Y-89747067D01*
X114004923Y-89756612D01*
X114006115Y-89759888D01*
X114007592Y-89763056D01*
X114010446Y-89773706D01*
X114016770Y-89782737D01*
X114032055Y-89804566D01*
X114037961Y-89813837D01*
X114046977Y-89829452D01*
X114056806Y-89846477D01*
X114065250Y-89853562D01*
X114065251Y-89853563D01*
X114085682Y-89870707D01*
X114093785Y-89878133D01*
X114855867Y-90640215D01*
X114863293Y-90648318D01*
X114887523Y-90677194D01*
X114897072Y-90682707D01*
X114920163Y-90696039D01*
X114929434Y-90701945D01*
X114960294Y-90723554D01*
X114970944Y-90726408D01*
X114974112Y-90727885D01*
X114977388Y-90729077D01*
X114986933Y-90734588D01*
X115020677Y-90740538D01*
X115024036Y-90741130D01*
X115034763Y-90743508D01*
X115071171Y-90753264D01*
X115082147Y-90752304D01*
X115082150Y-90752304D01*
X115108721Y-90749979D01*
X115119702Y-90749500D01*
X117836290Y-90749500D01*
X117847272Y-90749980D01*
X117873820Y-90752303D01*
X117873822Y-90752303D01*
X117884807Y-90753264D01*
X117921215Y-90743508D01*
X117931942Y-90741130D01*
X117935301Y-90740538D01*
X117969045Y-90734588D01*
X117978590Y-90729077D01*
X117981866Y-90727885D01*
X117985034Y-90726408D01*
X117995684Y-90723554D01*
X118026544Y-90701945D01*
X118035815Y-90696039D01*
X118058906Y-90682707D01*
X118068455Y-90677194D01*
X118092685Y-90648317D01*
X118100111Y-90640215D01*
X118572617Y-90167709D01*
X118634929Y-90133683D01*
X118678157Y-90131882D01*
X118745000Y-90140682D01*
X118753188Y-90139604D01*
X118893574Y-90121122D01*
X118901762Y-90120044D01*
X119047841Y-90059536D01*
X119173282Y-89963282D01*
X119269536Y-89837841D01*
X119330044Y-89691762D01*
X119350682Y-89535000D01*
X119330044Y-89378238D01*
X119269536Y-89232159D01*
X119173282Y-89106718D01*
X119047841Y-89010464D01*
X118901762Y-88949956D01*
X118745000Y-88929318D01*
X118588238Y-88949956D01*
X118442159Y-89010464D01*
X118316718Y-89106718D01*
X118220464Y-89232159D01*
X118159956Y-89378238D01*
X118139318Y-89535000D01*
X118145346Y-89580784D01*
X118148118Y-89601842D01*
X118137179Y-89671990D01*
X118112291Y-89707383D01*
X117758079Y-90061595D01*
X117695767Y-90095621D01*
X117668984Y-90098500D01*
X115286994Y-90098500D01*
X115218873Y-90078498D01*
X115197899Y-90061595D01*
X115194398Y-90058094D01*
X115160372Y-89995782D01*
X115165437Y-89924967D01*
X115207984Y-89868131D01*
X115274504Y-89843320D01*
X115283493Y-89842999D01*
X115304669Y-89842999D01*
X115311490Y-89842629D01*
X115362352Y-89837105D01*
X115377604Y-89833479D01*
X115498054Y-89788324D01*
X115513648Y-89779787D01*
X115608458Y-89708731D01*
X115674964Y-89683884D01*
X115721280Y-89689193D01*
X115808691Y-89716250D01*
X115822795Y-89716456D01*
X115826000Y-89709701D01*
X115826000Y-89702924D01*
X116334000Y-89702924D01*
X116337973Y-89716455D01*
X116345768Y-89717575D01*
X116453521Y-89685862D01*
X116464889Y-89681269D01*
X116629154Y-89595393D01*
X116639415Y-89588679D01*
X116783873Y-89472532D01*
X116792632Y-89463954D01*
X116911778Y-89321961D01*
X116918708Y-89311841D01*
X117008002Y-89149415D01*
X117012834Y-89138142D01*
X117068880Y-88961462D01*
X117071430Y-88949468D01*
X117087607Y-88805239D01*
X117088000Y-88798215D01*
X117088000Y-88467115D01*
X117083525Y-88451876D01*
X117082135Y-88450671D01*
X117074452Y-88449000D01*
X116352115Y-88449000D01*
X116336876Y-88453475D01*
X116335671Y-88454865D01*
X116334000Y-88462548D01*
X116334000Y-89702924D01*
X115826000Y-89702924D01*
X115826000Y-88467115D01*
X115821525Y-88451876D01*
X115820135Y-88450671D01*
X115812452Y-88449000D01*
X115158000Y-88449000D01*
X115089879Y-88428998D01*
X115043386Y-88375342D01*
X115032000Y-88323000D01*
X115032000Y-88184568D01*
X115052002Y-88116447D01*
X115060706Y-88105647D01*
X115060451Y-88105451D01*
X115148813Y-87990296D01*
X115206151Y-87948429D01*
X115248775Y-87941000D01*
X115807885Y-87941000D01*
X115823124Y-87936525D01*
X115824329Y-87935135D01*
X115826000Y-87927452D01*
X115826000Y-87922885D01*
X116334000Y-87922885D01*
X116338475Y-87938124D01*
X116339865Y-87939329D01*
X116347548Y-87941000D01*
X117069885Y-87941000D01*
X117085124Y-87936525D01*
X117086329Y-87935135D01*
X117088000Y-87927452D01*
X117088000Y-87598343D01*
X117087699Y-87592195D01*
X117074188Y-87454397D01*
X117071805Y-87442362D01*
X117018233Y-87264924D01*
X117013559Y-87253584D01*
X116926540Y-87089923D01*
X116919751Y-87079706D01*
X116802603Y-86936067D01*
X116793959Y-86927363D01*
X116651144Y-86809216D01*
X116640973Y-86802356D01*
X116477924Y-86714196D01*
X116466619Y-86709444D01*
X116351308Y-86673750D01*
X116337205Y-86673544D01*
X116334000Y-86680299D01*
X116334000Y-87922885D01*
X115826000Y-87922885D01*
X115826000Y-86687076D01*
X115822027Y-86673545D01*
X115814232Y-86672425D01*
X115706479Y-86704138D01*
X115695111Y-86708731D01*
X115530846Y-86794607D01*
X115520585Y-86801321D01*
X115376127Y-86917468D01*
X115367368Y-86926046D01*
X115248222Y-87068039D01*
X115241292Y-87078159D01*
X115178534Y-87192316D01*
X115128189Y-87242375D01*
X115058772Y-87257268D01*
X114991419Y-87231578D01*
X114940233Y-87192302D01*
X114800236Y-87134313D01*
X114687720Y-87119500D01*
X114612280Y-87119500D01*
X114499764Y-87134313D01*
X114359767Y-87192302D01*
X114239549Y-87284549D01*
X114147302Y-87404767D01*
X114144142Y-87412397D01*
X114126770Y-87454336D01*
X114082222Y-87509617D01*
X114014859Y-87532038D01*
X113946067Y-87514480D01*
X113921266Y-87495213D01*
X113136328Y-86710275D01*
X113128901Y-86702171D01*
X113111758Y-86681741D01*
X113111759Y-86681741D01*
X113104672Y-86673296D01*
X113095123Y-86667783D01*
X113072032Y-86654451D01*
X113062761Y-86648545D01*
X113040932Y-86633260D01*
X113031901Y-86626936D01*
X113021251Y-86624082D01*
X113018083Y-86622605D01*
X113014807Y-86621413D01*
X113005262Y-86615902D01*
X112971518Y-86609952D01*
X112968159Y-86609360D01*
X112957432Y-86606982D01*
X112921024Y-86597226D01*
X112910039Y-86598187D01*
X112910037Y-86598187D01*
X112883489Y-86600510D01*
X112872507Y-86600990D01*
X110647493Y-86600990D01*
X110636511Y-86600510D01*
X110609963Y-86598187D01*
X110609961Y-86598187D01*
X110598976Y-86597226D01*
X110562568Y-86606982D01*
X110551841Y-86609360D01*
X110548482Y-86609952D01*
X110514738Y-86615902D01*
X110505193Y-86621413D01*
X110501917Y-86622605D01*
X110498749Y-86624082D01*
X110488099Y-86626936D01*
X110479068Y-86633260D01*
X110457239Y-86648545D01*
X110447968Y-86654451D01*
X110424877Y-86667783D01*
X110415328Y-86673296D01*
X110408242Y-86681741D01*
X110391098Y-86702172D01*
X110383672Y-86710275D01*
X109598734Y-87495213D01*
X109536422Y-87529239D01*
X109465607Y-87524174D01*
X109408771Y-87481627D01*
X109393230Y-87454336D01*
X109375858Y-87412397D01*
X109372698Y-87404767D01*
X109280451Y-87284549D01*
X109160233Y-87192302D01*
X109020236Y-87134313D01*
X108907720Y-87119500D01*
X108832280Y-87119500D01*
X108719764Y-87134313D01*
X108579767Y-87192302D01*
X108573217Y-87197328D01*
X108573214Y-87197330D01*
X108528251Y-87231832D01*
X108462031Y-87257433D01*
X108392482Y-87243169D01*
X108340295Y-87191023D01*
X108286540Y-87089923D01*
X108279751Y-87079706D01*
X108162603Y-86936067D01*
X108153959Y-86927363D01*
X108011144Y-86809216D01*
X108000973Y-86802356D01*
X107837924Y-86714196D01*
X107826619Y-86709444D01*
X107711308Y-86673750D01*
X107697205Y-86673544D01*
X107694000Y-86680299D01*
X107694000Y-87922885D01*
X107698475Y-87938124D01*
X107699865Y-87939329D01*
X107707548Y-87941000D01*
X108271225Y-87941000D01*
X108339346Y-87961002D01*
X108371187Y-87990296D01*
X108459549Y-88105451D01*
X108457431Y-88107076D01*
X108485121Y-88157785D01*
X108488000Y-88184568D01*
X108488000Y-88323000D01*
X108467998Y-88391121D01*
X108414342Y-88437614D01*
X108362000Y-88449000D01*
X107712115Y-88449000D01*
X107696876Y-88453475D01*
X107695671Y-88454865D01*
X107694000Y-88462548D01*
X107694000Y-89702924D01*
X107186000Y-89702924D01*
X107186000Y-88467115D01*
X107181525Y-88451876D01*
X107180135Y-88450671D01*
X107172452Y-88449000D01*
X106450115Y-88449000D01*
X106434876Y-88453475D01*
X106433671Y-88454865D01*
X106432000Y-88462548D01*
X106432000Y-88791657D01*
X104340500Y-88791657D01*
X104340500Y-87922885D01*
X106432000Y-87922885D01*
X106436475Y-87938124D01*
X106437865Y-87939329D01*
X106445548Y-87941000D01*
X107167885Y-87941000D01*
X107183124Y-87936525D01*
X107184329Y-87935135D01*
X107186000Y-87927452D01*
X107186000Y-86687076D01*
X107182027Y-86673545D01*
X107174232Y-86672425D01*
X107066479Y-86704138D01*
X107055111Y-86708731D01*
X106890846Y-86794607D01*
X106880585Y-86801321D01*
X106736127Y-86917468D01*
X106727368Y-86926046D01*
X106608222Y-87068039D01*
X106601292Y-87078159D01*
X106511998Y-87240585D01*
X106507166Y-87251858D01*
X106451120Y-87428538D01*
X106448570Y-87440532D01*
X106432393Y-87584761D01*
X106432000Y-87591785D01*
X106432000Y-87922885D01*
X104340500Y-87922885D01*
X104340500Y-84361657D01*
X106432000Y-84361657D01*
X106432301Y-84367805D01*
X106445812Y-84505603D01*
X106448195Y-84517638D01*
X106501767Y-84695076D01*
X106506441Y-84706416D01*
X106593460Y-84870077D01*
X106600249Y-84880294D01*
X106717397Y-85023933D01*
X106726041Y-85032637D01*
X106868856Y-85150784D01*
X106879027Y-85157644D01*
X107042076Y-85245804D01*
X107053381Y-85250556D01*
X107168692Y-85286250D01*
X107182795Y-85286456D01*
X107186000Y-85279701D01*
X107186000Y-85272924D01*
X107694000Y-85272924D01*
X107697973Y-85286455D01*
X107705768Y-85287575D01*
X107813521Y-85255862D01*
X107824889Y-85251269D01*
X107989154Y-85165393D01*
X107999415Y-85158679D01*
X108143873Y-85042532D01*
X108152632Y-85033954D01*
X108271778Y-84891961D01*
X108278708Y-84881841D01*
X108368002Y-84719415D01*
X108372834Y-84708142D01*
X108428880Y-84531462D01*
X108431430Y-84519468D01*
X108447607Y-84375239D01*
X108448000Y-84368215D01*
X108448000Y-84361657D01*
X115072000Y-84361657D01*
X115072301Y-84367805D01*
X115085812Y-84505603D01*
X115088195Y-84517638D01*
X115141767Y-84695076D01*
X115146441Y-84706416D01*
X115233460Y-84870077D01*
X115240249Y-84880294D01*
X115357397Y-85023933D01*
X115366041Y-85032637D01*
X115508856Y-85150784D01*
X115519027Y-85157644D01*
X115682076Y-85245804D01*
X115693381Y-85250556D01*
X115808692Y-85286250D01*
X115822795Y-85286456D01*
X115826000Y-85279701D01*
X115826000Y-85272924D01*
X116334000Y-85272924D01*
X116337973Y-85286455D01*
X116345768Y-85287575D01*
X116453521Y-85255862D01*
X116464889Y-85251269D01*
X116629154Y-85165393D01*
X116639415Y-85158679D01*
X116783873Y-85042532D01*
X116792632Y-85033954D01*
X116911778Y-84891961D01*
X116918708Y-84881841D01*
X117008002Y-84719415D01*
X117012834Y-84708142D01*
X117018669Y-84689748D01*
X137379500Y-84689748D01*
X137380707Y-84695816D01*
X137384331Y-84714033D01*
X137391133Y-84748231D01*
X137435448Y-84814552D01*
X137501769Y-84858867D01*
X137513938Y-84861288D01*
X137513939Y-84861288D01*
X137554184Y-84869293D01*
X137560252Y-84870500D01*
X139299748Y-84870500D01*
X139305816Y-84869293D01*
X139346061Y-84861288D01*
X139346062Y-84861288D01*
X139358231Y-84858867D01*
X139424552Y-84814552D01*
X139468867Y-84748231D01*
X139475670Y-84714033D01*
X139479293Y-84695816D01*
X139480500Y-84689748D01*
X139480500Y-84406752D01*
X139500502Y-84338631D01*
X139554158Y-84292138D01*
X139624432Y-84282034D01*
X139689012Y-84311528D01*
X139723243Y-84359348D01*
X139751770Y-84429603D01*
X139756413Y-84438794D01*
X139867694Y-84620388D01*
X139873777Y-84628699D01*
X140013213Y-84789667D01*
X140020580Y-84796883D01*
X140184434Y-84932916D01*
X140192881Y-84938831D01*
X140376756Y-85046279D01*
X140386042Y-85050729D01*
X140585001Y-85126703D01*
X140594899Y-85129579D01*
X140698250Y-85150606D01*
X140712299Y-85149410D01*
X140716000Y-85139065D01*
X140716000Y-85138517D01*
X141224000Y-85138517D01*
X141228064Y-85152359D01*
X141241478Y-85154393D01*
X141248184Y-85153534D01*
X141258262Y-85151392D01*
X141462255Y-85090191D01*
X141471842Y-85086433D01*
X141663095Y-84992739D01*
X141671945Y-84987464D01*
X141845328Y-84863792D01*
X141853200Y-84857139D01*
X142004052Y-84706812D01*
X142010730Y-84698965D01*
X142135003Y-84526020D01*
X142140313Y-84517183D01*
X142234670Y-84326267D01*
X142238469Y-84316672D01*
X142279593Y-84181319D01*
X142318534Y-84121955D01*
X142383388Y-84093068D01*
X142453564Y-84103830D01*
X142506782Y-84150823D01*
X142521270Y-84183217D01*
X142528544Y-84208586D01*
X142531359Y-84214063D01*
X142531360Y-84214066D01*
X142619897Y-84386341D01*
X142622712Y-84391818D01*
X142750677Y-84553270D01*
X142755370Y-84557264D01*
X142755371Y-84557265D01*
X142829541Y-84620388D01*
X142907564Y-84686791D01*
X142912942Y-84689797D01*
X142912944Y-84689798D01*
X142943387Y-84706812D01*
X143087398Y-84787297D01*
X143171280Y-84814552D01*
X143277471Y-84849056D01*
X143277475Y-84849057D01*
X143283329Y-84850959D01*
X143487894Y-84875351D01*
X143494029Y-84874879D01*
X143494031Y-84874879D01*
X143566625Y-84869293D01*
X143693300Y-84859546D01*
X143699230Y-84857890D01*
X143699232Y-84857890D01*
X143885797Y-84805800D01*
X143885796Y-84805800D01*
X143891725Y-84804145D01*
X143897214Y-84801372D01*
X143897220Y-84801370D01*
X144070116Y-84714033D01*
X144075610Y-84711258D01*
X144091345Y-84698965D01*
X144233101Y-84588213D01*
X144237951Y-84584424D01*
X144295992Y-84517183D01*
X144368540Y-84433134D01*
X144368540Y-84433133D01*
X144372564Y-84428472D01*
X144393387Y-84391818D01*
X144423601Y-84338631D01*
X144474323Y-84249344D01*
X144539351Y-84053863D01*
X144565171Y-83849474D01*
X144565583Y-83820000D01*
X144545480Y-83614970D01*
X144485935Y-83417749D01*
X144389218Y-83235849D01*
X144309446Y-83138039D01*
X144262906Y-83080975D01*
X144262903Y-83080972D01*
X144259011Y-83076200D01*
X144162122Y-82996046D01*
X144105025Y-82948811D01*
X144105021Y-82948809D01*
X144100275Y-82944882D01*
X143919055Y-82846897D01*
X143722254Y-82785977D01*
X143716129Y-82785333D01*
X143716128Y-82785333D01*
X143523498Y-82765087D01*
X143523496Y-82765087D01*
X143517369Y-82764443D01*
X143430529Y-82772346D01*
X143318342Y-82782555D01*
X143318339Y-82782556D01*
X143312203Y-82783114D01*
X143114572Y-82841280D01*
X143109107Y-82844137D01*
X143042008Y-82879216D01*
X142932002Y-82936726D01*
X142927201Y-82940586D01*
X142927198Y-82940588D01*
X142776254Y-83061950D01*
X142771447Y-83065815D01*
X142639024Y-83223630D01*
X142636056Y-83229028D01*
X142636053Y-83229033D01*
X142555190Y-83376124D01*
X142539776Y-83404162D01*
X142537914Y-83410032D01*
X142521068Y-83463138D01*
X142481405Y-83522022D01*
X142416202Y-83550114D01*
X142346163Y-83538497D01*
X142293523Y-83490857D01*
X142278762Y-83455735D01*
X142261214Y-83385875D01*
X142257894Y-83376124D01*
X142172972Y-83180814D01*
X142168105Y-83171739D01*
X142052426Y-82992926D01*
X142046136Y-82984757D01*
X141902806Y-82827240D01*
X141895273Y-82820215D01*
X141728139Y-82688222D01*
X141719552Y-82682517D01*
X141533117Y-82579599D01*
X141523705Y-82575369D01*
X141322959Y-82504280D01*
X141312988Y-82501646D01*
X141241837Y-82488972D01*
X141228540Y-82490432D01*
X141224000Y-82504989D01*
X141224000Y-85138517D01*
X140716000Y-85138517D01*
X140716000Y-82503102D01*
X140712082Y-82489758D01*
X140697806Y-82487771D01*
X140659324Y-82493660D01*
X140649288Y-82496051D01*
X140446868Y-82562212D01*
X140437359Y-82566209D01*
X140248463Y-82664542D01*
X140239738Y-82670036D01*
X140069433Y-82797905D01*
X140061726Y-82804748D01*
X139914590Y-82958717D01*
X139908104Y-82966727D01*
X139788098Y-83142649D01*
X139783000Y-83151623D01*
X139720788Y-83285647D01*
X139673964Y-83339014D01*
X139605720Y-83358595D01*
X139537725Y-83338171D01*
X139491565Y-83284229D01*
X139480500Y-83232597D01*
X139480500Y-82950252D01*
X139468867Y-82891769D01*
X139424552Y-82825448D01*
X139358231Y-82781133D01*
X139346062Y-82778712D01*
X139346061Y-82778712D01*
X139305816Y-82770707D01*
X139299748Y-82769500D01*
X137560252Y-82769500D01*
X137554184Y-82770707D01*
X137513939Y-82778712D01*
X137513938Y-82778712D01*
X137501769Y-82781133D01*
X137435448Y-82825448D01*
X137391133Y-82891769D01*
X137379500Y-82950252D01*
X137379500Y-84689748D01*
X117018669Y-84689748D01*
X117068880Y-84531462D01*
X117071430Y-84519468D01*
X117087607Y-84375239D01*
X117088000Y-84368215D01*
X117088000Y-84287115D01*
X117083525Y-84271876D01*
X117082135Y-84270671D01*
X117074452Y-84269000D01*
X116352115Y-84269000D01*
X116336876Y-84273475D01*
X116335671Y-84274865D01*
X116334000Y-84282548D01*
X116334000Y-85272924D01*
X115826000Y-85272924D01*
X115826000Y-84287115D01*
X115821525Y-84271876D01*
X115820135Y-84270671D01*
X115812452Y-84269000D01*
X115090115Y-84269000D01*
X115074876Y-84273475D01*
X115073671Y-84274865D01*
X115072000Y-84282548D01*
X115072000Y-84361657D01*
X108448000Y-84361657D01*
X108448000Y-84287115D01*
X108443525Y-84271876D01*
X108442135Y-84270671D01*
X108434452Y-84269000D01*
X107712115Y-84269000D01*
X107696876Y-84273475D01*
X107695671Y-84274865D01*
X107694000Y-84282548D01*
X107694000Y-85272924D01*
X107186000Y-85272924D01*
X107186000Y-84287115D01*
X107181525Y-84271876D01*
X107180135Y-84270671D01*
X107172452Y-84269000D01*
X106450115Y-84269000D01*
X106434876Y-84273475D01*
X106433671Y-84274865D01*
X106432000Y-84282548D01*
X106432000Y-84361657D01*
X104340500Y-84361657D01*
X104340500Y-83742885D01*
X106432000Y-83742885D01*
X106436475Y-83758124D01*
X106437865Y-83759329D01*
X106445548Y-83761000D01*
X107167885Y-83761000D01*
X107183124Y-83756525D01*
X107184329Y-83755135D01*
X107186000Y-83747452D01*
X107186000Y-83742885D01*
X107694000Y-83742885D01*
X107698475Y-83758124D01*
X107699865Y-83759329D01*
X107707548Y-83761000D01*
X108429885Y-83761000D01*
X108445124Y-83756525D01*
X108446329Y-83755135D01*
X108448000Y-83747452D01*
X108448000Y-83742885D01*
X115072000Y-83742885D01*
X115076475Y-83758124D01*
X115077865Y-83759329D01*
X115085548Y-83761000D01*
X115807885Y-83761000D01*
X115823124Y-83756525D01*
X115824329Y-83755135D01*
X115826000Y-83747452D01*
X115826000Y-83742885D01*
X116334000Y-83742885D01*
X116338475Y-83758124D01*
X116339865Y-83759329D01*
X116347548Y-83761000D01*
X117069885Y-83761000D01*
X117085124Y-83756525D01*
X117086329Y-83755135D01*
X117088000Y-83747452D01*
X117088000Y-83668343D01*
X117087699Y-83662195D01*
X117074188Y-83524397D01*
X117071805Y-83512362D01*
X117018233Y-83334924D01*
X117013559Y-83323584D01*
X116926540Y-83159923D01*
X116919751Y-83149706D01*
X116802603Y-83006067D01*
X116793959Y-82997363D01*
X116651144Y-82879216D01*
X116640973Y-82872356D01*
X116477924Y-82784196D01*
X116466619Y-82779444D01*
X116351308Y-82743750D01*
X116337205Y-82743544D01*
X116334000Y-82750299D01*
X116334000Y-83742885D01*
X115826000Y-83742885D01*
X115826000Y-82757076D01*
X115822027Y-82743545D01*
X115814232Y-82742425D01*
X115706479Y-82774138D01*
X115695111Y-82778731D01*
X115530846Y-82864607D01*
X115520585Y-82871321D01*
X115376127Y-82987468D01*
X115367368Y-82996046D01*
X115248222Y-83138039D01*
X115241292Y-83148159D01*
X115151998Y-83310585D01*
X115147166Y-83321858D01*
X115091120Y-83498538D01*
X115088570Y-83510532D01*
X115072393Y-83654761D01*
X115072000Y-83661785D01*
X115072000Y-83742885D01*
X108448000Y-83742885D01*
X108448000Y-83668343D01*
X108447699Y-83662195D01*
X108434188Y-83524397D01*
X108431805Y-83512362D01*
X108378233Y-83334924D01*
X108373559Y-83323584D01*
X108286540Y-83159923D01*
X108279751Y-83149706D01*
X108162603Y-83006067D01*
X108153959Y-82997363D01*
X108011144Y-82879216D01*
X108000973Y-82872356D01*
X107837924Y-82784196D01*
X107826619Y-82779444D01*
X107711308Y-82743750D01*
X107697205Y-82743544D01*
X107694000Y-82750299D01*
X107694000Y-83742885D01*
X107186000Y-83742885D01*
X107186000Y-82757076D01*
X107182027Y-82743545D01*
X107174232Y-82742425D01*
X107066479Y-82774138D01*
X107055111Y-82778731D01*
X106890846Y-82864607D01*
X106880585Y-82871321D01*
X106736127Y-82987468D01*
X106727368Y-82996046D01*
X106608222Y-83138039D01*
X106601292Y-83148159D01*
X106511998Y-83310585D01*
X106507166Y-83321858D01*
X106451120Y-83498538D01*
X106448570Y-83510532D01*
X106432393Y-83654761D01*
X106432000Y-83661785D01*
X106432000Y-83742885D01*
X104340500Y-83742885D01*
X104340500Y-81606500D01*
X104360502Y-81538379D01*
X104414158Y-81491886D01*
X104466500Y-81480500D01*
X164773500Y-81480500D01*
X164841621Y-81500502D01*
G37*
%TD.AperFunction*%
%TA.AperFunction,Conductor*%
G36*
X115450121Y-88630002D02*
G01*
X115496614Y-88683658D01*
X115508000Y-88736000D01*
X115508000Y-88784000D01*
X115487998Y-88852121D01*
X115434342Y-88898614D01*
X115382000Y-88910000D01*
X114787851Y-88910000D01*
X114719730Y-88889998D01*
X114673237Y-88836342D01*
X114664525Y-88803306D01*
X114664753Y-88800704D01*
X114661900Y-88790056D01*
X114660980Y-88779545D01*
X114660500Y-88768561D01*
X114660500Y-88736000D01*
X114680502Y-88667879D01*
X114734158Y-88621386D01*
X114786500Y-88610000D01*
X115382000Y-88610000D01*
X115450121Y-88630002D01*
G37*
%TD.AperFunction*%
%TD*%
M02*
