M48
; DRILL file {KiCad 6.0.5-a6ca702e91~116~ubuntu22.04.1} date Sun 05 Jun 2022 12:33:19 BST
; FORMAT={-:-/ absolute / metric / decimal}
; #@! TF.CreationDate,2022-06-05T12:33:19+01:00
; #@! TF.GenerationSoftware,Kicad,Pcbnew,6.0.5-a6ca702e91~116~ubuntu22.04.1
; #@! TF.FileFunction,Plated,1,2,PTH
FMAT,2
METRIC
; #@! TA.AperFunction,Plated,PTH,ViaDrill
T1C0.400
; #@! TA.AperFunction,Plated,PTH,ComponentDrill
T2C0.600
; #@! TA.AperFunction,Plated,PTH,ComponentDrill
T3C1.000
; #@! TA.AperFunction,Plated,PTH,ComponentDrill
T4C1.016
%
G90
G05
T1
X114.3Y-116.205
X115.57Y-114.3
X116.205Y-113.03
X116.84Y-111.76
X117.475Y-110.685
X118.11Y-109.22
X118.745Y-89.535
X118.745Y-107.95
X118.745Y-117.475
X119.38Y-106.68
X120.015Y-105.41
X120.65Y-104.14
X121.285Y-102.87
X132.593Y-122.513
X132.715Y-125.005
X133.35Y-123.825
X135.255Y-125.73
X135.89Y-127.0
X136.525Y-128.27
X137.16Y-129.54
X137.795Y-130.81
X138.43Y-132.08
X139.065Y-133.35
X139.7Y-134.62
X140.335Y-135.89
X154.87Y-110.56
T3
X138.43Y-83.82
X140.97Y-83.82
X143.51Y-83.82
T4
X125.73Y-92.71
X125.73Y-95.25
X125.73Y-97.79
X125.73Y-100.33
X125.73Y-102.87
X125.73Y-105.41
X125.73Y-107.95
X125.73Y-110.49
X128.27Y-92.71
X128.27Y-95.25
X128.27Y-97.79
X128.27Y-100.33
X128.27Y-102.87
X128.27Y-105.41
X128.27Y-107.95
X128.27Y-110.49
X130.81Y-92.71
X130.81Y-95.25
X130.81Y-107.95
X130.81Y-110.49
X133.35Y-92.71
X133.35Y-95.25
X133.35Y-107.95
X133.35Y-110.49
X135.89Y-92.71
X135.89Y-95.25
X135.89Y-107.95
X135.89Y-110.49
X138.43Y-92.71
X138.43Y-95.25
X138.43Y-107.95
X138.43Y-110.49
X140.97Y-92.71
X140.97Y-95.25
X140.97Y-97.79
X140.97Y-100.33
X140.97Y-102.87
X140.97Y-105.41
X140.97Y-107.95
X140.97Y-110.49
X143.51Y-92.71
X143.51Y-95.25
X143.51Y-97.79
X143.51Y-100.33
X143.51Y-102.87
X143.51Y-105.41
X143.51Y-107.95
X143.51Y-110.49
T2
G00X107.44Y-84.315
M15
G01X107.44Y-83.715
M16
G05
G00X107.44Y-88.745
M15
G01X107.44Y-87.645
M16
G05
G00X116.08Y-84.315
M15
G01X116.08Y-83.715
M16
G05
G00X116.08Y-88.745
M15
G01X116.08Y-87.645
M16
G05
T0
M30
