%TF.GenerationSoftware,KiCad,Pcbnew,6.0.5-a6ca702e91~116~ubuntu22.04.1*%
%TF.CreationDate,2022-06-05T12:33:17+01:00*%
%TF.ProjectId,gba-cart-pga,6762612d-6361-4727-942d-7067612e6b69,rev?*%
%TF.SameCoordinates,Original*%
%TF.FileFunction,Copper,L2,Bot*%
%TF.FilePolarity,Positive*%
%FSLAX46Y46*%
G04 Gerber Fmt 4.6, Leading zero omitted, Abs format (unit mm)*
G04 Created by KiCad (PCBNEW 6.0.5-a6ca702e91~116~ubuntu22.04.1) date 2022-06-05 12:33:17*
%MOMM*%
%LPD*%
G01*
G04 APERTURE LIST*
%TA.AperFunction,ComponentPad*%
%ADD10R,1.700000X1.700000*%
%TD*%
%TA.AperFunction,ComponentPad*%
%ADD11O,1.700000X1.700000*%
%TD*%
%TA.AperFunction,ComponentPad*%
%ADD12O,1.000000X2.100000*%
%TD*%
%TA.AperFunction,ComponentPad*%
%ADD13O,1.000000X1.600000*%
%TD*%
%TA.AperFunction,ComponentPad*%
%ADD14C,1.778000*%
%TD*%
%TA.AperFunction,ViaPad*%
%ADD15C,0.800000*%
%TD*%
%TA.AperFunction,Conductor*%
%ADD16C,0.250000*%
%TD*%
G04 APERTURE END LIST*
D10*
%TO.P,J2,1,Pin_1*%
%TO.N,Net-(J2-Pad1)*%
X138430000Y-83820000D03*
D11*
%TO.P,J2,2,Pin_2*%
%TO.N,GND*%
X140970000Y-83820000D03*
%TO.P,J2,3,Pin_3*%
%TO.N,Net-(J2-Pad3)*%
X143510000Y-83820000D03*
%TD*%
D12*
%TO.P,J1,S1,SHIELD*%
%TO.N,GND*%
X116080000Y-88195000D03*
D13*
X107440000Y-84015000D03*
D12*
X107440000Y-88195000D03*
D13*
X116080000Y-84015000D03*
%TD*%
D14*
%TO.P,U1,A1,GND*%
%TO.N,GND*%
X125730000Y-92710000D03*
%TO.P,U1,A2,VBUS*%
%TO.N,VBUS*%
X128270000Y-92710000D03*
%TO.P,U1,A3,3v3_EN*%
%TO.N,unconnected-(U1-PadA3)*%
X130810000Y-92710000D03*
%TO.P,U1,A4,RUN*%
%TO.N,unconnected-(U1-PadA4)*%
X133350000Y-92710000D03*
%TO.P,U1,A5,USB_DP*%
%TO.N,Net-(J1-PadA6)*%
X135890000Y-92710000D03*
%TO.P,U1,A6,USB_DM*%
%TO.N,Net-(J1-PadA7)*%
X138430000Y-92710000D03*
%TO.P,U1,A7,BOOTSEL*%
%TO.N,unconnected-(U1-PadA7)*%
X140970000Y-92710000D03*
%TO.P,U1,A8,GND*%
%TO.N,GND*%
X143510000Y-92710000D03*
%TO.P,U1,B1,GPIO0*%
%TO.N,/AD0*%
X125730000Y-95250000D03*
%TO.P,U1,B2,GND*%
%TO.N,unconnected-(U1-PadB2)*%
X128270000Y-95250000D03*
%TO.P,U1,B3,3V3*%
%TO.N,+3V3*%
X130810000Y-95250000D03*
%TO.P,U1,B4,ADC_REF*%
%TO.N,unconnected-(U1-PadB4)*%
X133350000Y-95250000D03*
%TO.P,U1,B5,SWCLK*%
%TO.N,Net-(J2-Pad1)*%
X135890000Y-95250000D03*
%TO.P,U1,B6,SWDIO*%
%TO.N,Net-(J2-Pad3)*%
X138430000Y-95250000D03*
%TO.P,U1,B7,GND*%
%TO.N,GND*%
X140970000Y-95250000D03*
%TO.P,U1,B8,GPIO29*%
%TO.N,unconnected-(U1-PadB8)*%
X143510000Y-95250000D03*
%TO.P,U1,C1,GPIO1*%
%TO.N,/AD1*%
X125730000Y-97790000D03*
%TO.P,U1,C2,GPIO2*%
%TO.N,/AD2*%
X128270000Y-97790000D03*
%TO.P,U1,C7,GPIO28*%
%TO.N,unconnected-(U1-PadC7)*%
X140970000Y-97790000D03*
%TO.P,U1,C8,GPIO27*%
%TO.N,/CS2*%
X143510000Y-97790000D03*
%TO.P,U1,D1,GPIO3*%
%TO.N,/AD3*%
X125730000Y-100330000D03*
%TO.P,U1,D2,GPIO4*%
%TO.N,/AD4*%
X128270000Y-100330000D03*
%TO.P,U1,D7,GPIO26*%
%TO.N,/CS1*%
X140970000Y-100330000D03*
%TO.P,U1,D8,GPIO25*%
%TO.N,/RD*%
X143510000Y-100330000D03*
%TO.P,U1,E1,GPIO5*%
%TO.N,/AD5*%
X125730000Y-102870000D03*
%TO.P,U1,E2,GPIO6*%
%TO.N,/AD6*%
X128270000Y-102870000D03*
%TO.P,U1,E7,GPIO24*%
%TO.N,/WR*%
X140970000Y-102870000D03*
%TO.P,U1,E8,GPIO23*%
%TO.N,/A23*%
X143510000Y-102870000D03*
%TO.P,U1,F1,GPIO7*%
%TO.N,/AD7*%
X125730000Y-105410000D03*
%TO.P,U1,F2,GPIO8*%
%TO.N,/AD8*%
X128270000Y-105410000D03*
%TO.P,U1,F7,GPIO22*%
%TO.N,/A22*%
X140970000Y-105410000D03*
%TO.P,U1,F8,GPIO21*%
%TO.N,/A21*%
X143510000Y-105410000D03*
%TO.P,U1,G1,GPIO9*%
%TO.N,/AD9*%
X125730000Y-107950000D03*
%TO.P,U1,G2,GND*%
%TO.N,GND*%
X128270000Y-107950000D03*
%TO.P,U1,G3,GPIO12*%
%TO.N,/AD12*%
X130810000Y-107950000D03*
%TO.P,U1,G4,GPIO14*%
%TO.N,/AD14*%
X133350000Y-107950000D03*
%TO.P,U1,G5,GPIO16*%
%TO.N,/A16*%
X135890000Y-107950000D03*
%TO.P,U1,G6,GPIO18*%
%TO.N,/A18*%
X138430000Y-107950000D03*
%TO.P,U1,G7,GND*%
%TO.N,GND*%
X140970000Y-107950000D03*
%TO.P,U1,G8,GPIO20*%
%TO.N,/A20*%
X143510000Y-107950000D03*
%TO.P,U1,H1,GND*%
%TO.N,GND*%
X125730000Y-110490000D03*
%TO.P,U1,H2,GPIO10*%
%TO.N,/AD10*%
X128270000Y-110490000D03*
%TO.P,U1,H3,GPIO11*%
%TO.N,/AD11*%
X130810000Y-110490000D03*
%TO.P,U1,H4,GPIO13*%
%TO.N,/AD13*%
X133350000Y-110490000D03*
%TO.P,U1,H5,GPIO15*%
%TO.N,/AD15*%
X135890000Y-110490000D03*
%TO.P,U1,H6,GPIO17*%
%TO.N,/A17*%
X138430000Y-110490000D03*
%TO.P,U1,H7,GPIO19*%
%TO.N,/A19*%
X140970000Y-110490000D03*
%TO.P,U1,H8,GND*%
%TO.N,GND*%
X143510000Y-110490000D03*
%TD*%
D15*
%TO.N,/WR*%
X154870000Y-110560000D03*
%TO.N,/AD1*%
X121285000Y-102870000D03*
%TO.N,/AD2*%
X120650000Y-104140000D03*
%TO.N,/AD3*%
X120015000Y-105409998D03*
%TO.N,/AD4*%
X119380000Y-106680000D03*
%TO.N,/AD5*%
X118745000Y-107950000D03*
%TO.N,/AD6*%
X118110000Y-109220000D03*
%TO.N,/AD7*%
X117475000Y-110685151D03*
%TO.N,/AD8*%
X116840000Y-111760000D03*
%TO.N,/AD9*%
X116205000Y-113030000D03*
%TO.N,/AD10*%
X115570000Y-114300000D03*
%TO.N,/AD11*%
X132715000Y-125005500D03*
%TO.N,/AD12*%
X132593003Y-122513213D03*
%TO.N,/AD13*%
X133350000Y-123825000D03*
%TO.N,/AD14*%
X135255000Y-125730000D03*
%TO.N,/AD15*%
X135890000Y-127000000D03*
%TO.N,/A16*%
X136525000Y-128270000D03*
%TO.N,/A17*%
X137160000Y-129540000D03*
%TO.N,/A18*%
X137795000Y-130810000D03*
%TO.N,/A19*%
X138430000Y-132080000D03*
%TO.N,/A20*%
X139065000Y-133350000D03*
%TO.N,/A21*%
X139700000Y-134620000D03*
%TO.N,/A22*%
X118745000Y-117475000D03*
%TO.N,/A23*%
X140335000Y-135890000D03*
%TO.N,/CS2*%
X114300000Y-116205000D03*
%TO.N,VBUS*%
X118745000Y-89535000D03*
%TD*%
D16*
%TO.N,/WR*%
X145966489Y-101656489D02*
X154870000Y-110560000D01*
X140970000Y-102870000D02*
X142183511Y-101656489D01*
X142183511Y-101656489D02*
X145966489Y-101656489D01*
%TO.N,/AD1*%
X121285000Y-102235000D02*
X121285000Y-102870000D01*
X125730000Y-97790000D02*
X121285000Y-102235000D01*
%TO.N,/AD2*%
X124516489Y-99827346D02*
X125340324Y-99003511D01*
X127056489Y-99003511D02*
X128270000Y-97790000D01*
X124516489Y-100663111D02*
X124516489Y-99827346D01*
X120650000Y-104140000D02*
X121039600Y-104140000D01*
X125340324Y-99003511D02*
X127056489Y-99003511D01*
X121039600Y-104140000D02*
X124516489Y-100663111D01*
%TO.N,/AD3*%
X125730000Y-100330000D02*
X125485304Y-100330000D01*
X125485304Y-100330000D02*
X120405306Y-105409998D01*
X120405306Y-105409998D02*
X120015000Y-105409998D01*
%TO.N,/AD4*%
X119771008Y-106680000D02*
X124907497Y-101543511D01*
X119380000Y-106680000D02*
X119771008Y-106680000D01*
X127056489Y-101543511D02*
X128270000Y-100330000D01*
X124907497Y-101543511D02*
X127056489Y-101543511D01*
%TO.N,/AD5*%
X125730000Y-102870000D02*
X120650000Y-107950000D01*
X120650000Y-107950000D02*
X118745000Y-107950000D01*
%TO.N,/AD6*%
X128270000Y-102870000D02*
X127056489Y-104083511D01*
X125340324Y-104083511D02*
X120203835Y-109220000D01*
X127056489Y-104083511D02*
X125340324Y-104083511D01*
X120203835Y-109220000D02*
X118110000Y-109220000D01*
%TO.N,/AD7*%
X120454849Y-110685151D02*
X117475000Y-110685151D01*
X125730000Y-105410000D02*
X120454849Y-110685151D01*
%TO.N,/AD8*%
X127056489Y-106623511D02*
X128270000Y-105410000D01*
X120203835Y-111760000D02*
X125340324Y-106623511D01*
X125340324Y-106623511D02*
X127056489Y-106623511D01*
X116840000Y-111760000D02*
X120203835Y-111760000D01*
%TO.N,/AD9*%
X120650000Y-113030000D02*
X116205000Y-113030000D01*
X125730000Y-107950000D02*
X120650000Y-113030000D01*
%TO.N,/AD10*%
X115570000Y-114300000D02*
X124460000Y-114300000D01*
X124460000Y-114300000D02*
X128270000Y-110490000D01*
%TO.N,/AD11*%
X130810000Y-123100500D02*
X132715000Y-125005500D01*
X130810000Y-110490000D02*
X130810000Y-123100500D01*
%TO.N,/AD12*%
X132080000Y-109220000D02*
X132080000Y-122000210D01*
X130810000Y-107950000D02*
X132080000Y-109220000D01*
X132080000Y-122000210D02*
X132593003Y-122513213D01*
%TO.N,/AD13*%
X133350000Y-110490000D02*
X133350000Y-123825000D01*
%TO.N,/AD14*%
X135255000Y-125730000D02*
X135255000Y-121920000D01*
X135255000Y-121920000D02*
X134620000Y-121285000D01*
X134620000Y-109220000D02*
X134620000Y-121285000D01*
X133350000Y-107950000D02*
X134620000Y-109220000D01*
%TO.N,/AD15*%
X135890000Y-110490000D02*
X136243521Y-110843521D01*
X136243521Y-126646479D02*
X135890000Y-127000000D01*
X136243521Y-110843521D02*
X136243521Y-126646479D01*
%TO.N,/A16*%
X137103511Y-109163511D02*
X137103511Y-127691489D01*
X137103511Y-127691489D02*
X136525000Y-128270000D01*
X135890000Y-107950000D02*
X137103511Y-109163511D01*
%TO.N,/A17*%
X138430000Y-128270000D02*
X138430000Y-110490000D01*
X137160000Y-129540000D02*
X138430000Y-128270000D01*
%TO.N,/A18*%
X139643511Y-128961489D02*
X137795000Y-130810000D01*
X138430000Y-107950000D02*
X139643511Y-109163511D01*
X139643511Y-109163511D02*
X139643511Y-128961489D01*
%TO.N,/A19*%
X140970000Y-129540000D02*
X140970000Y-110490000D01*
X138430000Y-132080000D02*
X140970000Y-129540000D01*
%TO.N,/A20*%
X142296489Y-130118511D02*
X139065000Y-133350000D01*
X142296489Y-109163511D02*
X142296489Y-130118511D01*
X143510000Y-107950000D02*
X142296489Y-109163511D01*
%TO.N,/A21*%
X143510000Y-105410000D02*
X144723511Y-106623511D01*
X144723511Y-106623511D02*
X144723511Y-129596489D01*
X144723511Y-129596489D02*
X139700000Y-134620000D01*
%TO.N,/A22*%
X129483511Y-110992654D02*
X123001165Y-117475000D01*
X140970000Y-105410000D02*
X131633835Y-105410000D01*
X129483511Y-107560324D02*
X129483511Y-110992654D01*
X123001165Y-117475000D02*
X118745000Y-117475000D01*
X131633835Y-105410000D02*
X129483511Y-107560324D01*
%TO.N,/A23*%
X145173022Y-104533022D02*
X145173022Y-131051978D01*
X143510000Y-102870000D02*
X145173022Y-104533022D01*
X145173022Y-131051978D02*
X140335000Y-135890000D01*
%TO.N,/CS2*%
X125227346Y-96576489D02*
X114300000Y-107503835D01*
X143510000Y-97790000D02*
X142296489Y-96576489D01*
X114300000Y-107503835D02*
X114300000Y-116205000D01*
X142296489Y-96576489D02*
X125227346Y-96576489D01*
%TO.N,Net-(J2-Pad3)*%
X139756489Y-90113511D02*
X139756489Y-88843511D01*
X143510000Y-83820000D02*
X139756489Y-87573511D01*
X139756489Y-87573511D02*
X139756489Y-90113511D01*
X139756489Y-93923511D02*
X139756489Y-90113511D01*
X138430000Y-95250000D02*
X139756489Y-93923511D01*
%TO.N,Net-(J2-Pad1)*%
X137103511Y-94036489D02*
X137103511Y-86416489D01*
X138430000Y-83820000D02*
X138430000Y-85090000D01*
X135890000Y-95250000D02*
X137103511Y-94036489D01*
X138430000Y-85090000D02*
X137103511Y-86416489D01*
%TO.N,VBUS*%
X118745000Y-89535000D02*
X125095000Y-89535000D01*
X125095000Y-89535000D02*
X128270000Y-92710000D01*
%TD*%
%TA.AperFunction,Conductor*%
%TO.N,GND*%
G36*
X164841621Y-81500502D02*
G01*
X164888114Y-81554158D01*
X164899500Y-81606500D01*
X164899500Y-141913500D01*
X164879498Y-141981621D01*
X164825842Y-142028114D01*
X164773500Y-142039500D01*
X104466500Y-142039500D01*
X104398379Y-142019498D01*
X104351886Y-141965842D01*
X104340500Y-141913500D01*
X104340500Y-127739438D01*
X120365066Y-127739438D01*
X120391883Y-127961044D01*
X120457519Y-128174400D01*
X120559901Y-128372759D01*
X120563310Y-128377201D01*
X120563312Y-128377205D01*
X120649510Y-128489540D01*
X120695790Y-128549854D01*
X120860893Y-128700086D01*
X121049990Y-128818707D01*
X121257105Y-128901966D01*
X121262593Y-128903103D01*
X121262598Y-128903104D01*
X121420053Y-128935711D01*
X121475690Y-128947233D01*
X121480303Y-128947499D01*
X121530526Y-128950395D01*
X121530530Y-128950395D01*
X121532349Y-128950500D01*
X121676630Y-128950500D01*
X121679417Y-128950251D01*
X121679423Y-128950251D01*
X121759344Y-128943118D01*
X121842339Y-128935711D01*
X121847753Y-128934230D01*
X121847758Y-128934229D01*
X121985278Y-128896607D01*
X122057651Y-128876808D01*
X122062709Y-128874396D01*
X122062713Y-128874394D01*
X122179462Y-128818707D01*
X122259129Y-128780708D01*
X122440405Y-128650448D01*
X122576307Y-128510209D01*
X122591846Y-128494174D01*
X122591848Y-128494171D01*
X122595749Y-128490146D01*
X122720250Y-128304868D01*
X122809974Y-128100471D01*
X122811282Y-128095023D01*
X122811284Y-128095017D01*
X122860775Y-127888872D01*
X122860775Y-127888871D01*
X122862085Y-127883415D01*
X122873654Y-127682758D01*
X122874611Y-127666169D01*
X122874611Y-127666166D01*
X122874934Y-127660562D01*
X122848117Y-127438956D01*
X122782481Y-127225600D01*
X122680099Y-127027241D01*
X122676690Y-127022799D01*
X122676688Y-127022795D01*
X122547620Y-126854590D01*
X122544210Y-126850146D01*
X122379107Y-126699914D01*
X122190010Y-126581293D01*
X121982895Y-126498034D01*
X121977407Y-126496897D01*
X121977402Y-126496896D01*
X121812845Y-126462818D01*
X121764310Y-126452767D01*
X121759697Y-126452501D01*
X121709474Y-126449605D01*
X121709470Y-126449605D01*
X121707651Y-126449500D01*
X121563370Y-126449500D01*
X121560583Y-126449749D01*
X121560577Y-126449749D01*
X121491003Y-126455959D01*
X121397661Y-126464289D01*
X121392247Y-126465770D01*
X121392242Y-126465771D01*
X121278470Y-126496896D01*
X121182349Y-126523192D01*
X121177291Y-126525604D01*
X121177287Y-126525606D01*
X121091147Y-126566693D01*
X120980871Y-126619292D01*
X120799595Y-126749552D01*
X120644251Y-126909854D01*
X120519750Y-127095132D01*
X120430026Y-127299529D01*
X120428718Y-127304977D01*
X120428716Y-127304983D01*
X120380823Y-127504473D01*
X120377915Y-127516585D01*
X120375604Y-127556663D01*
X120366170Y-127720296D01*
X120365066Y-127739438D01*
X104340500Y-127739438D01*
X104340500Y-116205000D01*
X113694318Y-116205000D01*
X113714956Y-116361762D01*
X113775464Y-116507841D01*
X113871718Y-116633282D01*
X113997159Y-116729536D01*
X114143238Y-116790044D01*
X114300000Y-116810682D01*
X114308188Y-116809604D01*
X114448574Y-116791122D01*
X114456762Y-116790044D01*
X114602841Y-116729536D01*
X114728282Y-116633282D01*
X114824536Y-116507841D01*
X114885044Y-116361762D01*
X114905682Y-116205000D01*
X114885044Y-116048238D01*
X114824536Y-115902159D01*
X114728282Y-115776718D01*
X114674796Y-115735677D01*
X114632929Y-115678339D01*
X114625500Y-115635714D01*
X114625500Y-107690851D01*
X114645502Y-107622730D01*
X114662405Y-107601756D01*
X124431364Y-97832797D01*
X124493676Y-97798771D01*
X124564491Y-97803836D01*
X124621327Y-97846383D01*
X124646189Y-97913651D01*
X124649303Y-97961166D01*
X124698592Y-98155241D01*
X124726778Y-98216381D01*
X124737133Y-98286616D01*
X124707871Y-98351302D01*
X124701447Y-98358226D01*
X121068784Y-101990890D01*
X121060681Y-101998316D01*
X121031806Y-102022545D01*
X121026293Y-102032094D01*
X121012961Y-102055185D01*
X121007055Y-102064456D01*
X120985446Y-102095316D01*
X120982592Y-102105966D01*
X120981115Y-102109134D01*
X120979923Y-102112410D01*
X120974412Y-102121955D01*
X120972300Y-102133935D01*
X120967870Y-102159058D01*
X120965492Y-102169785D01*
X120955736Y-102206193D01*
X120956697Y-102217178D01*
X120956697Y-102217180D01*
X120959020Y-102243728D01*
X120959500Y-102254710D01*
X120959500Y-102300714D01*
X120939498Y-102368835D01*
X120910204Y-102400677D01*
X120856718Y-102441718D01*
X120760464Y-102567159D01*
X120699956Y-102713238D01*
X120679318Y-102870000D01*
X120699956Y-103026762D01*
X120760464Y-103172841D01*
X120856718Y-103298282D01*
X120863264Y-103303305D01*
X120863266Y-103303307D01*
X120897780Y-103329790D01*
X120939648Y-103387127D01*
X120943870Y-103457998D01*
X120909107Y-103519901D01*
X120846395Y-103553183D01*
X120804631Y-103554675D01*
X120658188Y-103535396D01*
X120650000Y-103534318D01*
X120493238Y-103554956D01*
X120347159Y-103615464D01*
X120221718Y-103711718D01*
X120125464Y-103837159D01*
X120064956Y-103983238D01*
X120044318Y-104140000D01*
X120064956Y-104296762D01*
X120125464Y-104442841D01*
X120130491Y-104449392D01*
X120205564Y-104547229D01*
X120221718Y-104568282D01*
X120228264Y-104573305D01*
X120228267Y-104573308D01*
X120262777Y-104599788D01*
X120304645Y-104657126D01*
X120308867Y-104727997D01*
X120274104Y-104789900D01*
X120211391Y-104823181D01*
X120169628Y-104824673D01*
X120023188Y-104805394D01*
X120015000Y-104804316D01*
X120006812Y-104805394D01*
X119902013Y-104819191D01*
X119858238Y-104824954D01*
X119712159Y-104885462D01*
X119586718Y-104981716D01*
X119490464Y-105107157D01*
X119429956Y-105253236D01*
X119409318Y-105409998D01*
X119429956Y-105566760D01*
X119490464Y-105712839D01*
X119586718Y-105838280D01*
X119593264Y-105843303D01*
X119627784Y-105869791D01*
X119669651Y-105927129D01*
X119673873Y-105998000D01*
X119639109Y-106059903D01*
X119576396Y-106093184D01*
X119534635Y-106094676D01*
X119380000Y-106074318D01*
X119223238Y-106094956D01*
X119077159Y-106155464D01*
X118951718Y-106251718D01*
X118855464Y-106377159D01*
X118794956Y-106523238D01*
X118774318Y-106680000D01*
X118794956Y-106836762D01*
X118855464Y-106982841D01*
X118860491Y-106989392D01*
X118934512Y-107085858D01*
X118951718Y-107108282D01*
X118958264Y-107113305D01*
X118958266Y-107113307D01*
X118992780Y-107139790D01*
X119034648Y-107197127D01*
X119038870Y-107267998D01*
X119004107Y-107329901D01*
X118941395Y-107363183D01*
X118899631Y-107364675D01*
X118753188Y-107345396D01*
X118745000Y-107344318D01*
X118718020Y-107347870D01*
X118632089Y-107359183D01*
X118588238Y-107364956D01*
X118442159Y-107425464D01*
X118316718Y-107521718D01*
X118220464Y-107647159D01*
X118159956Y-107793238D01*
X118139318Y-107950000D01*
X118159956Y-108106762D01*
X118220464Y-108252841D01*
X118316718Y-108378282D01*
X118323264Y-108383305D01*
X118323266Y-108383307D01*
X118357780Y-108409790D01*
X118399648Y-108467127D01*
X118403870Y-108537998D01*
X118369107Y-108599901D01*
X118306395Y-108633183D01*
X118264631Y-108634675D01*
X118118188Y-108615396D01*
X118110000Y-108614318D01*
X117953238Y-108634956D01*
X117807159Y-108695464D01*
X117681718Y-108791718D01*
X117676695Y-108798264D01*
X117672648Y-108803538D01*
X117585464Y-108917159D01*
X117524956Y-109063238D01*
X117504318Y-109220000D01*
X117524956Y-109376762D01*
X117585464Y-109522841D01*
X117681718Y-109648282D01*
X117807159Y-109744536D01*
X117953238Y-109805044D01*
X118110000Y-109825682D01*
X118118188Y-109824604D01*
X118258574Y-109806122D01*
X118266762Y-109805044D01*
X118412841Y-109744536D01*
X118538282Y-109648282D01*
X118579323Y-109594796D01*
X118636661Y-109552929D01*
X118679286Y-109545500D01*
X120184125Y-109545500D01*
X120195107Y-109545980D01*
X120221655Y-109548303D01*
X120221657Y-109548303D01*
X120232642Y-109549264D01*
X120269050Y-109539508D01*
X120279777Y-109537130D01*
X120283136Y-109536538D01*
X120316880Y-109530588D01*
X120326425Y-109525077D01*
X120329701Y-109523885D01*
X120332869Y-109522408D01*
X120343519Y-109519554D01*
X120374379Y-109497945D01*
X120383650Y-109492039D01*
X120406741Y-109478707D01*
X120416290Y-109473194D01*
X120440520Y-109444317D01*
X120447946Y-109436215D01*
X124431364Y-105452798D01*
X124493676Y-105418772D01*
X124564492Y-105423837D01*
X124621327Y-105466384D01*
X124646189Y-105533653D01*
X124649303Y-105581166D01*
X124698592Y-105775241D01*
X124701011Y-105780488D01*
X124726778Y-105836381D01*
X124737133Y-105906618D01*
X124707870Y-105971304D01*
X124701447Y-105978227D01*
X120356928Y-110322746D01*
X120294616Y-110356772D01*
X120267833Y-110359651D01*
X118044286Y-110359651D01*
X117976165Y-110339649D01*
X117944323Y-110310355D01*
X117908305Y-110263415D01*
X117903282Y-110256869D01*
X117895123Y-110250608D01*
X117784392Y-110165642D01*
X117777841Y-110160615D01*
X117631762Y-110100107D01*
X117475000Y-110079469D01*
X117318238Y-110100107D01*
X117172159Y-110160615D01*
X117165608Y-110165642D01*
X117054878Y-110250608D01*
X117046718Y-110256869D01*
X116950464Y-110382310D01*
X116889956Y-110528389D01*
X116869318Y-110685151D01*
X116889956Y-110841913D01*
X116947642Y-110981180D01*
X116955231Y-111051767D01*
X116923452Y-111115254D01*
X116862394Y-111151482D01*
X116839997Y-111154295D01*
X116840000Y-111154318D01*
X116683238Y-111174956D01*
X116537159Y-111235464D01*
X116482714Y-111277241D01*
X116424971Y-111321549D01*
X116411718Y-111331718D01*
X116406695Y-111338264D01*
X116403496Y-111342433D01*
X116315464Y-111457159D01*
X116254956Y-111603238D01*
X116234318Y-111760000D01*
X116254956Y-111916762D01*
X116258116Y-111924391D01*
X116262532Y-111935053D01*
X116315464Y-112062841D01*
X116411718Y-112188282D01*
X116418264Y-112193305D01*
X116418266Y-112193307D01*
X116452780Y-112219790D01*
X116494648Y-112277127D01*
X116498870Y-112347998D01*
X116464107Y-112409901D01*
X116401395Y-112443183D01*
X116359631Y-112444675D01*
X116213188Y-112425396D01*
X116205000Y-112424318D01*
X116048238Y-112444956D01*
X115902159Y-112505464D01*
X115776718Y-112601718D01*
X115680464Y-112727159D01*
X115619956Y-112873238D01*
X115599318Y-113030000D01*
X115619956Y-113186762D01*
X115680464Y-113332841D01*
X115776718Y-113458282D01*
X115783264Y-113463305D01*
X115783266Y-113463307D01*
X115817780Y-113489790D01*
X115859648Y-113547127D01*
X115863870Y-113617998D01*
X115829107Y-113679901D01*
X115766395Y-113713183D01*
X115724631Y-113714675D01*
X115578188Y-113695396D01*
X115570000Y-113694318D01*
X115413238Y-113714956D01*
X115267159Y-113775464D01*
X115141718Y-113871718D01*
X115045464Y-113997159D01*
X114984956Y-114143238D01*
X114964318Y-114300000D01*
X114984956Y-114456762D01*
X115045464Y-114602841D01*
X115141718Y-114728282D01*
X115267159Y-114824536D01*
X115413238Y-114885044D01*
X115570000Y-114905682D01*
X115578188Y-114904604D01*
X115718574Y-114886122D01*
X115726762Y-114885044D01*
X115872841Y-114824536D01*
X115998282Y-114728282D01*
X116039323Y-114674796D01*
X116096661Y-114632929D01*
X116139286Y-114625500D01*
X124440290Y-114625500D01*
X124451272Y-114625980D01*
X124477820Y-114628303D01*
X124477822Y-114628303D01*
X124488807Y-114629264D01*
X124525215Y-114619508D01*
X124535942Y-114617130D01*
X124539301Y-114616538D01*
X124573045Y-114610588D01*
X124582590Y-114605077D01*
X124585866Y-114603885D01*
X124589034Y-114602408D01*
X124599684Y-114599554D01*
X124630544Y-114577945D01*
X124639815Y-114572039D01*
X124662906Y-114558707D01*
X124672455Y-114553194D01*
X124696685Y-114524317D01*
X124704111Y-114516215D01*
X127702109Y-111518217D01*
X127764421Y-111484191D01*
X127840942Y-111491545D01*
X127926573Y-111528335D01*
X127926576Y-111528336D01*
X127931883Y-111530616D01*
X128127182Y-111574807D01*
X128132956Y-111575034D01*
X128132957Y-111575034D01*
X128141331Y-111575363D01*
X128208614Y-111598025D01*
X128252964Y-111653465D01*
X128260300Y-111724081D01*
X128225478Y-111790361D01*
X122903244Y-117112595D01*
X122840932Y-117146621D01*
X122814149Y-117149500D01*
X119314286Y-117149500D01*
X119246165Y-117129498D01*
X119214323Y-117100204D01*
X119178305Y-117053264D01*
X119173282Y-117046718D01*
X119047841Y-116950464D01*
X118901762Y-116889956D01*
X118745000Y-116869318D01*
X118588238Y-116889956D01*
X118442159Y-116950464D01*
X118316718Y-117046718D01*
X118220464Y-117172159D01*
X118159956Y-117318238D01*
X118139318Y-117475000D01*
X118159956Y-117631762D01*
X118220464Y-117777841D01*
X118316718Y-117903282D01*
X118442159Y-117999536D01*
X118588238Y-118060044D01*
X118745000Y-118080682D01*
X118753188Y-118079604D01*
X118893574Y-118061122D01*
X118901762Y-118060044D01*
X119047841Y-117999536D01*
X119173282Y-117903282D01*
X119214323Y-117849796D01*
X119271661Y-117807929D01*
X119314286Y-117800500D01*
X122981455Y-117800500D01*
X122992437Y-117800980D01*
X123018985Y-117803303D01*
X123018987Y-117803303D01*
X123029972Y-117804264D01*
X123066380Y-117794508D01*
X123077107Y-117792130D01*
X123080466Y-117791538D01*
X123114210Y-117785588D01*
X123123755Y-117780077D01*
X123127031Y-117778885D01*
X123130199Y-117777408D01*
X123140849Y-117774554D01*
X123171709Y-117752945D01*
X123180980Y-117747039D01*
X123204071Y-117733707D01*
X123213620Y-117728194D01*
X123237850Y-117699317D01*
X123245276Y-117691215D01*
X129699726Y-111236765D01*
X129707830Y-111229338D01*
X129728260Y-111212195D01*
X129736705Y-111205109D01*
X129748207Y-111185187D01*
X129799590Y-111136194D01*
X129869304Y-111122759D01*
X129935215Y-111149146D01*
X129960223Y-111175468D01*
X129977988Y-111200605D01*
X130121418Y-111340328D01*
X130287908Y-111451574D01*
X130293211Y-111453852D01*
X130293214Y-111453854D01*
X130408238Y-111503272D01*
X130462931Y-111548540D01*
X130484500Y-111619040D01*
X130484500Y-123080790D01*
X130484020Y-123091772D01*
X130480736Y-123129307D01*
X130490491Y-123165710D01*
X130492870Y-123176442D01*
X130499412Y-123213545D01*
X130504923Y-123223090D01*
X130506115Y-123226366D01*
X130507592Y-123229534D01*
X130510446Y-123240184D01*
X130516770Y-123249215D01*
X130532055Y-123271044D01*
X130537961Y-123280315D01*
X130551293Y-123303406D01*
X130556806Y-123312955D01*
X130565251Y-123320041D01*
X130585682Y-123337185D01*
X130593785Y-123344611D01*
X132082291Y-124833117D01*
X132116317Y-124895429D01*
X132118118Y-124938657D01*
X132109318Y-125005500D01*
X132129956Y-125162262D01*
X132190464Y-125308341D01*
X132286718Y-125433782D01*
X132412159Y-125530036D01*
X132558238Y-125590544D01*
X132715000Y-125611182D01*
X132723188Y-125610104D01*
X132863574Y-125591622D01*
X132871762Y-125590544D01*
X133017841Y-125530036D01*
X133143282Y-125433782D01*
X133239536Y-125308341D01*
X133300044Y-125162262D01*
X133320682Y-125005500D01*
X133300044Y-124848738D01*
X133239536Y-124702659D01*
X133180156Y-124625273D01*
X133154556Y-124559052D01*
X133168821Y-124489504D01*
X133218422Y-124438708D01*
X133287612Y-124422792D01*
X133296557Y-124423646D01*
X133350000Y-124430682D01*
X133358188Y-124429604D01*
X133498574Y-124411122D01*
X133506762Y-124410044D01*
X133652841Y-124349536D01*
X133778282Y-124253282D01*
X133874536Y-124127841D01*
X133935044Y-123981762D01*
X133955682Y-123825000D01*
X133935044Y-123668238D01*
X133874536Y-123522159D01*
X133778282Y-123396718D01*
X133724796Y-123355677D01*
X133682929Y-123298339D01*
X133675500Y-123255714D01*
X133675500Y-111620440D01*
X133695502Y-111552319D01*
X133749158Y-111505826D01*
X133760999Y-111501127D01*
X133789571Y-111491428D01*
X133789573Y-111491427D01*
X133795038Y-111489572D01*
X133969744Y-111391733D01*
X134033212Y-111338947D01*
X134087931Y-111293438D01*
X134153095Y-111265257D01*
X134223150Y-111276781D01*
X134275854Y-111324349D01*
X134294500Y-111390312D01*
X134294500Y-121265290D01*
X134294020Y-121276272D01*
X134290736Y-121313807D01*
X134293590Y-121324456D01*
X134300491Y-121350210D01*
X134302870Y-121360942D01*
X134309412Y-121398045D01*
X134314923Y-121407590D01*
X134316115Y-121410866D01*
X134317592Y-121414034D01*
X134320446Y-121424684D01*
X134326770Y-121433715D01*
X134342055Y-121455544D01*
X134347961Y-121464815D01*
X134361293Y-121487906D01*
X134366806Y-121497455D01*
X134375251Y-121504541D01*
X134395682Y-121521685D01*
X134403785Y-121529111D01*
X134892595Y-122017921D01*
X134926621Y-122080233D01*
X134929500Y-122107016D01*
X134929500Y-125160714D01*
X134909498Y-125228835D01*
X134880204Y-125260677D01*
X134826718Y-125301718D01*
X134730464Y-125427159D01*
X134669956Y-125573238D01*
X134649318Y-125730000D01*
X134669956Y-125886762D01*
X134730464Y-126032841D01*
X134826718Y-126158282D01*
X134952159Y-126254536D01*
X135098238Y-126315044D01*
X135255000Y-126335682D01*
X135263188Y-126334604D01*
X135409631Y-126315325D01*
X135479780Y-126326265D01*
X135532878Y-126373393D01*
X135552068Y-126441747D01*
X135531257Y-126509625D01*
X135502780Y-126540210D01*
X135468266Y-126566693D01*
X135468264Y-126566695D01*
X135461718Y-126571718D01*
X135365464Y-126697159D01*
X135304956Y-126843238D01*
X135284318Y-127000000D01*
X135304956Y-127156762D01*
X135365464Y-127302841D01*
X135461718Y-127428282D01*
X135587159Y-127524536D01*
X135733238Y-127585044D01*
X135741426Y-127586122D01*
X135811619Y-127595363D01*
X135890000Y-127605682D01*
X135898188Y-127604604D01*
X136044631Y-127585325D01*
X136114780Y-127596265D01*
X136167878Y-127643393D01*
X136187068Y-127711747D01*
X136166257Y-127779625D01*
X136137780Y-127810210D01*
X136103266Y-127836693D01*
X136103264Y-127836695D01*
X136096718Y-127841718D01*
X136000464Y-127967159D01*
X135939956Y-128113238D01*
X135919318Y-128270000D01*
X135939956Y-128426762D01*
X136000464Y-128572841D01*
X136096718Y-128698282D01*
X136222159Y-128794536D01*
X136368238Y-128855044D01*
X136525000Y-128875682D01*
X136533188Y-128874604D01*
X136679631Y-128855325D01*
X136749780Y-128866265D01*
X136802878Y-128913393D01*
X136822068Y-128981747D01*
X136801257Y-129049625D01*
X136772780Y-129080210D01*
X136738266Y-129106693D01*
X136738264Y-129106695D01*
X136731718Y-129111718D01*
X136635464Y-129237159D01*
X136574956Y-129383238D01*
X136554318Y-129540000D01*
X136574956Y-129696762D01*
X136635464Y-129842841D01*
X136731718Y-129968282D01*
X136857159Y-130064536D01*
X137003238Y-130125044D01*
X137160000Y-130145682D01*
X137168188Y-130144604D01*
X137314631Y-130125325D01*
X137384780Y-130136265D01*
X137437878Y-130183393D01*
X137457068Y-130251747D01*
X137436257Y-130319625D01*
X137407780Y-130350210D01*
X137373266Y-130376693D01*
X137373264Y-130376695D01*
X137366718Y-130381718D01*
X137270464Y-130507159D01*
X137209956Y-130653238D01*
X137189318Y-130810000D01*
X137209956Y-130966762D01*
X137270464Y-131112841D01*
X137366718Y-131238282D01*
X137492159Y-131334536D01*
X137638238Y-131395044D01*
X137795000Y-131415682D01*
X137803188Y-131414604D01*
X137949631Y-131395325D01*
X138019780Y-131406265D01*
X138072878Y-131453393D01*
X138092068Y-131521747D01*
X138071257Y-131589625D01*
X138042780Y-131620210D01*
X138008266Y-131646693D01*
X138008264Y-131646695D01*
X138001718Y-131651718D01*
X137905464Y-131777159D01*
X137844956Y-131923238D01*
X137824318Y-132080000D01*
X137844956Y-132236762D01*
X137905464Y-132382841D01*
X138001718Y-132508282D01*
X138127159Y-132604536D01*
X138273238Y-132665044D01*
X138430000Y-132685682D01*
X138438188Y-132684604D01*
X138584631Y-132665325D01*
X138654780Y-132676265D01*
X138707878Y-132723393D01*
X138727068Y-132791747D01*
X138706257Y-132859625D01*
X138677780Y-132890210D01*
X138643266Y-132916693D01*
X138643264Y-132916695D01*
X138636718Y-132921718D01*
X138540464Y-133047159D01*
X138479956Y-133193238D01*
X138459318Y-133350000D01*
X138479956Y-133506762D01*
X138540464Y-133652841D01*
X138636718Y-133778282D01*
X138762159Y-133874536D01*
X138908238Y-133935044D01*
X139065000Y-133955682D01*
X139073188Y-133954604D01*
X139219631Y-133935325D01*
X139289780Y-133946265D01*
X139342878Y-133993393D01*
X139362068Y-134061747D01*
X139341257Y-134129625D01*
X139312780Y-134160210D01*
X139278266Y-134186693D01*
X139278264Y-134186695D01*
X139271718Y-134191718D01*
X139175464Y-134317159D01*
X139114956Y-134463238D01*
X139094318Y-134620000D01*
X139114956Y-134776762D01*
X139175464Y-134922841D01*
X139271718Y-135048282D01*
X139397159Y-135144536D01*
X139543238Y-135205044D01*
X139700000Y-135225682D01*
X139708188Y-135224604D01*
X139854631Y-135205325D01*
X139924780Y-135216265D01*
X139977878Y-135263393D01*
X139997068Y-135331747D01*
X139976257Y-135399625D01*
X139947780Y-135430210D01*
X139913266Y-135456693D01*
X139913264Y-135456695D01*
X139906718Y-135461718D01*
X139810464Y-135587159D01*
X139749956Y-135733238D01*
X139729318Y-135890000D01*
X139749956Y-136046762D01*
X139810464Y-136192841D01*
X139906718Y-136318282D01*
X140032159Y-136414536D01*
X140178238Y-136475044D01*
X140335000Y-136495682D01*
X140343188Y-136494604D01*
X140483574Y-136476122D01*
X140491762Y-136475044D01*
X140637841Y-136414536D01*
X140763282Y-136318282D01*
X140859536Y-136192841D01*
X140920044Y-136046762D01*
X140940682Y-135890000D01*
X140931882Y-135823157D01*
X140942821Y-135753010D01*
X140967709Y-135717617D01*
X145389247Y-131296079D01*
X145397353Y-131288651D01*
X145417771Y-131271519D01*
X145426216Y-131264433D01*
X145431726Y-131254890D01*
X145431729Y-131254886D01*
X145445058Y-131231799D01*
X145450963Y-131222529D01*
X145466254Y-131200691D01*
X145472576Y-131191662D01*
X145475429Y-131181014D01*
X145476908Y-131177843D01*
X145478100Y-131174567D01*
X145483610Y-131165023D01*
X145490156Y-131127902D01*
X145492530Y-131117195D01*
X145502285Y-131080785D01*
X145499001Y-131043247D01*
X145498522Y-131032266D01*
X145498522Y-127739438D01*
X146365066Y-127739438D01*
X146391883Y-127961044D01*
X146457519Y-128174400D01*
X146559901Y-128372759D01*
X146563310Y-128377201D01*
X146563312Y-128377205D01*
X146649510Y-128489540D01*
X146695790Y-128549854D01*
X146860893Y-128700086D01*
X147049990Y-128818707D01*
X147257105Y-128901966D01*
X147262593Y-128903103D01*
X147262598Y-128903104D01*
X147420053Y-128935711D01*
X147475690Y-128947233D01*
X147480303Y-128947499D01*
X147530526Y-128950395D01*
X147530530Y-128950395D01*
X147532349Y-128950500D01*
X147676630Y-128950500D01*
X147679417Y-128950251D01*
X147679423Y-128950251D01*
X147759344Y-128943118D01*
X147842339Y-128935711D01*
X147847753Y-128934230D01*
X147847758Y-128934229D01*
X147985278Y-128896607D01*
X148057651Y-128876808D01*
X148062709Y-128874396D01*
X148062713Y-128874394D01*
X148179462Y-128818707D01*
X148259129Y-128780708D01*
X148440405Y-128650448D01*
X148576307Y-128510209D01*
X148591846Y-128494174D01*
X148591848Y-128494171D01*
X148595749Y-128490146D01*
X148720250Y-128304868D01*
X148809974Y-128100471D01*
X148811282Y-128095023D01*
X148811284Y-128095017D01*
X148860775Y-127888872D01*
X148860775Y-127888871D01*
X148862085Y-127883415D01*
X148873654Y-127682758D01*
X148874611Y-127666169D01*
X148874611Y-127666166D01*
X148874934Y-127660562D01*
X148848117Y-127438956D01*
X148782481Y-127225600D01*
X148680099Y-127027241D01*
X148676690Y-127022799D01*
X148676688Y-127022795D01*
X148547620Y-126854590D01*
X148544210Y-126850146D01*
X148379107Y-126699914D01*
X148190010Y-126581293D01*
X147982895Y-126498034D01*
X147977407Y-126496897D01*
X147977402Y-126496896D01*
X147812845Y-126462818D01*
X147764310Y-126452767D01*
X147759697Y-126452501D01*
X147709474Y-126449605D01*
X147709470Y-126449605D01*
X147707651Y-126449500D01*
X147563370Y-126449500D01*
X147560583Y-126449749D01*
X147560577Y-126449749D01*
X147491003Y-126455959D01*
X147397661Y-126464289D01*
X147392247Y-126465770D01*
X147392242Y-126465771D01*
X147278470Y-126496896D01*
X147182349Y-126523192D01*
X147177291Y-126525604D01*
X147177287Y-126525606D01*
X147091147Y-126566693D01*
X146980871Y-126619292D01*
X146799595Y-126749552D01*
X146644251Y-126909854D01*
X146519750Y-127095132D01*
X146430026Y-127299529D01*
X146428718Y-127304977D01*
X146428716Y-127304983D01*
X146380823Y-127504473D01*
X146377915Y-127516585D01*
X146375604Y-127556663D01*
X146366170Y-127720296D01*
X146365066Y-127739438D01*
X145498522Y-127739438D01*
X145498522Y-104552735D01*
X145499001Y-104541754D01*
X145501325Y-104515192D01*
X145501325Y-104515190D01*
X145502285Y-104504215D01*
X145492530Y-104467805D01*
X145490155Y-104457094D01*
X145488797Y-104449392D01*
X145483610Y-104419977D01*
X145478100Y-104410433D01*
X145476908Y-104407157D01*
X145475429Y-104403986D01*
X145472576Y-104393338D01*
X145450962Y-104362470D01*
X145445058Y-104353201D01*
X145431729Y-104330114D01*
X145431726Y-104330110D01*
X145426216Y-104320567D01*
X145397352Y-104296347D01*
X145389249Y-104288922D01*
X144967079Y-103866752D01*
X144541100Y-103440774D01*
X144507075Y-103378461D01*
X144510882Y-103311179D01*
X144573936Y-103125428D01*
X144602668Y-102927264D01*
X144604168Y-102870000D01*
X144585846Y-102670604D01*
X144531494Y-102477885D01*
X144442932Y-102298299D01*
X144424842Y-102274073D01*
X144357116Y-102183378D01*
X144332384Y-102116828D01*
X144347558Y-102047472D01*
X144397820Y-101997330D01*
X144458074Y-101981989D01*
X145779473Y-101981989D01*
X145847594Y-102001991D01*
X145868568Y-102018894D01*
X154237291Y-110387617D01*
X154271317Y-110449929D01*
X154273118Y-110493157D01*
X154264318Y-110560000D01*
X154284956Y-110716762D01*
X154345464Y-110862841D01*
X154441718Y-110988282D01*
X154567159Y-111084536D01*
X154713238Y-111145044D01*
X154870000Y-111165682D01*
X154878188Y-111164604D01*
X155018574Y-111146122D01*
X155026762Y-111145044D01*
X155172841Y-111084536D01*
X155298282Y-110988282D01*
X155394536Y-110862841D01*
X155455044Y-110716762D01*
X155475682Y-110560000D01*
X155455044Y-110403238D01*
X155394536Y-110257159D01*
X155298282Y-110131718D01*
X155172841Y-110035464D01*
X155026762Y-109974956D01*
X154870000Y-109954318D01*
X154803157Y-109963118D01*
X154733010Y-109952179D01*
X154697617Y-109927291D01*
X146210600Y-101440274D01*
X146203173Y-101432170D01*
X146186030Y-101411740D01*
X146186031Y-101411740D01*
X146178944Y-101403295D01*
X146164168Y-101394764D01*
X146146304Y-101384450D01*
X146137033Y-101378544D01*
X146125711Y-101370616D01*
X146106173Y-101356935D01*
X146095523Y-101354081D01*
X146092355Y-101352604D01*
X146089079Y-101351412D01*
X146079534Y-101345901D01*
X146045790Y-101339951D01*
X146042431Y-101339359D01*
X146031704Y-101336981D01*
X145995296Y-101327225D01*
X145984311Y-101328186D01*
X145984309Y-101328186D01*
X145957761Y-101330509D01*
X145946779Y-101330989D01*
X144358947Y-101330989D01*
X144290826Y-101310987D01*
X144244333Y-101257331D01*
X144234229Y-101187057D01*
X144263723Y-101122477D01*
X144278381Y-101108113D01*
X144279254Y-101107387D01*
X144279256Y-101107385D01*
X144283694Y-101103694D01*
X144411733Y-100949744D01*
X144509572Y-100775038D01*
X144534878Y-100700488D01*
X144572080Y-100590897D01*
X144572081Y-100590892D01*
X144573936Y-100585428D01*
X144602668Y-100387264D01*
X144604168Y-100330000D01*
X144585846Y-100130604D01*
X144531494Y-99937885D01*
X144442932Y-99758299D01*
X144424842Y-99734073D01*
X144326582Y-99602489D01*
X144323125Y-99597859D01*
X144176087Y-99461938D01*
X144006742Y-99355089D01*
X144001382Y-99352951D01*
X144001379Y-99352949D01*
X143826125Y-99283030D01*
X143820761Y-99280890D01*
X143815101Y-99279764D01*
X143815097Y-99279763D01*
X143630039Y-99242953D01*
X143630037Y-99242953D01*
X143624372Y-99241826D01*
X143618597Y-99241750D01*
X143618593Y-99241750D01*
X143518641Y-99240442D01*
X143424153Y-99239205D01*
X143418456Y-99240184D01*
X143418455Y-99240184D01*
X143232505Y-99272136D01*
X143226808Y-99273115D01*
X143038949Y-99342420D01*
X142866864Y-99444799D01*
X142862524Y-99448605D01*
X142862520Y-99448608D01*
X142720660Y-99573017D01*
X142716319Y-99576824D01*
X142592354Y-99734073D01*
X142499121Y-99911280D01*
X142497407Y-99916800D01*
X142445323Y-100084538D01*
X142439742Y-100102510D01*
X142416207Y-100301358D01*
X142429303Y-100501166D01*
X142478592Y-100695241D01*
X142562423Y-100877084D01*
X142677988Y-101040605D01*
X142682130Y-101044640D01*
X142754085Y-101114735D01*
X142788923Y-101176596D01*
X142784786Y-101247472D01*
X142742987Y-101304860D01*
X142676797Y-101330540D01*
X142666164Y-101330989D01*
X142203221Y-101330989D01*
X142192239Y-101330509D01*
X142165691Y-101328186D01*
X142165689Y-101328186D01*
X142154704Y-101327225D01*
X142118296Y-101336981D01*
X142107569Y-101339359D01*
X142104210Y-101339951D01*
X142070466Y-101345901D01*
X142060921Y-101351412D01*
X142057645Y-101352604D01*
X142054477Y-101354081D01*
X142043827Y-101356935D01*
X142024289Y-101370616D01*
X142012967Y-101378544D01*
X142003696Y-101384450D01*
X141985832Y-101394764D01*
X141971056Y-101403295D01*
X141954800Y-101422668D01*
X141946826Y-101432171D01*
X141939400Y-101440274D01*
X141538188Y-101841486D01*
X141475876Y-101875512D01*
X141402405Y-101869421D01*
X141280761Y-101820890D01*
X141275101Y-101819764D01*
X141275097Y-101819763D01*
X141090039Y-101782953D01*
X141090037Y-101782953D01*
X141084372Y-101781826D01*
X141078597Y-101781750D01*
X141078593Y-101781750D01*
X140978641Y-101780442D01*
X140884153Y-101779205D01*
X140878456Y-101780184D01*
X140878455Y-101780184D01*
X140692505Y-101812136D01*
X140686808Y-101813115D01*
X140498949Y-101882420D01*
X140326864Y-101984799D01*
X140322524Y-101988605D01*
X140322520Y-101988608D01*
X140200844Y-102095316D01*
X140176319Y-102116824D01*
X140172744Y-102121359D01*
X140172743Y-102121360D01*
X140067619Y-102254710D01*
X140052354Y-102274073D01*
X140049663Y-102279189D01*
X140049661Y-102279191D01*
X139964152Y-102441718D01*
X139959121Y-102451280D01*
X139899742Y-102642510D01*
X139876207Y-102841358D01*
X139889303Y-103041166D01*
X139938592Y-103235241D01*
X140022423Y-103417084D01*
X140025756Y-103421800D01*
X140119663Y-103554675D01*
X140137988Y-103580605D01*
X140281418Y-103720328D01*
X140447908Y-103831574D01*
X140453211Y-103833852D01*
X140453214Y-103833854D01*
X140523826Y-103864191D01*
X140631883Y-103910616D01*
X140827182Y-103954807D01*
X140832956Y-103955034D01*
X140832957Y-103955034D01*
X140874134Y-103956652D01*
X141027264Y-103962668D01*
X141225428Y-103933936D01*
X141230892Y-103932081D01*
X141230897Y-103932080D01*
X141369485Y-103885035D01*
X141415038Y-103869572D01*
X141589744Y-103771733D01*
X141743694Y-103643694D01*
X141871733Y-103489744D01*
X141969572Y-103315038D01*
X141994878Y-103240488D01*
X142032080Y-103130897D01*
X142032081Y-103130892D01*
X142033936Y-103125428D01*
X142062668Y-102927264D01*
X142064168Y-102870000D01*
X142045846Y-102670604D01*
X141991494Y-102477885D01*
X141978374Y-102451280D01*
X141975594Y-102445642D01*
X141963405Y-102375699D01*
X141990965Y-102310270D01*
X141999506Y-102300820D01*
X142281432Y-102018894D01*
X142343744Y-101984868D01*
X142370527Y-101981989D01*
X142562839Y-101981989D01*
X142630960Y-102001991D01*
X142677453Y-102055647D01*
X142687557Y-102125921D01*
X142661789Y-102185995D01*
X142607619Y-102254710D01*
X142592354Y-102274073D01*
X142589663Y-102279189D01*
X142589661Y-102279191D01*
X142504152Y-102441718D01*
X142499121Y-102451280D01*
X142439742Y-102642510D01*
X142416207Y-102841358D01*
X142429303Y-103041166D01*
X142478592Y-103235241D01*
X142562423Y-103417084D01*
X142565756Y-103421800D01*
X142659663Y-103554675D01*
X142677988Y-103580605D01*
X142821418Y-103720328D01*
X142987908Y-103831574D01*
X142993211Y-103833852D01*
X142993214Y-103833854D01*
X143063826Y-103864191D01*
X143171883Y-103910616D01*
X143367182Y-103954807D01*
X143372956Y-103955034D01*
X143372957Y-103955034D01*
X143414134Y-103956652D01*
X143567264Y-103962668D01*
X143765428Y-103933936D01*
X143951179Y-103870882D01*
X144022111Y-103867926D01*
X144080774Y-103901100D01*
X144810618Y-104630945D01*
X144844643Y-104693257D01*
X144847522Y-104720040D01*
X144847522Y-105310135D01*
X144827520Y-105378256D01*
X144779957Y-105419469D01*
X144816844Y-105443237D01*
X144846261Y-105507852D01*
X144847522Y-105525636D01*
X144847522Y-105983006D01*
X144827520Y-106051127D01*
X144773864Y-106097620D01*
X144703590Y-106107724D01*
X144639010Y-106078230D01*
X144632427Y-106072101D01*
X144541100Y-105980774D01*
X144507074Y-105918462D01*
X144510882Y-105851179D01*
X144573936Y-105665428D01*
X144596826Y-105507556D01*
X144626396Y-105443010D01*
X144665945Y-105417660D01*
X144639010Y-105405359D01*
X144600626Y-105345633D01*
X144596051Y-105321664D01*
X144586375Y-105216361D01*
X144585846Y-105210604D01*
X144580003Y-105189884D01*
X144533063Y-105023449D01*
X144531494Y-105017885D01*
X144442932Y-104838299D01*
X144435327Y-104828114D01*
X144326582Y-104682489D01*
X144323125Y-104677859D01*
X144202774Y-104566607D01*
X144180328Y-104545858D01*
X144180326Y-104545856D01*
X144176087Y-104541938D01*
X144058625Y-104467825D01*
X144011622Y-104438168D01*
X144006742Y-104435089D01*
X144001382Y-104432951D01*
X144001379Y-104432949D01*
X143826125Y-104363030D01*
X143820761Y-104360890D01*
X143815101Y-104359764D01*
X143815097Y-104359763D01*
X143630039Y-104322953D01*
X143630037Y-104322953D01*
X143624372Y-104321826D01*
X143618597Y-104321750D01*
X143618593Y-104321750D01*
X143518641Y-104320442D01*
X143424153Y-104319205D01*
X143418456Y-104320184D01*
X143418455Y-104320184D01*
X143232505Y-104352136D01*
X143226808Y-104353115D01*
X143038949Y-104422420D01*
X142866864Y-104524799D01*
X142862524Y-104528605D01*
X142862520Y-104528608D01*
X142745828Y-104630945D01*
X142716319Y-104656824D01*
X142712744Y-104661359D01*
X142712743Y-104661360D01*
X142666484Y-104720040D01*
X142592354Y-104814073D01*
X142589663Y-104819189D01*
X142589661Y-104819191D01*
X142504153Y-104981716D01*
X142499121Y-104991280D01*
X142497407Y-104996800D01*
X142455408Y-105132059D01*
X142439742Y-105182510D01*
X142416207Y-105381358D01*
X142429303Y-105581166D01*
X142478592Y-105775241D01*
X142562423Y-105957084D01*
X142565756Y-105961800D01*
X142668885Y-106107724D01*
X142677988Y-106120605D01*
X142821418Y-106260328D01*
X142987908Y-106371574D01*
X142993211Y-106373852D01*
X142993214Y-106373854D01*
X143065088Y-106404733D01*
X143171883Y-106450616D01*
X143367182Y-106494807D01*
X143372956Y-106495034D01*
X143372957Y-106495034D01*
X143414134Y-106496652D01*
X143567264Y-106502668D01*
X143765428Y-106473936D01*
X143951179Y-106410882D01*
X144022112Y-106407926D01*
X144080774Y-106441100D01*
X144361106Y-106721432D01*
X144395132Y-106783744D01*
X144398011Y-106810527D01*
X144398011Y-106999023D01*
X144378009Y-107067144D01*
X144324353Y-107113637D01*
X144254079Y-107123741D01*
X144186484Y-107091549D01*
X144176087Y-107081938D01*
X144006742Y-106975089D01*
X144001382Y-106972951D01*
X144001379Y-106972949D01*
X143826125Y-106903030D01*
X143820761Y-106900890D01*
X143815101Y-106899764D01*
X143815097Y-106899763D01*
X143630039Y-106862953D01*
X143630037Y-106862953D01*
X143624372Y-106861826D01*
X143618597Y-106861750D01*
X143618593Y-106861750D01*
X143518641Y-106860442D01*
X143424153Y-106859205D01*
X143418456Y-106860184D01*
X143418455Y-106860184D01*
X143232505Y-106892136D01*
X143226808Y-106893115D01*
X143038949Y-106962420D01*
X142866864Y-107064799D01*
X142862524Y-107068605D01*
X142862520Y-107068608D01*
X142748965Y-107168194D01*
X142716319Y-107196824D01*
X142712744Y-107201359D01*
X142712743Y-107201360D01*
X142596300Y-107349068D01*
X142592354Y-107354073D01*
X142518630Y-107494199D01*
X142469214Y-107545168D01*
X142400082Y-107561331D01*
X142333186Y-107537553D01*
X142291575Y-107485771D01*
X142207459Y-107292319D01*
X142202595Y-107283246D01*
X142131268Y-107172993D01*
X142120582Y-107163791D01*
X142111017Y-107168194D01*
X141059095Y-108220115D01*
X140996783Y-108254141D01*
X140925967Y-108249076D01*
X140880905Y-108220115D01*
X139831782Y-107170993D01*
X139820245Y-107164693D01*
X139807964Y-107174315D01*
X139754064Y-107253329D01*
X139748976Y-107262285D01*
X139656611Y-107461270D01*
X139651267Y-107475797D01*
X139649947Y-107475311D01*
X139615891Y-107530110D01*
X139551764Y-107560577D01*
X139481345Y-107551538D01*
X139426992Y-107505862D01*
X139418941Y-107491874D01*
X139405382Y-107464379D01*
X139362932Y-107378299D01*
X139352759Y-107364675D01*
X139277297Y-107263621D01*
X139243125Y-107217859D01*
X139122774Y-107106607D01*
X139100328Y-107085858D01*
X139100326Y-107085856D01*
X139096087Y-107081938D01*
X138926742Y-106975089D01*
X138921382Y-106972951D01*
X138921379Y-106972949D01*
X138746125Y-106903030D01*
X138740761Y-106900890D01*
X138735101Y-106899764D01*
X138735097Y-106899763D01*
X138550039Y-106862953D01*
X138550037Y-106862953D01*
X138544372Y-106861826D01*
X138538597Y-106861750D01*
X138538593Y-106861750D01*
X138438641Y-106860442D01*
X138344153Y-106859205D01*
X138338456Y-106860184D01*
X138338455Y-106860184D01*
X138152505Y-106892136D01*
X138146808Y-106893115D01*
X137958949Y-106962420D01*
X137786864Y-107064799D01*
X137782524Y-107068605D01*
X137782520Y-107068608D01*
X137668965Y-107168194D01*
X137636319Y-107196824D01*
X137632744Y-107201359D01*
X137632743Y-107201360D01*
X137516300Y-107349068D01*
X137512354Y-107354073D01*
X137509666Y-107359183D01*
X137509661Y-107359191D01*
X137421813Y-107526163D01*
X137419121Y-107531280D01*
X137417407Y-107536800D01*
X137401635Y-107587595D01*
X137359742Y-107722510D01*
X137336207Y-107921358D01*
X137349303Y-108121166D01*
X137398592Y-108315241D01*
X137482423Y-108497084D01*
X137485756Y-108501800D01*
X137579663Y-108634675D01*
X137597988Y-108660605D01*
X137741418Y-108800328D01*
X137907908Y-108911574D01*
X137913211Y-108913852D01*
X137913214Y-108913854D01*
X137983312Y-108943970D01*
X138091883Y-108990616D01*
X138287182Y-109034807D01*
X138292956Y-109035034D01*
X138292957Y-109035034D01*
X138334134Y-109036652D01*
X138487264Y-109042668D01*
X138685428Y-109013936D01*
X138871179Y-108950882D01*
X138942112Y-108947926D01*
X139000774Y-108981100D01*
X139281106Y-109261432D01*
X139315132Y-109323744D01*
X139318011Y-109350527D01*
X139318011Y-109539023D01*
X139298009Y-109607144D01*
X139244353Y-109653637D01*
X139174079Y-109663741D01*
X139106484Y-109631549D01*
X139096087Y-109621938D01*
X138926742Y-109515089D01*
X138921382Y-109512951D01*
X138921379Y-109512949D01*
X138746125Y-109443030D01*
X138740761Y-109440890D01*
X138735101Y-109439764D01*
X138735097Y-109439763D01*
X138550039Y-109402953D01*
X138550037Y-109402953D01*
X138544372Y-109401826D01*
X138538597Y-109401750D01*
X138538593Y-109401750D01*
X138438641Y-109400442D01*
X138344153Y-109399205D01*
X138338456Y-109400184D01*
X138338455Y-109400184D01*
X138152505Y-109432136D01*
X138146808Y-109433115D01*
X137958949Y-109502420D01*
X137786864Y-109604799D01*
X137782524Y-109608605D01*
X137782520Y-109608608D01*
X137638089Y-109735272D01*
X137573685Y-109765149D01*
X137503352Y-109755463D01*
X137449420Y-109709291D01*
X137429011Y-109640540D01*
X137429011Y-109183221D01*
X137429491Y-109172239D01*
X137431814Y-109145691D01*
X137431814Y-109145689D01*
X137432775Y-109134704D01*
X137423019Y-109098296D01*
X137420641Y-109087569D01*
X137418808Y-109077176D01*
X137414099Y-109050466D01*
X137408588Y-109040921D01*
X137407396Y-109037645D01*
X137405919Y-109034477D01*
X137403065Y-109023827D01*
X137381456Y-108992967D01*
X137375550Y-108983696D01*
X137362218Y-108960605D01*
X137356705Y-108951056D01*
X137327828Y-108926826D01*
X137319726Y-108919400D01*
X136921100Y-108520774D01*
X136887074Y-108458462D01*
X136890882Y-108391179D01*
X136942363Y-108239521D01*
X136952081Y-108210893D01*
X136952081Y-108210892D01*
X136953936Y-108205428D01*
X136982668Y-108007264D01*
X136984168Y-107950000D01*
X136965846Y-107750604D01*
X136911494Y-107557885D01*
X136822932Y-107378299D01*
X136812759Y-107364675D01*
X136737297Y-107263621D01*
X136703125Y-107217859D01*
X136582774Y-107106607D01*
X136560328Y-107085858D01*
X136560326Y-107085856D01*
X136556087Y-107081938D01*
X136386742Y-106975089D01*
X136381382Y-106972951D01*
X136381379Y-106972949D01*
X136206125Y-106903030D01*
X136200761Y-106900890D01*
X136195101Y-106899764D01*
X136195097Y-106899763D01*
X136010039Y-106862953D01*
X136010037Y-106862953D01*
X136004372Y-106861826D01*
X135998597Y-106861750D01*
X135998593Y-106861750D01*
X135898641Y-106860442D01*
X135804153Y-106859205D01*
X135798456Y-106860184D01*
X135798455Y-106860184D01*
X135612505Y-106892136D01*
X135606808Y-106893115D01*
X135418949Y-106962420D01*
X135246864Y-107064799D01*
X135242524Y-107068605D01*
X135242520Y-107068608D01*
X135128965Y-107168194D01*
X135096319Y-107196824D01*
X135092744Y-107201359D01*
X135092743Y-107201360D01*
X134976300Y-107349068D01*
X134972354Y-107354073D01*
X134969666Y-107359183D01*
X134969661Y-107359191D01*
X134881813Y-107526163D01*
X134879121Y-107531280D01*
X134877407Y-107536800D01*
X134861635Y-107587595D01*
X134819742Y-107722510D01*
X134796207Y-107921358D01*
X134809303Y-108121166D01*
X134858592Y-108315241D01*
X134942423Y-108497084D01*
X134945756Y-108501800D01*
X135039663Y-108634675D01*
X135057988Y-108660605D01*
X135201418Y-108800328D01*
X135367908Y-108911574D01*
X135373211Y-108913852D01*
X135373214Y-108913854D01*
X135443312Y-108943970D01*
X135551883Y-108990616D01*
X135747182Y-109034807D01*
X135752956Y-109035034D01*
X135752957Y-109035034D01*
X135794134Y-109036652D01*
X135947264Y-109042668D01*
X136145428Y-109013936D01*
X136331179Y-108950882D01*
X136402112Y-108947926D01*
X136460774Y-108981100D01*
X136741106Y-109261432D01*
X136775132Y-109323744D01*
X136778011Y-109350527D01*
X136778011Y-109539023D01*
X136758009Y-109607144D01*
X136704353Y-109653637D01*
X136634079Y-109663741D01*
X136566484Y-109631549D01*
X136556087Y-109621938D01*
X136386742Y-109515089D01*
X136381382Y-109512951D01*
X136381379Y-109512949D01*
X136206125Y-109443030D01*
X136200761Y-109440890D01*
X136195101Y-109439764D01*
X136195097Y-109439763D01*
X136010039Y-109402953D01*
X136010037Y-109402953D01*
X136004372Y-109401826D01*
X135998597Y-109401750D01*
X135998593Y-109401750D01*
X135898641Y-109400442D01*
X135804153Y-109399205D01*
X135798456Y-109400184D01*
X135798455Y-109400184D01*
X135612505Y-109432136D01*
X135606808Y-109433115D01*
X135418949Y-109502420D01*
X135246864Y-109604799D01*
X135242524Y-109608605D01*
X135242520Y-109608608D01*
X135154578Y-109685732D01*
X135090174Y-109715609D01*
X135019841Y-109705923D01*
X134965909Y-109659750D01*
X134945500Y-109591000D01*
X134945500Y-109239713D01*
X134945979Y-109228732D01*
X134948303Y-109202170D01*
X134948303Y-109202168D01*
X134949263Y-109191193D01*
X134939508Y-109154783D01*
X134937133Y-109144072D01*
X134930588Y-109106955D01*
X134925078Y-109097411D01*
X134923886Y-109094135D01*
X134922407Y-109090964D01*
X134919554Y-109080316D01*
X134897940Y-109049448D01*
X134892036Y-109040179D01*
X134878707Y-109017092D01*
X134878704Y-109017088D01*
X134873194Y-109007545D01*
X134844330Y-108983325D01*
X134836227Y-108975899D01*
X134381101Y-108520773D01*
X134347075Y-108458461D01*
X134350883Y-108391177D01*
X134412080Y-108210897D01*
X134412081Y-108210892D01*
X134413936Y-108205428D01*
X134442668Y-108007264D01*
X134444168Y-107950000D01*
X134425846Y-107750604D01*
X134371494Y-107557885D01*
X134282932Y-107378299D01*
X134272759Y-107364675D01*
X134197297Y-107263621D01*
X134163125Y-107217859D01*
X134042774Y-107106607D01*
X134020328Y-107085858D01*
X134020326Y-107085856D01*
X134016087Y-107081938D01*
X133846742Y-106975089D01*
X133841382Y-106972951D01*
X133841379Y-106972949D01*
X133666125Y-106903030D01*
X133660761Y-106900890D01*
X133655101Y-106899764D01*
X133655097Y-106899763D01*
X133470039Y-106862953D01*
X133470037Y-106862953D01*
X133464372Y-106861826D01*
X133458597Y-106861750D01*
X133458593Y-106861750D01*
X133358641Y-106860442D01*
X133264153Y-106859205D01*
X133258456Y-106860184D01*
X133258455Y-106860184D01*
X133072505Y-106892136D01*
X133066808Y-106893115D01*
X132878949Y-106962420D01*
X132706864Y-107064799D01*
X132702524Y-107068605D01*
X132702520Y-107068608D01*
X132588965Y-107168194D01*
X132556319Y-107196824D01*
X132552744Y-107201359D01*
X132552743Y-107201360D01*
X132436300Y-107349068D01*
X132432354Y-107354073D01*
X132429666Y-107359183D01*
X132429661Y-107359191D01*
X132341813Y-107526163D01*
X132339121Y-107531280D01*
X132337407Y-107536800D01*
X132321635Y-107587595D01*
X132279742Y-107722510D01*
X132256207Y-107921358D01*
X132269303Y-108121166D01*
X132318592Y-108315241D01*
X132402423Y-108497084D01*
X132405756Y-108501800D01*
X132499663Y-108634675D01*
X132517988Y-108660605D01*
X132661418Y-108800328D01*
X132827908Y-108911574D01*
X132833211Y-108913852D01*
X132833214Y-108913854D01*
X132903312Y-108943970D01*
X133011883Y-108990616D01*
X133207182Y-109034807D01*
X133212956Y-109035034D01*
X133212957Y-109035034D01*
X133254134Y-109036652D01*
X133407264Y-109042668D01*
X133605428Y-109013936D01*
X133610892Y-109012081D01*
X133610897Y-109012080D01*
X133791177Y-108950883D01*
X133862112Y-108947927D01*
X133920773Y-108981101D01*
X134257595Y-109317923D01*
X134291621Y-109380235D01*
X134294500Y-109407018D01*
X134294500Y-109591241D01*
X134274498Y-109659362D01*
X134220842Y-109705855D01*
X134150568Y-109715959D01*
X134082973Y-109683767D01*
X134016087Y-109621938D01*
X133846742Y-109515089D01*
X133841382Y-109512951D01*
X133841379Y-109512949D01*
X133666125Y-109443030D01*
X133660761Y-109440890D01*
X133655101Y-109439764D01*
X133655097Y-109439763D01*
X133470039Y-109402953D01*
X133470037Y-109402953D01*
X133464372Y-109401826D01*
X133458597Y-109401750D01*
X133458593Y-109401750D01*
X133358641Y-109400442D01*
X133264153Y-109399205D01*
X133258456Y-109400184D01*
X133258455Y-109400184D01*
X133072505Y-109432136D01*
X133066808Y-109433115D01*
X132878949Y-109502420D01*
X132706864Y-109604799D01*
X132702524Y-109608605D01*
X132702520Y-109608608D01*
X132614578Y-109685732D01*
X132550174Y-109715609D01*
X132479841Y-109705923D01*
X132425909Y-109659750D01*
X132405500Y-109591000D01*
X132405500Y-109239713D01*
X132405979Y-109228732D01*
X132408303Y-109202170D01*
X132408303Y-109202168D01*
X132409263Y-109191193D01*
X132399508Y-109154783D01*
X132397133Y-109144072D01*
X132390588Y-109106955D01*
X132385078Y-109097411D01*
X132383886Y-109094135D01*
X132382407Y-109090964D01*
X132379554Y-109080316D01*
X132357940Y-109049448D01*
X132352036Y-109040179D01*
X132338707Y-109017092D01*
X132338704Y-109017088D01*
X132333194Y-109007545D01*
X132304330Y-108983325D01*
X132296227Y-108975899D01*
X131841101Y-108520773D01*
X131807075Y-108458461D01*
X131810883Y-108391177D01*
X131872080Y-108210897D01*
X131872081Y-108210892D01*
X131873936Y-108205428D01*
X131902668Y-108007264D01*
X131904168Y-107950000D01*
X131885846Y-107750604D01*
X131831494Y-107557885D01*
X131742932Y-107378299D01*
X131732759Y-107364675D01*
X131657297Y-107263621D01*
X131623125Y-107217859D01*
X131502774Y-107106607D01*
X131480328Y-107085858D01*
X131480326Y-107085856D01*
X131476087Y-107081938D01*
X131306742Y-106975089D01*
X131301382Y-106972951D01*
X131301379Y-106972949D01*
X131126125Y-106903030D01*
X131120761Y-106900890D01*
X131115101Y-106899764D01*
X131115097Y-106899763D01*
X130924372Y-106861826D01*
X130924670Y-106860327D01*
X130865742Y-106836086D01*
X130825110Y-106777866D01*
X130822404Y-106706921D01*
X130855468Y-106648693D01*
X131731759Y-105772403D01*
X131794069Y-105738379D01*
X131820852Y-105735500D01*
X139839613Y-105735500D01*
X139907734Y-105755502D01*
X139954039Y-105808748D01*
X140022423Y-105957084D01*
X140025756Y-105961800D01*
X140128885Y-106107724D01*
X140137988Y-106120605D01*
X140281418Y-106260328D01*
X140447908Y-106371574D01*
X140453211Y-106373852D01*
X140453214Y-106373854D01*
X140510294Y-106398377D01*
X140564987Y-106443645D01*
X140586524Y-106511296D01*
X140568067Y-106579852D01*
X140515476Y-106627546D01*
X140499702Y-106633910D01*
X140431700Y-106656137D01*
X140422195Y-106660132D01*
X140227603Y-106761431D01*
X140218890Y-106766918D01*
X140191819Y-106787244D01*
X140183365Y-106798570D01*
X140190108Y-106810897D01*
X140957189Y-107577979D01*
X140971132Y-107585592D01*
X140972966Y-107585461D01*
X140979580Y-107581210D01*
X141751162Y-106809627D01*
X141758179Y-106796776D01*
X141750405Y-106786107D01*
X141749796Y-106785625D01*
X141741210Y-106779921D01*
X141549151Y-106673900D01*
X141539748Y-106669674D01*
X141440956Y-106634690D01*
X141383419Y-106593096D01*
X141357503Y-106526999D01*
X141371437Y-106457383D01*
X141421449Y-106405982D01*
X141584710Y-106314552D01*
X141589744Y-106311733D01*
X141743694Y-106183694D01*
X141871733Y-106029744D01*
X141969572Y-105855038D01*
X141994878Y-105780488D01*
X142032080Y-105670897D01*
X142032081Y-105670892D01*
X142033936Y-105665428D01*
X142062668Y-105467264D01*
X142064168Y-105410000D01*
X142045846Y-105210604D01*
X142040003Y-105189884D01*
X141993063Y-105023449D01*
X141991494Y-105017885D01*
X141902932Y-104838299D01*
X141895327Y-104828114D01*
X141786582Y-104682489D01*
X141783125Y-104677859D01*
X141662774Y-104566607D01*
X141640328Y-104545858D01*
X141640326Y-104545856D01*
X141636087Y-104541938D01*
X141518625Y-104467825D01*
X141471622Y-104438168D01*
X141466742Y-104435089D01*
X141461382Y-104432951D01*
X141461379Y-104432949D01*
X141286125Y-104363030D01*
X141280761Y-104360890D01*
X141275101Y-104359764D01*
X141275097Y-104359763D01*
X141090039Y-104322953D01*
X141090037Y-104322953D01*
X141084372Y-104321826D01*
X141078597Y-104321750D01*
X141078593Y-104321750D01*
X140978641Y-104320442D01*
X140884153Y-104319205D01*
X140878456Y-104320184D01*
X140878455Y-104320184D01*
X140692505Y-104352136D01*
X140686808Y-104353115D01*
X140498949Y-104422420D01*
X140326864Y-104524799D01*
X140322524Y-104528605D01*
X140322520Y-104528608D01*
X140205828Y-104630945D01*
X140176319Y-104656824D01*
X140172744Y-104661359D01*
X140172743Y-104661360D01*
X140126484Y-104720040D01*
X140052354Y-104814073D01*
X140049663Y-104819189D01*
X140049661Y-104819191D01*
X139964153Y-104981716D01*
X139959121Y-104991280D01*
X139957407Y-104996799D01*
X139955197Y-105002135D01*
X139953891Y-105001594D01*
X139918388Y-105054995D01*
X139853357Y-105083481D01*
X139837365Y-105084500D01*
X131653545Y-105084500D01*
X131642563Y-105084020D01*
X131616010Y-105081697D01*
X131616005Y-105081697D01*
X131605028Y-105080737D01*
X131568618Y-105090492D01*
X131557911Y-105092866D01*
X131520790Y-105099412D01*
X131511246Y-105104922D01*
X131507970Y-105106114D01*
X131504799Y-105107593D01*
X131494151Y-105110446D01*
X131485122Y-105116768D01*
X131463284Y-105132059D01*
X131454014Y-105137964D01*
X131430927Y-105151293D01*
X131430923Y-105151296D01*
X131421380Y-105156806D01*
X131414294Y-105165250D01*
X131414295Y-105165250D01*
X131397155Y-105185677D01*
X131389727Y-105193782D01*
X129434900Y-107148609D01*
X129420952Y-107158328D01*
X129419901Y-107159310D01*
X129240579Y-107338632D01*
X129240529Y-107338678D01*
X129238765Y-107340781D01*
X129233477Y-107345217D01*
X129233171Y-107345421D01*
X129232487Y-107346048D01*
X129230317Y-107347869D01*
X129230317Y-107347870D01*
X129230021Y-107347517D01*
X129227691Y-107349068D01*
X129228917Y-107350294D01*
X128270000Y-108309210D01*
X127488224Y-109090987D01*
X127481465Y-109103366D01*
X127486746Y-109110420D01*
X127659846Y-109211571D01*
X127669132Y-109216021D01*
X127800813Y-109266304D01*
X127857316Y-109309291D01*
X127881609Y-109376002D01*
X127865979Y-109445257D01*
X127815388Y-109495067D01*
X127809483Y-109497723D01*
X127809583Y-109497933D01*
X127804365Y-109500422D01*
X127798949Y-109502420D01*
X127626864Y-109604799D01*
X127622524Y-109608605D01*
X127622520Y-109608608D01*
X127534578Y-109685732D01*
X127476319Y-109736824D01*
X127352354Y-109894073D01*
X127278630Y-110034199D01*
X127229214Y-110085168D01*
X127160082Y-110101331D01*
X127093186Y-110077553D01*
X127051575Y-110025771D01*
X126967459Y-109832319D01*
X126962595Y-109823246D01*
X126891268Y-109712993D01*
X126880582Y-109703791D01*
X126871017Y-109708194D01*
X125730000Y-110849210D01*
X124948223Y-111630988D01*
X124941464Y-111643365D01*
X124946746Y-111650420D01*
X125119846Y-111751571D01*
X125129132Y-111756021D01*
X125334083Y-111834283D01*
X125343981Y-111837159D01*
X125558962Y-111880897D01*
X125569190Y-111882116D01*
X125788425Y-111890156D01*
X125798711Y-111889689D01*
X126016320Y-111861813D01*
X126026402Y-111859670D01*
X126138574Y-111826017D01*
X126209569Y-111825601D01*
X126269520Y-111863633D01*
X126299391Y-111928040D01*
X126289700Y-111998372D01*
X126263876Y-112035798D01*
X124362079Y-113937595D01*
X124299767Y-113971621D01*
X124272984Y-113974500D01*
X116139286Y-113974500D01*
X116071165Y-113954498D01*
X116039323Y-113925204D01*
X116003305Y-113878264D01*
X115998282Y-113871718D01*
X115991736Y-113866695D01*
X115991734Y-113866693D01*
X115957220Y-113840210D01*
X115915352Y-113782873D01*
X115911130Y-113712002D01*
X115945893Y-113650099D01*
X116008605Y-113616817D01*
X116050369Y-113615325D01*
X116196812Y-113634604D01*
X116205000Y-113635682D01*
X116213188Y-113634604D01*
X116353574Y-113616122D01*
X116361762Y-113615044D01*
X116507841Y-113554536D01*
X116633282Y-113458282D01*
X116674323Y-113404796D01*
X116731661Y-113362929D01*
X116774286Y-113355500D01*
X120630290Y-113355500D01*
X120641272Y-113355980D01*
X120667820Y-113358303D01*
X120667822Y-113358303D01*
X120678807Y-113359264D01*
X120715215Y-113349508D01*
X120725942Y-113347130D01*
X120729301Y-113346538D01*
X120763045Y-113340588D01*
X120772590Y-113335077D01*
X120775866Y-113333885D01*
X120779034Y-113332408D01*
X120789684Y-113329554D01*
X120820544Y-113307945D01*
X120829815Y-113302039D01*
X120852906Y-113288707D01*
X120862455Y-113283194D01*
X120886685Y-113254317D01*
X120894111Y-113246215D01*
X124183502Y-109956824D01*
X124245814Y-109922798D01*
X124316629Y-109927863D01*
X124373465Y-109970410D01*
X124398276Y-110036930D01*
X124394014Y-110079591D01*
X124354424Y-110222347D01*
X124352493Y-110232468D01*
X124329178Y-110450619D01*
X124328927Y-110460907D01*
X124341557Y-110679932D01*
X124342990Y-110690134D01*
X124391219Y-110904143D01*
X124394302Y-110913983D01*
X124476837Y-111117240D01*
X124481490Y-111126451D01*
X124568098Y-111267780D01*
X124578555Y-111277241D01*
X124587331Y-111273458D01*
X125730000Y-110130790D01*
X126511160Y-109349629D01*
X126518178Y-109336776D01*
X126510404Y-109326106D01*
X126509796Y-109325625D01*
X126501210Y-109319921D01*
X126309151Y-109213900D01*
X126299748Y-109209674D01*
X126200956Y-109174690D01*
X126143419Y-109133096D01*
X126117503Y-109066999D01*
X126131437Y-108997383D01*
X126181449Y-108945982D01*
X126309094Y-108874498D01*
X126349744Y-108851733D01*
X126503694Y-108723694D01*
X126631733Y-108569744D01*
X126725139Y-108402954D01*
X126775876Y-108353292D01*
X126845408Y-108338944D01*
X126911659Y-108364466D01*
X126951817Y-108417116D01*
X127016837Y-108577240D01*
X127021490Y-108586451D01*
X127108098Y-108727780D01*
X127118555Y-108737241D01*
X127127331Y-108733458D01*
X128270000Y-107590790D01*
X129051160Y-106809629D01*
X129058178Y-106796776D01*
X129050404Y-106786106D01*
X129049796Y-106785625D01*
X129041210Y-106779921D01*
X128849151Y-106673900D01*
X128839748Y-106669674D01*
X128740956Y-106634690D01*
X128683419Y-106593096D01*
X128657503Y-106526999D01*
X128671437Y-106457383D01*
X128721449Y-106405982D01*
X128884710Y-106314552D01*
X128889744Y-106311733D01*
X129043694Y-106183694D01*
X129171733Y-106029744D01*
X129269572Y-105855038D01*
X129294878Y-105780488D01*
X129332080Y-105670897D01*
X129332081Y-105670892D01*
X129333936Y-105665428D01*
X129362668Y-105467264D01*
X129364168Y-105410000D01*
X129345846Y-105210604D01*
X129340003Y-105189884D01*
X129293063Y-105023449D01*
X129291494Y-105017885D01*
X129202932Y-104838299D01*
X129195327Y-104828114D01*
X129086582Y-104682489D01*
X129083125Y-104677859D01*
X128962774Y-104566607D01*
X128940328Y-104545858D01*
X128940326Y-104545856D01*
X128936087Y-104541938D01*
X128818625Y-104467825D01*
X128771622Y-104438168D01*
X128766742Y-104435089D01*
X128761382Y-104432951D01*
X128761379Y-104432949D01*
X128586125Y-104363030D01*
X128580761Y-104360890D01*
X128575101Y-104359764D01*
X128575097Y-104359763D01*
X128390039Y-104322953D01*
X128390037Y-104322953D01*
X128384372Y-104321826D01*
X128378597Y-104321750D01*
X128378593Y-104321750D01*
X128278641Y-104320442D01*
X128184153Y-104319205D01*
X128178456Y-104320184D01*
X128178455Y-104320184D01*
X127992505Y-104352136D01*
X127986808Y-104353115D01*
X127798949Y-104422420D01*
X127626864Y-104524799D01*
X127622524Y-104528605D01*
X127622520Y-104528608D01*
X127505828Y-104630945D01*
X127476319Y-104656824D01*
X127472744Y-104661359D01*
X127472743Y-104661360D01*
X127426484Y-104720040D01*
X127352354Y-104814073D01*
X127349663Y-104819189D01*
X127349661Y-104819191D01*
X127264153Y-104981716D01*
X127259121Y-104991280D01*
X127257407Y-104996800D01*
X127215408Y-105132059D01*
X127199742Y-105182510D01*
X127176207Y-105381358D01*
X127189303Y-105581166D01*
X127238592Y-105775241D01*
X127241011Y-105780488D01*
X127266778Y-105836381D01*
X127277133Y-105906618D01*
X127247870Y-105971304D01*
X127241447Y-105978227D01*
X126958568Y-106261106D01*
X126896256Y-106295132D01*
X126869473Y-106298011D01*
X126677293Y-106298011D01*
X126609172Y-106278009D01*
X126562679Y-106224353D01*
X126552575Y-106154079D01*
X126580418Y-106091444D01*
X126631733Y-106029744D01*
X126729572Y-105855038D01*
X126754878Y-105780488D01*
X126792080Y-105670897D01*
X126792081Y-105670892D01*
X126793936Y-105665428D01*
X126822668Y-105467264D01*
X126824168Y-105410000D01*
X126805846Y-105210604D01*
X126800003Y-105189884D01*
X126753063Y-105023449D01*
X126751494Y-105017885D01*
X126662932Y-104838299D01*
X126655327Y-104828114D01*
X126546582Y-104682489D01*
X126543125Y-104677859D01*
X126488685Y-104627535D01*
X126452240Y-104566607D01*
X126454521Y-104495647D01*
X126494803Y-104437185D01*
X126560298Y-104409782D01*
X126574214Y-104409011D01*
X127036779Y-104409011D01*
X127047761Y-104409491D01*
X127074309Y-104411814D01*
X127074311Y-104411814D01*
X127085296Y-104412775D01*
X127121704Y-104403019D01*
X127132431Y-104400641D01*
X127135790Y-104400049D01*
X127169534Y-104394099D01*
X127179079Y-104388588D01*
X127182355Y-104387396D01*
X127185523Y-104385919D01*
X127196173Y-104383065D01*
X127227033Y-104361456D01*
X127236304Y-104355550D01*
X127259395Y-104342218D01*
X127268944Y-104336705D01*
X127293174Y-104307828D01*
X127300600Y-104299726D01*
X127702109Y-103898217D01*
X127764421Y-103864191D01*
X127840942Y-103871545D01*
X127926573Y-103908335D01*
X127926576Y-103908336D01*
X127931883Y-103910616D01*
X128127182Y-103954807D01*
X128132956Y-103955034D01*
X128132957Y-103955034D01*
X128174134Y-103956652D01*
X128327264Y-103962668D01*
X128525428Y-103933936D01*
X128530892Y-103932081D01*
X128530897Y-103932080D01*
X128669485Y-103885035D01*
X128715038Y-103869572D01*
X128889744Y-103771733D01*
X129043694Y-103643694D01*
X129171733Y-103489744D01*
X129269572Y-103315038D01*
X129294878Y-103240488D01*
X129332080Y-103130897D01*
X129332081Y-103130892D01*
X129333936Y-103125428D01*
X129362668Y-102927264D01*
X129364168Y-102870000D01*
X129345846Y-102670604D01*
X129291494Y-102477885D01*
X129202932Y-102298299D01*
X129184842Y-102274073D01*
X129086582Y-102142489D01*
X129083125Y-102137859D01*
X129027333Y-102086285D01*
X128940328Y-102005858D01*
X128940326Y-102005856D01*
X128936087Y-102001938D01*
X128766742Y-101895089D01*
X128761382Y-101892951D01*
X128761379Y-101892949D01*
X128586125Y-101823030D01*
X128586122Y-101823029D01*
X128580761Y-101820890D01*
X128575101Y-101819764D01*
X128575097Y-101819763D01*
X128390039Y-101782953D01*
X128390037Y-101782953D01*
X128384372Y-101781826D01*
X128378597Y-101781750D01*
X128378593Y-101781750D01*
X128278641Y-101780442D01*
X128184153Y-101779205D01*
X128178456Y-101780184D01*
X128178455Y-101780184D01*
X127992505Y-101812136D01*
X127986808Y-101813115D01*
X127798949Y-101882420D01*
X127626864Y-101984799D01*
X127622524Y-101988605D01*
X127622520Y-101988608D01*
X127500844Y-102095316D01*
X127476319Y-102116824D01*
X127472744Y-102121359D01*
X127472743Y-102121360D01*
X127367619Y-102254710D01*
X127352354Y-102274073D01*
X127349663Y-102279189D01*
X127349661Y-102279191D01*
X127264152Y-102441718D01*
X127259121Y-102451280D01*
X127199742Y-102642510D01*
X127176207Y-102841358D01*
X127189303Y-103041166D01*
X127238592Y-103235241D01*
X127264637Y-103291736D01*
X127266778Y-103296381D01*
X127277133Y-103366618D01*
X127247870Y-103431304D01*
X127241447Y-103438227D01*
X126958568Y-103721106D01*
X126896256Y-103755132D01*
X126869473Y-103758011D01*
X126677293Y-103758011D01*
X126609172Y-103738009D01*
X126562679Y-103684353D01*
X126552575Y-103614079D01*
X126580418Y-103551444D01*
X126631733Y-103489744D01*
X126729572Y-103315038D01*
X126754878Y-103240488D01*
X126792080Y-103130897D01*
X126792081Y-103130892D01*
X126793936Y-103125428D01*
X126822668Y-102927264D01*
X126824168Y-102870000D01*
X126805846Y-102670604D01*
X126751494Y-102477885D01*
X126662932Y-102298299D01*
X126644842Y-102274073D01*
X126546582Y-102142489D01*
X126543125Y-102137859D01*
X126488685Y-102087535D01*
X126452240Y-102026607D01*
X126454521Y-101955647D01*
X126494803Y-101897185D01*
X126560298Y-101869782D01*
X126574214Y-101869011D01*
X127036779Y-101869011D01*
X127047761Y-101869491D01*
X127074309Y-101871814D01*
X127074311Y-101871814D01*
X127085296Y-101872775D01*
X127121704Y-101863019D01*
X127132431Y-101860641D01*
X127135790Y-101860049D01*
X127169534Y-101854099D01*
X127179079Y-101848588D01*
X127182355Y-101847396D01*
X127185523Y-101845919D01*
X127196173Y-101843065D01*
X127227033Y-101821456D01*
X127236304Y-101815550D01*
X127259395Y-101802218D01*
X127268944Y-101796705D01*
X127293174Y-101767828D01*
X127300600Y-101759726D01*
X127702109Y-101358217D01*
X127764421Y-101324191D01*
X127840942Y-101331545D01*
X127926573Y-101368335D01*
X127926576Y-101368336D01*
X127931883Y-101370616D01*
X128127182Y-101414807D01*
X128132956Y-101415034D01*
X128132957Y-101415034D01*
X128174134Y-101416652D01*
X128327264Y-101422668D01*
X128525428Y-101393936D01*
X128530892Y-101392081D01*
X128530897Y-101392080D01*
X128693215Y-101336980D01*
X128715038Y-101329572D01*
X128889744Y-101231733D01*
X129043694Y-101103694D01*
X129171733Y-100949744D01*
X129269572Y-100775038D01*
X129294878Y-100700488D01*
X129332080Y-100590897D01*
X129332081Y-100590892D01*
X129333936Y-100585428D01*
X129362668Y-100387264D01*
X129364168Y-100330000D01*
X129361536Y-100301358D01*
X139876207Y-100301358D01*
X139889303Y-100501166D01*
X139938592Y-100695241D01*
X140022423Y-100877084D01*
X140137988Y-101040605D01*
X140281418Y-101180328D01*
X140447908Y-101291574D01*
X140453211Y-101293852D01*
X140453214Y-101293854D01*
X140493093Y-101310987D01*
X140631883Y-101370616D01*
X140827182Y-101414807D01*
X140832956Y-101415034D01*
X140832957Y-101415034D01*
X140874134Y-101416652D01*
X141027264Y-101422668D01*
X141225428Y-101393936D01*
X141230892Y-101392081D01*
X141230897Y-101392080D01*
X141393215Y-101336980D01*
X141415038Y-101329572D01*
X141589744Y-101231733D01*
X141743694Y-101103694D01*
X141871733Y-100949744D01*
X141969572Y-100775038D01*
X141994878Y-100700488D01*
X142032080Y-100590897D01*
X142032081Y-100590892D01*
X142033936Y-100585428D01*
X142062668Y-100387264D01*
X142064168Y-100330000D01*
X142045846Y-100130604D01*
X141991494Y-99937885D01*
X141902932Y-99758299D01*
X141884842Y-99734073D01*
X141786582Y-99602489D01*
X141783125Y-99597859D01*
X141636087Y-99461938D01*
X141466742Y-99355089D01*
X141461382Y-99352951D01*
X141461379Y-99352949D01*
X141286125Y-99283030D01*
X141280761Y-99280890D01*
X141275101Y-99279764D01*
X141275097Y-99279763D01*
X141090039Y-99242953D01*
X141090037Y-99242953D01*
X141084372Y-99241826D01*
X141078597Y-99241750D01*
X141078593Y-99241750D01*
X140978641Y-99240442D01*
X140884153Y-99239205D01*
X140878456Y-99240184D01*
X140878455Y-99240184D01*
X140692505Y-99272136D01*
X140686808Y-99273115D01*
X140498949Y-99342420D01*
X140326864Y-99444799D01*
X140322524Y-99448605D01*
X140322520Y-99448608D01*
X140180660Y-99573017D01*
X140176319Y-99576824D01*
X140052354Y-99734073D01*
X139959121Y-99911280D01*
X139957407Y-99916800D01*
X139905323Y-100084538D01*
X139899742Y-100102510D01*
X139876207Y-100301358D01*
X129361536Y-100301358D01*
X129345846Y-100130604D01*
X129291494Y-99937885D01*
X129202932Y-99758299D01*
X129184842Y-99734073D01*
X129086582Y-99602489D01*
X129083125Y-99597859D01*
X128936087Y-99461938D01*
X128766742Y-99355089D01*
X128761382Y-99352951D01*
X128761379Y-99352949D01*
X128586125Y-99283030D01*
X128580761Y-99280890D01*
X128575101Y-99279764D01*
X128575097Y-99279763D01*
X128390039Y-99242953D01*
X128390037Y-99242953D01*
X128384372Y-99241826D01*
X128378597Y-99241750D01*
X128378593Y-99241750D01*
X128278641Y-99240442D01*
X128184153Y-99239205D01*
X128178456Y-99240184D01*
X128178455Y-99240184D01*
X127992505Y-99272136D01*
X127986808Y-99273115D01*
X127798949Y-99342420D01*
X127626864Y-99444799D01*
X127622524Y-99448605D01*
X127622520Y-99448608D01*
X127480660Y-99573017D01*
X127476319Y-99576824D01*
X127352354Y-99734073D01*
X127259121Y-99911280D01*
X127257407Y-99916800D01*
X127205323Y-100084538D01*
X127199742Y-100102510D01*
X127176207Y-100301358D01*
X127189303Y-100501166D01*
X127238592Y-100695241D01*
X127241011Y-100700488D01*
X127266778Y-100756381D01*
X127277133Y-100826618D01*
X127247870Y-100891304D01*
X127241447Y-100898227D01*
X126958568Y-101181106D01*
X126896256Y-101215132D01*
X126869473Y-101218011D01*
X126677293Y-101218011D01*
X126609172Y-101198009D01*
X126562679Y-101144353D01*
X126552575Y-101074079D01*
X126580418Y-101011444D01*
X126631733Y-100949744D01*
X126729572Y-100775038D01*
X126754878Y-100700488D01*
X126792080Y-100590897D01*
X126792081Y-100590892D01*
X126793936Y-100585428D01*
X126822668Y-100387264D01*
X126824168Y-100330000D01*
X126805846Y-100130604D01*
X126751494Y-99937885D01*
X126662932Y-99758299D01*
X126644842Y-99734073D01*
X126546582Y-99602489D01*
X126543125Y-99597859D01*
X126488685Y-99547535D01*
X126452240Y-99486607D01*
X126454521Y-99415647D01*
X126494803Y-99357185D01*
X126560298Y-99329782D01*
X126574214Y-99329011D01*
X127036779Y-99329011D01*
X127047761Y-99329491D01*
X127074309Y-99331814D01*
X127074311Y-99331814D01*
X127085296Y-99332775D01*
X127121704Y-99323019D01*
X127132431Y-99320641D01*
X127135790Y-99320049D01*
X127169534Y-99314099D01*
X127179079Y-99308588D01*
X127182355Y-99307396D01*
X127185523Y-99305919D01*
X127196173Y-99303065D01*
X127227033Y-99281456D01*
X127236304Y-99275550D01*
X127259395Y-99262218D01*
X127268944Y-99256705D01*
X127293174Y-99227828D01*
X127300600Y-99219726D01*
X127702109Y-98818217D01*
X127764421Y-98784191D01*
X127840942Y-98791545D01*
X127926573Y-98828335D01*
X127926576Y-98828336D01*
X127931883Y-98830616D01*
X128127182Y-98874807D01*
X128132956Y-98875034D01*
X128132957Y-98875034D01*
X128174134Y-98876652D01*
X128327264Y-98882668D01*
X128525428Y-98853936D01*
X128530892Y-98852081D01*
X128530897Y-98852080D01*
X128669485Y-98805035D01*
X128715038Y-98789572D01*
X128889744Y-98691733D01*
X129043694Y-98563694D01*
X129171733Y-98409744D01*
X129269572Y-98235038D01*
X129294880Y-98160483D01*
X129332080Y-98050897D01*
X129332081Y-98050892D01*
X129333936Y-98045428D01*
X129362668Y-97847264D01*
X129364168Y-97790000D01*
X129345846Y-97590604D01*
X129291494Y-97397885D01*
X129202932Y-97218299D01*
X129184842Y-97194073D01*
X129117116Y-97103378D01*
X129092384Y-97036828D01*
X129107558Y-96967472D01*
X129157820Y-96917330D01*
X129218074Y-96901989D01*
X140022839Y-96901989D01*
X140090960Y-96921991D01*
X140137453Y-96975647D01*
X140147557Y-97045921D01*
X140121789Y-97105995D01*
X140052354Y-97194073D01*
X140049663Y-97199189D01*
X140049661Y-97199191D01*
X140036882Y-97223480D01*
X139959121Y-97371280D01*
X139899742Y-97562510D01*
X139876207Y-97761358D01*
X139889303Y-97961166D01*
X139938592Y-98155241D01*
X140022423Y-98337084D01*
X140137988Y-98500605D01*
X140281418Y-98640328D01*
X140447908Y-98751574D01*
X140453211Y-98753852D01*
X140453214Y-98753854D01*
X140523826Y-98784191D01*
X140631883Y-98830616D01*
X140827182Y-98874807D01*
X140832956Y-98875034D01*
X140832957Y-98875034D01*
X140874134Y-98876652D01*
X141027264Y-98882668D01*
X141225428Y-98853936D01*
X141230892Y-98852081D01*
X141230897Y-98852080D01*
X141369485Y-98805035D01*
X141415038Y-98789572D01*
X141589744Y-98691733D01*
X141743694Y-98563694D01*
X141871733Y-98409744D01*
X141969572Y-98235038D01*
X141994880Y-98160483D01*
X142032080Y-98050897D01*
X142032081Y-98050892D01*
X142033936Y-98045428D01*
X142062668Y-97847264D01*
X142064168Y-97790000D01*
X142045846Y-97590604D01*
X141991494Y-97397885D01*
X141902932Y-97218299D01*
X141884842Y-97194073D01*
X141817116Y-97103378D01*
X141792384Y-97036828D01*
X141807558Y-96967472D01*
X141857820Y-96917330D01*
X141918074Y-96901989D01*
X142109473Y-96901989D01*
X142177594Y-96921991D01*
X142198568Y-96938894D01*
X142478943Y-97219269D01*
X142512969Y-97281581D01*
X142507904Y-97352396D01*
X142502665Y-97364107D01*
X142501814Y-97366162D01*
X142499121Y-97371280D01*
X142439742Y-97562510D01*
X142416207Y-97761358D01*
X142429303Y-97961166D01*
X142478592Y-98155241D01*
X142562423Y-98337084D01*
X142677988Y-98500605D01*
X142821418Y-98640328D01*
X142987908Y-98751574D01*
X142993211Y-98753852D01*
X142993214Y-98753854D01*
X143063826Y-98784191D01*
X143171883Y-98830616D01*
X143367182Y-98874807D01*
X143372956Y-98875034D01*
X143372957Y-98875034D01*
X143414134Y-98876652D01*
X143567264Y-98882668D01*
X143765428Y-98853936D01*
X143770892Y-98852081D01*
X143770897Y-98852080D01*
X143909485Y-98805035D01*
X143955038Y-98789572D01*
X144129744Y-98691733D01*
X144283694Y-98563694D01*
X144411733Y-98409744D01*
X144509572Y-98235038D01*
X144534880Y-98160483D01*
X144572080Y-98050897D01*
X144572081Y-98050892D01*
X144573936Y-98045428D01*
X144602668Y-97847264D01*
X144604168Y-97790000D01*
X144585846Y-97590604D01*
X144531494Y-97397885D01*
X144442932Y-97218299D01*
X144424842Y-97194073D01*
X144326582Y-97062489D01*
X144323125Y-97057859D01*
X144176087Y-96921938D01*
X144006742Y-96815089D01*
X144001382Y-96812951D01*
X144001379Y-96812949D01*
X143826125Y-96743030D01*
X143820761Y-96740890D01*
X143815101Y-96739764D01*
X143815097Y-96739763D01*
X143630039Y-96702953D01*
X143630037Y-96702953D01*
X143624372Y-96701826D01*
X143618597Y-96701750D01*
X143618593Y-96701750D01*
X143518641Y-96700442D01*
X143424153Y-96699205D01*
X143418456Y-96700184D01*
X143418455Y-96700184D01*
X143232505Y-96732136D01*
X143226808Y-96733115D01*
X143073563Y-96789650D01*
X143002732Y-96794462D01*
X142940859Y-96760533D01*
X142540600Y-96360274D01*
X142533173Y-96352170D01*
X142516030Y-96331740D01*
X142516031Y-96331740D01*
X142508944Y-96323295D01*
X142494168Y-96314764D01*
X142476304Y-96304450D01*
X142467033Y-96298544D01*
X142455711Y-96290616D01*
X142436173Y-96276935D01*
X142425523Y-96274081D01*
X142422355Y-96272604D01*
X142419079Y-96271412D01*
X142409534Y-96265901D01*
X142375790Y-96259951D01*
X142372431Y-96259359D01*
X142361704Y-96256981D01*
X142325296Y-96247225D01*
X142314311Y-96248186D01*
X142314309Y-96248186D01*
X142287761Y-96250509D01*
X142276779Y-96250989D01*
X142216771Y-96250989D01*
X142148650Y-96230987D01*
X142102157Y-96177331D01*
X142092053Y-96107057D01*
X142114449Y-96051463D01*
X142168544Y-95976182D01*
X142173860Y-95967335D01*
X142271056Y-95770675D01*
X142274854Y-95761082D01*
X142286197Y-95723748D01*
X142325138Y-95664384D01*
X142389992Y-95635496D01*
X142460169Y-95646257D01*
X142513387Y-95693250D01*
X142521180Y-95707622D01*
X142562423Y-95797084D01*
X142677988Y-95960605D01*
X142821418Y-96100328D01*
X142987908Y-96211574D01*
X142993211Y-96213852D01*
X142993214Y-96213854D01*
X143065088Y-96244733D01*
X143171883Y-96290616D01*
X143367182Y-96334807D01*
X143372956Y-96335034D01*
X143372957Y-96335034D01*
X143414134Y-96336652D01*
X143567264Y-96342668D01*
X143765428Y-96313936D01*
X143770892Y-96312081D01*
X143770897Y-96312080D01*
X143949570Y-96251428D01*
X143955038Y-96249572D01*
X144129744Y-96151733D01*
X144283694Y-96023694D01*
X144411733Y-95869744D01*
X144509572Y-95695038D01*
X144534878Y-95620488D01*
X144572080Y-95510897D01*
X144572081Y-95510892D01*
X144573936Y-95505428D01*
X144602668Y-95307264D01*
X144604168Y-95250000D01*
X144585846Y-95050604D01*
X144531494Y-94857885D01*
X144442932Y-94678299D01*
X144424842Y-94654073D01*
X144326582Y-94522489D01*
X144323125Y-94517859D01*
X144176087Y-94381938D01*
X144006742Y-94275089D01*
X144001382Y-94272951D01*
X144001377Y-94272948D01*
X143976763Y-94263128D01*
X143920905Y-94219307D01*
X143897605Y-94152243D01*
X143914262Y-94083228D01*
X143965586Y-94034174D01*
X143987249Y-94025413D01*
X144016521Y-94016631D01*
X144026125Y-94012868D01*
X144223138Y-93916352D01*
X144231983Y-93911079D01*
X144287209Y-93871686D01*
X144295609Y-93860987D01*
X144288622Y-93847833D01*
X143522811Y-93082021D01*
X143508868Y-93074408D01*
X143507034Y-93074539D01*
X143500420Y-93078790D01*
X142728221Y-93850990D01*
X142721464Y-93863365D01*
X142726745Y-93870420D01*
X142899846Y-93971571D01*
X142909132Y-93976021D01*
X143040813Y-94026304D01*
X143097316Y-94069291D01*
X143121609Y-94136002D01*
X143105979Y-94205257D01*
X143055388Y-94255067D01*
X143049483Y-94257723D01*
X143049583Y-94257933D01*
X143044365Y-94260422D01*
X143038949Y-94262420D01*
X142866864Y-94364799D01*
X142862524Y-94368605D01*
X142862520Y-94368608D01*
X142753986Y-94463791D01*
X142716319Y-94496824D01*
X142592354Y-94654073D01*
X142518630Y-94794199D01*
X142469214Y-94845168D01*
X142400082Y-94861331D01*
X142333186Y-94837553D01*
X142291575Y-94785771D01*
X142207459Y-94592319D01*
X142202595Y-94583246D01*
X142131268Y-94472993D01*
X142120582Y-94463791D01*
X142111017Y-94468194D01*
X141059095Y-95520115D01*
X140996783Y-95554141D01*
X140925967Y-95549076D01*
X140880905Y-95520115D01*
X140699885Y-95339095D01*
X140665859Y-95276783D01*
X140670924Y-95205968D01*
X140699885Y-95160905D01*
X141751158Y-94109631D01*
X141758178Y-94096775D01*
X141750405Y-94086107D01*
X141749796Y-94085625D01*
X141741210Y-94079921D01*
X141549151Y-93973900D01*
X141539748Y-93969674D01*
X141440956Y-93934690D01*
X141383419Y-93893096D01*
X141357503Y-93826999D01*
X141371437Y-93757383D01*
X141421449Y-93705982D01*
X141584710Y-93614552D01*
X141589744Y-93611733D01*
X141743694Y-93483694D01*
X141871733Y-93329744D01*
X141965139Y-93162954D01*
X142015876Y-93113292D01*
X142085408Y-93098944D01*
X142151659Y-93124466D01*
X142191817Y-93177116D01*
X142256837Y-93337240D01*
X142261490Y-93346451D01*
X142348098Y-93487780D01*
X142358555Y-93497241D01*
X142367331Y-93493458D01*
X143137979Y-92722811D01*
X143144356Y-92711132D01*
X143874408Y-92711132D01*
X143874539Y-92712966D01*
X143878790Y-92719580D01*
X144648425Y-93489214D01*
X144660431Y-93495770D01*
X144672170Y-93486802D01*
X144708549Y-93436174D01*
X144713860Y-93427335D01*
X144811056Y-93230675D01*
X144814854Y-93221082D01*
X144878628Y-93011177D01*
X144880805Y-93001107D01*
X144909677Y-92781799D01*
X144910196Y-92775124D01*
X144911706Y-92713364D01*
X144911512Y-92706646D01*
X144893389Y-92486203D01*
X144891706Y-92476041D01*
X144838261Y-92263263D01*
X144834943Y-92253516D01*
X144747462Y-92052323D01*
X144742595Y-92043246D01*
X144671268Y-91932993D01*
X144660582Y-91923791D01*
X144651017Y-91928194D01*
X143882021Y-92697189D01*
X143874408Y-92711132D01*
X143144356Y-92711132D01*
X143145592Y-92708868D01*
X143145461Y-92707034D01*
X143141210Y-92700420D01*
X142371778Y-91930989D01*
X142360246Y-91924692D01*
X142347964Y-91934315D01*
X142294064Y-92013329D01*
X142288976Y-92022285D01*
X142196611Y-92221270D01*
X142191267Y-92235797D01*
X142189947Y-92235311D01*
X142155891Y-92290110D01*
X142091764Y-92320577D01*
X142021345Y-92311538D01*
X141966992Y-92265862D01*
X141958941Y-92251874D01*
X141948626Y-92230957D01*
X141902932Y-92138299D01*
X141884842Y-92114073D01*
X141831952Y-92043246D01*
X141783125Y-91977859D01*
X141733061Y-91931580D01*
X141640328Y-91845858D01*
X141640326Y-91845856D01*
X141636087Y-91841938D01*
X141466742Y-91735089D01*
X141461382Y-91732951D01*
X141461379Y-91732949D01*
X141286125Y-91663030D01*
X141280761Y-91660890D01*
X141275101Y-91659764D01*
X141275097Y-91659763D01*
X141090039Y-91622953D01*
X141090037Y-91622953D01*
X141084372Y-91621826D01*
X141078597Y-91621750D01*
X141078593Y-91621750D01*
X140978641Y-91620442D01*
X140884153Y-91619205D01*
X140878456Y-91620184D01*
X140878455Y-91620184D01*
X140692505Y-91652136D01*
X140686808Y-91653115D01*
X140498949Y-91722420D01*
X140326864Y-91824799D01*
X140322521Y-91828608D01*
X140322514Y-91828613D01*
X140291066Y-91856192D01*
X140226662Y-91886069D01*
X140156329Y-91876383D01*
X140102398Y-91830210D01*
X140081989Y-91761460D01*
X140081989Y-91558570D01*
X142723365Y-91558570D01*
X142730108Y-91570897D01*
X143497189Y-92337979D01*
X143511132Y-92345592D01*
X143512966Y-92345461D01*
X143519580Y-92341210D01*
X144291162Y-91569627D01*
X144298179Y-91556776D01*
X144290405Y-91546107D01*
X144289796Y-91545625D01*
X144281210Y-91539921D01*
X144089151Y-91433900D01*
X144079752Y-91429675D01*
X143872950Y-91356443D01*
X143862993Y-91353813D01*
X143647008Y-91315339D01*
X143636757Y-91314370D01*
X143417386Y-91311690D01*
X143407102Y-91312410D01*
X143190251Y-91345592D01*
X143180224Y-91347981D01*
X142971704Y-91416135D01*
X142962195Y-91420132D01*
X142767603Y-91521431D01*
X142758890Y-91526918D01*
X142731819Y-91547244D01*
X142723365Y-91558570D01*
X140081989Y-91558570D01*
X140081989Y-87760527D01*
X140101991Y-87692406D01*
X140118894Y-87671432D01*
X142969122Y-84821205D01*
X143031434Y-84787179D01*
X143097153Y-84790467D01*
X143277471Y-84849056D01*
X143277475Y-84849057D01*
X143283329Y-84850959D01*
X143487894Y-84875351D01*
X143494029Y-84874879D01*
X143494031Y-84874879D01*
X143566625Y-84869293D01*
X143693300Y-84859546D01*
X143699230Y-84857890D01*
X143699232Y-84857890D01*
X143885797Y-84805800D01*
X143885796Y-84805800D01*
X143891725Y-84804145D01*
X143897214Y-84801372D01*
X143897220Y-84801370D01*
X144070116Y-84714033D01*
X144075610Y-84711258D01*
X144237951Y-84584424D01*
X144372564Y-84428472D01*
X144474323Y-84249344D01*
X144539351Y-84053863D01*
X144565171Y-83849474D01*
X144565583Y-83820000D01*
X144545480Y-83614970D01*
X144485935Y-83417749D01*
X144389218Y-83235849D01*
X144309446Y-83138039D01*
X144262906Y-83080975D01*
X144262903Y-83080972D01*
X144259011Y-83076200D01*
X144162122Y-82996046D01*
X144105025Y-82948811D01*
X144105021Y-82948809D01*
X144100275Y-82944882D01*
X143919055Y-82846897D01*
X143722254Y-82785977D01*
X143716129Y-82785333D01*
X143716128Y-82785333D01*
X143523498Y-82765087D01*
X143523496Y-82765087D01*
X143517369Y-82764443D01*
X143430529Y-82772346D01*
X143318342Y-82782555D01*
X143318339Y-82782556D01*
X143312203Y-82783114D01*
X143114572Y-82841280D01*
X143109107Y-82844137D01*
X143042008Y-82879216D01*
X142932002Y-82936726D01*
X142927201Y-82940586D01*
X142927198Y-82940588D01*
X142776254Y-83061950D01*
X142771447Y-83065815D01*
X142639024Y-83223630D01*
X142636056Y-83229028D01*
X142636053Y-83229033D01*
X142555190Y-83376124D01*
X142539776Y-83404162D01*
X142537914Y-83410032D01*
X142521068Y-83463138D01*
X142481405Y-83522022D01*
X142416202Y-83550114D01*
X142346163Y-83538497D01*
X142293523Y-83490857D01*
X142278762Y-83455735D01*
X142261214Y-83385875D01*
X142257894Y-83376124D01*
X142172972Y-83180814D01*
X142168105Y-83171739D01*
X142052426Y-82992926D01*
X142046136Y-82984757D01*
X141902806Y-82827240D01*
X141895273Y-82820215D01*
X141728139Y-82688222D01*
X141719552Y-82682517D01*
X141533117Y-82579599D01*
X141523705Y-82575369D01*
X141322959Y-82504280D01*
X141312988Y-82501646D01*
X141241837Y-82488972D01*
X141228540Y-82490432D01*
X141224000Y-82504989D01*
X141224000Y-85138517D01*
X141228064Y-85152359D01*
X141241478Y-85154393D01*
X141248184Y-85153534D01*
X141258262Y-85151392D01*
X141436745Y-85097844D01*
X141507741Y-85097427D01*
X141567691Y-85135460D01*
X141597563Y-85199866D01*
X141587872Y-85270198D01*
X141562048Y-85307625D01*
X139540273Y-87329401D01*
X139532170Y-87336827D01*
X139503295Y-87361056D01*
X139497782Y-87370605D01*
X139484450Y-87393696D01*
X139478544Y-87402967D01*
X139456935Y-87433827D01*
X139454081Y-87444477D01*
X139452604Y-87447645D01*
X139451412Y-87450921D01*
X139445901Y-87460466D01*
X139439951Y-87494210D01*
X139439359Y-87497569D01*
X139436981Y-87508296D01*
X139427225Y-87544704D01*
X139428186Y-87555689D01*
X139428186Y-87555691D01*
X139430509Y-87582239D01*
X139430989Y-87593221D01*
X139430989Y-91863459D01*
X139410987Y-91931580D01*
X139357331Y-91978073D01*
X139287057Y-91988177D01*
X139219462Y-91955985D01*
X139096087Y-91841938D01*
X138926742Y-91735089D01*
X138921382Y-91732951D01*
X138921379Y-91732949D01*
X138746125Y-91663030D01*
X138740761Y-91660890D01*
X138735101Y-91659764D01*
X138735097Y-91659763D01*
X138550039Y-91622953D01*
X138550037Y-91622953D01*
X138544372Y-91621826D01*
X138538597Y-91621750D01*
X138538593Y-91621750D01*
X138438641Y-91620442D01*
X138344153Y-91619205D01*
X138338456Y-91620184D01*
X138338455Y-91620184D01*
X138152505Y-91652136D01*
X138146808Y-91653115D01*
X137958949Y-91722420D01*
X137786864Y-91824799D01*
X137782524Y-91828605D01*
X137782520Y-91828608D01*
X137731175Y-91873637D01*
X137661986Y-91934315D01*
X137638089Y-91955272D01*
X137573685Y-91985149D01*
X137503352Y-91975463D01*
X137449420Y-91929291D01*
X137429011Y-91860540D01*
X137429011Y-86603505D01*
X137449013Y-86535384D01*
X137465916Y-86514410D01*
X138646215Y-85334111D01*
X138654319Y-85326684D01*
X138674749Y-85309541D01*
X138683194Y-85302455D01*
X138692431Y-85286456D01*
X138702039Y-85269815D01*
X138707945Y-85260544D01*
X138711223Y-85255862D01*
X138729554Y-85229684D01*
X138732408Y-85219034D01*
X138733885Y-85215866D01*
X138735077Y-85212590D01*
X138740588Y-85203045D01*
X138747130Y-85165942D01*
X138749509Y-85155210D01*
X138751063Y-85149410D01*
X138759264Y-85118807D01*
X138756359Y-85085595D01*
X138755979Y-85081257D01*
X138755500Y-85070276D01*
X138755500Y-84996500D01*
X138775502Y-84928379D01*
X138829158Y-84881886D01*
X138881500Y-84870500D01*
X139299748Y-84870500D01*
X139305816Y-84869293D01*
X139346061Y-84861288D01*
X139346062Y-84861288D01*
X139358231Y-84858867D01*
X139424552Y-84814552D01*
X139468867Y-84748231D01*
X139475670Y-84714033D01*
X139479293Y-84695816D01*
X139480500Y-84689748D01*
X139480500Y-84406752D01*
X139500502Y-84338631D01*
X139554158Y-84292138D01*
X139624432Y-84282034D01*
X139689012Y-84311528D01*
X139723243Y-84359348D01*
X139751770Y-84429603D01*
X139756413Y-84438794D01*
X139867694Y-84620388D01*
X139873777Y-84628699D01*
X140013213Y-84789667D01*
X140020580Y-84796883D01*
X140184434Y-84932916D01*
X140192881Y-84938831D01*
X140376756Y-85046279D01*
X140386042Y-85050729D01*
X140585001Y-85126703D01*
X140594899Y-85129579D01*
X140698250Y-85150606D01*
X140712299Y-85149410D01*
X140716000Y-85139065D01*
X140716000Y-82503102D01*
X140712082Y-82489758D01*
X140697806Y-82487771D01*
X140659324Y-82493660D01*
X140649288Y-82496051D01*
X140446868Y-82562212D01*
X140437359Y-82566209D01*
X140248463Y-82664542D01*
X140239738Y-82670036D01*
X140069433Y-82797905D01*
X140061726Y-82804748D01*
X139914590Y-82958717D01*
X139908104Y-82966727D01*
X139788098Y-83142649D01*
X139783000Y-83151623D01*
X139720788Y-83285647D01*
X139673964Y-83339014D01*
X139605720Y-83358595D01*
X139537725Y-83338171D01*
X139491565Y-83284229D01*
X139480500Y-83232597D01*
X139480500Y-82950252D01*
X139468867Y-82891769D01*
X139424552Y-82825448D01*
X139358231Y-82781133D01*
X139346062Y-82778712D01*
X139346061Y-82778712D01*
X139305816Y-82770707D01*
X139299748Y-82769500D01*
X137560252Y-82769500D01*
X137554184Y-82770707D01*
X137513939Y-82778712D01*
X137513938Y-82778712D01*
X137501769Y-82781133D01*
X137435448Y-82825448D01*
X137391133Y-82891769D01*
X137379500Y-82950252D01*
X137379500Y-84689748D01*
X137380707Y-84695816D01*
X137384331Y-84714033D01*
X137391133Y-84748231D01*
X137435448Y-84814552D01*
X137501769Y-84858867D01*
X137513938Y-84861288D01*
X137513939Y-84861288D01*
X137554184Y-84869293D01*
X137560252Y-84870500D01*
X137884984Y-84870500D01*
X137953105Y-84890502D01*
X137999598Y-84944158D01*
X138009702Y-85014432D01*
X137980208Y-85079012D01*
X137974079Y-85085595D01*
X136887296Y-86172378D01*
X136879192Y-86179805D01*
X136850317Y-86204034D01*
X136844804Y-86213583D01*
X136831472Y-86236674D01*
X136825566Y-86245945D01*
X136803957Y-86276805D01*
X136801103Y-86287455D01*
X136799626Y-86290623D01*
X136798434Y-86293899D01*
X136792923Y-86303444D01*
X136786973Y-86337188D01*
X136786381Y-86340547D01*
X136784003Y-86351274D01*
X136774247Y-86387682D01*
X136775208Y-86398667D01*
X136775208Y-86398669D01*
X136777531Y-86425217D01*
X136778011Y-86436199D01*
X136778011Y-91759023D01*
X136758009Y-91827144D01*
X136704353Y-91873637D01*
X136634079Y-91883741D01*
X136566484Y-91851549D01*
X136556087Y-91841938D01*
X136386742Y-91735089D01*
X136381382Y-91732951D01*
X136381379Y-91732949D01*
X136206125Y-91663030D01*
X136200761Y-91660890D01*
X136195101Y-91659764D01*
X136195097Y-91659763D01*
X136010039Y-91622953D01*
X136010037Y-91622953D01*
X136004372Y-91621826D01*
X135998597Y-91621750D01*
X135998593Y-91621750D01*
X135898641Y-91620442D01*
X135804153Y-91619205D01*
X135798456Y-91620184D01*
X135798455Y-91620184D01*
X135612505Y-91652136D01*
X135606808Y-91653115D01*
X135418949Y-91722420D01*
X135246864Y-91824799D01*
X135242524Y-91828605D01*
X135242520Y-91828608D01*
X135176999Y-91886069D01*
X135096319Y-91956824D01*
X134972354Y-92114073D01*
X134969663Y-92119189D01*
X134969661Y-92119191D01*
X134893861Y-92263263D01*
X134879121Y-92291280D01*
X134877407Y-92296800D01*
X134821751Y-92476041D01*
X134819742Y-92482510D01*
X134796207Y-92681358D01*
X134809303Y-92881166D01*
X134858592Y-93075241D01*
X134942423Y-93257084D01*
X134945756Y-93261800D01*
X134999072Y-93337240D01*
X135057988Y-93420605D01*
X135201418Y-93560328D01*
X135367908Y-93671574D01*
X135373211Y-93673852D01*
X135373214Y-93673854D01*
X135445088Y-93704733D01*
X135551883Y-93750616D01*
X135747182Y-93794807D01*
X135752956Y-93795034D01*
X135752957Y-93795034D01*
X135794134Y-93796652D01*
X135947264Y-93802668D01*
X136145428Y-93773936D01*
X136150892Y-93772081D01*
X136150897Y-93772080D01*
X136329570Y-93711428D01*
X136335038Y-93709572D01*
X136509744Y-93611733D01*
X136571444Y-93560418D01*
X136636605Y-93532238D01*
X136706661Y-93543761D01*
X136759365Y-93591330D01*
X136778011Y-93657293D01*
X136778011Y-93849473D01*
X136758009Y-93917594D01*
X136741106Y-93938568D01*
X136458188Y-94221486D01*
X136395876Y-94255512D01*
X136322405Y-94249421D01*
X136200761Y-94200890D01*
X136195101Y-94199764D01*
X136195097Y-94199763D01*
X136010039Y-94162953D01*
X136010037Y-94162953D01*
X136004372Y-94161826D01*
X135998597Y-94161750D01*
X135998593Y-94161750D01*
X135898641Y-94160442D01*
X135804153Y-94159205D01*
X135798456Y-94160184D01*
X135798455Y-94160184D01*
X135652847Y-94185204D01*
X135606808Y-94193115D01*
X135418949Y-94262420D01*
X135246864Y-94364799D01*
X135242524Y-94368605D01*
X135242520Y-94368608D01*
X135133986Y-94463791D01*
X135096319Y-94496824D01*
X134972354Y-94654073D01*
X134969666Y-94659183D01*
X134969661Y-94659191D01*
X134956882Y-94683480D01*
X134879121Y-94831280D01*
X134819742Y-95022510D01*
X134796207Y-95221358D01*
X134809303Y-95421166D01*
X134858592Y-95615241D01*
X134942423Y-95797084D01*
X135057988Y-95960605D01*
X135062130Y-95964640D01*
X135134085Y-96034735D01*
X135168923Y-96096596D01*
X135164786Y-96167472D01*
X135122987Y-96224860D01*
X135056797Y-96250540D01*
X135046164Y-96250989D01*
X134198947Y-96250989D01*
X134130826Y-96230987D01*
X134084333Y-96177331D01*
X134074229Y-96107057D01*
X134103723Y-96042477D01*
X134118381Y-96028113D01*
X134119254Y-96027387D01*
X134119256Y-96027385D01*
X134123694Y-96023694D01*
X134251733Y-95869744D01*
X134349572Y-95695038D01*
X134374878Y-95620488D01*
X134412080Y-95510897D01*
X134412081Y-95510892D01*
X134413936Y-95505428D01*
X134442668Y-95307264D01*
X134444168Y-95250000D01*
X134425846Y-95050604D01*
X134371494Y-94857885D01*
X134282932Y-94678299D01*
X134264842Y-94654073D01*
X134166582Y-94522489D01*
X134163125Y-94517859D01*
X134016087Y-94381938D01*
X133846742Y-94275089D01*
X133841382Y-94272951D01*
X133841379Y-94272949D01*
X133666125Y-94203030D01*
X133666122Y-94203029D01*
X133660761Y-94200890D01*
X133655101Y-94199764D01*
X133655097Y-94199763D01*
X133470039Y-94162953D01*
X133470037Y-94162953D01*
X133464372Y-94161826D01*
X133458597Y-94161750D01*
X133458593Y-94161750D01*
X133358641Y-94160442D01*
X133264153Y-94159205D01*
X133258456Y-94160184D01*
X133258455Y-94160184D01*
X133112847Y-94185204D01*
X133066808Y-94193115D01*
X132878949Y-94262420D01*
X132706864Y-94364799D01*
X132702524Y-94368605D01*
X132702520Y-94368608D01*
X132593986Y-94463791D01*
X132556319Y-94496824D01*
X132432354Y-94654073D01*
X132429666Y-94659183D01*
X132429661Y-94659191D01*
X132416882Y-94683480D01*
X132339121Y-94831280D01*
X132279742Y-95022510D01*
X132256207Y-95221358D01*
X132269303Y-95421166D01*
X132318592Y-95615241D01*
X132402423Y-95797084D01*
X132517988Y-95960605D01*
X132522130Y-95964640D01*
X132594085Y-96034735D01*
X132628923Y-96096596D01*
X132624786Y-96167472D01*
X132582987Y-96224860D01*
X132516797Y-96250540D01*
X132506164Y-96250989D01*
X131658947Y-96250989D01*
X131590826Y-96230987D01*
X131544333Y-96177331D01*
X131534229Y-96107057D01*
X131563723Y-96042477D01*
X131578381Y-96028113D01*
X131579254Y-96027387D01*
X131579256Y-96027385D01*
X131583694Y-96023694D01*
X131711733Y-95869744D01*
X131809572Y-95695038D01*
X131834878Y-95620488D01*
X131872080Y-95510897D01*
X131872081Y-95510892D01*
X131873936Y-95505428D01*
X131902668Y-95307264D01*
X131904168Y-95250000D01*
X131885846Y-95050604D01*
X131831494Y-94857885D01*
X131742932Y-94678299D01*
X131724842Y-94654073D01*
X131626582Y-94522489D01*
X131623125Y-94517859D01*
X131476087Y-94381938D01*
X131306742Y-94275089D01*
X131301382Y-94272951D01*
X131301379Y-94272949D01*
X131126125Y-94203030D01*
X131126122Y-94203029D01*
X131120761Y-94200890D01*
X131115101Y-94199764D01*
X131115097Y-94199763D01*
X130930039Y-94162953D01*
X130930037Y-94162953D01*
X130924372Y-94161826D01*
X130918597Y-94161750D01*
X130918593Y-94161750D01*
X130818641Y-94160442D01*
X130724153Y-94159205D01*
X130718456Y-94160184D01*
X130718455Y-94160184D01*
X130572847Y-94185204D01*
X130526808Y-94193115D01*
X130338949Y-94262420D01*
X130166864Y-94364799D01*
X130162524Y-94368605D01*
X130162520Y-94368608D01*
X130053986Y-94463791D01*
X130016319Y-94496824D01*
X129892354Y-94654073D01*
X129889666Y-94659183D01*
X129889661Y-94659191D01*
X129876882Y-94683480D01*
X129799121Y-94831280D01*
X129739742Y-95022510D01*
X129716207Y-95221358D01*
X129729303Y-95421166D01*
X129778592Y-95615241D01*
X129862423Y-95797084D01*
X129977988Y-95960605D01*
X129982130Y-95964640D01*
X130054085Y-96034735D01*
X130088923Y-96096596D01*
X130084786Y-96167472D01*
X130042987Y-96224860D01*
X129976797Y-96250540D01*
X129966164Y-96250989D01*
X129118947Y-96250989D01*
X129050826Y-96230987D01*
X129004333Y-96177331D01*
X128994229Y-96107057D01*
X129023723Y-96042477D01*
X129038381Y-96028113D01*
X129039254Y-96027387D01*
X129039256Y-96027385D01*
X129043694Y-96023694D01*
X129171733Y-95869744D01*
X129269572Y-95695038D01*
X129294878Y-95620488D01*
X129332080Y-95510897D01*
X129332081Y-95510892D01*
X129333936Y-95505428D01*
X129362668Y-95307264D01*
X129364168Y-95250000D01*
X129345846Y-95050604D01*
X129291494Y-94857885D01*
X129202932Y-94678299D01*
X129184842Y-94654073D01*
X129086582Y-94522489D01*
X129083125Y-94517859D01*
X128936087Y-94381938D01*
X128766742Y-94275089D01*
X128761382Y-94272951D01*
X128761379Y-94272949D01*
X128586125Y-94203030D01*
X128586122Y-94203029D01*
X128580761Y-94200890D01*
X128575101Y-94199764D01*
X128575097Y-94199763D01*
X128390039Y-94162953D01*
X128390037Y-94162953D01*
X128384372Y-94161826D01*
X128378597Y-94161750D01*
X128378593Y-94161750D01*
X128278641Y-94160442D01*
X128184153Y-94159205D01*
X128178456Y-94160184D01*
X128178455Y-94160184D01*
X128032847Y-94185204D01*
X127986808Y-94193115D01*
X127798949Y-94262420D01*
X127626864Y-94364799D01*
X127622524Y-94368605D01*
X127622520Y-94368608D01*
X127513986Y-94463791D01*
X127476319Y-94496824D01*
X127352354Y-94654073D01*
X127349666Y-94659183D01*
X127349661Y-94659191D01*
X127336882Y-94683480D01*
X127259121Y-94831280D01*
X127199742Y-95022510D01*
X127176207Y-95221358D01*
X127189303Y-95421166D01*
X127238592Y-95615241D01*
X127322423Y-95797084D01*
X127437988Y-95960605D01*
X127442130Y-95964640D01*
X127514085Y-96034735D01*
X127548923Y-96096596D01*
X127544786Y-96167472D01*
X127502987Y-96224860D01*
X127436797Y-96250540D01*
X127426164Y-96250989D01*
X126578947Y-96250989D01*
X126510826Y-96230987D01*
X126464333Y-96177331D01*
X126454229Y-96107057D01*
X126483723Y-96042477D01*
X126498381Y-96028113D01*
X126499254Y-96027387D01*
X126499256Y-96027385D01*
X126503694Y-96023694D01*
X126631733Y-95869744D01*
X126729572Y-95695038D01*
X126754878Y-95620488D01*
X126792080Y-95510897D01*
X126792081Y-95510892D01*
X126793936Y-95505428D01*
X126822668Y-95307264D01*
X126824168Y-95250000D01*
X126805846Y-95050604D01*
X126751494Y-94857885D01*
X126662932Y-94678299D01*
X126644842Y-94654073D01*
X126546582Y-94522489D01*
X126543125Y-94517859D01*
X126396087Y-94381938D01*
X126226742Y-94275089D01*
X126221382Y-94272951D01*
X126221377Y-94272948D01*
X126196763Y-94263128D01*
X126140905Y-94219307D01*
X126117605Y-94152243D01*
X126134262Y-94083228D01*
X126185586Y-94034174D01*
X126207249Y-94025413D01*
X126236521Y-94016631D01*
X126246125Y-94012868D01*
X126443138Y-93916352D01*
X126451983Y-93911079D01*
X126507209Y-93871686D01*
X126515609Y-93860987D01*
X126508622Y-93847833D01*
X125742811Y-93082021D01*
X125728868Y-93074408D01*
X125727034Y-93074539D01*
X125720420Y-93078790D01*
X124948221Y-93850990D01*
X124941464Y-93863365D01*
X124946745Y-93870420D01*
X125119846Y-93971571D01*
X125129132Y-93976021D01*
X125260813Y-94026304D01*
X125317316Y-94069291D01*
X125341609Y-94136002D01*
X125325979Y-94205257D01*
X125275388Y-94255067D01*
X125269483Y-94257723D01*
X125269583Y-94257933D01*
X125264365Y-94260422D01*
X125258949Y-94262420D01*
X125086864Y-94364799D01*
X125082524Y-94368605D01*
X125082520Y-94368608D01*
X124973986Y-94463791D01*
X124936319Y-94496824D01*
X124812354Y-94654073D01*
X124809666Y-94659183D01*
X124809661Y-94659191D01*
X124796882Y-94683480D01*
X124719121Y-94831280D01*
X124659742Y-95022510D01*
X124636207Y-95221358D01*
X124649303Y-95421166D01*
X124698592Y-95615241D01*
X124782423Y-95797084D01*
X124897988Y-95960605D01*
X124902130Y-95964640D01*
X124991257Y-96051463D01*
X125041418Y-96100328D01*
X125046215Y-96103534D01*
X125049135Y-96105898D01*
X125089485Y-96164314D01*
X125091847Y-96235271D01*
X125055472Y-96296241D01*
X125032835Y-96312935D01*
X125014891Y-96323295D01*
X124998635Y-96342668D01*
X124990661Y-96352171D01*
X124983235Y-96360274D01*
X114083785Y-107259724D01*
X114075681Y-107267151D01*
X114046806Y-107291380D01*
X114041293Y-107300929D01*
X114027961Y-107324020D01*
X114022055Y-107333291D01*
X114000446Y-107364151D01*
X113997592Y-107374801D01*
X113996115Y-107377969D01*
X113994923Y-107381245D01*
X113989412Y-107390790D01*
X113984149Y-107420640D01*
X113982870Y-107427893D01*
X113980492Y-107438620D01*
X113970736Y-107475028D01*
X113971697Y-107486013D01*
X113971697Y-107486015D01*
X113974020Y-107512563D01*
X113974500Y-107523545D01*
X113974500Y-115635714D01*
X113954498Y-115703835D01*
X113925204Y-115735677D01*
X113871718Y-115776718D01*
X113775464Y-115902159D01*
X113714956Y-116048238D01*
X113694318Y-116205000D01*
X104340500Y-116205000D01*
X104340500Y-92680907D01*
X124328927Y-92680907D01*
X124341557Y-92899932D01*
X124342990Y-92910134D01*
X124391219Y-93124143D01*
X124394302Y-93133983D01*
X124476837Y-93337240D01*
X124481490Y-93346451D01*
X124568098Y-93487780D01*
X124578555Y-93497241D01*
X124587331Y-93493458D01*
X125357979Y-92722811D01*
X125365592Y-92708868D01*
X125365461Y-92707034D01*
X125361210Y-92700420D01*
X124591778Y-91930989D01*
X124580246Y-91924692D01*
X124567964Y-91934315D01*
X124514064Y-92013329D01*
X124508976Y-92022285D01*
X124416611Y-92221270D01*
X124413048Y-92230957D01*
X124354424Y-92442347D01*
X124352493Y-92452468D01*
X124329178Y-92670619D01*
X124328927Y-92680907D01*
X104340500Y-92680907D01*
X104340500Y-88791657D01*
X106432000Y-88791657D01*
X106432301Y-88797805D01*
X106445812Y-88935603D01*
X106448195Y-88947638D01*
X106501767Y-89125076D01*
X106506441Y-89136416D01*
X106593460Y-89300077D01*
X106600249Y-89310294D01*
X106717397Y-89453933D01*
X106726041Y-89462637D01*
X106868856Y-89580784D01*
X106879027Y-89587644D01*
X107042076Y-89675804D01*
X107053381Y-89680556D01*
X107168692Y-89716250D01*
X107182795Y-89716456D01*
X107186000Y-89709701D01*
X107186000Y-89702924D01*
X107694000Y-89702924D01*
X107697973Y-89716455D01*
X107705768Y-89717575D01*
X107813521Y-89685862D01*
X107824889Y-89681269D01*
X107989154Y-89595393D01*
X107999415Y-89588679D01*
X108143873Y-89472532D01*
X108152632Y-89463954D01*
X108271778Y-89321961D01*
X108278708Y-89311841D01*
X108368002Y-89149415D01*
X108372834Y-89138142D01*
X108428880Y-88961462D01*
X108431430Y-88949468D01*
X108447607Y-88805239D01*
X108448000Y-88798215D01*
X108448000Y-88331691D01*
X108468002Y-88263570D01*
X108521658Y-88217077D01*
X108591932Y-88206973D01*
X108622218Y-88215282D01*
X108680618Y-88239472D01*
X108719764Y-88255687D01*
X108832280Y-88270500D01*
X108907720Y-88270500D01*
X109020236Y-88255687D01*
X109160233Y-88197698D01*
X109280451Y-88105451D01*
X109372698Y-87985233D01*
X109430687Y-87845236D01*
X109450466Y-87695000D01*
X114069534Y-87695000D01*
X114089313Y-87845236D01*
X114147302Y-87985233D01*
X114239549Y-88105451D01*
X114359767Y-88197698D01*
X114499764Y-88255687D01*
X114612280Y-88270500D01*
X114687720Y-88270500D01*
X114800236Y-88255687D01*
X114839382Y-88239472D01*
X114897782Y-88215282D01*
X114968372Y-88207693D01*
X115031859Y-88239472D01*
X115068086Y-88300530D01*
X115072000Y-88331691D01*
X115072000Y-88791657D01*
X115072301Y-88797805D01*
X115085812Y-88935603D01*
X115088195Y-88947638D01*
X115141767Y-89125076D01*
X115146441Y-89136416D01*
X115233460Y-89300077D01*
X115240249Y-89310294D01*
X115357397Y-89453933D01*
X115366041Y-89462637D01*
X115508856Y-89580784D01*
X115519027Y-89587644D01*
X115682076Y-89675804D01*
X115693381Y-89680556D01*
X115808692Y-89716250D01*
X115822795Y-89716456D01*
X115826000Y-89709701D01*
X115826000Y-89702924D01*
X116334000Y-89702924D01*
X116337973Y-89716455D01*
X116345768Y-89717575D01*
X116453521Y-89685862D01*
X116464889Y-89681269D01*
X116629154Y-89595393D01*
X116639415Y-89588679D01*
X116706178Y-89535000D01*
X118139318Y-89535000D01*
X118159956Y-89691762D01*
X118220464Y-89837841D01*
X118316718Y-89963282D01*
X118442159Y-90059536D01*
X118588238Y-90120044D01*
X118745000Y-90140682D01*
X118753188Y-90139604D01*
X118893574Y-90121122D01*
X118901762Y-90120044D01*
X119047841Y-90059536D01*
X119173282Y-89963282D01*
X119214323Y-89909796D01*
X119271661Y-89867929D01*
X119314286Y-89860500D01*
X124907984Y-89860500D01*
X124976105Y-89880502D01*
X124997079Y-89897405D01*
X126261487Y-91161813D01*
X126295513Y-91224125D01*
X126290448Y-91294940D01*
X126247901Y-91351776D01*
X126181381Y-91376587D01*
X126130332Y-91369681D01*
X126092950Y-91356443D01*
X126082993Y-91353813D01*
X125867008Y-91315339D01*
X125856757Y-91314370D01*
X125637386Y-91311690D01*
X125627102Y-91312410D01*
X125410251Y-91345592D01*
X125400224Y-91347981D01*
X125191704Y-91416135D01*
X125182195Y-91420132D01*
X124987603Y-91521431D01*
X124978890Y-91526918D01*
X124951819Y-91547244D01*
X124943365Y-91558570D01*
X124950108Y-91570897D01*
X125730000Y-92350790D01*
X126868422Y-93489211D01*
X126880432Y-93495769D01*
X126892170Y-93486801D01*
X126928549Y-93436174D01*
X126933860Y-93427335D01*
X127031056Y-93230675D01*
X127034854Y-93221082D01*
X127046197Y-93183748D01*
X127085138Y-93124384D01*
X127149992Y-93095496D01*
X127220169Y-93106257D01*
X127273387Y-93153250D01*
X127281180Y-93167622D01*
X127322423Y-93257084D01*
X127325756Y-93261800D01*
X127379072Y-93337240D01*
X127437988Y-93420605D01*
X127581418Y-93560328D01*
X127747908Y-93671574D01*
X127753211Y-93673852D01*
X127753214Y-93673854D01*
X127825088Y-93704733D01*
X127931883Y-93750616D01*
X128127182Y-93794807D01*
X128132956Y-93795034D01*
X128132957Y-93795034D01*
X128174134Y-93796652D01*
X128327264Y-93802668D01*
X128525428Y-93773936D01*
X128530892Y-93772081D01*
X128530897Y-93772080D01*
X128709570Y-93711428D01*
X128715038Y-93709572D01*
X128889744Y-93611733D01*
X129043694Y-93483694D01*
X129171733Y-93329744D01*
X129269572Y-93155038D01*
X129295455Y-93078790D01*
X129332080Y-92970897D01*
X129332081Y-92970892D01*
X129333936Y-92965428D01*
X129362668Y-92767264D01*
X129364168Y-92710000D01*
X129361536Y-92681358D01*
X129716207Y-92681358D01*
X129729303Y-92881166D01*
X129778592Y-93075241D01*
X129862423Y-93257084D01*
X129865756Y-93261800D01*
X129919072Y-93337240D01*
X129977988Y-93420605D01*
X130121418Y-93560328D01*
X130287908Y-93671574D01*
X130293211Y-93673852D01*
X130293214Y-93673854D01*
X130365088Y-93704733D01*
X130471883Y-93750616D01*
X130667182Y-93794807D01*
X130672956Y-93795034D01*
X130672957Y-93795034D01*
X130714134Y-93796652D01*
X130867264Y-93802668D01*
X131065428Y-93773936D01*
X131070892Y-93772081D01*
X131070897Y-93772080D01*
X131249570Y-93711428D01*
X131255038Y-93709572D01*
X131429744Y-93611733D01*
X131583694Y-93483694D01*
X131711733Y-93329744D01*
X131809572Y-93155038D01*
X131835455Y-93078790D01*
X131872080Y-92970897D01*
X131872081Y-92970892D01*
X131873936Y-92965428D01*
X131902668Y-92767264D01*
X131904168Y-92710000D01*
X131901536Y-92681358D01*
X132256207Y-92681358D01*
X132269303Y-92881166D01*
X132318592Y-93075241D01*
X132402423Y-93257084D01*
X132405756Y-93261800D01*
X132459072Y-93337240D01*
X132517988Y-93420605D01*
X132661418Y-93560328D01*
X132827908Y-93671574D01*
X132833211Y-93673852D01*
X132833214Y-93673854D01*
X132905088Y-93704733D01*
X133011883Y-93750616D01*
X133207182Y-93794807D01*
X133212956Y-93795034D01*
X133212957Y-93795034D01*
X133254134Y-93796652D01*
X133407264Y-93802668D01*
X133605428Y-93773936D01*
X133610892Y-93772081D01*
X133610897Y-93772080D01*
X133789570Y-93711428D01*
X133795038Y-93709572D01*
X133969744Y-93611733D01*
X134123694Y-93483694D01*
X134251733Y-93329744D01*
X134349572Y-93155038D01*
X134375455Y-93078790D01*
X134412080Y-92970897D01*
X134412081Y-92970892D01*
X134413936Y-92965428D01*
X134442668Y-92767264D01*
X134444168Y-92710000D01*
X134425846Y-92510604D01*
X134371494Y-92317885D01*
X134282932Y-92138299D01*
X134264842Y-92114073D01*
X134211952Y-92043246D01*
X134163125Y-91977859D01*
X134113061Y-91931580D01*
X134020328Y-91845858D01*
X134020326Y-91845856D01*
X134016087Y-91841938D01*
X133846742Y-91735089D01*
X133841382Y-91732951D01*
X133841379Y-91732949D01*
X133666125Y-91663030D01*
X133660761Y-91660890D01*
X133655101Y-91659764D01*
X133655097Y-91659763D01*
X133470039Y-91622953D01*
X133470037Y-91622953D01*
X133464372Y-91621826D01*
X133458597Y-91621750D01*
X133458593Y-91621750D01*
X133358641Y-91620442D01*
X133264153Y-91619205D01*
X133258456Y-91620184D01*
X133258455Y-91620184D01*
X133072505Y-91652136D01*
X133066808Y-91653115D01*
X132878949Y-91722420D01*
X132706864Y-91824799D01*
X132702524Y-91828605D01*
X132702520Y-91828608D01*
X132636999Y-91886069D01*
X132556319Y-91956824D01*
X132432354Y-92114073D01*
X132429663Y-92119189D01*
X132429661Y-92119191D01*
X132353861Y-92263263D01*
X132339121Y-92291280D01*
X132337407Y-92296800D01*
X132281751Y-92476041D01*
X132279742Y-92482510D01*
X132256207Y-92681358D01*
X131901536Y-92681358D01*
X131885846Y-92510604D01*
X131831494Y-92317885D01*
X131742932Y-92138299D01*
X131724842Y-92114073D01*
X131671952Y-92043246D01*
X131623125Y-91977859D01*
X131573061Y-91931580D01*
X131480328Y-91845858D01*
X131480326Y-91845856D01*
X131476087Y-91841938D01*
X131306742Y-91735089D01*
X131301382Y-91732951D01*
X131301379Y-91732949D01*
X131126125Y-91663030D01*
X131120761Y-91660890D01*
X131115101Y-91659764D01*
X131115097Y-91659763D01*
X130930039Y-91622953D01*
X130930037Y-91622953D01*
X130924372Y-91621826D01*
X130918597Y-91621750D01*
X130918593Y-91621750D01*
X130818641Y-91620442D01*
X130724153Y-91619205D01*
X130718456Y-91620184D01*
X130718455Y-91620184D01*
X130532505Y-91652136D01*
X130526808Y-91653115D01*
X130338949Y-91722420D01*
X130166864Y-91824799D01*
X130162524Y-91828605D01*
X130162520Y-91828608D01*
X130096999Y-91886069D01*
X130016319Y-91956824D01*
X129892354Y-92114073D01*
X129889663Y-92119189D01*
X129889661Y-92119191D01*
X129813861Y-92263263D01*
X129799121Y-92291280D01*
X129797407Y-92296800D01*
X129741751Y-92476041D01*
X129739742Y-92482510D01*
X129716207Y-92681358D01*
X129361536Y-92681358D01*
X129345846Y-92510604D01*
X129291494Y-92317885D01*
X129202932Y-92138299D01*
X129184842Y-92114073D01*
X129131952Y-92043246D01*
X129083125Y-91977859D01*
X129033061Y-91931580D01*
X128940328Y-91845858D01*
X128940326Y-91845856D01*
X128936087Y-91841938D01*
X128766742Y-91735089D01*
X128761382Y-91732951D01*
X128761379Y-91732949D01*
X128586125Y-91663030D01*
X128580761Y-91660890D01*
X128575101Y-91659764D01*
X128575097Y-91659763D01*
X128390039Y-91622953D01*
X128390037Y-91622953D01*
X128384372Y-91621826D01*
X128378597Y-91621750D01*
X128378593Y-91621750D01*
X128278641Y-91620442D01*
X128184153Y-91619205D01*
X128178456Y-91620184D01*
X128178455Y-91620184D01*
X127992505Y-91652136D01*
X127986808Y-91653115D01*
X127833563Y-91709650D01*
X127762732Y-91714462D01*
X127700859Y-91680533D01*
X125339111Y-89318785D01*
X125331684Y-89310681D01*
X125314541Y-89290251D01*
X125314542Y-89290251D01*
X125307455Y-89281806D01*
X125297906Y-89276293D01*
X125274815Y-89262961D01*
X125265544Y-89257055D01*
X125243715Y-89241770D01*
X125234684Y-89235446D01*
X125224034Y-89232592D01*
X125220866Y-89231115D01*
X125217590Y-89229923D01*
X125208045Y-89224412D01*
X125174301Y-89218462D01*
X125170942Y-89217870D01*
X125160215Y-89215492D01*
X125123807Y-89205736D01*
X125112822Y-89206697D01*
X125112820Y-89206697D01*
X125086272Y-89209020D01*
X125075290Y-89209500D01*
X119314286Y-89209500D01*
X119246165Y-89189498D01*
X119214323Y-89160204D01*
X119178305Y-89113264D01*
X119173282Y-89106718D01*
X119047841Y-89010464D01*
X118901762Y-88949956D01*
X118745000Y-88929318D01*
X118588238Y-88949956D01*
X118442159Y-89010464D01*
X118316718Y-89106718D01*
X118220464Y-89232159D01*
X118159956Y-89378238D01*
X118139318Y-89535000D01*
X116706178Y-89535000D01*
X116783873Y-89472532D01*
X116792632Y-89463954D01*
X116911778Y-89321961D01*
X116918708Y-89311841D01*
X117008002Y-89149415D01*
X117012834Y-89138142D01*
X117068880Y-88961462D01*
X117071430Y-88949468D01*
X117087607Y-88805239D01*
X117088000Y-88798215D01*
X117088000Y-88467115D01*
X117083525Y-88451876D01*
X117082135Y-88450671D01*
X117074452Y-88449000D01*
X116352115Y-88449000D01*
X116336876Y-88453475D01*
X116335671Y-88454865D01*
X116334000Y-88462548D01*
X116334000Y-89702924D01*
X115826000Y-89702924D01*
X115826000Y-87922885D01*
X116334000Y-87922885D01*
X116338475Y-87938124D01*
X116339865Y-87939329D01*
X116347548Y-87941000D01*
X117069885Y-87941000D01*
X117085124Y-87936525D01*
X117086329Y-87935135D01*
X117088000Y-87927452D01*
X117088000Y-87598343D01*
X117087699Y-87592195D01*
X117074188Y-87454397D01*
X117071805Y-87442362D01*
X117018233Y-87264924D01*
X117013559Y-87253584D01*
X116926540Y-87089923D01*
X116919751Y-87079706D01*
X116802603Y-86936067D01*
X116793959Y-86927363D01*
X116651144Y-86809216D01*
X116640973Y-86802356D01*
X116477924Y-86714196D01*
X116466619Y-86709444D01*
X116351308Y-86673750D01*
X116337205Y-86673544D01*
X116334000Y-86680299D01*
X116334000Y-87922885D01*
X115826000Y-87922885D01*
X115826000Y-86687076D01*
X115822027Y-86673545D01*
X115814232Y-86672425D01*
X115706479Y-86704138D01*
X115695111Y-86708731D01*
X115530846Y-86794607D01*
X115520585Y-86801321D01*
X115376127Y-86917468D01*
X115367368Y-86926046D01*
X115248222Y-87068039D01*
X115241292Y-87078159D01*
X115178534Y-87192316D01*
X115128189Y-87242375D01*
X115058772Y-87257268D01*
X114991419Y-87231578D01*
X114940233Y-87192302D01*
X114800236Y-87134313D01*
X114687720Y-87119500D01*
X114612280Y-87119500D01*
X114499764Y-87134313D01*
X114359767Y-87192302D01*
X114239549Y-87284549D01*
X114147302Y-87404767D01*
X114089313Y-87544764D01*
X114069534Y-87695000D01*
X109450466Y-87695000D01*
X109430687Y-87544764D01*
X109372698Y-87404767D01*
X109280451Y-87284549D01*
X109160233Y-87192302D01*
X109020236Y-87134313D01*
X108907720Y-87119500D01*
X108832280Y-87119500D01*
X108719764Y-87134313D01*
X108579767Y-87192302D01*
X108573217Y-87197328D01*
X108573214Y-87197330D01*
X108528251Y-87231832D01*
X108462031Y-87257433D01*
X108392482Y-87243169D01*
X108340295Y-87191023D01*
X108286540Y-87089923D01*
X108279751Y-87079706D01*
X108162603Y-86936067D01*
X108153959Y-86927363D01*
X108011144Y-86809216D01*
X108000973Y-86802356D01*
X107837924Y-86714196D01*
X107826619Y-86709444D01*
X107711308Y-86673750D01*
X107697205Y-86673544D01*
X107694000Y-86680299D01*
X107694000Y-89702924D01*
X107186000Y-89702924D01*
X107186000Y-88467115D01*
X107181525Y-88451876D01*
X107180135Y-88450671D01*
X107172452Y-88449000D01*
X106450115Y-88449000D01*
X106434876Y-88453475D01*
X106433671Y-88454865D01*
X106432000Y-88462548D01*
X106432000Y-88791657D01*
X104340500Y-88791657D01*
X104340500Y-87922885D01*
X106432000Y-87922885D01*
X106436475Y-87938124D01*
X106437865Y-87939329D01*
X106445548Y-87941000D01*
X107167885Y-87941000D01*
X107183124Y-87936525D01*
X107184329Y-87935135D01*
X107186000Y-87927452D01*
X107186000Y-86687076D01*
X107182027Y-86673545D01*
X107174232Y-86672425D01*
X107066479Y-86704138D01*
X107055111Y-86708731D01*
X106890846Y-86794607D01*
X106880585Y-86801321D01*
X106736127Y-86917468D01*
X106727368Y-86926046D01*
X106608222Y-87068039D01*
X106601292Y-87078159D01*
X106511998Y-87240585D01*
X106507166Y-87251858D01*
X106451120Y-87428538D01*
X106448570Y-87440532D01*
X106432393Y-87584761D01*
X106432000Y-87591785D01*
X106432000Y-87922885D01*
X104340500Y-87922885D01*
X104340500Y-84361657D01*
X106432000Y-84361657D01*
X106432301Y-84367805D01*
X106445812Y-84505603D01*
X106448195Y-84517638D01*
X106501767Y-84695076D01*
X106506441Y-84706416D01*
X106593460Y-84870077D01*
X106600249Y-84880294D01*
X106717397Y-85023933D01*
X106726041Y-85032637D01*
X106868856Y-85150784D01*
X106879027Y-85157644D01*
X107042076Y-85245804D01*
X107053381Y-85250556D01*
X107168692Y-85286250D01*
X107182795Y-85286456D01*
X107186000Y-85279701D01*
X107186000Y-85272924D01*
X107694000Y-85272924D01*
X107697973Y-85286455D01*
X107705768Y-85287575D01*
X107813521Y-85255862D01*
X107824889Y-85251269D01*
X107989154Y-85165393D01*
X107999415Y-85158679D01*
X108143873Y-85042532D01*
X108152632Y-85033954D01*
X108271778Y-84891961D01*
X108278708Y-84881841D01*
X108368002Y-84719415D01*
X108372834Y-84708142D01*
X108428880Y-84531462D01*
X108431430Y-84519468D01*
X108447607Y-84375239D01*
X108448000Y-84368215D01*
X108448000Y-84361657D01*
X115072000Y-84361657D01*
X115072301Y-84367805D01*
X115085812Y-84505603D01*
X115088195Y-84517638D01*
X115141767Y-84695076D01*
X115146441Y-84706416D01*
X115233460Y-84870077D01*
X115240249Y-84880294D01*
X115357397Y-85023933D01*
X115366041Y-85032637D01*
X115508856Y-85150784D01*
X115519027Y-85157644D01*
X115682076Y-85245804D01*
X115693381Y-85250556D01*
X115808692Y-85286250D01*
X115822795Y-85286456D01*
X115826000Y-85279701D01*
X115826000Y-85272924D01*
X116334000Y-85272924D01*
X116337973Y-85286455D01*
X116345768Y-85287575D01*
X116453521Y-85255862D01*
X116464889Y-85251269D01*
X116629154Y-85165393D01*
X116639415Y-85158679D01*
X116783873Y-85042532D01*
X116792632Y-85033954D01*
X116911778Y-84891961D01*
X116918708Y-84881841D01*
X117008002Y-84719415D01*
X117012834Y-84708142D01*
X117068880Y-84531462D01*
X117071430Y-84519468D01*
X117087607Y-84375239D01*
X117088000Y-84368215D01*
X117088000Y-84287115D01*
X117083525Y-84271876D01*
X117082135Y-84270671D01*
X117074452Y-84269000D01*
X116352115Y-84269000D01*
X116336876Y-84273475D01*
X116335671Y-84274865D01*
X116334000Y-84282548D01*
X116334000Y-85272924D01*
X115826000Y-85272924D01*
X115826000Y-84287115D01*
X115821525Y-84271876D01*
X115820135Y-84270671D01*
X115812452Y-84269000D01*
X115090115Y-84269000D01*
X115074876Y-84273475D01*
X115073671Y-84274865D01*
X115072000Y-84282548D01*
X115072000Y-84361657D01*
X108448000Y-84361657D01*
X108448000Y-84287115D01*
X108443525Y-84271876D01*
X108442135Y-84270671D01*
X108434452Y-84269000D01*
X107712115Y-84269000D01*
X107696876Y-84273475D01*
X107695671Y-84274865D01*
X107694000Y-84282548D01*
X107694000Y-85272924D01*
X107186000Y-85272924D01*
X107186000Y-84287115D01*
X107181525Y-84271876D01*
X107180135Y-84270671D01*
X107172452Y-84269000D01*
X106450115Y-84269000D01*
X106434876Y-84273475D01*
X106433671Y-84274865D01*
X106432000Y-84282548D01*
X106432000Y-84361657D01*
X104340500Y-84361657D01*
X104340500Y-83742885D01*
X106432000Y-83742885D01*
X106436475Y-83758124D01*
X106437865Y-83759329D01*
X106445548Y-83761000D01*
X107167885Y-83761000D01*
X107183124Y-83756525D01*
X107184329Y-83755135D01*
X107186000Y-83747452D01*
X107186000Y-83742885D01*
X107694000Y-83742885D01*
X107698475Y-83758124D01*
X107699865Y-83759329D01*
X107707548Y-83761000D01*
X108429885Y-83761000D01*
X108445124Y-83756525D01*
X108446329Y-83755135D01*
X108448000Y-83747452D01*
X108448000Y-83742885D01*
X115072000Y-83742885D01*
X115076475Y-83758124D01*
X115077865Y-83759329D01*
X115085548Y-83761000D01*
X115807885Y-83761000D01*
X115823124Y-83756525D01*
X115824329Y-83755135D01*
X115826000Y-83747452D01*
X115826000Y-83742885D01*
X116334000Y-83742885D01*
X116338475Y-83758124D01*
X116339865Y-83759329D01*
X116347548Y-83761000D01*
X117069885Y-83761000D01*
X117085124Y-83756525D01*
X117086329Y-83755135D01*
X117088000Y-83747452D01*
X117088000Y-83668343D01*
X117087699Y-83662195D01*
X117074188Y-83524397D01*
X117071805Y-83512362D01*
X117018233Y-83334924D01*
X117013559Y-83323584D01*
X116926540Y-83159923D01*
X116919751Y-83149706D01*
X116802603Y-83006067D01*
X116793959Y-82997363D01*
X116651144Y-82879216D01*
X116640973Y-82872356D01*
X116477924Y-82784196D01*
X116466619Y-82779444D01*
X116351308Y-82743750D01*
X116337205Y-82743544D01*
X116334000Y-82750299D01*
X116334000Y-83742885D01*
X115826000Y-83742885D01*
X115826000Y-82757076D01*
X115822027Y-82743545D01*
X115814232Y-82742425D01*
X115706479Y-82774138D01*
X115695111Y-82778731D01*
X115530846Y-82864607D01*
X115520585Y-82871321D01*
X115376127Y-82987468D01*
X115367368Y-82996046D01*
X115248222Y-83138039D01*
X115241292Y-83148159D01*
X115151998Y-83310585D01*
X115147166Y-83321858D01*
X115091120Y-83498538D01*
X115088570Y-83510532D01*
X115072393Y-83654761D01*
X115072000Y-83661785D01*
X115072000Y-83742885D01*
X108448000Y-83742885D01*
X108448000Y-83668343D01*
X108447699Y-83662195D01*
X108434188Y-83524397D01*
X108431805Y-83512362D01*
X108378233Y-83334924D01*
X108373559Y-83323584D01*
X108286540Y-83159923D01*
X108279751Y-83149706D01*
X108162603Y-83006067D01*
X108153959Y-82997363D01*
X108011144Y-82879216D01*
X108000973Y-82872356D01*
X107837924Y-82784196D01*
X107826619Y-82779444D01*
X107711308Y-82743750D01*
X107697205Y-82743544D01*
X107694000Y-82750299D01*
X107694000Y-83742885D01*
X107186000Y-83742885D01*
X107186000Y-82757076D01*
X107182027Y-82743545D01*
X107174232Y-82742425D01*
X107066479Y-82774138D01*
X107055111Y-82778731D01*
X106890846Y-82864607D01*
X106880585Y-82871321D01*
X106736127Y-82987468D01*
X106727368Y-82996046D01*
X106608222Y-83138039D01*
X106601292Y-83148159D01*
X106511998Y-83310585D01*
X106507166Y-83321858D01*
X106451120Y-83498538D01*
X106448570Y-83510532D01*
X106432393Y-83654761D01*
X106432000Y-83661785D01*
X106432000Y-83742885D01*
X104340500Y-83742885D01*
X104340500Y-81606500D01*
X104360502Y-81538379D01*
X104414158Y-81491886D01*
X104466500Y-81480500D01*
X164773500Y-81480500D01*
X164841621Y-81500502D01*
G37*
%TD.AperFunction*%
%TD*%
M02*
